<svg width="7" height="11" viewBox="0 0 7 11" fill="none" xmlns="http://www.w3.org/2000/svg">
<path fill-rule="evenodd" clip-rule="evenodd" d="M6.10918 5.90897C6.10918 6.16962 6.0094 6.43027 5.81086 6.62881L1.73824 10.7014C1.34015 11.0995 0.696672 11.0995 0.298574 10.7014C-0.0995246 10.3033 -0.0995246 9.65985 0.298574 9.26176L3.66357 5.89676L0.425843 2.54397C0.0358899 2.13773 0.0470896 1.49528 0.451297 1.10431C0.855504 0.713334 1.50101 0.724534 1.89097 1.12874L5.82308 5.20136C6.01449 5.3999 6.10918 5.65444 6.10918 5.90897Z" fill="#8F9BB3"/>
<mask id="mask0_7_2684" style="mask-type:alpha" maskUnits="userSpaceOnUse" x="0" y="0" width="7" height="11">
<path fill-rule="evenodd" clip-rule="evenodd" d="M6.10918 5.90897C6.10918 6.16962 6.0094 6.43027 5.81086 6.62881L1.73824 10.7014C1.34015 11.0995 0.696672 11.0995 0.298574 10.7014C-0.0995246 10.3033 -0.0995246 9.65985 0.298574 9.26176L3.66357 5.89676L0.425843 2.54397C0.0358899 2.13773 0.0470896 1.49528 0.451297 1.10431C0.855504 0.713334 1.50101 0.724534 1.89097 1.12874L5.82308 5.20136C6.01449 5.3999 6.10918 5.65444 6.10918 5.90897Z" fill="white"/>
</mask>
<g mask="url(#mask0_7_2684)">
</g>
</svg>
