<svg width="186" height="186" viewBox="0 0 186 186" fill="none" xmlns="http://www.w3.org/2000/svg">
<g clip-path="url(#clip0_20_566)">
<path d="M161.284 50.1464C161.284 68.8294 128.734 106.196 128.734 106.196C128.734 106.196 97.3467 68.8294 97.3467 50.1464C98.5092 32.7089 112.459 19.008 129.897 19.008C146.172 19.008 160.122 32.7089 161.284 50.1464Z" fill="white"/>
<path fill-rule="evenodd" clip-rule="evenodd" d="M38.6113 18.5929H119.986C121.557 18.5929 123.054 18.9042 124.42 19.4684C109.616 21.9892 98.3856 34.5788 97.3477 50.1465C97.3477 68.8295 128.735 106.196 128.735 106.196C128.735 106.196 129.827 104.942 131.611 102.779V158.093C131.611 164.513 126.407 169.718 119.986 169.718H38.6113C32.191 169.718 26.9863 164.513 26.9863 158.093V30.2179C26.9863 23.7976 32.191 18.5929 38.6113 18.5929Z" fill="#E8D5E8"/>
<path d="M159.785 48.6351C159.785 67.3181 127.235 104.684 127.235 104.684C127.235 104.684 95.8472 67.3181 95.8472 48.6351C97.0097 31.1976 110.96 17.4967 128.397 17.4967C144.672 17.4967 158.622 31.1976 159.785 48.6351Z" stroke="#222B45" stroke-width="5.5" stroke-linecap="round" stroke-linejoin="round"/>
<path d="M128.306 51.4348C125.578 51.4348 123.368 49.066 123.368 46.144C123.368 43.2219 125.578 40.8533 128.306 40.8533" stroke="#222B45" stroke-width="4.5" stroke-linecap="round" stroke-linejoin="round"/>
<path d="M128.303 51.4348C131.031 51.4348 133.241 49.066 133.241 46.144C133.241 43.2219 131.031 40.8533 128.303 40.8533" stroke="#222B45" stroke-width="4.5" stroke-linecap="round" stroke-linejoin="round"/>
<path d="M69.2164 17.0816H37.2476C30.8272 17.0816 25.6226 22.2863 25.6226 28.7066V156.582C25.6226 163.002 30.8272 168.207 37.2476 168.207H118.623C125.043 168.207 130.248 163.002 130.248 156.582V127.519" stroke="#222B45" stroke-width="5.5" stroke-linecap="round" stroke-linejoin="round"/>
<path d="M72.1226 139.26H83.7476" stroke="#222B45" stroke-width="5.5" stroke-linecap="round" stroke-linejoin="round"/>
</g>
<defs>
<clipPath id="clip0_20_566">
<rect width="186" height="186" fill="white"/>
</clipPath>
</defs>
</svg>
