<svg width="24" height="24" viewBox="0 0 24 24" fill="none" xmlns="http://www.w3.org/2000/svg">
<g clip-path="url(#clip0_18_9600)">
<path d="M5.56494 12.9939L11.9999 17.005L18.4349 12.9939V4.135C18.4349 3.75574 18.2842 3.39202 18.0161 3.12384C17.748 2.85566 17.3842 2.705 17.0049 2.705H6.99494C6.61568 2.705 6.25196 2.85566 5.98377 3.12384C5.71561 3.39202 5.56494 3.75574 5.56494 4.135V12.9939Z" fill="white"/>
<path d="M20.5799 19.865V11.6568L11.9999 17.005L3.41992 11.6568V19.865C3.41992 20.2442 3.57059 20.608 3.83875 20.8762C4.10694 21.1443 4.47066 21.295 4.84992 21.295H19.1499C19.5292 21.295 19.893 21.1443 20.1611 20.8762C20.4292 20.608 20.5799 20.2442 20.5799 19.865Z" fill="#E8D5E8"/>
<path d="M20.5799 10.57V19.865C20.5799 20.2442 20.4292 20.608 20.1611 20.8762C19.8929 21.1443 19.5292 21.295 19.1499 21.295H4.84992C4.47066 21.295 4.10694 21.1443 3.83875 20.8762C3.57059 20.608 3.41992 20.2442 3.41992 19.865V10.57" stroke="#222B45" stroke-width="1.43" stroke-linecap="round" stroke-linejoin="round"/>
<path d="M3.41992 11.6568L11.9999 17.005L20.5799 11.6568" stroke="#222B45" stroke-width="1.43" stroke-linecap="round" stroke-linejoin="round"/>
<path d="M5.56494 9.14V4.135C5.56494 3.75574 5.71561 3.39202 5.98377 3.12384C6.25196 2.85566 6.61568 2.705 6.99494 2.705H17.0049C17.3842 2.705 17.748 2.85566 18.0161 3.12384C18.2842 3.39202 18.4349 3.75574 18.4349 4.135V9.14" stroke="#222B45" stroke-width="1.43" stroke-linecap="round" stroke-linejoin="round"/>
<path d="M9.85498 6.995H14.145" stroke="#222B45" stroke-width="1.43" stroke-linecap="round" stroke-linejoin="round"/>
<path d="M9.85498 10.57H14.145" stroke="#222B45" stroke-width="1.43" stroke-linecap="round" stroke-linejoin="round"/>
</g>
<defs>
<clipPath id="clip0_18_9600">
<rect width="24" height="24" fill="white"/>
</clipPath>
</defs>
</svg>
