<svg width="24" height="24" viewBox="0 0 24 24" fill="none" xmlns="http://www.w3.org/2000/svg">
<g clip-path="url(#clip0_18_9590)">
<path d="M17.1646 9.27637C17.1646 12.128 14.8518 14.4408 12.0001 14.4408C9.14846 14.4408 6.83569 12.128 6.83569 9.27637V3.12395L17.1646 4.35892V9.27637Z" fill="white"/>
<path d="M20.3306 21.8282C18.669 18.9316 15.5703 16.9781 12.0001 16.9781C8.42994 16.9781 5.33128 18.9316 3.66968 21.8282L3.69213 22.5916H20.3082L20.3306 21.8282Z" fill="#E8D5E8"/>
<path d="M3.66954 22.5018C3.55727 22.5018 3.44499 22.4794 3.33272 22.412C3.01837 22.2324 2.9061 21.8282 3.08573 21.4914C4.90451 18.3029 8.31753 16.3045 12 16.3045C15.6825 16.3045 19.0955 18.3029 20.9143 21.4914C21.0939 21.8057 20.9816 22.2324 20.6673 22.412C20.3529 22.5916 19.9263 22.4794 19.7467 22.165C18.1524 19.3807 15.1885 17.6517 12 17.6517C8.81152 17.6517 5.84758 19.3807 4.25334 22.165C4.14107 22.3671 3.91653 22.5018 3.66954 22.5018ZM15.0538 2.40542L14.9639 2.2707C14.3128 1.35008 13.235 0.788727 12.1123 0.788727H10.2037C7.35201 0.788727 5.03924 3.1015 5.03924 5.95317C5.03924 6.33489 5.33114 6.62679 5.71286 6.62679H6.88047C6.90292 6.62679 6.90292 6.62679 6.92538 6.62679C9.5076 6.62679 12.1347 6.62679 14.0209 4.94273V4.96519C14.1107 4.87537 14.2005 4.80801 14.2679 4.71819C14.5149 4.44874 14.9415 4.40383 15.2109 4.65083C15.5028 4.89782 15.5253 5.34691 15.2558 5.63881C15.1436 5.75108 15.0538 5.8409 14.9415 5.95317C14.6496 6.24507 14.7619 6.73906 15.1436 6.89624C15.3681 6.98605 15.6151 7.03096 15.8621 7.05342C16.1989 7.09832 16.4684 7.36777 16.4684 7.72704V9.25392C16.4684 11.634 14.672 13.6774 12.2919 13.8346C9.70969 14.0142 7.53164 11.9484 7.50918 9.36619C7.50918 9.00692 7.23974 8.69256 6.88047 8.67011C6.49875 8.64766 6.16194 8.96201 6.16194 9.34373C6.16194 12.5547 8.78907 15.1818 12 15.1818C15.1211 15.1818 17.6809 12.7343 17.8381 9.63564C17.8381 9.61318 17.8381 9.59073 17.8381 9.56827V6.4247V5.75108V5.52654C17.8381 3.90984 16.6255 2.58505 15.0538 2.40542Z" fill="#222B45"/>
</g>
<defs>
<clipPath id="clip0_18_9590">
<rect width="24" height="24" fill="white"/>
</clipPath>
</defs>
</svg>
