<svg width="24" height="24" viewBox="0 0 24 24" fill="none" xmlns="http://www.w3.org/2000/svg">
<g clip-path="url(#clip0_20_270)">
<path d="M20.1611 3.12384C19.893 2.85566 19.5292 2.705 19.15 2.705H7.70996V21.295H19.15C19.5292 21.295 19.893 21.1443 20.1611 20.8762C20.4292 20.608 20.58 20.2442 20.58 19.865V4.135C20.58 3.75574 20.4292 3.39202 20.1611 3.12384Z" fill="#E8D5E8"/>
<path fill-rule="evenodd" clip-rule="evenodd" d="M4.84992 21.295H7.70992V2.705H4.84992C4.47066 2.705 4.10694 2.85566 3.83875 3.12384C3.57059 3.39202 3.41992 3.75574 3.41992 4.135V19.865C3.41992 20.2442 3.57059 20.608 3.83875 20.8762C4.10694 21.1443 4.47066 21.295 4.84992 21.295Z" fill="white"/>
<path d="M19.1785 21.3236H4.87849C4.49922 21.3236 4.1355 21.1729 3.86732 20.9048C3.59915 20.6366 3.44849 20.2728 3.44849 19.8936V4.1636C3.44849 3.78433 3.59915 3.42061 3.86732 3.15243C4.1355 2.88426 4.49922 2.7336 4.87849 2.7336H19.1785C19.5577 2.7336 19.9215 2.88426 20.1896 3.15243C20.4578 3.42061 20.6085 3.78433 20.6085 4.1636V19.8936C20.6085 20.2728 20.4578 20.6366 20.1896 20.9048C19.9215 21.1729 19.5577 21.3236 19.1785 21.3236Z" stroke="#222B45" stroke-width="1.5" stroke-linecap="round" stroke-linejoin="round"/>
<path d="M7.73853 2.7336V21.3236" stroke="#222B45" stroke-width="1.5" stroke-linecap="round" stroke-linejoin="round"/>
<path d="M12.7434 7.7386H15.6034" stroke="#222B45" stroke-width="1.5" stroke-linecap="round" stroke-linejoin="round"/>
</g>
<defs>
<clipPath id="clip0_20_270">
<rect width="24" height="24" fill="white"/>
</clipPath>
</defs>
</svg>
