<svg width="25" height="25" viewBox="0 0 25 25" fill="none" xmlns="http://www.w3.org/2000/svg">
<g clip-path="url(#clip0_1_20583)">
<path d="M22.7881 14.101C23.0339 14.101 23.2446 14.3026 23.2446 14.5635V16.6271C23.2446 16.8762 23.0456 17.0896 22.7881 17.0896H16.0583C15.8125 17.0896 15.6018 16.888 15.6018 16.6271V14.5635C15.6018 14.3145 15.8008 14.101 16.0583 14.101H22.7881ZM22.7881 12.3221H16.0583C14.841 12.3221 13.8462 13.3301 13.8462 14.5635V16.6271C13.8462 17.8605 14.841 18.8686 16.0583 18.8686H22.7881C24.0054 18.8686 25.0002 17.8605 25.0002 16.6271V14.5635C25.0002 13.3301 24.0054 12.3221 22.7881 12.3221Z" fill="white"/>
<path d="M16.8189 1.77894C17.0647 1.77894 17.2754 1.98055 17.2754 2.24146V9.06072C17.2754 9.30977 17.0764 9.52324 16.8189 9.52324H14.7824C14.5366 9.52324 14.3259 9.32163 14.3259 9.06072V2.24146C14.3259 1.99241 14.5249 1.77894 14.7824 1.77894H16.8189ZM16.8189 0H14.7824C13.5652 0 12.5703 1.00806 12.5703 2.24146V9.06072C12.5703 10.2941 13.5652 11.3022 14.7824 11.3022H16.8189C18.0361 11.3022 19.031 10.2941 19.031 9.06072V2.24146C19.031 1.00806 18.0478 0 16.8189 0Z" fill="white"/>
<path d="M10.5455 15.4768C10.7913 15.4768 11.0019 15.6784 11.0019 15.9393V22.7585C11.0019 23.0076 10.803 23.2211 10.5455 23.2211H8.50895C8.26317 23.2211 8.05249 23.0194 8.05249 22.7585V15.9393C8.05249 15.6902 8.25146 15.4768 8.50895 15.4768H10.5455ZM10.5455 13.6978H8.50895C7.29172 13.6978 6.29688 14.7059 6.29688 15.9393V22.7585C6.29688 23.9919 7.29172 25 8.50895 25H10.5455C11.7627 25 12.7575 23.9919 12.7575 22.7585V15.9393C12.7575 14.7059 11.7627 13.6978 10.5455 13.6978Z" fill="white"/>
<path d="M8.94195 8.0171C9.18773 8.0171 9.39841 8.21871 9.39841 8.47962V10.555C9.39841 10.8041 9.19944 11.0176 8.94195 11.0176H2.21208C1.95459 11.0176 1.75562 10.8041 1.75562 10.555V8.47962C1.75562 8.23057 1.95459 8.0171 2.21208 8.0171H8.94195ZM8.94195 6.23816H2.21208C0.99485 6.23816 0 7.24622 0 8.47962V10.555C0 11.7884 0.99485 12.7965 2.21208 12.7965H8.94195C10.1592 12.7965 11.154 11.7884 11.154 10.555V8.47962C11.154 7.24622 10.1592 6.23816 8.94195 6.23816Z" fill="white"/>
</g>
<defs>
<clipPath id="clip0_1_20583">
<rect width="25" height="25" fill="white"/>
</clipPath>
</defs>
</svg>
