<svg width="24" height="32" viewBox="0 0 24 32" fill="none" xmlns="http://www.w3.org/2000/svg">
<g clip-path="url(#clip0_1_20822)">
<path d="M15.6314 0.365708C15.1805 0.773871 13.3635 2.54367 13.3635 2.57632C13.3635 2.64816 17.7841 7.18367 18.212 7.54938C18.3337 7.65387 18.4621 7.73877 18.495 7.73877C18.5543 7.73877 19.2982 7.04979 20.6345 5.75999L21.2105 5.20489L19.7162 3.67346C18.1297 2.04408 16.0955 -6.19888e-06 16.0593 -6.19888e-06C16.0494 -6.19888e-06 15.8552 0.166524 15.6314 0.365708Z" fill="#8C2C8C"/>
<path d="M11.7935 3.5984C10.3354 4.99268 4.64431 10.5176 3.73914 11.4253L3.27832 11.8825L3.72597 12.3494C3.97283 12.6074 5.47707 14.1159 7.07017 15.7062L9.96672 18.5959L12.8402 15.7486L15.7105 12.9045L15.7368 12.3364C15.773 11.4841 15.8289 11.2392 16.0956 10.6939C16.4412 9.98533 16.9876 9.37472 17.5932 9.01227C17.9553 8.7935 17.9684 8.77717 17.8565 8.64656C17.6393 8.38533 12.4123 3.06942 12.3728 3.06942C12.3597 3.06942 12.0996 3.30778 11.7935 3.5984Z" fill="#8C2C8C"/>
<path d="M19.1238 9.59679C18.008 9.84169 17.1555 10.6678 16.879 11.778C16.7835 12.1666 16.7835 12.7707 16.879 13.1299C17.1094 13.9788 17.6887 14.6678 18.5017 15.0531C18.9098 15.2458 19.2291 15.3176 19.6834 15.3209C20.8354 15.3274 21.8558 14.6841 22.3495 13.6425C22.5569 13.205 22.626 12.8882 22.6227 12.4082C22.6194 11.9413 22.5536 11.6278 22.3692 11.2425C21.9743 10.4196 21.3127 9.87108 20.4239 9.62618C20.0816 9.53149 19.4826 9.51842 19.1238 9.59679Z" fill="#8C2C8C"/>
<path d="M1.33955 15.4122L0.0163574 16.7151L2.63313 19.3142L5.2499 21.9102L6.60601 20.5649L7.96542 19.2163L6.51056 17.7697C4.44676 15.7191 2.77466 14.1061 2.71542 14.1061C2.68579 14.1061 2.06698 14.6938 1.33955 15.4122Z" fill="#8C2C8C"/>
<path d="M21.9544 15.4351C21.3488 15.8367 20.4502 16.1633 19.9433 16.1633C19.8741 16.1633 19.8149 16.1731 19.8149 16.1861C19.8149 16.1959 19.8939 16.3984 19.9926 16.6335C20.1934 17.1135 20.3383 17.6229 20.4436 18.2041C20.5325 18.7069 20.5621 19.6114 20.5094 20.0816C20.1408 23.249 17.8926 25.7371 14.7953 26.4C14.1008 26.5502 13.1495 26.5796 12.2608 26.4784C11.8988 26.4359 11.3952 26.3249 11.3688 26.2792C11.3557 26.2596 11.3952 26.2008 11.4544 26.1453C11.6683 25.9461 11.698 25.8286 11.7111 25.0514L11.7243 24.3592H6.17477H0.625244V25.0612C0.625244 25.8384 0.641702 25.92 0.832611 26.1159C1.04656 26.3347 0.987313 26.3314 3.7917 26.3445L6.31631 26.3543L6.4743 26.4947C7.07007 27.0171 7.66255 27.4514 8.26161 27.8041C8.81788 28.1306 8.95283 28.2155 8.95283 28.2416C8.95283 28.258 8.81459 28.3069 8.65001 28.3559C7.5243 28.689 6.58951 29.1984 5.90816 29.8482C5.27618 30.4522 4.92728 31.0922 4.85487 31.7845L4.83183 32H11.5992C16.9908 32 18.3666 31.9902 18.3666 31.9576C18.3633 31.8106 18.2909 31.4514 18.2152 31.2327C17.9124 30.3347 17.3265 29.7208 16 28.9078L15.8881 28.8392L16.181 28.751C17.7544 28.2776 19.285 27.3404 20.4107 26.1584C22.3296 24.1502 23.3138 21.5053 23.1426 18.831C23.0735 17.8057 22.9287 17.0416 22.6357 16.1796C22.4712 15.6963 22.2868 15.249 22.2539 15.249C22.2441 15.249 22.1091 15.3339 21.9544 15.4351Z" fill="#8C2C8C"/>
</g>
<defs>
<clipPath id="clip0_1_20822">
<rect width="23.1724" height="32" fill="white"/>
</clipPath>
</defs>
</svg>
