<svg width="21" height="25" viewBox="0 0 21 25" fill="none" xmlns="http://www.w3.org/2000/svg">
<path d="M14.6994 0.0439453C14.1184 0.234375 13.7815 0.732422 13.8352 1.30859C13.8645 1.64062 13.9426 1.81152 14.1721 2.0459C14.4016 2.28027 14.6701 2.39258 15.0168 2.39258C15.3586 2.39258 15.6321 2.28027 15.8615 2.05078C16.0764 1.83594 16.1692 1.64551 16.1985 1.33789C16.2717 0.644531 15.7883 0.0634766 15.0949 0.0195312C14.9436 0.00976562 14.7678 0.0195312 14.6994 0.0439453Z" fill="#8C2C8C"/>
<path d="M11.4425 1.61624C11.13 1.73831 10.8028 2.04593 10.6466 2.3682C10.4659 2.72952 10.4708 3.28617 10.6612 3.67191C10.8224 3.99906 11.0519 4.21878 11.4181 4.3848C11.6476 4.48734 11.7306 4.50199 12.0821 4.48245C12.5362 4.45804 12.7657 4.36038 13.0587 4.06742C13.5079 3.62308 13.6349 2.92972 13.3663 2.38284C13.0147 1.66019 12.1847 1.33304 11.4425 1.61624Z" fill="#8C2C8C"/>
<path d="M5.37305 6.46973V7.51953H6.27637H7.17969V9.0332V10.5469L4.11816 15.4443C2.43359 18.1348 0.983398 20.4688 0.895508 20.6348C0.680664 21.0303 0.578125 21.4697 0.573242 21.9727C0.573242 22.5049 0.646484 22.8271 0.895508 23.3398C1.27148 24.1113 1.98926 24.6777 2.86328 24.9023C3.22949 24.9951 3.43457 25 10.5 25C17.5654 25 17.7705 24.9951 18.1367 24.9023C18.8984 24.707 19.4941 24.292 19.9189 23.6523C20.5244 22.749 20.5977 21.5527 20.1045 20.6348C20.0166 20.4688 18.5664 18.1348 16.8818 15.4443L13.8203 10.5469V9.0332V7.51953H14.7236H15.627V6.46973V5.41992H10.5H5.37305V6.46973ZM11.7207 9.3457V11.1768L13.459 13.9502C14.416 15.4736 15.207 16.7529 15.2217 16.7822C15.2412 16.8311 14.2793 16.8457 10.5 16.8457C6.7207 16.8457 5.75879 16.8311 5.77832 16.7822C5.78809 16.7529 6.58398 15.4736 7.54102 13.9502L9.2793 11.1719V9.3457V7.51953H10.5H11.7207V9.3457Z" fill="#8C2C8C"/>
</svg>
