<svg width="32" height="32" viewBox="0 0 32 32" fill="none" xmlns="http://www.w3.org/2000/svg">
<path d="M14.7396 2.03401C12.0341 2.29689 9.53671 3.29365 7.34603 4.98047C6.27807 5.80197 4.89247 7.3464 4.09287 8.60604C3.74784 9.14823 3.07421 10.5284 2.83323 11.1856C2.56487 11.9194 2.27461 13.0476 2.13222 13.9184C1.96244 14.9864 1.96244 17.0128 2.13222 18.0807C2.37867 19.5923 2.76751 20.8081 3.43019 22.1609C4.15312 23.6341 4.90342 24.6801 6.10829 25.8905C7.31864 27.0954 8.36469 27.8457 9.83792 28.5686C11.1907 29.2313 12.4065 29.6201 13.9181 29.8666C14.986 30.0363 17.0124 30.0363 18.0803 29.8666C19.5919 29.6201 20.8077 29.2313 22.1605 28.5686C23.6337 27.8457 24.6798 27.0954 25.8901 25.8905C27.095 24.6801 27.8453 23.6341 28.5682 22.1609C29.0502 21.1805 29.2911 20.5398 29.554 19.554C29.899 18.2395 29.9812 17.5221 29.9812 15.9996C29.9812 14.4771 29.899 13.7596 29.554 12.4452C29.2911 11.4594 29.0502 10.8186 28.5682 9.8383C27.8453 8.36507 27.095 7.31902 25.8901 6.10867C24.6798 4.9038 23.6337 4.15349 22.1605 3.43056C20.8132 2.76789 19.5645 2.37356 18.1077 2.14354C17.3027 2.01758 15.5063 1.95733 14.7396 2.03401ZM17.3027 4.23016C19.9753 4.52043 22.4179 5.70887 24.3566 7.64214C26.6295 9.91497 27.8289 12.8067 27.8289 15.9996C27.8289 19.1925 26.6295 22.0842 24.3566 24.357C22.0838 26.6298 19.1921 27.8292 15.9992 27.8292C12.8063 27.8292 9.9146 26.6298 7.64177 24.357C5.36894 22.0842 4.16955 19.1925 4.16955 15.9996C4.16955 12.8067 5.36894 9.91497 7.64177 7.64214C9.55313 5.73078 12.0231 4.5259 14.63 4.23016C15.2325 4.16444 16.6893 4.15897 17.3027 4.23016Z" fill="#8C2C8C"/>
<path d="M15.528 8.6004C15.2651 8.72089 15.0515 8.98377 14.9584 9.29047C14.9146 9.44929 14.9036 10.468 14.9146 12.9325C14.931 16.2678 14.9365 16.3609 15.046 16.5745C15.1337 16.7497 15.5718 17.1112 17.3462 18.453C18.5456 19.3676 19.641 20.1781 19.7779 20.2603C20.6925 20.808 21.7714 19.8276 21.3114 18.8747C21.2018 18.6447 20.9773 18.4639 19.1426 17.0838L17.0943 15.5503V12.4943C17.0943 10.3584 17.0779 9.38905 17.0341 9.25761C16.8753 8.79209 16.4755 8.49635 15.999 8.49635C15.8621 8.49635 15.6485 8.54564 15.528 8.6004Z" fill="#8C2C8C"/>
</svg>
