<svg width="32" height="32" viewBox="0 0 32 32" fill="none" xmlns="http://www.w3.org/2000/svg">
<path d="M15.55 0.13125C15.4062 0.20625 15.2625 0.35 15.1875 0.5C15.0688 0.73125 15.0625 0.8625 15.0625 2.84375C15.0625 4.825 15.0688 4.95625 15.1875 5.1875C15.3313 5.46875 15.6875 5.6875 16 5.6875C16.3125 5.6875 16.6688 5.46875 16.8125 5.1875C16.9312 4.95625 16.9375 4.825 16.9375 2.84375C16.9375 0.8625 16.9312 0.73125 16.8125 0.5C16.5813 0.0437503 16.0188 -0.11875 15.55 0.13125Z" fill="#8C2C8C"/>
<path d="M5.0252 4.55617C4.5752 4.76242 4.3627 5.22492 4.50645 5.66867C4.60645 5.98117 7.2752 8.68742 7.66895 8.88117C8.04395 9.06242 8.3752 8.99992 8.6877 8.68742C8.98145 8.39367 9.05645 8.06867 8.90645 7.71242C8.7752 7.38742 6.13145 4.73117 5.7752 4.56242C5.4627 4.40617 5.3502 4.40617 5.0252 4.55617Z" fill="#8C2C8C"/>
<path d="M26.2188 4.56242C25.8625 4.73742 23.225 7.39367 23.0938 7.71242C22.9438 8.06867 23.0188 8.39367 23.3125 8.68742C23.625 8.99992 23.9563 9.06242 24.3313 8.88117C24.725 8.68742 27.3938 5.98117 27.4938 5.66867C27.6375 5.22492 27.425 4.76242 26.975 4.55617C26.65 4.40617 26.525 4.40617 26.2188 4.56242Z" fill="#8C2C8C"/>
<path d="M15.2499 7.59998C13.0124 7.86873 11.4749 8.58748 10.0311 10.0312C7.31235 12.7375 6.7811 16.9875 8.7436 20.2812C9.1061 20.8937 9.2686 21.1062 10.1499 22.1062C10.9124 22.975 11.2124 23.7812 11.3124 25.1875C11.3436 25.65 11.3999 26.1312 11.4311 26.25C11.5124 26.5187 11.8874 27.1562 12.0999 27.3812C12.2436 27.5312 12.2499 27.5687 12.2499 28.45C12.2499 28.95 12.2811 29.5062 12.3124 29.6937C12.5249 30.8187 13.4311 31.725 14.5561 31.9375C14.9936 32.0187 17.0061 32.0187 17.4436 31.9375C18.5686 31.725 19.4749 30.8187 19.6874 29.6937C19.7186 29.5062 19.7499 28.95 19.7499 28.4562V27.55L19.9624 27.3062C20.4499 26.7375 20.6874 26.0562 20.6874 25.25C20.6874 24.3812 20.9999 23.3 21.4561 22.6187C21.5811 22.4312 21.8561 22.0812 22.0749 21.8437C23.1686 20.6375 23.7749 19.55 24.1561 18.1125C24.5624 16.5562 24.5061 14.8875 23.9936 13.3375C23.0374 10.4625 20.5499 8.29373 17.5499 7.71873C17.0311 7.61873 15.6624 7.54998 15.2499 7.59998ZM16.7999 9.49998C18.9436 9.76873 20.8499 11.0937 21.8186 12.9875C23.0374 15.375 22.7186 18.2 20.9936 20.2187C20.1124 21.2562 19.9124 21.5187 19.6624 21.9625C19.1686 22.825 18.8124 24.175 18.8124 25.1687C18.8124 25.7562 18.6686 26.0687 18.3124 26.25C18.0811 26.3687 17.9499 26.375 15.9999 26.375C14.0499 26.375 13.9186 26.3687 13.6874 26.25C13.3374 26.0687 13.1874 25.75 13.1874 25.175C13.1874 24.2125 12.9249 23.0937 12.4874 22.2187C12.1999 21.6375 11.9061 21.2312 11.2499 20.5C10.6561 19.8375 10.4436 19.5312 10.0936 18.8C9.6561 17.9 9.48735 17.15 9.4811 16.0937C9.47485 15.6 9.5061 15.0312 9.5561 14.7812C10.1936 11.3625 13.3374 9.06873 16.7999 9.49998ZM17.8749 28.8125C17.8749 29.5125 17.7499 29.8062 17.3749 30C17.1561 30.1125 17.0061 30.125 15.9999 30.125C14.9936 30.125 14.8436 30.1125 14.6249 30C14.2499 29.8062 14.1249 29.5125 14.1249 28.8125V28.25H15.9999H17.8749V28.8125Z" fill="#8C2C8C"/>
<path d="M15.0937 11.4062C13.4249 11.7125 12.0374 12.95 11.5312 14.5687C11.3937 15.0062 11.4374 15.3 11.6937 15.5937C11.7937 15.7062 11.9812 15.8375 12.0999 15.875C12.6249 16.05 13.0812 15.75 13.3437 15.0562C13.7624 13.975 14.6499 13.2937 15.7812 13.2062C16.3437 13.1625 16.6499 13.0062 16.8124 12.6875C17.1624 12 16.6874 11.3062 15.8624 11.3187C15.6812 11.3187 15.3374 11.3625 15.0937 11.4062Z" fill="#8C2C8C"/>
<path d="M0.4875 15.1938C0.21875 15.3312 0 15.7 0 16C0 16.3125 0.21875 16.6687 0.5 16.8125C0.73125 16.9312 0.8625 16.9375 2.84375 16.9375C4.825 16.9375 4.95625 16.9312 5.1875 16.8125C5.46875 16.6687 5.6875 16.3125 5.6875 16C5.6875 15.6875 5.46875 15.3312 5.1875 15.1875C4.95625 15.0688 4.825 15.0625 2.83125 15.0625C0.85 15.0688 0.70625 15.075 0.4875 15.1938Z" fill="#8C2C8C"/>
<path d="M26.8 15.1938C26.5312 15.3312 26.3125 15.7 26.3125 16C26.3125 16.3125 26.5312 16.6687 26.8125 16.8125C27.0437 16.9312 27.175 16.9375 29.1562 16.9375C31.1375 16.9375 31.2688 16.9312 31.5 16.8125C31.7812 16.6687 32 16.3125 32 16C32 15.6875 31.7812 15.3312 31.5 15.1875C31.2688 15.0688 31.1375 15.0625 29.1437 15.0625C27.1625 15.0688 27.0188 15.075 26.8 15.1938Z" fill="#8C2C8C"/>
</svg>
