<svg width="25" height="25" viewBox="0 0 25 25" fill="none" xmlns="http://www.w3.org/2000/svg">
<g clip-path="url(#clip0_1_20597)">
<path d="M2.66119 0.424809C2.54401 0.454105 1.48444 1.48438 1.38678 1.66993C1.28912 1.85547 1.30377 2.11914 1.42096 2.3584C1.48444 2.48047 1.98248 3.02246 2.66608 3.71094L3.80866 4.8584L3.18366 5.4834L2.56354 6.10352L4.58014 8.12012L6.59186 10.1318H6.87506H7.16315L9.79498 15.625L12.4268 21.1182L12.7442 21.4356C13.0958 21.7871 13.4571 21.9873 14.0626 22.1631L14.4288 22.2705L15.1905 23.0518C15.8839 23.7549 16.1133 23.9356 16.1133 23.7744C16.1133 23.7451 16.001 23.501 15.8692 23.2373C15.7325 22.9736 15.6251 22.7441 15.6251 22.7246C15.6251 22.71 15.6788 22.71 15.7471 22.7246C15.8155 22.7441 15.8692 22.7441 15.8692 22.7246C15.8692 22.71 14.5411 19.7315 12.9151 16.1084C11.2891 12.4854 9.961 9.50196 9.961 9.48243C9.961 9.4629 10.0684 9.34083 10.2003 9.20899L10.4346 8.9795L17.0215 11.9385C20.6446 13.5693 23.6378 14.9121 23.6671 14.9268C23.7159 14.9463 23.711 14.8975 23.6573 14.7412C23.6182 14.6289 23.5889 14.5313 23.5987 14.5215C23.6036 14.5117 23.8428 14.6143 24.1212 14.751L24.629 14.9951L24.7559 14.9023C24.9268 14.7754 25.0196 14.5898 24.9854 14.4482C24.961 14.3555 24.7852 14.2432 24.087 13.8916L23.2227 13.4522L23.0469 12.9395C22.8467 12.3584 22.6905 12.085 22.3682 11.7725C22.168 11.5772 21.46 11.2256 16.6016 8.90626L11.0645 6.25977L11.0596 6.04004C11.0499 5.90821 11.0059 5.76661 10.9473 5.67872C10.8936 5.60547 9.97565 4.67286 8.91608 3.61329L6.98248 1.68457L6.34772 2.31934L5.71295 2.95411L4.53131 1.77246C3.87702 1.12793 3.28131 0.56641 3.1983 0.522465C3.01764 0.434574 2.79303 0.390629 2.66119 0.424809Z" fill="#8C2C8C"/>
<path d="M18.9502 0.712892C18.7793 0.786134 17.041 2.4707 17.041 2.55859C17.041 2.58789 17.7686 3.33984 18.6523 4.22363C19.541 5.10742 20.2637 5.86914 20.2637 5.91309C20.2637 6.00586 20.1123 6.15234 20.0146 6.15234C19.9756 6.15234 19.2188 5.42481 18.335 4.54102C17.4512 3.65234 16.7041 2.92969 16.6748 2.92969C16.6504 2.92969 16.4111 3.14453 16.1523 3.40332L15.6738 3.87695L16.626 4.83398C17.2656 5.47363 17.5781 5.8252 17.5781 5.89355C17.5781 6.02051 17.4561 6.15234 17.3438 6.15234C17.2998 6.15234 16.8311 5.71777 16.2988 5.19043L15.332 4.22852L15.0146 4.54102C14.8389 4.71191 14.6973 4.87793 14.6973 4.90723C14.6973 4.93164 15.4248 5.68359 16.3086 6.56738C17.1973 7.45117 17.9199 8.20801 17.9199 8.24707C17.9199 8.28613 17.8857 8.35449 17.8418 8.40332C17.749 8.50586 17.6709 8.45703 19.0869 9.13086L20.0342 9.58008L21.9141 7.70508C23.1494 6.46973 23.8184 5.7666 23.8818 5.63965C23.999 5.39063 23.999 5.10742 23.8818 4.8584C23.7695 4.61914 19.917 0.76172 19.7119 0.683595C19.5166 0.615235 19.1455 0.625001 18.9502 0.712892Z" fill="#8C2C8C"/>
<path d="M13.8037 5.75196L13.3301 6.23048L13.4863 6.38184C13.5889 6.47462 14.3213 6.85548 15.4541 7.39747C16.4502 7.8711 17.2949 8.27149 17.334 8.28614C17.373 8.30079 16.7285 7.63184 15.8936 6.792C15.0635 5.95704 14.3604 5.27345 14.3311 5.27345C14.3018 5.27345 14.0674 5.48829 13.8037 5.75196Z" fill="#8C2C8C"/>
<path d="M11.2793 10.3174C11.2793 10.3272 11.377 10.5518 11.4941 10.8106C11.6992 11.2695 11.7334 11.3135 12.4707 12.0557C12.9346 12.5293 13.2324 12.8662 13.2324 12.9248C13.2324 13.0322 13.0908 13.1836 12.9932 13.1836C12.959 13.1836 12.7881 13.0469 12.6074 12.876C12.4316 12.71 12.2998 12.6074 12.3145 12.6465C12.3779 12.8125 13.7305 15.7959 13.75 15.8154C13.7646 15.8301 14.4531 15.1611 15.2832 14.3311C16.1133 13.501 16.7773 12.8027 16.7578 12.7881C16.7383 12.7686 15.5371 12.2217 14.0869 11.5723C12.6367 10.9229 11.4111 10.3711 11.3672 10.3467C11.3184 10.3174 11.2793 10.3076 11.2793 10.3174Z" fill="#8C2C8C"/>
<path d="M6.62583 12.9297L6.29868 13.2568L7.22642 14.1846C7.73911 14.6973 8.1688 15.1611 8.18833 15.2246C8.21763 15.3516 8.09068 15.5273 7.96861 15.5273C7.92466 15.5273 7.45591 15.0928 6.92368 14.5654L5.95689 13.5986L5.45396 14.1016L4.95591 14.5996L6.58189 16.2256C7.72446 17.3682 8.20298 17.8809 8.20298 17.9541C8.20298 18.0811 8.03697 18.2129 7.91489 18.1787C7.86607 18.1689 7.10435 17.4316 6.22056 16.5479L4.61411 14.9414L4.28696 15.2686L3.95493 15.5957L4.90708 16.5527C5.51743 17.168 5.85923 17.5439 5.85923 17.6123C5.85923 17.7197 5.71763 17.8711 5.61509 17.8711C5.57603 17.8711 5.11216 17.4365 4.57993 16.9092L3.61314 15.9424L3.11021 16.4453L2.61216 16.9434L4.23814 18.5693C5.38071 19.7119 5.85923 20.2246 5.85923 20.2979C5.85923 20.4248 5.68345 20.5615 5.57114 20.5225C5.5272 20.5078 4.76548 19.7705 3.88169 18.8916L2.27036 17.2852L1.2645 18.2959C0.712746 18.8574 0.209816 19.3799 0.151222 19.4678C0.0193862 19.668 -0.029442 20.0049 0.048683 20.2441C0.0975112 20.3955 0.517433 20.8447 2.09458 22.4268C3.18345 23.5254 4.14048 24.4531 4.22349 24.4971C4.41392 24.5996 4.81919 24.5996 5.02915 24.4971C5.12681 24.4482 6.36216 23.252 7.8563 21.7578L10.5126 19.1016L9.15513 16.2744L7.80259 13.4521L7.37779 13.0225L6.95786 12.5977L6.62583 12.9297Z" fill="#8C2C8C"/>
</g>
<defs>
<clipPath id="clip0_1_20597">
<rect width="25" height="25" fill="white"/>
</clipPath>
</defs>
</svg>
