<svg width="32" height="32" viewBox="0 0 32 32" fill="none" xmlns="http://www.w3.org/2000/svg">
<g clip-path="url(#clip0_1_22241)">
<path d="M5.9375 1.40002C5.18125 1.56252 4.45625 2.16252 4.175 2.86252L4.03125 3.21877V16V28.7813L4.175 29.1375C4.46875 29.8625 5.2375 30.475 6.025 30.6188C6.55 30.7125 25.45 30.7125 25.975 30.6188C26.9312 30.4438 27.6688 29.7625 27.9062 28.825C27.9875 28.5063 28 26.9188 27.9875 15.8375L27.9688 3.21877L27.825 2.85627C27.525 2.11877 26.7875 1.53127 25.975 1.38127C25.4188 1.28127 6.40625 1.29377 5.9375 1.40002ZM16.5312 8.11877C17.5188 8.56877 17.575 9.96252 16.625 10.5L16.3438 10.6563H12.6562H8.96875L8.675 10.4813C8.15 10.175 7.9 9.54377 8.0625 8.95002C8.15 8.61877 8.58125 8.15627 8.8875 8.06877C9.00625 8.03752 10.6 8.01252 12.6875 8.00627C16.0375 8.00002 16.3 8.01252 16.5312 8.11877ZM23.2375 14.8063C24.2563 15.3313 24.2437 16.7188 23.2188 17.1938C22.9813 17.3063 22.65 17.3125 15.9812 17.3125C9.225 17.3125 8.9875 17.3063 8.7625 17.1938C7.74375 16.6688 7.75625 15.3313 8.78125 14.7938C8.95 14.7 9.71875 14.6938 15.9875 14.6875C22.775 14.6875 23.0125 14.6938 23.2375 14.8063ZM23.325 21.5188C23.85 21.825 24.1 22.45 23.9312 23.0438C23.8313 23.4125 23.4438 23.8188 23.0875 23.925C22.7125 24.0375 9.2875 24.0375 8.9125 23.925C8.4 23.7688 8 23.2063 8 22.6188C8 22.1 8.4875 21.5 9.0125 21.375C9.125 21.3438 12.325 21.3313 16.125 21.3313L23.0312 21.3438L23.325 21.5188Z" fill="#8C2C8C"/>
<circle cx="24.5" cy="27.5" r="5" fill="#8C2C8C" stroke="white"/>
<g clip-path="url(#clip1_1_22241)">
<path d="M26.3154 25.5742C26.2852 25.5849 26.2412 25.6064 26.2178 25.623C26.1943 25.6396 25.626 26.2021 24.9541 26.874L23.7334 28.0957L23.2549 27.6191C22.7022 27.0683 22.7373 27.0947 22.5664 27.0947C22.4707 27.0947 22.459 27.0966 22.3955 27.1269C22.3389 27.1543 22.3057 27.1806 22.1943 27.2929C22.0205 27.4677 22.0049 27.498 22.0049 27.6562C22.0049 27.8418 21.9483 27.7734 22.8233 28.6494C23.4063 29.2324 23.5869 29.4082 23.6211 29.4228C23.6865 29.4521 23.7881 29.4511 23.8516 29.4189C23.8887 29.4004 24.2305 29.0634 25.419 27.874C27.1533 26.1377 26.9951 26.3134 26.9951 26.123C26.9951 25.9668 26.9795 25.9365 26.8047 25.7597C26.6416 25.5947 26.5908 25.5664 26.4551 25.5605C26.3906 25.5576 26.3565 25.5605 26.3154 25.5742Z" fill="white"/>
</g>
</g>
<defs>
<clipPath id="clip0_1_22241">
<rect width="32" height="32" fill="white"/>
</clipPath>
<clipPath id="clip1_1_22241">
<rect width="5" height="5" fill="white" transform="translate(22 25)"/>
</clipPath>
</defs>
</svg>
