<svg width="25" height="25" viewBox="0 0 25 25" fill="none" xmlns="http://www.w3.org/2000/svg">
<g clip-path="url(#clip0_1_20607)">
<path d="M20.4589 1.56252C18.4569 2.41701 16.748 3.1592 16.6601 3.20315C16.4403 3.32033 16.3085 3.54983 16.3085 3.82815C16.3085 3.9551 16.3329 4.10647 16.3622 4.16506C16.3915 4.22366 16.7821 4.63869 17.2265 5.08791L18.0419 5.90823L16.6894 7.26076C15.2099 8.75002 15.1708 8.80373 15.2782 9.21389C15.3759 9.56545 15.7909 9.81936 16.1327 9.72659C16.2255 9.69729 17.9296 8.97952 19.9267 8.12991C22.2948 7.11428 23.6034 6.52834 23.7109 6.43557C23.9062 6.26467 23.9941 6.01565 23.9501 5.77151C23.9257 5.62014 23.7743 5.44436 23.0566 4.7217L22.1923 3.85744L23.5204 2.52444C24.248 1.7969 24.8778 1.12795 24.9218 1.04006C25.1513 0.576194 24.7802 -0.00486088 24.2577 2.19345e-05C24.1552 0.00490475 22.7148 0.595725 20.4589 1.56252Z" fill="#8C2C8C"/>
<path d="M10.3271 1.31836C10.2344 1.34766 9.70215 1.8457 8.81348 2.73438L7.44629 4.10156L9.51172 6.16211L11.5723 8.22754L12.9395 6.86035C14.4434 5.36133 14.4775 5.3125 14.3604 4.91699C14.3066 4.74609 14.0527 4.46777 12.7295 3.13477C11.8652 2.27051 11.084 1.50879 10.9863 1.44531C10.7861 1.30371 10.5322 1.25977 10.3271 1.31836Z" fill="#8C2C8C"/>
<path d="M4.27248 7.28518C1.82131 9.75589 1.55276 10.083 0.922874 11.4014C-0.322243 14.0039 -0.292946 17.0996 0.996116 19.7022C1.4844 20.6885 1.92385 21.3086 2.7051 22.1094C3.79397 23.2325 5.04885 24.0186 6.51858 24.5069C8.84768 25.2783 11.4112 25.127 13.5987 24.0772C14.9219 23.4473 15.249 23.1787 17.7149 20.7276L19.8731 18.584L17.8125 16.5186L15.7471 14.4532L13.8184 16.377C12.6319 17.5537 11.7676 18.3789 11.5723 18.5059C10.7031 19.0918 9.56545 19.2823 8.56936 19.0186C7.57327 18.75 6.69924 18.0323 6.25002 17.1143C6.001 16.6162 5.90823 16.2549 5.87405 15.6739C5.8301 14.8975 6.03518 14.1114 6.46975 13.4473C6.58205 13.2764 7.44143 12.3731 8.60354 11.2061L10.5469 9.24807L8.48147 7.18753L6.41604 5.1221L4.27248 7.28518Z" fill="#8C2C8C"/>
<path d="M19.6045 10.6641C19.5264 10.7031 18.8525 11.3379 18.1152 12.0801L16.7725 13.4277L18.8379 15.4883L20.8984 17.5537L22.2656 16.1865C23.7646 14.6924 23.7891 14.6582 23.6768 14.2432C23.6279 14.0674 23.4131 13.8281 22.0557 12.4609C21.1914 11.5967 20.4053 10.8301 20.3076 10.7617C20.0879 10.6104 19.8047 10.5713 19.6045 10.6641Z" fill="#8C2C8C"/>
</g>
<defs>
<clipPath id="clip0_1_20607">
<rect width="25" height="25" fill="white"/>
</clipPath>
</defs>
</svg>
