<svg width="187" height="39" viewBox="0 0 187 39" fill="none" xmlns="http://www.w3.org/2000/svg">
<path d="M57.0487 24.9679C57.0487 26.3012 56.781 27.478 56.2457 28.4981C55.7103 29.5183 54.9528 30.3163 53.973 30.892C53.0033 31.4678 51.8569 31.7556 50.5337 31.7556C49.9176 31.7556 49.3216 31.7152 48.7459 31.6344C48.1701 31.5637 47.6045 31.4425 47.0489 31.2708C46.4934 31.089 45.9379 30.8516 45.3823 30.5587V26.2103C46.1904 26.7356 47.0287 27.1345 47.8974 27.4073C48.7661 27.68 49.5691 27.8163 50.3064 27.8163C50.8519 27.8163 51.3014 27.7103 51.6549 27.4982C52.0185 27.286 52.2862 26.9982 52.4579 26.6345C52.6397 26.2709 52.7306 25.8618 52.7306 25.4073C52.7306 24.9225 52.6549 24.4982 52.5034 24.1346C52.3518 23.7609 52.0589 23.3922 51.6246 23.0286C51.2004 22.6549 50.5741 22.2256 49.7458 21.7407C49.0994 21.3569 48.5136 20.963 47.9883 20.5589C47.4732 20.1549 47.0287 19.7105 46.655 19.2256C46.2914 18.7307 46.0136 18.16 45.8217 17.5136C45.6298 16.8671 45.5338 16.1045 45.5338 15.2257C45.5237 13.9733 45.7662 12.8773 46.2611 11.938C46.7661 10.9986 47.4883 10.2713 48.4277 9.75619C49.3772 9.23095 50.5135 8.97338 51.8367 8.98348C52.7357 8.98348 53.6144 9.10469 54.473 9.34711C55.3417 9.58953 56.175 9.93296 56.9729 10.3774L55.8063 14.1349C55.0891 13.7005 54.4124 13.3824 53.776 13.1803C53.1397 12.9682 52.5438 12.8622 51.9882 12.8622C51.5034 12.8622 51.0943 12.9581 50.761 13.15C50.4377 13.3319 50.1903 13.5844 50.0186 13.9076C49.857 14.2308 49.7762 14.5995 49.7762 15.0136C49.7762 15.5389 49.857 15.9833 50.0186 16.3469C50.1802 16.7106 50.4832 17.0691 50.9276 17.4227C51.3822 17.7661 52.0337 18.1802 52.8821 18.6651C53.8013 19.2004 54.569 19.7711 55.1851 20.3771C55.8012 20.9731 56.2659 21.6448 56.579 22.3922C56.8921 23.1296 57.0487 23.9881 57.0487 24.9679Z" fill="#84368B"/>
<path d="M65.397 28.2254C65.6798 28.2254 65.9778 28.1901 66.2909 28.1194C66.6141 28.0386 66.9474 27.9173 67.2909 27.7557V30.9829C66.8464 31.2354 66.3565 31.4274 65.8212 31.5587C65.296 31.69 64.7354 31.7556 64.1394 31.7556C63.1697 31.7556 62.3768 31.5637 61.7607 31.1799C61.1546 30.786 60.7102 30.1951 60.4274 29.4072C60.1446 28.6092 60.0032 27.6042 60.0032 26.3921V17.8317H58.3365V15.6651L60.3213 14.6046L61.2759 10.9077H64.0334V14.4833H67.0787V17.8317H64.0334V26.2406C64.0334 26.9073 64.1344 27.4073 64.3364 27.7406C64.5485 28.0638 64.902 28.2254 65.397 28.2254Z" fill="#84368B"/>
<path d="M76.9573 14.1652C77.1795 14.1652 77.3967 14.1854 77.6088 14.2258C77.8209 14.2561 78.0684 14.3116 78.3512 14.3924L77.9875 18.6954C77.7855 18.6146 77.5633 18.559 77.3209 18.5287C77.0886 18.4984 76.831 18.4832 76.5482 18.4832C76.0836 18.4832 75.6694 18.5842 75.3058 18.7863C74.9422 18.9883 74.6341 19.2812 74.3816 19.665C74.1392 20.0388 73.9523 20.4933 73.821 21.0286C73.6998 21.5539 73.6392 22.1448 73.6392 22.8013V31.4526H69.609V14.4833H72.715L73.2907 17.2712H73.4877C73.7099 16.7358 73.9876 16.2308 74.321 15.756C74.6543 15.2813 75.0432 14.8975 75.4876 14.6046C75.932 14.3116 76.4219 14.1652 76.9573 14.1652Z" fill="#84368B"/>
<path d="M84.4268 14.4833V31.4526H80.3966V14.4833H84.4268ZM82.4117 7.8017C83.1692 7.8017 83.7248 8.00371 84.0783 8.40774C84.4318 8.80167 84.6086 9.37741 84.6086 10.135C84.6086 10.8723 84.4217 11.438 84.048 11.8319C83.6844 12.2157 83.1389 12.4076 82.4117 12.4076C81.7046 12.4076 81.1592 12.2157 80.7754 11.8319C80.3915 11.438 80.1996 10.8723 80.1996 10.135C80.1996 9.35721 80.3764 8.77642 80.7299 8.39259C81.0935 7.99866 81.6541 7.8017 82.4117 7.8017Z" fill="#84368B"/>
<path d="M90.8812 31.4526L86.2904 14.4833H90.4872L92.4114 23.4528C92.5528 24.0387 92.669 24.6295 92.7599 25.2255C92.8508 25.8214 92.9316 26.4477 93.0023 27.1042H93.1235C93.1437 26.6396 93.1993 26.1245 93.2902 25.5588C93.3912 24.9831 93.5124 24.3619 93.6538 23.6952L95.6992 14.4833H99.8809L95.2598 31.4526H90.8812Z" fill="#84368B"/>
<path d="M107.244 14.1955C108.517 14.1955 109.593 14.5086 110.472 15.1348C111.36 15.7611 112.032 16.65 112.487 17.8014C112.941 18.9428 113.168 20.2963 113.168 21.8619V24.1346H105.078C105.098 25.6194 105.371 26.7154 105.896 27.4224C106.421 28.1194 107.224 28.4678 108.305 28.4678C109.022 28.4678 109.699 28.3769 110.335 28.1951C110.982 28.0032 111.668 27.68 112.396 27.2254V30.589C111.719 30.993 110.997 31.2859 110.229 31.4678C109.461 31.6597 108.633 31.7556 107.744 31.7556C106.189 31.7556 104.921 31.4072 103.941 30.7102C102.962 30.0031 102.244 29.0032 101.79 27.7103C101.335 26.4073 101.108 24.8619 101.108 23.074C101.108 21.165 101.335 19.5539 101.79 18.2408C102.255 16.9176 102.941 15.9126 103.851 15.2257C104.76 14.5389 105.891 14.1955 107.244 14.1955ZM107.335 17.3621C106.669 17.3621 106.138 17.6651 105.744 18.2711C105.35 18.8671 105.138 19.8468 105.108 21.2104H109.426C109.426 20.4125 109.345 19.7256 109.184 19.1499C109.022 18.5741 108.785 18.1348 108.472 17.8317C108.158 17.5186 107.78 17.3621 107.335 17.3621Z" fill="#84368B"/>
<path d="M126.835 24.9679C126.835 26.3012 126.567 27.478 126.032 28.4981C125.496 29.5183 124.739 30.3163 123.759 30.892C122.789 31.4678 121.643 31.7556 120.32 31.7556C119.704 31.7556 119.108 31.7152 118.532 31.6344C117.956 31.5637 117.391 31.4425 116.835 31.2708C116.279 31.089 115.724 30.8516 115.168 30.5587V26.2103C115.976 26.7356 116.815 27.1345 117.683 27.4073C118.552 27.68 119.355 27.8163 120.093 27.8163C120.638 27.8163 121.087 27.7103 121.441 27.4982C121.805 27.286 122.072 26.9982 122.244 26.6345C122.426 26.2709 122.517 25.8618 122.517 25.4073C122.517 24.9225 122.441 24.4982 122.289 24.1346C122.138 23.7609 121.845 23.3922 121.411 23.0286C120.986 22.6549 120.36 22.2256 119.532 21.7407C118.885 21.3569 118.3 20.963 117.774 20.5589C117.259 20.1549 116.815 19.7105 116.441 19.2256C116.077 18.7307 115.8 18.16 115.608 17.5136C115.416 16.8671 115.32 16.1045 115.32 15.2257C115.31 13.9733 115.552 12.8773 116.047 11.938C116.552 10.9986 117.274 10.2713 118.214 9.75619C119.163 9.23095 120.3 8.97338 121.623 8.98348C122.522 8.98348 123.401 9.10469 124.259 9.34711C125.128 9.58953 125.961 9.93296 126.759 10.3774L125.592 14.1349C124.875 13.7005 124.198 13.3824 123.562 13.1803C122.926 12.9682 122.33 12.8622 121.774 12.8622C121.289 12.8622 120.88 12.9581 120.547 13.15C120.224 13.3319 119.976 13.5844 119.805 13.9076C119.643 14.2308 119.562 14.5995 119.562 15.0136C119.562 15.5389 119.643 15.9833 119.805 16.3469C119.966 16.7106 120.269 17.0691 120.714 17.4227C121.168 17.7661 121.82 18.1802 122.668 18.6651C123.587 19.2004 124.355 19.7711 124.971 20.3771C125.587 20.9731 126.052 21.6448 126.365 22.3922C126.678 23.1296 126.835 23.9881 126.835 24.9679Z" fill="#84368B"/>
<path d="M137.516 38.907V32.3162C137.516 31.993 137.531 31.5738 137.562 31.0587C137.592 30.5435 137.627 29.9173 137.668 29.1799H137.516C137.072 30.0789 136.537 30.7355 135.91 31.1496C135.294 31.5536 134.587 31.7556 133.789 31.7556C132.264 31.7556 131.067 30.9981 130.198 29.483C129.33 27.9577 128.895 25.8214 128.895 23.074C128.895 21.1852 129.092 19.5792 129.486 18.256C129.89 16.9328 130.466 15.9227 131.213 15.2257C131.971 14.5187 132.875 14.1652 133.925 14.1652C134.734 14.1652 135.415 14.352 135.971 14.7258C136.537 15.0894 137.042 15.7308 137.486 16.65H137.728L138.077 14.4833H141.547V38.907H137.516ZM135.153 28.2557C135.688 28.2557 136.127 28.0941 136.471 27.7709C136.824 27.4376 137.087 26.9275 137.259 26.2406C137.43 25.5538 137.516 24.6851 137.516 23.6346V22.8013C137.516 20.9933 137.324 19.6903 136.941 18.8923C136.567 18.0843 135.951 17.6802 135.092 17.6802C134.395 17.6802 133.87 18.1297 133.516 19.0287C133.163 19.9276 132.986 21.2963 132.986 23.1346C132.986 24.8922 133.163 26.1851 133.516 27.0133C133.88 27.8416 134.425 28.2557 135.153 28.2557Z" fill="#84368B"/>
<path d="M157.092 14.4833V31.4526H153.925L153.47 29.286H153.243C152.991 29.8314 152.683 30.286 152.319 30.6496C151.955 31.0132 151.536 31.2859 151.061 31.4678C150.597 31.6597 150.077 31.7556 149.501 31.7556C148.501 31.7556 147.668 31.5082 147.001 31.0132C146.334 30.5183 145.834 29.8112 145.501 28.8921C145.168 27.9628 145.001 26.8517 145.001 25.5588V14.4833H149.031V24.3467C149.031 25.6194 149.157 26.5739 149.41 27.2103C149.662 27.8466 150.072 28.1648 150.637 28.1648C151.314 28.1648 151.824 27.9678 152.167 27.5739C152.511 27.18 152.743 26.6042 152.864 25.8467C152.996 25.0891 153.061 24.175 153.061 23.1043V14.4833H157.092Z" fill="#84368B"/>
<path d="M166.47 14.1652C168.117 14.1652 169.369 14.6753 170.228 15.6954C171.096 16.7055 171.531 18.2156 171.531 20.2256V31.4526H168.576L167.925 29.1799H167.834C167.49 29.7557 167.122 30.2355 166.728 30.6193C166.344 31.0031 165.904 31.2859 165.41 31.4678C164.915 31.6597 164.334 31.7556 163.667 31.7556C162.728 31.7556 161.965 31.5031 161.379 30.9981C160.804 30.493 160.384 29.8365 160.122 29.0284C159.859 28.2204 159.728 27.3618 159.728 26.4527C159.728 24.6851 160.218 23.3468 161.198 22.4377C162.177 21.5286 163.571 21.0387 165.379 20.968L167.485 20.8771V20.1953C167.485 19.266 167.339 18.5741 167.046 18.1196C166.763 17.655 166.293 17.4227 165.637 17.4227C165.152 17.4227 164.622 17.5186 164.046 17.7105C163.47 17.9024 162.839 18.2004 162.152 18.6045L161.031 15.5894C161.799 15.1247 162.642 14.7712 163.561 14.5288C164.48 14.2864 165.45 14.1652 166.47 14.1652ZM167.485 23.574L166.349 23.6346C165.49 23.675 164.849 23.9174 164.425 24.3619C164.011 24.7962 163.804 25.4326 163.804 26.2709C163.804 27.0285 163.93 27.5941 164.182 27.9678C164.445 28.3416 164.824 28.5284 165.319 28.5284C165.955 28.5284 166.475 28.2204 166.879 27.6042C167.283 26.9881 167.485 26.1598 167.485 25.1194V23.574Z" fill="#84368B"/>
<path d="M179.379 31.7556C177.743 31.7556 176.495 30.9779 175.637 29.4224C174.778 27.8668 174.349 25.7103 174.349 22.9528C174.349 20.1852 174.778 18.0287 175.637 16.4833C176.495 14.9379 177.697 14.1652 179.243 14.1652C179.768 14.1652 180.253 14.2561 180.697 14.4379C181.152 14.6197 181.566 14.8975 181.939 15.2712C182.323 15.6348 182.657 16.0944 182.939 16.65H183.091C183.061 15.9934 183.03 15.4328 183 14.9682C182.98 14.4934 182.97 14.0945 182.97 13.7712V7.87745H187V31.4526H183.773L183.212 29.589H182.97C182.646 30.0941 182.308 30.5082 181.955 30.8314C181.611 31.1445 181.232 31.3769 180.818 31.5284C180.404 31.6799 179.924 31.7556 179.379 31.7556ZM180.576 28.3769C181.384 28.3769 181.985 27.983 182.379 27.1951C182.773 26.4073 182.97 25.1699 182.97 23.4831V22.5134C182.97 20.8367 182.778 19.6145 182.394 18.8469C182.02 18.0691 181.414 17.6802 180.576 17.6802C179.849 17.6802 179.308 18.1247 178.955 19.0135C178.611 19.8923 178.44 21.1953 178.44 22.9225C178.44 24.7508 178.621 26.1194 178.985 27.0285C179.349 27.9274 179.879 28.3769 180.576 28.3769Z" fill="#84368B"/>
<rect x="0.36377" y="0.423096" width="38.2457" height="38.2457" rx="6" fill="#84368B"/>
<g clip-path="url(#clip0_143_2237)">
<path d="M23.7385 27.9245C23.8059 27.8302 23.8471 27.7685 23.8884 27.7068C24.8264 26.3698 24.2277 24.4971 22.6568 24.0449C21.3043 23.6602 19.9136 23.3844 18.5438 23.0596C16.7498 22.6381 14.9482 22.231 13.1581 21.7841C11.8968 21.4721 10.7243 20.9623 9.73442 20.1096C8.14304 18.7296 7.51417 16.915 7.49922 14.876C7.47721 11.3862 9.84817 8.27329 13.1566 7.35665C16.6644 6.39303 20.2443 7.77537 22.0685 10.8279C22.3485 11.2912 22.5303 11.8107 22.7473 12.3066C22.9588 12.8044 23.4594 12.9847 23.8769 12.7038C24.1534 12.5171 24.2826 12.1795 24.165 11.8381C23.1558 9.00803 21.3469 7.01772 18.2536 6.37494C17.9965 6.32017 17.7429 6.27629 17.4837 6.23422C17.2319 6.1958 16.9744 6.17733 16.6378 6.14244C17.7013 5.73517 18.7141 5.5675 19.7555 5.63773C23.0341 5.85223 25.4211 7.37659 26.7823 10.345C27.6012 12.1217 27.0906 14.073 25.5705 15.1116C23.5382 16.4982 20.7751 15.6452 19.9585 13.3492C19.4772 11.9869 18.6292 10.9673 17.2843 10.3992C15.5638 9.67631 13.8899 9.84864 12.3962 10.9871C10.9081 12.1238 10.2844 13.6718 10.5263 15.5042C10.7648 17.3256 11.8689 18.4907 13.6813 18.9123C16.8141 19.6386 19.9564 20.3378 23.0892 21.0641C23.6878 21.2064 24.2935 21.3706 24.856 21.6091C26.2173 22.1899 26.9748 23.5526 26.7997 24.9904C26.6191 26.43 25.5155 27.598 24.0648 27.8904C23.9652 27.9048 23.875 27.9102 23.7385 27.9245Z" fill="white"/>
<path d="M21.7622 33.0551C20.4874 33.5856 19.1657 33.7094 17.8242 33.4899C14.733 32.9851 12.5835 31.3049 11.5256 28.3822C10.8226 26.4531 11.8746 24.3373 13.779 23.6677C15.7554 22.9746 17.823 23.9339 18.5383 25.9193C19.0073 27.2254 19.8225 28.2195 21.1066 28.7893C22.8341 29.5521 24.5279 29.4034 26.0511 28.2614C27.5853 27.1157 28.2168 25.5349 27.9475 23.6754C27.6885 21.8848 26.6356 20.7451 24.8379 20.3308C21.7712 19.6191 18.6912 18.9418 15.6283 18.2228C14.8773 18.0458 14.1229 17.8398 13.4288 17.5176C12.1432 16.9241 11.4639 15.4817 11.7087 14.0694C11.9477 12.677 13.1099 11.5381 14.5045 11.3183C14.569 11.3093 14.6371 11.3112 14.7329 11.304C14.6749 11.3893 14.6392 11.4491 14.5924 11.5126C13.6449 12.8769 14.2549 14.7278 15.8533 15.1891C16.9911 15.5172 18.1649 15.7492 19.32 16.0175C21.2866 16.4792 23.2553 16.9282 25.2199 17.4026C26.4721 17.7055 27.6486 18.1898 28.6425 19.0171C30.2893 20.379 30.9439 22.1973 30.9844 24.2582C31.0472 27.403 29.1148 30.3367 26.258 31.528C22.0228 33.2897 17.3561 31.3033 15.7924 27.0745C15.737 26.9237 15.6799 26.7675 15.5783 26.6439C15.3696 26.3804 14.9671 26.3127 14.6817 26.4722C14.3555 26.657 14.2077 27.0127 14.3304 27.3887C14.7036 28.5512 15.314 29.5759 16.1078 30.5047C17.5121 32.1387 19.3804 32.8254 21.4789 33.033C21.5727 33.0386 21.6666 33.0441 21.7622 33.0551Z" fill="white"/>
</g>
<defs>
<clipPath id="clip0_143_2237">
<rect width="20.204" height="27.1977" fill="white" transform="translate(5.41504 9.80414) rotate(-18.07)"/>
</clipPath>
</defs>
</svg>
