<svg width="259" height="54" viewBox="0 0 259 54" fill="none" xmlns="http://www.w3.org/2000/svg">
<path d="M78.5527 34.0137C78.5527 35.8613 78.1818 37.492 77.4399 38.9058C76.6981 40.3195 75.6483 41.4253 74.2905 42.2231C72.9468 43.021 71.3581 43.4199 69.5244 43.4199C68.6706 43.4199 67.8447 43.3639 67.0469 43.252C66.249 43.154 65.4652 42.986 64.6953 42.748C63.9255 42.4961 63.1556 42.1672 62.3857 41.7612V35.7354C63.5055 36.4632 64.6673 37.0161 65.8711 37.394C67.0749 37.772 68.1877 37.9609 69.2095 37.9609C69.9653 37.9609 70.5882 37.814 71.0781 37.52C71.582 37.2261 71.953 36.8271 72.1909 36.3232C72.4429 35.8193 72.5688 35.2524 72.5688 34.6226C72.5688 33.9507 72.4639 33.3628 72.2539 32.8589C72.0439 32.341 71.638 31.8301 71.0361 31.3262C70.4482 30.8083 69.5804 30.2134 68.4326 29.5415C67.5368 29.0096 66.7249 28.4637 65.9971 27.9038C65.2832 27.3439 64.6673 26.728 64.1494 26.0562C63.6455 25.3703 63.2606 24.5794 62.9946 23.6836C62.7287 22.7878 62.5957 21.731 62.5957 20.5132C62.5817 18.7775 62.9176 17.2588 63.6035 15.957C64.3034 14.6553 65.3042 13.6475 66.606 12.9336C67.9217 12.2057 69.4964 11.8488 71.3301 11.8628C72.5758 11.8628 73.7936 12.0308 74.9834 12.3667C76.1872 12.7026 77.342 13.1785 78.4478 13.7944L76.8311 19.0015C75.8372 18.3996 74.8994 17.9587 74.0176 17.6787C73.1357 17.3848 72.3099 17.2378 71.54 17.2378C70.8682 17.2378 70.3013 17.3708 69.8394 17.6367C69.3914 17.8887 69.0485 18.2386 68.8105 18.6865C68.5866 19.1344 68.4746 19.6453 68.4746 20.2192C68.4746 20.9471 68.5866 21.563 68.8105 22.0669C69.0345 22.5708 69.4544 23.0677 70.0703 23.5576C70.7002 24.0335 71.603 24.6074 72.7788 25.2793C74.0526 26.0212 75.1164 26.812 75.9702 27.6519C76.8241 28.4777 77.4679 29.4085 77.9019 30.4443C78.3358 31.4661 78.5527 32.6559 78.5527 34.0137Z" fill="white"/>
<path d="M90.1216 38.5278C90.5135 38.5278 90.9264 38.4788 91.3604 38.3809C91.8083 38.2689 92.2702 38.1009 92.7461 37.877V42.3491C92.1302 42.6991 91.4513 42.965 90.7095 43.147C89.9816 43.3289 89.2048 43.4199 88.3789 43.4199C87.0352 43.4199 85.9364 43.154 85.0825 42.6221C84.2427 42.0762 83.6268 41.2573 83.2349 40.1655C82.8429 39.0597 82.647 37.667 82.647 35.9873V24.1245H80.3374V21.1221L83.0879 19.6523L84.4106 14.5293H88.2319V19.4844H92.4521V24.1245H88.2319V35.7773C88.2319 36.7012 88.3719 37.394 88.6519 37.856C88.9458 38.3039 89.4357 38.5278 90.1216 38.5278Z" fill="white"/>
<path d="M106.142 19.0435C106.45 19.0435 106.75 19.0715 107.044 19.1274C107.338 19.1694 107.681 19.2464 108.073 19.3584L107.569 25.3213C107.289 25.2093 106.981 25.1323 106.646 25.0903C106.324 25.0483 105.967 25.0273 105.575 25.0273C104.931 25.0273 104.357 25.1673 103.853 25.4473C103.349 25.7272 102.922 26.1331 102.572 26.665C102.236 27.1829 101.977 27.8128 101.795 28.5547C101.627 29.2826 101.543 30.1014 101.543 31.0112V43H95.9585V19.4844H100.263L101.061 23.3477H101.333C101.641 22.6058 102.026 21.9059 102.488 21.248C102.95 20.5902 103.489 20.0583 104.105 19.6523C104.721 19.2464 105.4 19.0435 106.142 19.0435Z" fill="white"/>
<path d="M116.493 19.4844V43H110.908V19.4844H116.493ZM113.7 10.2251C114.75 10.2251 115.52 10.505 116.01 11.0649C116.5 11.6108 116.745 12.4087 116.745 13.4585C116.745 14.4803 116.486 15.2642 115.968 15.8101C115.464 16.342 114.708 16.6079 113.7 16.6079C112.72 16.6079 111.965 16.342 111.433 15.8101C110.901 15.2642 110.635 14.4803 110.635 13.4585C110.635 12.3807 110.88 11.5758 111.37 11.0439C111.874 10.498 112.65 10.2251 113.7 10.2251Z" fill="white"/>
<path d="M125.437 43L119.075 19.4844H124.891L127.558 31.9141C127.754 32.7259 127.915 33.5448 128.041 34.3706C128.167 35.1965 128.278 36.0643 128.376 36.9741H128.544C128.572 36.3302 128.649 35.6164 128.775 34.8325C128.915 34.0347 129.083 33.1738 129.279 32.25L132.114 19.4844H137.909L131.505 43H125.437Z" fill="white"/>
<path d="M148.113 19.0854C149.876 19.0854 151.367 19.5194 152.585 20.3872C153.817 21.255 154.748 22.4868 155.377 24.0825C156.007 25.6642 156.322 27.5399 156.322 29.7095V32.8589H145.11C145.138 34.9165 145.516 36.4352 146.244 37.415C146.972 38.3809 148.085 38.8638 149.583 38.8638C150.576 38.8638 151.514 38.7378 152.396 38.4858C153.292 38.2199 154.244 37.772 155.251 37.1421V41.8032C154.314 42.3631 153.313 42.769 152.249 43.021C151.185 43.2869 150.037 43.4199 148.806 43.4199C146.65 43.4199 144.893 42.937 143.536 41.9712C142.178 40.9914 141.184 39.6056 140.554 37.814C139.924 36.0083 139.609 33.8667 139.609 31.3892C139.609 28.7437 139.924 26.5111 140.554 24.6914C141.198 22.8577 142.15 21.465 143.41 20.5132C144.669 19.5614 146.237 19.0854 148.113 19.0854ZM148.239 23.4736C147.315 23.4736 146.58 23.8936 146.034 24.7334C145.488 25.5592 145.194 26.917 145.152 28.8066H151.136C151.136 27.7008 151.024 26.749 150.8 25.9512C150.576 25.1533 150.247 24.5444 149.813 24.1245C149.38 23.6906 148.855 23.4736 148.239 23.4736Z" fill="white"/>
<path d="M175.261 34.0137C175.261 35.8613 174.89 37.492 174.148 38.9058C173.406 40.3195 172.356 41.4253 170.999 42.2231C169.655 43.021 168.066 43.4199 166.232 43.4199C165.379 43.4199 164.553 43.3639 163.755 43.252C162.957 43.154 162.173 42.986 161.403 42.748C160.633 42.4961 159.864 42.1672 159.094 41.7612V35.7354C160.214 36.4632 161.375 37.0161 162.579 37.394C163.783 37.772 164.896 37.9609 165.917 37.9609C166.673 37.9609 167.296 37.814 167.786 37.52C168.29 37.2261 168.661 36.8271 168.899 36.3232C169.151 35.8193 169.277 35.2524 169.277 34.6226C169.277 33.9507 169.172 33.3628 168.962 32.8589C168.752 32.341 168.346 31.8301 167.744 31.3262C167.156 30.8083 166.288 30.2134 165.141 29.5415C164.245 29.0096 163.433 28.4637 162.705 27.9038C161.991 27.3439 161.375 26.728 160.857 26.0562C160.354 25.3703 159.969 24.5794 159.703 23.6836C159.437 22.7878 159.304 21.731 159.304 20.5132C159.29 18.7775 159.626 17.2588 160.312 15.957C161.011 14.6553 162.012 13.6475 163.314 12.9336C164.63 12.2057 166.204 11.8488 168.038 11.8628C169.284 11.8628 170.502 12.0308 171.691 12.3667C172.895 12.7026 174.05 13.1785 175.156 13.7944L173.539 19.0015C172.545 18.3996 171.607 17.9587 170.726 17.6787C169.844 17.3848 169.018 17.2378 168.248 17.2378C167.576 17.2378 167.009 17.3708 166.547 17.6367C166.099 17.8887 165.757 18.2386 165.519 18.6865C165.295 19.1344 165.183 19.6453 165.183 20.2192C165.183 20.9471 165.295 21.563 165.519 22.0669C165.743 22.5708 166.162 23.0677 166.778 23.5576C167.408 24.0335 168.311 24.6074 169.487 25.2793C170.761 26.0212 171.824 26.812 172.678 27.6519C173.532 28.4777 174.176 29.4085 174.61 30.4443C175.044 31.4661 175.261 32.6559 175.261 34.0137Z" fill="white"/>
<path d="M190.063 53.3301V44.1968C190.063 43.7489 190.084 43.168 190.126 42.4541C190.168 41.7402 190.217 40.8724 190.273 39.8506H190.063C189.447 41.0964 188.705 42.0062 187.837 42.5801C186.984 43.14 186.004 43.4199 184.898 43.4199C182.784 43.4199 181.126 42.3701 179.922 40.2705C178.718 38.1569 178.116 35.1965 178.116 31.3892C178.116 28.7716 178.389 26.5461 178.935 24.7124C179.495 22.8787 180.293 21.479 181.329 20.5132C182.378 19.5334 183.631 19.0435 185.087 19.0435C186.207 19.0435 187.152 19.3024 187.921 19.8203C188.705 20.3242 189.405 21.2131 190.021 22.4868H190.357L190.84 19.4844H195.648V53.3301H190.063ZM186.788 38.5698C187.529 38.5698 188.138 38.3459 188.614 37.8979C189.104 37.436 189.468 36.7292 189.706 35.7773C189.944 34.8255 190.063 33.6217 190.063 32.166V31.0112C190.063 28.5057 189.797 26.7 189.265 25.5942C188.747 24.4744 187.893 23.9146 186.704 23.9146C185.738 23.9146 185.01 24.5374 184.52 25.7832C184.03 27.029 183.785 28.9256 183.785 31.4731C183.785 33.9087 184.03 35.7004 184.52 36.8481C185.024 37.9959 185.78 38.5698 186.788 38.5698Z" fill="white"/>
<path d="M217.19 19.4844V43H212.802L212.172 39.9976H211.857C211.507 40.7534 211.08 41.3833 210.576 41.8872C210.072 42.3911 209.491 42.769 208.833 43.021C208.19 43.2869 207.469 43.4199 206.671 43.4199C205.285 43.4199 204.13 43.077 203.207 42.3911C202.283 41.7052 201.59 40.7254 201.128 39.4517C200.666 38.1639 200.435 36.6242 200.435 34.8325V19.4844H206.02V33.1528C206.02 34.9165 206.195 36.2393 206.545 37.1211C206.895 38.0029 207.462 38.4438 208.246 38.4438C209.183 38.4438 209.89 38.1709 210.366 37.625C210.842 37.0791 211.164 36.2812 211.332 35.2314C211.514 34.1816 211.605 32.9149 211.605 31.4312V19.4844H217.19Z" fill="white"/>
<path d="M230.187 19.0435C232.468 19.0435 234.204 19.7503 235.394 21.1641C236.597 22.5638 237.199 24.6564 237.199 27.4419V43H233.105L232.202 39.8506H232.076C231.6 40.6484 231.089 41.3133 230.543 41.8452C230.012 42.3771 229.403 42.769 228.717 43.021C228.031 43.2869 227.226 43.4199 226.302 43.4199C225 43.4199 223.944 43.07 223.132 42.3701C222.334 41.6702 221.753 40.7604 221.389 39.6406C221.025 38.5208 220.843 37.3311 220.843 36.0713C220.843 33.6217 221.522 31.7671 222.88 30.5073C224.238 29.2476 226.169 28.5687 228.675 28.4707L231.593 28.3447V27.3999C231.593 26.1121 231.39 25.1533 230.984 24.5234C230.592 23.8796 229.942 23.5576 229.032 23.5576C228.36 23.5576 227.625 23.6906 226.827 23.9565C226.029 24.2225 225.154 24.6354 224.203 25.1953L222.649 21.0171C223.713 20.3732 224.882 19.8833 226.155 19.5474C227.429 19.2114 228.773 19.0435 230.187 19.0435ZM231.593 32.082L230.019 32.166C228.829 32.222 227.94 32.5579 227.352 33.1738C226.778 33.7757 226.491 34.6576 226.491 35.8193C226.491 36.8691 226.666 37.653 227.016 38.1709C227.38 38.6888 227.905 38.9478 228.591 38.9478C229.473 38.9478 230.194 38.5208 230.753 37.667C231.313 36.8132 231.593 35.6654 231.593 34.2236V32.082Z" fill="white"/>
<path d="M248.075 43.4199C245.808 43.4199 244.079 42.3421 242.889 40.1865C241.699 38.0309 241.104 35.0425 241.104 31.2212C241.104 27.3859 241.699 24.3975 242.889 22.2559C244.079 20.1143 245.745 19.0435 247.886 19.0435C248.614 19.0435 249.286 19.1694 249.902 19.4214C250.532 19.6733 251.106 20.0583 251.624 20.5762C252.155 21.0801 252.617 21.717 253.009 22.4868H253.219C253.177 21.577 253.135 20.8001 253.093 20.1562C253.065 19.4984 253.051 18.9455 253.051 18.4976V10.3301H258.636V43H254.164L253.387 40.4175H253.051C252.603 41.1173 252.134 41.6912 251.645 42.1392C251.169 42.5731 250.644 42.895 250.07 43.105C249.496 43.3149 248.831 43.4199 248.075 43.4199ZM249.734 38.7378C250.854 38.7378 251.687 38.1919 252.232 37.1001C252.778 36.0083 253.051 34.2936 253.051 31.9561V30.6123C253.051 28.2887 252.785 26.5951 252.253 25.5312C251.736 24.4535 250.896 23.9146 249.734 23.9146C248.726 23.9146 247.977 24.5304 247.487 25.7622C247.011 26.98 246.773 28.7856 246.773 31.1792C246.773 33.7127 247.025 35.6094 247.529 36.8691C248.033 38.1149 248.768 38.7378 249.734 38.7378Z" fill="white"/>
<rect width="53" height="53" rx="6" fill="white"/>
<g clip-path="url(#clip0_142_2228)">
<path d="M32.3924 38.1109C32.4858 37.9801 32.5429 37.8946 32.6 37.8092C33.8999 35.9563 33.0702 33.3612 30.8934 32.7346C29.019 32.2015 27.0919 31.8193 25.1936 31.3692C22.7075 30.785 20.2109 30.221 17.7303 29.6016C15.9824 29.1692 14.3576 28.4628 12.9858 27.2811C10.7805 25.3688 9.90903 22.8541 9.88832 20.0285C9.85781 15.1924 13.1434 10.8786 17.7281 9.60834C22.5892 8.27299 27.5502 10.1886 30.0781 14.4187C30.4661 15.0608 30.718 15.7807 31.0188 16.4679C31.3118 17.1577 32.0055 17.4076 32.5842 17.0183C32.9674 16.7596 33.1463 16.2918 32.9834 15.8186C31.5848 11.8968 29.0781 9.13866 24.7915 8.24791C24.4352 8.17201 24.0837 8.1112 23.7246 8.05291C23.3757 7.99966 23.0188 7.97408 22.5524 7.92572C24.0261 7.36133 25.4297 7.12899 26.8727 7.2263C31.4163 7.52355 34.7241 9.63598 36.6104 13.7496C37.7452 16.2117 37.0376 18.9157 34.9311 20.355C32.1147 22.2765 28.2858 21.0944 27.1541 17.9127C26.4872 16.0248 25.312 14.6118 23.4483 13.8246C21.064 12.8229 18.7443 13.0617 16.6745 14.6394C14.6123 16.2146 13.7479 18.3598 14.0832 20.899C14.4137 23.4231 15.9437 25.0377 18.4553 25.6219C22.7967 26.6285 27.1512 27.5973 31.4925 28.6038C32.3221 28.8011 33.1615 29.0285 33.941 29.359C35.8274 30.1639 36.8772 32.0523 36.6345 34.0448C36.3842 36.0398 34.8549 37.6583 32.8446 38.0636C32.7066 38.0836 32.5815 38.091 32.3924 38.1109Z" fill="#813588"/>
<path d="M29.6535 45.2207C27.8869 45.9559 26.0554 46.1273 24.1962 45.8232C19.9126 45.1237 16.9339 42.7953 15.4679 38.7451C14.4936 36.0718 15.9515 33.1397 18.5905 32.2118C21.3293 31.2514 24.1946 32.5808 25.1858 35.3321C25.8358 37.1419 26.9655 38.5196 28.745 39.3093C31.1388 40.3664 33.4862 40.1603 35.5969 38.5776C37.723 36.9899 38.5982 34.7994 38.225 32.2224C37.866 29.7411 36.407 28.1618 33.9156 27.5877C29.6659 26.6013 25.3978 25.6628 21.1533 24.6664C20.1126 24.4211 19.0672 24.1356 18.1053 23.6891C16.3236 22.8667 15.3824 20.8678 15.7215 18.9106C16.0527 16.9812 17.6633 15.4029 19.5959 15.0982C19.6853 15.0858 19.7797 15.0884 19.9125 15.0785C19.832 15.1967 19.7826 15.2796 19.7177 15.3676C18.4046 17.2582 19.25 19.8231 21.465 20.4623C23.0417 20.9171 24.6685 21.2386 26.2691 21.6103C28.9944 22.2501 31.7225 22.8723 34.4451 23.5298C36.1804 23.9495 37.8107 24.6207 39.188 25.7672C41.4702 27.6545 42.3773 30.1742 42.4334 33.0301C42.5205 37.3881 39.8425 41.4535 35.8836 43.1045C30.0146 45.5457 23.5477 42.793 21.3806 36.9329C21.3039 36.7239 21.2248 36.5075 21.0839 36.3362C20.7947 35.971 20.237 35.8773 19.8415 36.0982C19.3894 36.3543 19.1847 36.8472 19.3547 37.3683C19.8718 38.9792 20.7177 40.3993 21.8178 41.6864C23.7638 43.9507 26.3528 44.9023 29.2609 45.1901C29.3909 45.1978 29.521 45.2055 29.6535 45.2207Z" fill="#813588"/>
</g>
<defs>
<clipPath id="clip0_142_2228">
<rect width="27.9982" height="37.6899" fill="white" transform="translate(7 13) rotate(-18.07)"/>
</clipPath>
</defs>
</svg>
