<svg width="24" height="24" viewBox="0 0 24 24" fill="none" xmlns="http://www.w3.org/2000/svg">
<g clip-path="url(#clip0_1_10584)">
<path d="M8.53257 2.30561C8.16307 2.32964 7.78707 2.38272 7.40757 2.46772C4.73657 3.06572 2.6166 5.26014 2.1146 7.95014C1.1996 12.8491 5.4314 17.08 10.3314 16.163C11.5494 15.9352 12.653 15.3627 13.5638 14.5712L13.9896 14.997V15.8759C13.9896 16.1409 14.0946 16.395 14.2826 16.583L18.9896 21.29C19.5416 21.842 20.4376 21.842 20.9896 21.29C21.5416 20.738 21.5416 19.842 20.9896 19.29L16.2826 14.583C16.0956 14.395 15.8405 14.29 15.5755 14.29H14.6966L14.2689 13.8622C15.0358 12.9772 15.5998 11.913 15.8412 10.7353C16.1537 9.21358 15.9574 7.7641 15.4017 6.50483L15.9896 5.63373L18.1615 8.85053C18.3475 9.12534 18.6577 9.28997 18.9896 9.28998H20.9896C21.3502 9.29508 21.6857 9.10561 21.8675 8.79411C22.0493 8.48261 22.0493 8.09735 21.8675 7.78586C21.6857 7.47436 21.3502 7.28488 20.9896 7.28998H19.5209L16.8177 3.28803C16.6276 3.0055 16.3067 2.83916 15.9662 2.84662C15.6423 2.85473 15.3424 3.01924 15.1615 3.28803L12.4584 7.28998H9.9896C9.71864 7.28998 9.45927 7.39993 9.27085 7.59467L8.48179 8.40912L7.71617 7.60248C7.52721 7.40291 7.26444 7.28989 6.9896 7.28998H4.41538C5.01907 5.92894 6.22349 4.85954 7.68882 4.46577C8.82282 4.16077 9.8944 4.27122 10.8314 4.65522C11.2774 4.83822 11.788 4.6978 12.058 4.2978C12.405 3.7838 12.2189 3.05628 11.6459 2.81928C10.6949 2.42478 9.64107 2.23352 8.53257 2.30561ZM13.9427 8.66498C14.0346 9.36151 13.9822 10.105 13.7298 10.8759C13.2078 12.4669 11.8783 13.7327 10.2533 14.1337C6.95263 14.9479 3.99384 12.4587 3.99351 9.28998H6.55992L7.74742 10.5419C7.93469 10.7398 8.19458 10.8527 8.46701 10.8546C8.73945 10.8564 9.00084 10.747 9.19078 10.5517L10.4134 9.28998H12.9896C13.3215 9.28997 13.6317 9.12534 13.8177 8.85053L13.9427 8.66498Z" fill="#8C2C8C"/>
</g>
<defs>
<clipPath id="clip0_1_10584">
<rect width="24" height="24" fill="white"/>
</clipPath>
</defs>
</svg>
