<svg width="24" height="24" viewBox="0 0 24 24" fill="none" xmlns="http://www.w3.org/2000/svg">
<path fill-rule="evenodd" clip-rule="evenodd" d="M8.43556 7.77438L7.07741 5.92237C6.98505 5.79642 6.81052 5.76432 6.67939 5.84917C4.90254 6.9989 4.41411 8.75518 5.12697 10.0499C5.90659 11.4658 7.109 13.2023 8.95336 15.0466C10.7977 16.891 12.5342 18.0934 13.9501 18.873C15.2448 19.5859 17.0011 19.0975 18.1508 17.3206C18.2357 17.1895 18.2036 17.0149 18.0776 16.9226L16.2256 15.5644C15.9533 15.3647 15.5921 15.3341 15.29 15.4852L14.5518 15.8543C13.9239 16.1682 13.0633 16.2785 12.2485 15.8593C11.7038 15.5791 10.8642 15.0465 9.90885 14.0911C8.95346 13.1358 8.42091 12.2962 8.14068 11.7515C7.72152 10.9368 7.83181 10.0761 8.14575 9.44818L8.51485 8.70998C8.66589 8.40791 8.63528 8.04673 8.43556 7.77438ZM5.70062 4.33652C3.41201 5.81739 2.23392 8.53099 3.5487 10.9189C4.40678 12.4773 5.71016 14.3514 7.67937 16.3206C9.64859 18.2898 11.5227 19.5932 13.0811 20.4513C15.469 21.7661 18.1826 20.588 19.6635 18.2994C20.2667 17.3672 20.0385 16.1263 19.1431 15.4697L17.2911 14.1115C16.474 13.5124 15.3905 13.4206 14.4843 13.8737L13.7461 14.2428C13.5324 14.3496 13.2852 14.3665 13.0727 14.2572C12.6857 14.0581 11.9997 13.634 11.1828 12.8172C10.366 12.0003 9.94192 11.3143 9.74279 10.9273C9.63349 10.7148 9.65038 10.4676 9.75723 10.2539L10.1263 9.51572C10.5794 8.6095 10.4876 7.52597 9.88845 6.70893L8.5303 4.85691C7.87368 3.96152 6.63284 3.73332 5.70062 4.33652Z" fill="#8C2C8C"/>
</svg>
