<svg width="24" height="24" viewBox="0 0 24 24" fill="none" xmlns="http://www.w3.org/2000/svg">
<g clip-path="url(#clip0_1_925)">
<path d="M23.0444 9.17825V21.4727L18.2995 18.5649H9.372C8.06604 18.5649 7.67152 17.9187 7.63751 17.5956V8.00496C11.0726 7.98795 18.463 7.96414 20.5444 8.00496C22.6258 8.04577 23.0783 8.80415 23.0444 9.17825Z" fill="#E8D5E8"/>
<path d="M2.11875 1.52344C1.37344 1.6875 0.665629 2.22187 0.318754 2.8875C-0.0187456 3.53437 4.39452e-06 3.06094 4.39452e-06 10.1953C4.39452e-06 16.4062 0.0046919 16.6219 0.0890669 16.7531C0.234379 16.9734 0.412504 17.0625 0.712504 17.0625H0.975004L2.11875 16.2516C2.74219 15.8062 3.68907 15.1359 4.21875 14.7562C4.74844 14.3812 5.29688 14.0203 5.4375 13.9594L5.69532 13.8516L10.4531 13.8281L15.2109 13.8047L15.525 13.6828C16.3922 13.3453 17.0344 12.6141 17.2547 11.7188C17.3063 11.5078 17.3203 10.5609 17.3203 6.72656C17.3203 2.07656 17.3203 1.9875 17.2266 1.83281C17.175 1.74375 17.0719 1.63125 17.0016 1.575L16.8703 1.47656L9.64219 1.46719C3.65157 1.4625 2.3625 1.47187 2.11875 1.52344ZM15.8813 7.13437C15.8672 11.3156 15.8672 11.3719 15.7688 11.5781C15.6328 11.8687 15.4547 12.0703 15.1922 12.225L14.9766 12.3516L10.2656 12.375C6.07969 12.3984 5.52657 12.4125 5.29688 12.4781C4.90782 12.5953 4.57032 12.7359 4.35469 12.8719C4.17188 12.9844 1.87969 14.6062 1.55625 14.85L1.40157 14.9672L1.41563 9.46406C1.42969 3.50156 1.41563 3.83437 1.6875 3.45937C1.86094 3.22031 2.03438 3.08906 2.31563 2.99062C2.54063 2.91562 2.99063 2.91094 9.225 2.90625H15.8953L15.8813 7.13437Z" fill="#222B45"/>
<path d="M4.70625 5.38594C4.2375 5.67188 4.20469 6.3 4.64531 6.61406L4.80469 6.72656H9.12656C13.4063 6.72656 13.4484 6.72656 13.5797 6.62812C13.65 6.57656 13.7625 6.43594 13.8188 6.31406C13.9547 6.04688 13.9266 5.78906 13.7484 5.57344C13.5 5.28281 13.7672 5.29688 9.10781 5.29688C5.02031 5.29688 4.84688 5.30156 4.70625 5.38594Z" fill="#222B45"/>
<path d="M4.70625 8.66719C4.2375 8.95312 4.20469 9.58125 4.64531 9.89531L4.80469 10.0078H9.12656C13.4063 10.0078 13.4484 10.0078 13.5797 9.90937C13.65 9.85781 13.7625 9.71719 13.8188 9.59531C13.9547 9.32812 13.9266 9.07031 13.7484 8.85469C13.5 8.56406 13.7672 8.57812 9.10781 8.57812C5.02031 8.57812 4.84688 8.58281 4.70625 8.66719Z" fill="#222B45"/>
<path d="M19.261 6.93282C18.8953 7.00782 18.7031 7.25626 18.7031 7.65469C18.7031 7.90313 18.7172 7.94063 18.886 8.12344L19.0735 8.32032L20.3063 8.34376C21.4547 8.36719 21.5531 8.37657 21.7781 8.47969C22.0735 8.61094 22.3219 8.85469 22.4625 9.16407L22.5703 9.39844L22.5844 14.8969C22.5938 19.35 22.5844 20.3906 22.5375 20.3625C22.5047 20.3438 21.8344 19.8703 21.0469 19.3078C19.5281 18.2297 19.4297 18.1688 18.9141 17.9953L18.586 17.8828L13.8516 17.8594C8.55471 17.8313 8.9719 17.8641 8.56409 17.4891C8.24534 17.1938 8.1469 16.9172 8.12346 16.2656C8.1094 15.8953 8.08127 15.6797 8.02971 15.5719C7.79534 15.1031 7.05002 15.0984 6.77346 15.5625C6.69377 15.7078 6.67971 15.8016 6.6844 16.3359C6.68909 17.0484 6.76409 17.3906 7.01721 17.8734C7.33596 18.4734 7.93596 18.9563 8.6719 19.2C8.91096 19.2797 9.24846 19.2891 13.6641 19.3125C18.2016 19.3359 18.4078 19.3406 18.6047 19.425C18.7172 19.4766 19.7438 20.1797 20.8781 20.9906C22.0172 21.8016 22.9922 22.4813 23.0531 22.5047C23.3438 22.6172 23.7094 22.4906 23.8969 22.2188L24 22.0641V15.6469C24 8.55938 24.0141 8.93438 23.7047 8.37188C23.4141 7.85157 23.0485 7.49063 22.5469 7.22344C22.0641 6.97032 21.8344 6.93282 20.5781 6.91407C19.9453 6.90469 19.3547 6.90938 19.261 6.93282Z" fill="#222B45"/>
</g>
<defs>
<clipPath id="clip0_1_925">
<rect width="24" height="24" fill="white"/>
</clipPath>
</defs>
</svg>
