<svg width="24" height="24" viewBox="0 0 24 24" fill="none" xmlns="http://www.w3.org/2000/svg">
<g clip-path="url(#clip0_1_10567)">
<path d="M12.195 4.69739C12.195 4.69739 12.7306 3.04181 17.2956 2.8722C17.3886 2.86328 17.4823 2.87287 17.5715 2.90042C17.6607 2.92797 17.7435 2.97294 17.8152 3.03271C17.8869 3.09248 17.9461 3.16588 17.9892 3.24866C18.0323 3.33143 18.0586 3.42194 18.0666 3.51495V10.2971C18.0495 10.4766 17.9643 10.6427 17.8284 10.7612C17.6925 10.8798 17.5163 10.9417 17.3362 10.9342C12.7388 11.0965 12.1983 12.7594 12.1983 12.7594V4.69739C12.1983 4.69739 11.661 3.04181 7.09356 2.8722C7.00038 2.86282 6.90627 2.87208 6.8167 2.89942C6.72714 2.92676 6.64391 2.97164 6.57185 3.03146C6.4998 3.09128 6.44037 3.16483 6.39702 3.24783C6.35366 3.33084 6.32725 3.42165 6.31934 3.51495V10.2971C6.33661 10.4766 6.42192 10.6426 6.55776 10.761C6.69359 10.8795 6.86963 10.9414 7.04974 10.9342C11.6472 11.0965 12.1885 12.7594 12.1885 12.7594" stroke="white" stroke-width="1.245" stroke-linecap="round" stroke-linejoin="round"/>
<path d="M5.91345 13.424H5.34536C5.20153 13.422 5.05977 13.4586 4.93487 13.5299C4.80998 13.6013 4.70651 13.7048 4.63525 13.8298L2.87012 18.6992H21.1301L19.365 13.8298C19.2937 13.7048 19.1902 13.6013 19.0653 13.5299C18.9405 13.4586 18.7987 13.422 18.6549 13.424H18.0868" stroke="white" stroke-width="1.245" stroke-linecap="round" stroke-linejoin="round"/>
<path d="M2.87012 18.6967L3.11358 20.2095C3.20204 20.7516 3.51936 21.1314 3.88375 21.1314H20.1157C20.4801 21.1314 20.7974 20.7516 20.8858 20.2095L21.1293 18.6967" stroke="white" stroke-width="1.245" stroke-linecap="round" stroke-linejoin="round"/>
<path d="M17.7829 16.262C17.6148 16.262 17.4785 16.1258 17.4785 15.9577C17.4785 15.7896 17.6148 15.6533 17.7829 15.6533" stroke="white" stroke-width="1.245" stroke-linecap="round"/>
<path d="M17.7822 16.262C17.9503 16.262 18.0865 16.1258 18.0865 15.9577C18.0865 15.7896 17.9503 15.6533 17.7822 15.6533" stroke="white" stroke-width="1.245" stroke-linecap="round"/>
</g>
<defs>
<clipPath id="clip0_1_10567">
<rect width="24" height="24" fill="white"/>
</clipPath>
</defs>
</svg>
