<svg width="24" height="24" viewBox="0 0 24 24" fill="none" xmlns="http://www.w3.org/2000/svg">
<path d="M2.3743 1.22018C1.94599 1.38133 1.6449 1.61881 1.42014 1.97079C1.13177 2.4203 1.14449 2.27612 1.14449 5.6602C1.14449 8.5566 1.14873 8.7347 1.22507 8.95522C1.44982 9.60829 1.98839 10.0705 2.65418 10.1765C2.79413 10.202 3.25636 10.219 3.68891 10.219H4.47768L4.65155 10.5794C4.85086 10.9738 4.97385 11.0883 5.21556 11.0883C5.45728 11.0883 5.58027 10.9738 5.77958 10.5794L5.95345 10.219H8.52331L11.0889 10.2232L11.3179 10.537C11.6699 11.0204 11.7547 11.0883 12.0007 11.0883C12.2466 11.0883 12.3315 11.0204 12.6834 10.537L12.9124 10.2232L15.4781 10.219H18.0479L18.2133 10.5624C18.4169 10.9738 18.5568 11.1095 18.7858 11.1095C19.0148 11.1095 19.1547 10.9738 19.3583 10.5624L19.5237 10.219H20.3125C20.745 10.219 21.2072 10.202 21.3472 10.1765C22.013 10.0705 22.5515 9.60829 22.7763 8.95522C22.8526 8.7347 22.8569 8.5566 22.8569 5.6602C22.8569 2.9207 22.8484 2.57721 22.7848 2.39062C22.5982 1.83933 22.1572 1.39829 21.6101 1.21594C21.415 1.14809 20.6432 1.14385 11.9837 1.14809C3.28605 1.14809 2.55241 1.15657 2.3743 1.22018ZM21.3938 2.15738C21.6059 2.25067 21.8221 2.49239 21.8815 2.70019C21.9154 2.81469 21.9239 3.7434 21.9154 5.76621L21.9027 8.67109L21.7882 8.84072C21.6313 9.06548 21.4405 9.1927 21.1648 9.24359C21.0376 9.26479 20.5075 9.286 19.9859 9.286H19.0318L18.9088 9.40898L18.7858 9.53196L18.6628 9.40898L18.5398 9.286H15.5077H12.4799L12.3781 9.38353C12.323 9.43442 12.2127 9.55316 12.1406 9.64646L12.0007 9.81608L11.865 9.64646C11.7887 9.55316 11.6784 9.43442 11.6233 9.38353L11.5215 9.286H8.49363H5.46153L5.33855 9.40898L5.21556 9.53196L5.09258 9.40898L4.9696 9.286H4.01545C3.49384 9.286 2.96375 9.26479 2.83653 9.24359C2.56089 9.1927 2.37006 9.06548 2.21315 8.84072L2.09865 8.67109L2.08593 5.76621C2.07745 3.7434 2.08593 2.81469 2.11985 2.70019C2.17922 2.49239 2.3955 2.25067 2.60753 2.15738C2.76868 2.08105 3.17155 2.07681 12.0007 2.07681C20.8298 2.07681 21.2327 2.08105 21.3938 2.15738Z" fill="#222B45"/>
<path d="M4.93489 3.93436C4.65501 4.15912 4.7059 4.59591 5.02395 4.73161C5.24022 4.82066 18.7596 4.82066 18.9759 4.73161C19.2939 4.59591 19.3448 4.15912 19.0649 3.93436C18.9801 3.86651 18.5475 3.85803 11.9999 3.85803C5.45226 3.85803 5.01971 3.86651 4.93489 3.93436Z" fill="#222B45"/>
<path d="M4.93489 6.64835C4.65501 6.8731 4.7059 7.3099 5.02395 7.4456C5.24022 7.53465 16.0455 7.53465 16.2618 7.4456C16.5799 7.3099 16.6307 6.8731 16.3509 6.64835C16.266 6.5805 15.9056 6.57201 10.6429 6.57201C5.38017 6.57201 5.01971 6.5805 4.93489 6.64835Z" fill="#222B45"/>
<circle r="1.89924" transform="matrix(1 0 0 -1 5.21739 14.4416)" fill="#E8D5E8"/>
<ellipse rx="2.17056" ry="1.62792" transform="matrix(1 0 0 -1 12.0004 15.7983)" fill="#E8D5E8"/>
<circle r="1.62792" transform="matrix(1 0 0 -1 19.0547 14.1704)" fill="#E8D5E8"/>
<path d="M7.63288 18.2359C7.11118 17.9452 5.71975 17.7638 5.08925 17.7094L4.57539 17.8348C4.25373 17.9393 3.58033 18.1507 3.46002 18.1607C3.33971 18.1707 2.74986 18.4656 2.46997 18.6118C2.26949 18.8165 1.81591 19.2635 1.60547 19.4139C1.34243 19.6019 1.68053 20.1784 1.86851 20.6421C2.0565 21.1058 6.54304 20.6546 7.01926 20.6421C7.49549 20.6295 8.72365 20.1282 8.79884 19.6645C8.87403 19.2009 8.28502 18.5993 7.63288 18.2359Z" fill="#E8D5E8"/>
<path d="M14.8623 19.8646C14.29 19.542 12.7634 19.3407 12.0716 19.2804L11.5079 19.4196C11.155 19.5355 10.4162 19.77 10.2842 19.7812C10.1522 19.7923 9.50502 20.1196 9.19795 20.2818C8.97799 20.5089 8.48036 21.0049 8.24948 21.1718C7.96089 21.3804 8.33183 22.0201 8.53808 22.5347C8.74432 23.0492 13.6666 22.5486 14.1891 22.5347C14.7116 22.5208 16.059 21.9645 16.1415 21.45C16.224 20.9354 15.5778 20.2679 14.8623 19.8646Z" fill="#E8D5E8"/>
<path d="M21.3976 18.0027C20.8475 17.6844 19.3803 17.4857 18.7155 17.4262L18.1737 17.5636C17.8345 17.6779 17.1245 17.9094 16.9976 17.9204C16.8708 17.9314 16.2488 18.2543 15.9537 18.4144C15.7423 18.6386 15.264 19.1281 15.0421 19.2928C14.7648 19.4986 15.1213 20.1299 15.3195 20.6377C15.5177 21.1455 20.2484 20.6514 20.7506 20.6377C21.2527 20.624 22.5477 20.075 22.627 19.5672C22.7063 19.0595 22.0852 18.4007 21.3976 18.0027Z" fill="#E8D5E8"/>
<path d="M4.58382 12.0681C4.01556 12.2207 3.41338 12.7339 3.16318 13.2767C2.74335 14.1884 2.90874 15.1596 3.59997 15.8508C4.05797 16.3088 4.5923 16.5378 5.21568 16.5378C5.83906 16.5378 6.37339 16.3088 6.83139 15.8508C7.52262 15.1596 7.68801 14.1884 7.26818 13.2767C7.15792 13.0392 7.0519 12.8908 6.81443 12.6618C6.47517 12.3268 6.19952 12.1614 5.83058 12.0638C5.51677 11.9833 4.88915 11.9833 4.58382 12.0681ZM5.66944 13.0222C5.96204 13.1325 6.26313 13.4039 6.40308 13.6838C6.55998 13.9934 6.57271 14.4641 6.43276 14.7694C6.22921 15.2147 5.90267 15.4691 5.41924 15.5667C5.23264 15.6048 5.13935 15.6006 4.92731 15.5455C4.46932 15.431 4.19367 15.1977 3.99436 14.7652C3.90955 14.5743 3.89682 14.4895 3.90955 14.2139C3.92651 13.828 4.03677 13.5778 4.30393 13.3148C4.66439 12.9629 5.19448 12.8484 5.66944 13.0222Z" fill="#222B45"/>
<path d="M18.1541 12.0681C17.5858 12.2207 16.9837 12.7339 16.7335 13.2767C16.3136 14.1884 16.479 15.1596 17.1703 15.8508C17.6283 16.3088 18.1626 16.5378 18.786 16.5378C19.4093 16.5378 19.9437 16.3088 20.4017 15.8508C21.0929 15.1596 21.2583 14.1884 20.8385 13.2767C20.7282 13.0392 20.6222 12.8908 20.3847 12.6618C20.0455 12.3268 19.7698 12.1614 19.4009 12.0638C19.0871 11.9833 18.4594 11.9833 18.1541 12.0681ZM19.2397 13.0222C19.5323 13.1325 19.8334 13.4039 19.9734 13.6838C20.1303 13.9934 20.143 14.4641 20.003 14.7694C19.7995 15.2147 19.473 15.4691 18.9895 15.5667C18.8029 15.6048 18.7096 15.6006 18.4976 15.5455C18.0396 15.431 17.764 15.1977 17.5646 14.7652C17.4798 14.5743 17.4671 14.4895 17.4798 14.2139C17.4968 13.828 17.607 13.5778 17.8742 13.3148C18.2347 12.9629 18.7648 12.8484 19.2397 13.0222Z" fill="#222B45"/>
<path d="M11.369 13.425C10.8007 13.5776 10.1985 14.0907 9.94834 14.6336C9.52851 15.5453 9.6939 16.5164 10.3851 17.2077C10.8431 17.6657 11.3775 17.8947 12.0008 17.8947C12.6242 17.8947 13.1585 17.6657 13.6165 17.2077C14.3078 16.5164 14.4732 15.5453 14.0533 14.6336C13.9431 14.3961 13.8371 14.2477 13.5996 14.0187C13.2603 13.6836 12.9847 13.5183 12.6157 13.4207C12.3019 13.3401 11.6743 13.3401 11.369 13.425ZM12.4546 14.3791C12.7472 14.4894 13.0483 14.7608 13.1882 15.0407C13.3451 15.3502 13.3579 15.821 13.2179 16.1263C13.0144 16.5716 12.6878 16.826 12.2044 16.9235C12.0178 16.9617 11.9245 16.9575 11.7125 16.9023C11.2545 16.7878 10.9788 16.5546 10.7795 16.122C10.6947 15.9312 10.682 15.8464 10.6947 15.5707C10.7117 15.1848 10.8219 14.9346 11.0891 14.6717C11.4495 14.3197 11.9796 14.2052 12.4546 14.3791Z" fill="#222B45"/>
<path d="M4.62179 16.9872C3.68459 17.1653 3.27325 17.2967 2.60322 17.6318C1.9968 17.9329 1.78052 18.0898 1.54728 18.4036C1.22499 18.8446 1.16986 19.0482 1.16562 19.7648C1.16562 20.3797 1.16562 20.384 1.29284 20.5875C1.37341 20.719 1.50063 20.8462 1.62786 20.9268L1.83565 21.054L4.65996 21.0667L7.48426 21.0795L7.47154 21.5162C7.45034 22.0506 7.51819 22.305 7.74719 22.5383C8.07372 22.8775 7.78535 22.8563 12.0006 22.8563C16.2159 22.8563 15.9275 22.8775 16.254 22.5383C16.483 22.305 16.5509 22.0506 16.5297 21.5162L16.517 21.0795L19.3413 21.0667L22.1656 21.054L22.3734 20.9268C22.5006 20.8462 22.6278 20.719 22.7084 20.5875C22.8356 20.384 22.8356 20.3797 22.8356 19.7648C22.8314 19.0482 22.7762 18.8446 22.4539 18.4036C22.2207 18.0898 22.0044 17.9329 21.398 17.6318C20.4523 17.1568 19.7484 16.9829 18.7857 16.9829C17.8231 16.9829 17.1107 17.161 16.1777 17.6275C15.601 17.9159 15.3974 18.0558 15.2066 18.2891C15.0285 18.5053 14.808 18.9591 14.774 19.1754C14.7571 19.2644 14.7359 19.3365 14.7189 19.3365C14.7062 19.3365 14.5874 19.2941 14.4602 19.2475C12.8572 18.6326 11.144 18.6326 9.541 19.2475C9.41378 19.2941 9.29504 19.3365 9.28232 19.3365C9.26536 19.3365 9.24415 19.2644 9.22719 19.1754C9.19326 18.9591 8.97275 18.5053 8.79464 18.2891C8.60381 18.0558 8.40025 17.9159 7.82352 17.6275C6.92873 17.1822 6.25446 17.0084 5.34271 16.9829C5.00345 16.9745 4.68116 16.9787 4.62179 16.9872ZM5.97881 17.9795C6.51314 18.094 7.17469 18.3442 7.6963 18.6368C8.01435 18.8149 8.1967 19.0312 8.29 19.3492C8.39601 19.7055 8.37481 19.803 8.16277 19.9854L7.97618 20.1423L5.03738 20.1338L2.09857 20.1211L2.08585 19.8539C2.06889 19.5231 2.15794 19.2008 2.32757 18.9676C2.56929 18.6326 3.68035 18.1237 4.47336 17.9837C4.61331 17.9583 4.77445 17.9286 4.83382 17.9201C5.00345 17.8904 5.72437 17.9286 5.97881 17.9795ZM19.5491 17.9795C20.393 18.1576 21.4362 18.6368 21.6736 18.9676C21.8433 19.2008 21.9323 19.5231 21.9154 19.8539L21.9026 20.1211L18.9638 20.1338L16.025 20.1423L15.8384 19.9854C15.6264 19.803 15.6052 19.7055 15.7112 19.3492C15.8045 19.0312 15.9869 18.8149 16.3049 18.6368C16.852 18.3315 17.539 18.0728 18.0436 17.9837C18.1835 17.9583 18.3447 17.9286 18.4041 17.9201C18.5737 17.8904 19.2946 17.9286 19.5491 17.9795ZM12.8233 19.786C13.663 19.9175 14.9394 20.4179 15.2617 20.7444C15.5119 20.9904 15.6688 21.5035 15.5882 21.8131L15.5628 21.9234H12.0006H8.43842L8.41298 21.8131C8.3324 21.5035 8.48931 20.9904 8.73951 20.7444C9.04908 20.4306 10.2534 19.9472 11.0889 19.7988C11.6274 19.7055 12.2763 19.7012 12.8233 19.786Z" fill="#222B45"/>
</svg>
