<svg width="24" height="24" viewBox="0 0 24 24" fill="none" xmlns="http://www.w3.org/2000/svg">
<path d="M10.9205 1.91043L10.9203 1.91046C8.87904 2.16354 6.99099 3.08464 5.54681 4.52467L5.54666 4.52482C4.01108 6.0604 3.06511 8.1143 2.89082 10.2804L2.86842 10.5588L2.69752 10.662L2.69592 10.663C2.18782 10.9783 1.79206 11.5395 1.6651 12.1261L1.66492 12.1269C1.64129 12.2392 1.62594 12.4799 1.61594 12.7675C1.60572 13.0611 1.60073 13.4192 1.60099 13.7769C1.60124 14.1345 1.60674 14.4929 1.61761 14.7872C1.62822 15.0745 1.6443 15.3161 1.66909 15.4301C1.84446 16.2703 2.56213 16.9986 3.38525 17.1702L3.38551 17.1703C4.17178 17.3328 4.87609 17.0424 5.22593 16.3755L5.33571 16.1722L5.35372 16.1388V16.1009V13.7742V11.4476V11.4097L5.33571 11.3763L5.22607 11.1733C5.15975 11.0458 5.05146 10.9088 4.93701 10.7917C4.8226 10.6746 4.69086 10.5659 4.57195 10.5028L4.56559 10.4994L4.56551 10.4996C4.48584 10.4621 4.33818 10.4104 4.22634 10.3802L4.22445 10.3797L4.22445 10.3797L4.16143 10.3637L4.16873 10.3077L4.16873 10.3077C4.33434 9.0353 4.51809 8.39891 4.99496 7.44515C6.11192 5.21524 8.24225 3.64868 10.7428 3.22369C11.2524 3.14011 12.259 3.10797 12.7799 3.1636C15.1931 3.42418 17.2711 4.68991 18.5768 6.69251L18.5769 6.6927C19.206 7.65441 19.6302 8.78414 19.77 9.85447C19.77 9.85454 19.7701 9.8546 19.7701 9.85467L19.9188 9.83525C19.98 10.309 20.0065 10.4357 19.9576 10.4812C19.9315 10.5055 19.8839 10.5066 19.8086 10.5251L10.9205 1.91043ZM10.9205 1.91043C11.8354 1.79815 12.8964 1.84399 13.8539 2.03466L13.8543 2.03474C15.7892 2.42505 17.6848 3.54467 18.9397 5.04462C20.2039 6.54919 20.9059 8.21445 21.0926 10.1349C21.0926 10.1349 21.0926 10.135 21.0926 10.135L21.1344 10.5591L21.3079 10.6668L10.9205 1.91043ZM20.8126 19.4122C20.5119 20.0305 20.014 20.5234 19.3936 20.8314L19.3928 20.8318C19.1172 20.9665 18.9275 21.0464 18.6619 21.0919C18.4041 21.136 18.0776 21.1471 17.5298 21.1572L21.3082 10.667C21.8125 10.9785 22.208 11.5398 22.3349 12.1261L22.335 12.1266C22.3587 12.238 22.3741 12.4785 22.3841 12.7656C22.3944 13.0589 22.3995 13.4169 22.3995 13.7742C22.3995 14.1316 22.3944 14.4896 22.3841 14.7829C22.3741 15.0699 22.3587 15.3104 22.335 15.4219L22.335 15.4219C22.2081 16.017 21.8205 16.5659 21.3002 16.8854C21.2999 16.8856 21.2996 16.8858 21.2993 16.8859L21.1367 16.9887L21.1219 17.7691L21.1219 17.7695C21.1117 18.238 21.1006 18.5203 21.0582 18.7488C21.0145 18.9841 20.9385 19.1583 20.8126 19.4122ZM20.8126 19.4122C20.8126 19.4123 20.8125 19.4125 20.8124 19.4126L20.678 19.346L20.8129 19.4115C20.8128 19.4117 20.8127 19.412 20.8126 19.4122ZM4.02156 11.689L4.02106 11.6886C3.93742 11.6179 3.80334 11.5914 3.63505 11.6355C3.46845 11.6792 3.28653 11.7891 3.13684 11.9587C3.06989 12.0357 3.02776 12.0897 2.99654 12.1499C2.96607 12.2087 2.94226 12.281 2.92485 12.3957C2.88872 12.6337 2.8842 13.0196 2.8842 13.7742C2.8842 14.5311 2.88873 14.9167 2.92532 15.1546C2.94292 15.269 2.96701 15.3412 2.99795 15.4003C3.02976 15.461 3.0727 15.5156 3.14094 15.5939C3.28397 15.7565 3.47673 15.868 3.65523 15.9131C3.83941 15.9597 3.96956 15.9286 4.03198 15.8686L4.09449 15.8037V13.7742V11.7502L4.02156 11.689ZM20.2159 11.63L20.2159 11.63L20.2114 11.6296C20.092 11.6188 20.0566 11.62 20.0386 11.6246C20.0383 11.6246 20.0381 11.6247 20.0379 11.6247C20.0331 11.6258 20.024 11.6279 19.9759 11.6761L19.9055 11.7465V13.7742V15.8037L19.968 15.8686C20.0305 15.9286 20.1606 15.9597 20.3448 15.9131C20.5233 15.868 20.716 15.7565 20.859 15.594C20.9273 15.5156 20.9702 15.461 21.0021 15.4003C21.033 15.3412 21.0571 15.269 21.0747 15.1546C21.1113 14.9167 21.1158 14.5311 21.1158 13.7742C21.1158 13.2515 21.1127 12.9155 21.1037 12.6904C21.0945 12.4627 21.0795 12.3609 21.0609 12.2989C21.0319 12.2022 20.9621 12.0823 20.8676 11.9694C20.7742 11.8579 20.6675 11.7662 20.5741 11.7164C20.4979 11.6808 20.3317 11.637 20.2159 11.63ZM15.4829 20.4848C15.4829 20.4257 15.4771 20.4026 15.4695 20.3856C15.4607 20.3659 15.4421 20.3388 15.388 20.2847L15.2932 20.1899H14.3879H13.4826L13.3878 20.2847C13.3302 20.3423 13.3138 20.3668 13.306 20.3852C13.2986 20.4026 13.2929 20.4288 13.2929 20.5052C13.2929 20.5947 13.3098 20.6606 13.3364 20.7096C13.3616 20.7559 13.3997 20.795 13.4569 20.8269C13.4591 20.8276 13.464 20.829 13.4724 20.8308C13.4883 20.8342 13.5103 20.8379 13.5389 20.8415C13.5959 20.8488 13.6713 20.8551 13.7605 20.8602C13.9385 20.8703 14.1635 20.8751 14.3896 20.8746C14.6157 20.8741 14.8407 20.8683 15.0187 20.8574C15.1079 20.852 15.1834 20.8454 15.2404 20.8379C15.269 20.8341 15.2911 20.8304 15.3071 20.8269C15.3171 20.8247 15.3222 20.8231 15.3238 20.8226C15.411 20.7773 15.4829 20.6623 15.4829 20.4848Z" fill="#8C2C8C" stroke="#8C2C8C" stroke-width="0.3"/>
<path d="M8.53285 6.6249L8.53083 6.62514C7.65405 6.74352 6.95053 7.35783 6.68505 8.21939C6.64403 8.35209 6.62542 8.47727 6.61565 8.84029C6.60589 9.20307 6.60488 9.81793 6.60488 10.9373V10.9447C6.60488 12.1381 6.60488 12.748 6.61619 13.0943C6.62186 13.2682 6.63051 13.3813 6.64457 13.4712C6.65901 13.5635 6.67869 13.6279 6.70158 13.7008L6.70171 13.7012C6.96384 14.5269 7.66362 15.1264 8.52078 15.2533L8.52152 15.2534L8.52152 15.2534L8.70704 15.2799V15.7294C8.70704 16.0733 8.72103 16.3208 8.766 16.5153C8.81275 16.7175 8.89241 16.8605 9.01475 16.9969L9.01563 16.9979L9.01564 16.9979C9.35459 17.3694 9.90181 17.4952 10.3493 17.2857L10.2857 17.1499M8.53285 6.6249L17.1554 13.6558M8.53285 6.6249C8.57645 6.61961 8.71395 6.61584 8.90904 6.61254C9.10994 6.60915 9.38411 6.60621 9.71164 6.60391C10.3668 6.59932 11.2367 6.59728 12.1637 6.59932M8.53285 6.6249L12.1637 6.59932M10.2857 17.1499L10.3474 17.2866C10.3972 17.2641 10.4566 17.2222 10.5201 17.1722C10.5867 17.1197 10.6685 17.0497 10.7656 16.9624C10.9599 16.7878 11.221 16.539 11.5541 16.212L11.5542 16.2119L12.4901 15.2916H13.8369C14.2259 15.2916 14.6088 15.2865 14.9132 15.2788C15.2126 15.2712 15.4472 15.261 15.5311 15.2494L15.5333 15.2491L15.5333 15.249C15.8823 15.1954 16.3567 14.9655 16.6368 14.7247C16.9208 14.4807 17.1806 14.0766 17.2986 13.7007M10.2857 17.1499C9.90199 17.3295 9.42441 17.2234 9.12644 16.8968L11.449 16.1049C10.7837 16.758 10.4122 17.0927 10.2857 17.1499ZM17.2986 13.7007L17.1554 13.6558M17.2986 13.7007C17.2986 13.7008 17.2985 13.7008 17.2985 13.7008L17.1554 13.6558M17.2986 13.7007C17.3214 13.6279 17.3411 13.5635 17.3556 13.4712C17.3696 13.3813 17.3783 13.2682 17.3839 13.0943C17.3952 12.748 17.3952 12.1382 17.3952 10.9448V10.9373C17.3952 9.81793 17.3942 9.20307 17.3845 8.84029C17.3747 8.47738 17.3561 8.35217 17.3151 8.21951M17.1554 13.6558C17.2452 13.3701 17.2452 13.3374 17.2452 10.9373C17.2452 8.69636 17.2412 8.48819 17.1718 8.26369M17.3151 8.21951C17.3151 8.21955 17.3151 8.21959 17.3152 8.21963L17.1718 8.26369M17.3151 8.21951C17.3151 8.21947 17.3151 8.21943 17.3151 8.21939L17.1718 8.26369M17.3151 8.21951L17.1718 8.26369M12.1637 6.59932H12.1635L12.1633 6.74932L12.1637 6.59932ZM15.8486 6.70526L15.8496 6.70564L15.8003 6.84728L15.8474 6.70489C15.8478 6.70502 15.8482 6.70514 15.8486 6.70526ZM15.5291 7.9549L15.5291 7.95491L15.5275 7.95414C15.4918 7.93709 15.4695 7.92678 15.4073 7.9174C15.3366 7.90674 15.22 7.89855 14.9988 7.89269C14.5595 7.88103 13.7364 7.87897 12.1097 7.8749L12.1021 7.87488C12.102 7.87488 12.1019 7.87488 12.1017 7.87488C11.1939 7.87488 10.3476 7.87794 9.71607 7.88355C9.4002 7.88635 9.13853 7.88979 8.94995 7.89379C8.85557 7.89579 8.78019 7.89792 8.72575 7.90015C8.68325 7.90189 8.66051 7.90352 8.65138 7.90418C8.64723 7.90448 8.64589 7.90457 8.6468 7.90439L8.64531 7.90469C8.32767 7.96752 8.04302 8.21472 7.9293 8.52924C7.92902 8.53014 7.92818 8.53306 7.927 8.53865C7.92555 8.54546 7.92388 8.55483 7.92211 8.56735C7.91854 8.59255 7.91501 8.62708 7.9117 8.67349C7.90508 8.76629 7.89978 8.89983 7.89572 9.08839C7.88759 9.46514 7.88453 10.0534 7.88453 10.9577V13.2495L7.98342 13.4508C7.98343 13.4509 7.98344 13.4509 7.98345 13.4509C8.03922 13.5643 8.09659 13.6475 8.16682 13.7173C8.23747 13.7875 8.32658 13.8496 8.45224 13.9143C8.55407 13.9668 8.64924 13.9875 9.02659 14.0039C9.22386 14.0119 9.39041 14.0189 9.51999 14.0464C9.65646 14.0754 9.77561 14.1318 9.85663 14.2541C9.93062 14.3659 9.95861 14.513 9.97231 14.6855C9.98628 14.8615 9.98668 15.0918 9.98668 15.3865C9.98668 15.5954 9.98994 15.7873 9.9953 15.9349C10.0286 15.9036 10.0652 15.869 10.1048 15.8314C10.3009 15.6449 10.5666 15.3874 10.8539 15.1042L10.8544 15.1037L11.9075 14.0751L11.9505 14.0331L12.0105 14.0324L13.729 14.012L15.4111 13.992L15.5872 13.8988L15.5876 13.8986C15.7971 13.7885 15.934 13.6428 16.0437 13.4052L16.0437 13.4052L16.0445 13.4034C16.0628 13.3651 16.073 13.3412 16.0818 13.2927C16.0918 13.2377 16.0996 13.1513 16.105 12.9906C16.1156 12.6703 16.1156 12.0861 16.1156 10.9373V8.62509L16.0167 8.42371L16.0163 8.42296C15.9059 8.19506 15.7734 8.06792 15.5291 7.9549Z" fill="#8C2C8C" stroke="#8C2C8C" stroke-width="0.3"/>
<path d="M10.2649 10.6965L10.3975 10.6265C10.4536 10.7327 10.473 10.8868 10.473 11.019C10.473 11.1509 10.4536 11.3047 10.3979 11.4109C10.3129 11.5752 10.1621 11.7063 9.99975 11.7889C9.83786 11.8713 9.64517 11.9153 9.4685 11.8805L9.4685 11.8805L9.46704 11.8802C9.06684 11.7972 8.74746 11.4249 8.74746 11.019C8.74746 10.6488 9.02128 10.2901 9.37611 10.1816L9.3761 10.1816L9.37823 10.181C9.45923 10.1576 9.5288 10.1414 9.60566 10.1414C9.68123 10.1414 9.75412 10.1571 9.84164 10.18L9.84165 10.1799L9.84613 10.1812C9.95845 10.2144 10.0704 10.2782 10.1649 10.354C10.2589 10.4295 10.3453 10.5247 10.3984 10.6281L10.2649 10.6965ZM10.2649 10.6965C10.1832 10.5374 9.98323 10.3782 9.80363 10.3251L9.49749 11.7333C9.7669 11.7864 10.1302 11.6027 10.2649 11.3415C10.3424 11.1945 10.3424 10.8435 10.2649 10.6965Z" fill="#8C2C8C" stroke="#8C2C8C" stroke-width="0.3"/>
<path d="M12.2099 11.8607L12.2097 11.8607C11.8989 11.9532 11.5923 11.8337 11.3903 11.6275C11.1882 11.4212 11.0729 11.1104 11.1612 10.7949L11.3056 10.8353L11.161 10.7956C11.1973 10.6634 11.2759 10.5367 11.3706 10.4344C11.4644 10.333 11.5833 10.2455 11.711 10.2006C11.7989 10.1669 11.9218 10.1424 11.9996 10.1424C12.1866 10.1424 12.3712 10.2193 12.5182 10.3337C12.6655 10.4483 12.7872 10.6099 12.8381 10.7954C12.9641 11.2498 12.6754 11.7215 12.2099 11.8607Z" fill="#8C2C8C" stroke="#8C2C8C" stroke-width="0.3"/>
<path d="M13.597 10.6321C13.6969 10.4373 13.8824 10.2779 14.0996 10.2004C14.6418 10.0004 15.247 10.4369 15.2519 11.0136L15.2519 11.0136V11.0149C15.2519 11.216 15.1665 11.4111 15.0396 11.5635C14.9125 11.7162 14.7344 11.8373 14.533 11.8801L14.533 11.8801L13.6018 11.4115C13.5459 11.3055 13.5263 11.1514 13.5258 11.0201C13.5253 10.8891 13.5435 10.7362 13.597 10.6321ZM13.597 10.6321C13.597 10.6321 13.597 10.632 13.597 10.632L13.7304 10.7006M13.597 10.6321C13.5969 10.6321 13.5969 10.6322 13.5969 10.6322L13.7304 10.7006M13.7304 10.7006C13.812 10.5414 13.9671 10.4067 14.1508 10.3414M13.7304 10.7006L14.1508 10.3414M14.1508 10.3414C14.5917 10.1781 15.0978 10.5374 15.1019 11.0149C15.1019 11.3333 14.8284 11.6639 14.5019 11.7333L14.1508 10.3414Z" fill="#8C2C8C" stroke="#8C2C8C" stroke-width="0.3"/>
</svg>
