<svg width="43" height="43" viewBox="0 0 43 43" fill="none" xmlns="http://www.w3.org/2000/svg">
<path fill-rule="evenodd" clip-rule="evenodd" d="M17.9353 41.2084C19.0116 41.2084 19.7292 40.4917 19.7292 39.4167C19.7292 38.3417 19.0116 37.6251 17.9353 37.6251H8.96571C7.88937 37.6251 7.1718 36.9084 7.1718 35.8334V7.16675C7.1718 6.09175 7.88937 5.37508 8.96571 5.37508H17.9353C19.0116 5.37508 19.7292 4.65841 19.7292 3.58341C19.7292 2.50841 19.0116 1.79175 17.9353 1.79175H8.96571C5.91607 1.79175 3.58398 4.12091 3.58398 7.16675V35.8334C3.58398 38.8792 5.91607 41.2084 8.96571 41.2084H17.9353ZM39.283 20.7834C39.4624 21.3209 39.4624 21.8584 39.283 22.2167C39.283 22.3959 39.1036 22.5751 38.9242 22.7542L31.7486 29.9209C31.3898 30.2792 30.8516 30.4584 30.4928 30.4584C30.1341 30.4584 29.5959 30.2792 29.2371 29.9209C28.5195 29.2042 28.5195 28.1292 29.2371 27.4126L33.3631 23.2917H16.1416C15.0652 23.2917 14.3477 22.5751 14.3477 21.5001C14.3477 20.4251 15.0652 19.7084 16.1416 19.7084H33.3631L29.2371 15.5876C28.5195 14.8709 28.5195 13.7959 29.2371 13.0792C29.9547 12.3626 31.031 12.3626 31.7486 13.0792L38.9242 20.2459C39.0139 20.3355 39.0587 20.4251 39.1036 20.5147C39.1484 20.6042 39.1933 20.6938 39.283 20.7834Z" fill="#8C2C8C"/>
<mask id="mask0_1_15367" style="mask-type:alpha" maskUnits="userSpaceOnUse" x="3" y="1" width="37" height="41">
<path fill-rule="evenodd" clip-rule="evenodd" d="M17.9353 41.2084C19.0116 41.2084 19.7292 40.4917 19.7292 39.4167C19.7292 38.3417 19.0116 37.6251 17.9353 37.6251H8.96571C7.88937 37.6251 7.1718 36.9084 7.1718 35.8334V7.16675C7.1718 6.09175 7.88937 5.37508 8.96571 5.37508H17.9353C19.0116 5.37508 19.7292 4.65841 19.7292 3.58341C19.7292 2.50841 19.0116 1.79175 17.9353 1.79175H8.96571C5.91607 1.79175 3.58398 4.12091 3.58398 7.16675V35.8334C3.58398 38.8792 5.91607 41.2084 8.96571 41.2084H17.9353ZM39.283 20.7834C39.4624 21.3209 39.4624 21.8584 39.283 22.2167C39.283 22.3959 39.1036 22.5751 38.9242 22.7542L31.7486 29.9209C31.3898 30.2792 30.8516 30.4584 30.4928 30.4584C30.1341 30.4584 29.5959 30.2792 29.2371 29.9209C28.5195 29.2042 28.5195 28.1292 29.2371 27.4126L33.3631 23.2917H16.1416C15.0652 23.2917 14.3477 22.5751 14.3477 21.5001C14.3477 20.4251 15.0652 19.7084 16.1416 19.7084H33.3631L29.2371 15.5876C28.5195 14.8709 28.5195 13.7959 29.2371 13.0792C29.9547 12.3626 31.031 12.3626 31.7486 13.0792L38.9242 20.2459C39.0139 20.3355 39.0587 20.4251 39.1036 20.5147C39.1484 20.6042 39.1933 20.6938 39.283 20.7834Z" fill="white"/>
</mask>
<g mask="url(#mask0_1_15367)">
<rect width="43" height="43" fill="#8C2C8C"/>
</g>
</svg>
