<svg width="24" height="24" viewBox="0 0 24 24" fill="none" xmlns="http://www.w3.org/2000/svg">
<g clip-path="url(#clip0_1_10662)">
<path d="M15.0469 24.0469C13.0771 24.0469 11.1074 24.0469 9.12739 24.0287C9.03824 23.9914 8.96035 23.9633 8.88036 23.9547C8.54403 23.9187 8.20204 23.9145 7.87143 23.8505C7.25214 23.7307 6.63695 23.5871 6.02427 23.4362C4.6135 23.0889 3.4043 22.3944 2.40978 21.327C1.87308 20.7509 1.44402 20.1094 1.13371 19.3865C0.575871 18.087 0.195614 16.7447 0.136847 15.3225C0.13494 15.2763 0.0781048 15.2324 0.046875 15.1875C0.0468751 13.1084 0.0468751 11.0293 0.0631092 8.9443C0.0997724 8.85967 0.130607 8.782 0.138835 8.70201C0.175046 8.34995 0.169344 7.98948 0.24444 7.64642C0.38387 7.00947 0.561627 6.38046 0.736774 5.75187C1.10122 4.44387 1.72825 3.30208 2.7728 2.39526C3.56315 1.70912 4.43445 1.18344 5.41902 0.845248C6.67741 0.413005 7.9768 0.195464 9.30473 0.136932C9.36062 0.134468 9.41413 0.0781201 9.46875 0.046875C11.1885 0.046875 12.9082 0.046875 14.6356 0.0641788C14.7143 0.101197 14.7845 0.132505 14.8567 0.138713C15.2713 0.174312 15.6917 0.172591 16.0999 0.242759C16.7589 0.35603 17.4132 0.502174 18.0639 0.657835C19.4797 0.996561 20.685 1.70009 21.6834 2.76517C22.2226 3.34053 22.644 3.98808 22.958 4.707C23.5301 6.01699 23.8999 7.37703 23.9569 8.81337C23.9588 8.86107 24.0156 8.90659 24.0469 8.95312C24.0469 11.0635 24.0469 13.1738 24.0295 15.2919C23.9768 15.5546 23.9412 15.8096 23.9064 16.0647C23.8435 16.5269 23.8333 17.004 23.7069 17.4482C23.4854 18.2268 23.2399 19.0057 22.9171 19.7465C22.5817 20.5165 22.0478 21.1589 21.4003 21.7143C20.7504 22.272 20.056 22.7402 19.2633 23.0633C18.3649 23.4294 17.4294 23.6596 16.4743 23.8089C16.0353 23.8775 15.5898 23.9046 15.1481 23.957C15.1113 23.9613 15.0805 24.0157 15.0469 24.0469ZM14.1434 10.4425C13.4367 9.73584 12.7302 9.02901 12.0233 8.32252C11.4987 7.79821 10.978 7.2698 10.4472 6.75182C10.0712 6.38489 9.5694 6.35026 9.16883 6.64426C8.65289 7.02293 8.60666 7.70071 9.07436 8.1703C10.2975 9.39837 11.5247 10.6224 12.75 11.8483C12.814 11.9123 12.875 11.9794 12.9636 12.0726C12.8776 12.1423 12.8054 12.1911 12.7448 12.2515C11.5237 13.4706 10.3027 14.6897 9.08461 15.9118C8.64919 16.3487 8.63909 16.94 9.0505 17.3481C9.45619 17.7506 10.0428 17.7458 10.4704 17.3198C11.9915 15.8045 13.5101 14.2866 15.0247 12.7649C15.4615 12.3261 15.4574 11.7764 15.0266 11.3286C14.7452 11.0361 14.4538 10.7532 14.1434 10.4425Z" fill="#8C2C8C"/>
<path d="M14.1554 10.4543C14.454 10.7532 14.7454 11.0361 15.0268 11.3286C15.4576 11.7764 15.4617 12.3261 15.025 12.7649C13.5103 14.2866 11.9917 15.8045 10.4706 17.3198C10.043 17.7458 9.45641 17.7506 9.05073 17.3481C8.63931 16.94 8.64942 16.3487 9.08483 15.9118C10.3029 14.6897 11.5239 13.4706 12.745 12.2515C12.8056 12.1911 12.8778 12.1423 12.9638 12.0726C12.8752 11.9794 12.8142 11.9124 12.7502 11.8483C11.5249 10.6224 10.2977 9.39837 9.07458 8.1703C8.60688 7.70072 8.65311 7.02294 9.16905 6.64426C9.56962 6.35026 10.0714 6.3849 10.4475 6.75182C10.9783 7.2698 11.4989 7.79821 12.0235 8.32253C12.7304 9.02901 13.437 9.73585 14.1554 10.4543Z" fill="white"/>
</g>
<defs>
<clipPath id="clip0_1_10662">
<rect width="24" height="24" fill="white"/>
</clipPath>
</defs>
</svg>
