<svg width="24" height="24" viewBox="0 0 24 24" fill="none" xmlns="http://www.w3.org/2000/svg">
<g clip-path="url(#clip0_1_10600)">
<path d="M11.9998 1.98999C11.1486 1.98999 10.4598 2.67878 10.4598 3.52999C10.4598 3.59616 10.4748 3.65933 10.4839 3.72249C7.82195 4.40226 5.8398 6.82054 5.8398 9.68999V16.62C5.8398 17.0561 5.50594 17.39 5.0698 17.39H4.2998V18.93H9.83418C9.74695 19.1736 9.6898 19.4293 9.6898 19.7C9.6898 20.9663 10.7335 22.01 11.9998 22.01C13.2661 22.01 14.3098 20.9663 14.3098 19.7C14.3098 19.4293 14.2527 19.1736 14.1654 18.93H19.6998V17.39H18.9298C18.4937 17.39 18.1598 17.0561 18.1598 16.62V9.90655C18.1598 7.01304 16.2258 4.43233 13.5157 3.72249C13.5248 3.65933 13.5398 3.59616 13.5398 3.52999C13.5398 2.67878 12.851 1.98999 11.9998 1.98999ZM11.6629 5.06999C11.7742 5.06097 11.8855 5.06999 11.9998 5.06999C12.0479 5.06999 12.0961 5.06999 12.1442 5.06999C14.6587 5.14519 16.6198 7.34991 16.6198 9.90655V16.62C16.6198 16.8907 16.677 17.1464 16.7642 17.39H7.23543C7.32266 17.1464 7.3798 16.8907 7.3798 16.62V9.68999C7.3798 7.24464 9.2627 5.24444 11.6629 5.06999ZM11.9998 18.93C12.4329 18.93 12.7698 19.2669 12.7698 19.7C12.7698 20.1331 12.4329 20.47 11.9998 20.47C11.5667 20.47 11.2298 20.1331 11.2298 19.7C11.2298 19.2669 11.5667 18.93 11.9998 18.93Z" fill="#8C2C8C"/>
</g>
<defs>
<clipPath id="clip0_1_10600">
<rect width="24" height="24" fill="white"/>
</clipPath>
</defs>
</svg>
