<svg width="24" height="24" viewBox="0 0 24 24" fill="none" xmlns="http://www.w3.org/2000/svg">
<g clip-path="url(#clip0_1_10651)">
<path d="M2.07188 0.0937977C1.575 0.225048 1.19531 0.44536 0.820313 0.82036C0.440625 1.20005 0.225 1.57505 0.09375 2.09067C0 2.44224 0 2.63911 0 10.5C0 18.361 0 18.5579 0.09375 18.9094C0.225 19.425 0.440625 19.8 0.820313 20.1797C1.2 20.5594 1.575 20.775 2.09063 20.9063C2.4375 20.9954 2.625 21 6.6 21C11.2031 21 10.9359 21.0188 11.1891 20.6907C11.4375 20.3625 11.3625 19.9079 11.025 19.65L10.8609 19.5235L6.6375 19.5C2.55938 19.4766 2.40938 19.4719 2.22656 19.3829C1.99219 19.2657 1.73438 19.0079 1.61719 18.7735C1.52344 18.5907 1.52344 18.4454 1.52344 10.5C1.52344 2.55474 1.52344 2.40942 1.61719 2.22661C1.73438 1.99224 1.99219 1.73442 2.22656 1.61724C2.40938 1.52349 2.54063 1.52349 8.50781 1.52349H14.6016L14.7891 1.62661C15.0328 1.75786 15.3 2.03911 15.4078 2.27349C15.4875 2.44692 15.4922 2.70474 15.5156 5.46099C15.5391 8.25474 15.5438 8.47505 15.6234 8.59224C15.7547 8.7938 15.975 8.9063 16.2469 8.9063C16.5516 8.9063 16.7672 8.77036 16.9125 8.48442L17.0203 8.27349L17.0016 5.27349C16.9875 1.97349 17.0016 2.1188 16.6875 1.49536C16.3781 0.890673 15.7547 0.35161 15.1031 0.131298L14.7891 0.0234852L8.60156 0.0141106C2.62969 0.00473595 2.4 0.00942421 2.07188 0.0937977Z" fill="#8C2C8C"/>
<path d="M3.50135 4.05C3.27166 4.13437 3.20135 4.2 3.08416 4.425C2.91073 4.76719 3.02323 5.14219 3.37479 5.37656L3.52948 5.48438H5.99979H8.4701L8.62479 5.37656C8.84979 5.22656 8.96229 5.05312 8.98573 4.81875C9.01854 4.54687 8.87791 4.26562 8.63885 4.12031L8.46073 4.00781L6.0701 3.99844C4.15292 3.98906 3.64666 3.99844 3.50135 4.05Z" fill="#8C2C8C"/>
<path d="M3.37542 8.11874C3.15042 8.27342 3.03792 8.44686 3.01449 8.68124C2.98167 8.95311 3.1223 9.23436 3.36136 9.37967L3.53949 9.49217L8.34417 9.50624C10.9879 9.51561 13.2379 9.50624 13.3504 9.49217C13.6176 9.45467 13.9036 9.20155 13.9692 8.94842C14.0582 8.62499 13.8895 8.24061 13.5942 8.08592C13.477 8.02499 12.7832 8.01561 8.49417 8.01561H3.53011L3.37542 8.11874Z" fill="#8C2C8C"/>
<path d="M17.1802 10.2375C14.2927 11.2078 12.413 11.8641 12.3099 11.9297C12.2442 11.9719 12.1458 12.0985 12.0942 12.211C11.9958 12.4125 11.9958 12.45 12.0145 14.9157C12.0333 17.6578 12.038 17.7141 12.352 18.6328C13.0177 20.5782 14.8411 22.4766 17.227 23.7C17.9911 24.0938 18.0099 24.0938 18.8114 23.6813C21.1974 22.4532 23.0255 20.5313 23.6677 18.5625C23.9677 17.6532 23.9677 17.6438 23.9864 14.9157C24.0052 12.45 24.0052 12.4125 23.9067 12.211C23.8552 12.0985 23.7567 11.9719 23.6911 11.9297C23.5552 11.8407 18.3333 10.0547 18.0895 10.0125C17.9724 9.9891 17.738 10.05 17.1802 10.2375ZM20.227 12.3L22.477 13.0641V15.1688L22.4724 17.2735L22.3505 17.7328C22.0036 19.0032 21.1645 20.1797 19.8895 21.1969C19.4583 21.5391 18.7927 21.9891 18.3614 22.2188L18.0052 22.411L17.7333 22.275C17.3255 22.0641 16.538 21.5344 15.9989 21.1032C14.813 20.1469 13.988 18.961 13.6505 17.7328L13.5286 17.2735L13.5239 15.1688V13.0641L15.6333 12.3469C17.4239 11.7422 17.977 11.55 17.977 11.536C17.977 11.5313 18.9895 11.8782 20.227 12.3Z" fill="#8C2C8C"/>
<path d="M20.4044 14.0906C20.2965 14.1422 19.8934 14.6484 19.0028 15.839C18.3137 16.7578 17.7325 17.5265 17.7137 17.5547C17.6856 17.5781 17.3715 17.3015 16.9075 16.8422C16.2747 16.214 16.1153 16.0781 15.9512 16.0359C15.595 15.9375 15.2575 16.0875 15.0934 16.4062C14.9903 16.6125 14.9762 16.8047 15.0465 17.0015C15.1122 17.175 17.2778 19.35 17.47 19.4343C17.6715 19.5234 17.8684 19.5187 18.0747 19.4203C18.22 19.35 18.5481 18.9375 19.8512 17.2031C20.92 15.7781 21.4637 15.014 21.4825 14.9109C21.5434 14.6015 21.37 14.2265 21.0934 14.0859C20.9153 13.9968 20.5919 13.9968 20.4044 14.0906Z" fill="#8C2C8C"/>
<path d="M3.44497 12.0656C3.13091 12.2016 2.95278 12.5625 3.01841 12.9141C3.0606 13.1344 3.29497 13.3922 3.50591 13.4531C3.6231 13.4906 4.63091 13.5 6.59497 13.4906C9.46841 13.4766 9.5106 13.4766 9.64185 13.3781C10.1012 13.0359 10.1012 12.4641 9.64185 12.1219C9.5106 12.0234 9.46841 12.0234 6.5481 12.0141C4.15747 12.0047 3.55747 12.0141 3.44497 12.0656Z" fill="#8C2C8C"/>
</g>
<defs>
<clipPath id="clip0_1_10651">
<rect width="24" height="24" fill="white"/>
</clipPath>
</defs>
</svg>
