<svg width="24" height="24" viewBox="0 0 24 24" fill="none" xmlns="http://www.w3.org/2000/svg">
<g clip-path="url(#clip0_1_10609)">
<path d="M17.4004 3C15.9092 3 14.7004 4.20883 14.7004 5.7C14.7009 5.86934 14.7174 6.03824 14.7496 6.20449L8.3459 9.93984C7.85815 9.52666 7.23962 9.29993 6.60039 9.3C5.10922 9.3 3.90039 10.5088 3.90039 12C3.90039 13.4912 5.10922 14.7 6.60039 14.7C7.23864 14.6987 7.8558 14.4714 8.34238 14.0584L14.7496 17.7955C14.7174 17.9618 14.7009 18.1307 14.7004 18.3C14.7004 19.7912 15.9092 21 17.4004 21C18.8916 21 20.1004 19.7912 20.1004 18.3C20.1004 16.8088 18.8916 15.6 17.4004 15.6C16.7615 15.6008 16.1437 15.8282 15.6566 16.2416L9.25117 12.5045C9.28336 12.3382 9.29984 12.1693 9.30039 12C9.29984 11.8307 9.28336 11.6618 9.25117 11.4955L15.6549 7.76016C16.1426 8.17334 16.7612 8.40007 17.4004 8.4C18.8916 8.4 20.1004 7.19117 20.1004 5.7C20.1004 4.20883 18.8916 3 17.4004 3Z" fill="#8C2C8C"/>
</g>
<defs>
<clipPath id="clip0_1_10609">
<rect width="24" height="24" fill="white"/>
</clipPath>
</defs>
</svg>
