<svg width="24" height="24" viewBox="0 0 24 24" fill="none" xmlns="http://www.w3.org/2000/svg">
<path d="M9.80822 2.02206C8.45418 2.09642 6.75186 2.296 6.14529 2.45645C4.63081 2.8517 3.20633 4.14312 2.60759 5.66151C2.2593 6.54202 1.98145 9.17182 1.98145 11.5707C1.98145 13.4765 2.20059 16.0124 2.45105 16.9868C2.85804 18.5796 4.26686 20.0667 5.89092 20.6106C6.41922 20.7907 7.68716 20.9707 9.22121 21.0881C10.0939 21.1546 12.9859 21.1546 13.9212 21.0881L14.6491 21.0333L14.8995 21.2094C17.181 22.7982 20.3626 21.949 21.5679 19.4288C22.2684 17.9652 22.1315 16.2198 21.2118 14.901L21.0318 14.6466L21.0827 13.9227C21.1531 12.9913 21.1531 10.1032 21.0866 9.22269C20.9692 7.67691 20.7892 6.42071 20.6052 5.88066C20.1004 4.3701 18.762 3.03172 17.2515 2.53081C16.7193 2.3547 15.4004 2.16686 13.9564 2.0612C13.1894 2.0025 10.6065 1.97902 9.80822 2.02206ZM13.1776 3.50915C14.6491 3.58351 16.3083 3.78309 16.7858 3.94354C17.7446 4.26443 18.6212 5.06668 19.0595 6.02155C19.2395 6.40897 19.2982 6.6516 19.4117 7.5008C19.6386 9.20704 19.7286 11.3085 19.6426 12.9521C19.623 13.3865 19.6112 13.4531 19.5565 13.4335C19.5212 13.4257 19.3373 13.3513 19.1456 13.273C18.5977 13.0461 18.1516 12.9639 17.4589 12.9678C16.8367 12.9678 16.5392 13.0148 16.007 13.1948C14.9308 13.5548 13.9447 14.4236 13.4124 15.4724C12.8333 16.6268 12.798 18.0513 13.3185 19.2723C13.3929 19.4523 13.4477 19.6088 13.4359 19.6166C13.389 19.6675 10.8727 19.6793 10.0039 19.6362C8.65377 19.5697 7.11189 19.3975 6.54054 19.2527C5.61698 19.0218 4.67385 18.247 4.17294 17.3117C3.88335 16.7716 3.7816 16.2864 3.62507 14.7562C3.38244 12.3377 3.4294 9.61012 3.74638 7.36384C3.85596 6.58899 3.91857 6.35418 4.11033 5.95502C4.49384 5.16843 5.17477 4.49141 5.95353 4.11573C6.36444 3.92006 6.61098 3.85353 7.36235 3.74787C9.08815 3.50524 11.2679 3.41523 13.1776 3.50915ZM18.2142 14.5253C18.7933 14.6623 19.443 15.0693 19.8265 15.535C20.0613 15.8207 20.347 16.3764 20.4409 16.7364C20.5348 17.0886 20.5348 17.8752 20.4409 18.2235C20.2804 18.8261 19.893 19.4405 19.4391 19.8162C19.1416 20.0628 18.5899 20.3445 18.222 20.4424C17.8307 20.548 17.0793 20.5363 16.6801 20.4228C14.6804 19.8475 13.8038 17.5347 14.9347 15.8246C15.3965 15.1241 16.1205 14.6388 16.9227 14.4862C17.275 14.4197 17.8463 14.4353 18.2142 14.5253Z" fill="#8C2C8C"/>
<path d="M6.46274 7.05864C6.17707 7.20735 6.0401 7.41867 6.0401 7.71609C6.03618 8.05655 6.22794 8.32266 6.55666 8.43224C6.73668 8.49485 16.3323 8.49877 16.5514 8.43615C16.7354 8.38528 16.9663 8.18961 17.0328 8.02133C17.1424 7.76305 17.0602 7.35214 16.8684 7.17996C16.6454 6.98429 16.8645 6.99211 11.5423 6.99211C7.09671 6.99603 6.5684 6.99994 6.46274 7.05864Z" fill="#8C2C8C"/>
<path d="M6.54054 11.6568C6.01614 11.8446 5.85961 12.5256 6.25486 12.8856C6.49749 13.1087 6.32921 13.1008 9.66733 13.0891L12.7354 13.0774L12.888 12.956C13.0994 12.7839 13.1894 12.6117 13.1894 12.3729C13.1894 12.1147 13.0759 11.8955 12.8646 11.7468L12.6963 11.6294L9.67907 11.6216C7.60498 11.6177 6.62272 11.6294 6.54054 11.6568Z" fill="#8C2C8C"/>
<path d="M17.1854 15.2062C16.9975 15.2923 16.8762 15.4175 16.7941 15.6092C16.7471 15.7227 16.7354 15.9184 16.7354 16.5093C16.7354 17.1902 16.7432 17.2763 16.8175 17.429C17.0249 17.8594 17.5532 17.9807 17.9446 17.6872C18.1872 17.4994 18.2224 17.3624 18.2224 16.4937C18.2224 16.0436 18.2068 15.6797 18.1794 15.6132C18.1246 15.4644 17.9172 15.2531 17.7646 15.1866C17.5924 15.1122 17.3732 15.1201 17.1854 15.2062Z" fill="#8C2C8C"/>
<path d="M17.2433 18.3409C16.8168 18.38 16.715 18.5444 16.7424 19.1666C16.7542 19.5071 16.7659 19.5619 16.852 19.6519C16.9851 19.7928 17.2042 19.8397 17.6112 19.8163C17.936 19.8006 17.9634 19.7889 18.0808 19.6754C18.2021 19.5541 18.2021 19.5462 18.2139 19.1118C18.2217 18.7244 18.2139 18.6579 18.1434 18.5444C18.1004 18.474 18.026 18.4035 17.9751 18.384C17.8538 18.337 17.4977 18.3174 17.2433 18.3409Z" fill="#8C2C8C"/>
</svg>
