<svg width="26" height="28" viewBox="0 0 26 28" fill="none" xmlns="http://www.w3.org/2000/svg">
<g filter="url(#filter0_d_1_21750)">
<path d="M21.25 13C21.25 17.5563 17.5563 21.25 13 21.25C8.44365 21.25 4.75 17.5563 4.75 13C4.75 8.44365 8.44365 4.75 13 4.75C17.5563 4.75 21.25 8.44365 21.25 13Z" fill="#8C2C8C"/>
</g>
<circle cx="13" cy="13" r="12" stroke="#8C2C8C"/>
<path d="M17.3536 13.3536C17.5488 13.1583 17.5488 12.8417 17.3536 12.6464L14.1716 9.46447C13.9763 9.2692 13.6597 9.2692 13.4645 9.46447C13.2692 9.65973 13.2692 9.97631 13.4645 10.1716L16.2929 13L13.4645 15.8284C13.2692 16.0237 13.2692 16.3403 13.4645 16.5355C13.6597 16.7308 13.9763 16.7308 14.1716 16.5355L17.3536 13.3536ZM10 13.5H17V12.5H10V13.5Z" fill="white"/>
<defs>
<filter id="filter0_d_1_21750" x="0.75" y="2.75" width="24.5" height="24.5" filterUnits="userSpaceOnUse" color-interpolation-filters="sRGB">
<feFlood flood-opacity="0" result="BackgroundImageFix"/>
<feColorMatrix in="SourceAlpha" type="matrix" values="0 0 0 0 0 0 0 0 0 0 0 0 0 0 0 0 0 0 127 0" result="hardAlpha"/>
<feOffset dy="2"/>
<feGaussianBlur stdDeviation="2"/>
<feColorMatrix type="matrix" values="0 0 0 0 0 0 0 0 0 0 0 0 0 0 0 0 0 0 0.15 0"/>
<feBlend mode="normal" in2="BackgroundImageFix" result="effect1_dropShadow_1_21750"/>
<feBlend mode="normal" in="SourceGraphic" in2="effect1_dropShadow_1_21750" result="shape"/>
</filter>
</defs>
</svg>
