<svg width="24" height="24" viewBox="0 0 24 24" fill="none" xmlns="http://www.w3.org/2000/svg">
<path d="M4.39699 0.0890751C3.6423 0.332825 3.08448 0.970325 2.95323 1.73907C2.91573 1.95001 2.90636 5.0672 2.91573 12.5438L2.9298 23.0485L3.09386 23.3719C3.32355 23.8219 3.53917 23.9672 4.00792 23.9906C4.60792 24.0235 4.55636 24.061 8.15636 21C9.91886 19.5 11.4517 18.2297 11.5548 18.1735C11.836 18.0281 12.286 18.0375 12.5673 18.1922C12.6798 18.2578 14.1235 19.4578 15.7735 20.8641C19.486 24.0235 19.2001 23.7891 19.4532 23.9016C19.7017 24.0141 20.1798 24.0328 20.4048 23.9344C20.611 23.8453 20.8314 23.6016 20.9626 23.3203L21.0704 23.086L21.0845 12.5625C21.0939 5.89689 21.0798 1.93126 21.0517 1.74376C20.9485 1.06876 20.5173 0.487513 19.8985 0.182825L19.5704 0.0234509L12.1173 0.0140762C4.9923 0.00469971 4.65011 0.00938797 4.39699 0.0890751Z" fill="#8C2C8C"/>
</svg>
