<svg width="18" height="18" viewBox="0 0 18 18" fill="none" xmlns="http://www.w3.org/2000/svg">
<g clip-path="url(#clip0_1_20913)">
<path d="M6.75 3V16.5M4.5 3H12.75C13.1478 3 13.5294 3.15804 13.8107 3.43934C14.092 3.72064 14.25 4.10218 14.25 4.5V13.5C14.25 13.8978 14.092 14.2794 13.8107 14.5607C13.5294 14.842 13.1478 15 12.75 15H4.5C4.30109 15 4.11032 14.921 3.96967 14.7803C3.82902 14.6397 3.75 14.4489 3.75 14.25V3.75C3.75 3.55109 3.82902 3.36032 3.96967 3.21967C4.11032 3.07902 4.30109 3 4.5 3V3Z" stroke="#8C2C8C" stroke-linecap="round" stroke-linejoin="round"/>
<path d="M9.75 6H11.25" stroke="#8C2C8C" stroke-linecap="round" stroke-linejoin="round"/>
<path d="M9.75 9H11.25" stroke="#8C2C8C" stroke-linecap="round" stroke-linejoin="round"/>
</g>
<defs>
<clipPath id="clip0_1_20913">
<rect width="18" height="18" fill="white"/>
</clipPath>
</defs>
</svg>
