<svg width="16" height="12" viewBox="0 0 16 12" fill="none" xmlns="http://www.w3.org/2000/svg">
<path d="M14.3937 0.0416568C14.0653 0.149316 14.0528 0.159103 9.87421 4.51767L5.76129 8.80447L3.9003 6.86334C2.17069 5.06576 2.02368 4.91895 1.82977 4.82434C1.33246 4.58292 0.80388 4.65796 0.409789 5.02987C0.0970192 5.32349 -0.0562381 5.79327 0.0188267 6.21739C0.0970193 6.65455 0.046976 6.59909 2.64297 9.29709C4.91368 11.6591 5.05443 11.7994 5.24522 11.8874C5.48918 11.9984 5.82384 12.031 6.04903 11.969C6.43061 11.8613 6.26797 12.0212 11.1441 6.93511C16.1922 1.66307 15.9044 1.98605 15.9826 1.51953C16.089 0.870307 15.698 0.240663 15.0693 0.0416568C14.8942 -0.0138041 14.5626 -0.0138041 14.3937 0.0416568Z" fill="#8C2C8C"/>
</svg>
