<svg width="64" height="64" viewBox="0 0 64 64" fill="none" xmlns="http://www.w3.org/2000/svg">
<mask id="path-1-inside-1_1_22286" fill="white">
<path d="M64 32C64 49.6731 49.6731 64 32 64C14.3269 64 0 49.6731 0 32C0 14.3269 14.3269 0 32 0C49.6731 0 64 14.3269 64 32Z"/>
</mask>
<path d="M64 32C64 49.6731 49.6731 64 32 64C14.3269 64 0 49.6731 0 32C0 14.3269 14.3269 0 32 0C49.6731 0 64 14.3269 64 32Z" fill="black" fill-opacity="0.12"/>
<path d="M61.5 32C61.5 48.2924 48.2924 61.5 32 61.5V66.5C51.0538 66.5 66.5 51.0538 66.5 32H61.5ZM32 61.5C15.7076 61.5 2.5 48.2924 2.5 32H-2.5C-2.5 51.0538 12.9462 66.5 32 66.5V61.5ZM2.5 32C2.5 15.7076 15.7076 2.5 32 2.5V-2.5C12.9462 -2.5 -2.5 12.9462 -2.5 32H2.5ZM32 2.5C48.2924 2.5 61.5 15.7076 61.5 32H66.5C66.5 12.9462 51.0538 -2.5 32 -2.5V2.5Z" fill="white" mask="url(#path-1-inside-1_1_22286)"/>
<path d="M28 23H25.3333C24.597 23 24 23.597 24 24.3333V40.3333C24 41.0697 24.597 41.6667 25.3333 41.6667H28C28.7364 41.6667 29.3333 41.0697 29.3333 40.3333V24.3333C29.3333 23.597 28.7364 23 28 23Z" fill="white"/>
<path d="M38.6665 23H35.9998C35.2635 23 34.6665 23.597 34.6665 24.3333V40.3333C34.6665 41.0697 35.2635 41.6667 35.9998 41.6667H38.6665C39.4029 41.6667 39.9998 41.0697 39.9998 40.3333V24.3333C39.9998 23.597 39.4029 23 38.6665 23Z" fill="white"/>
</svg>
