<svg width="120" height="136" viewBox="0 0 120 136" fill="none" xmlns="http://www.w3.org/2000/svg">
<g opacity="0.95">
<path d="M77.6359 62.868C78.6583 63.9383 79.3654 65.3134 79.6679 66.8196C79.9704 68.3258 79.8547 69.8955 79.3355 71.3304C78.8163 72.7653 77.9169 74.0011 76.7508 74.8815C75.5847 75.762 74.2043 76.2476 72.784 76.2772C71.3636 76.3067 69.9671 75.8787 68.7708 75.0473C67.5745 74.216 66.6321 73.0185 66.0626 71.6062C65.4932 70.1939 65.3222 68.6302 65.5713 67.1125C65.8205 65.5948 66.4786 64.1914 67.4624 63.0793C68.117 62.3395 68.8997 61.747 69.7657 61.3358C70.6316 60.9247 71.5637 60.703 72.5088 60.6833C73.4538 60.6637 74.3931 60.8465 75.2729 61.2214C76.1527 61.5963 76.9557 62.1558 77.6359 62.868Z" fill="#BA68C8"/>
<path opacity="0.3" d="M77.6359 62.868C78.6583 63.9383 79.3654 65.3134 79.6679 66.8196C79.9704 68.3258 79.8547 69.8955 79.3355 71.3304C78.8163 72.7653 77.9169 74.0011 76.7508 74.8815C75.5847 75.762 74.2043 76.2476 72.784 76.2772C71.3636 76.3067 69.9671 75.8787 68.7708 75.0473C67.5745 74.216 66.6321 73.0185 66.0626 71.6062C65.4932 70.1939 65.3222 68.6302 65.5713 67.1125C65.8205 65.5948 66.4786 64.1914 67.4624 63.0793C68.117 62.3395 68.8997 61.747 69.7657 61.3358C70.6316 60.9247 71.5637 60.703 72.5088 60.6833C73.4538 60.6637 74.3931 60.8465 75.2729 61.2214C76.1527 61.5963 76.9557 62.1558 77.6359 62.868Z" fill="white"/>
<path opacity="0.2" d="M74.0861 73.5792C72.3836 74.1002 70.5627 73.906 68.9862 73.0354C67.4097 72.1648 66.1933 70.6816 65.5793 68.8814C65.5989 70.0332 65.8527 71.1661 66.3226 72.1992C66.7924 73.2322 67.4668 74.1399 68.2974 74.8573C69.128 75.5747 70.0945 76.0841 71.1276 76.3492C72.1608 76.6142 73.2351 76.6284 74.2738 76.3906C75.3126 76.1529 76.2901 75.669 77.1365 74.9737C77.983 74.2784 78.6775 73.3888 79.1703 72.3685C79.6632 71.3481 79.9422 70.2222 79.9876 69.0712C80.0329 67.9203 79.8434 66.7727 79.4326 65.7104C79.9088 67.6835 77.8091 72.2638 74.0861 73.5792Z" fill="black"/>
<path d="M70.2332 48.3988C71.7629 50.0133 72.8187 52.0825 73.2678 54.3463C73.7169 56.6101 73.5393 58.9675 72.7572 61.122C71.9752 63.2766 70.6236 65.1322 68.8725 66.4556C67.1213 67.779 65.0487 68.5111 62.9153 68.5599C60.7818 68.6086 58.6827 67.9719 56.8817 66.7297C55.0808 65.4876 53.6584 63.6954 52.7934 61.5785C51.9285 59.4615 51.6595 57.1144 52.0204 54.8321C52.3812 52.5497 53.3557 50.4341 54.8215 48.7511C55.8067 47.6199 56.9892 46.7124 58.3004 46.0815C59.6117 45.4506 61.0254 45.1089 62.4594 45.0761C63.8934 45.0433 65.3191 45.3202 66.6537 45.8906C67.9882 46.461 69.205 47.3136 70.2332 48.3988Z" fill="#BA68C8"/>
<path opacity="0.2" d="M64.6703 64.4419C62.0813 65.2291 59.3134 64.9199 56.9264 63.5768C54.5395 62.2338 52.7117 59.9571 51.8127 57.2073C51.8839 58.9047 52.2936 60.565 53.0135 62.0739C53.7335 63.5827 54.7465 64.904 55.9828 65.9467C57.2191 66.9894 58.6491 67.7286 60.1742 68.1132C61.6993 68.4979 63.2832 68.5189 64.8165 68.1748C66.3498 67.8306 67.796 67.1296 69.0554 66.12C70.3147 65.1103 71.3572 63.8162 72.1109 62.327C72.8646 60.8377 73.3115 59.1886 73.4208 57.4937C73.5302 55.7987 73.2993 54.0982 72.7441 52.5095C73.6533 55.5631 70.493 62.4923 64.6703 64.4419Z" fill="black"/>
<path d="M69.2587 69.9147C70.7916 71.5278 71.8505 73.5968 72.3021 75.8615C72.7538 78.1262 72.578 80.4852 71.797 82.6417C71.0159 84.7983 69.6645 86.6558 67.9127 87.9808C66.161 89.3057 64.0872 90.0388 61.9525 90.0876C59.8177 90.1365 57.7173 89.499 55.9156 88.2555C54.1139 87.0119 52.6915 85.2178 51.8273 83.0989C50.9631 80.98 50.6959 78.6312 51.0591 76.3478C51.4224 74.0645 52.3999 71.9488 53.8687 70.267C54.8535 69.1393 56.0348 68.2349 57.344 67.6061C58.6533 66.9773 60.0645 66.6366 61.4959 66.6039C62.9274 66.5711 64.3505 66.8468 65.683 67.4152C67.0156 67.9835 68.2309 68.833 69.2587 69.9147Z" fill="#BA68C8"/>
<path opacity="0.2" d="M63.6964 86.0046C61.1047 86.7848 58.3368 86.4696 55.9507 85.1227C53.5647 83.7757 51.738 81.4972 50.8389 78.7465C50.91 80.4438 51.3196 82.1042 52.0396 83.613C52.7595 85.1219 53.7726 86.4432 55.0089 87.4859C56.2451 88.5286 57.6752 89.2677 59.2003 89.6524C60.7254 90.0371 62.3092 90.0581 63.8425 89.7139C65.3758 89.3698 66.8221 88.6687 68.0814 87.6591C69.3408 86.6495 70.3833 85.3554 71.137 83.8661C71.8907 82.3768 72.3376 80.7278 72.447 79.0329C72.5563 77.3379 72.3254 75.6374 71.7702 74.0487C72.6793 77.1023 69.5191 84.008 63.6964 86.0046Z" fill="black"/>
<path d="M55.9689 63.7843C57.0006 64.8536 57.7168 66.231 58.0267 67.7423C58.3366 69.2535 58.2262 70.8305 57.7095 72.2736C57.1929 73.7167 56.2932 74.961 55.1245 75.8488C53.9557 76.7367 52.5704 77.2282 51.144 77.2612C49.7177 77.2941 48.3144 76.867 47.1119 76.0338C45.9094 75.2007 44.9617 73.9991 44.389 72.5811C43.8163 71.1632 43.6442 69.5927 43.8946 68.0685C44.1449 66.5444 44.8064 65.1351 45.7954 64.0192C47.1175 62.5274 48.9305 61.6651 50.8374 61.621C52.7443 61.577 54.5895 62.3549 55.9689 63.7843Z" fill="#BA68C8"/>
<path opacity="0.3" d="M55.9689 63.7843C57.0006 64.8536 57.7168 66.231 58.0267 67.7423C58.3366 69.2535 58.2262 70.8305 57.7095 72.2736C57.1929 73.7167 56.2932 74.961 55.1245 75.8488C53.9557 76.7367 52.5704 77.2282 51.144 77.2612C49.7177 77.2941 48.3144 76.867 47.1119 76.0338C45.9094 75.2007 44.9617 73.9991 44.389 72.5811C43.8163 71.1632 43.6442 69.5927 43.8946 68.0685C44.1449 66.5444 44.8064 65.1351 45.7954 64.0192C47.1175 62.5274 48.9305 61.6651 50.8374 61.621C52.7443 61.577 54.5895 62.3549 55.9689 63.7843Z" fill="white"/>
<path opacity="0.2" d="M52.2885 74.4011C50.586 74.922 48.7651 74.7278 47.1886 73.8572C45.6121 72.9866 44.3957 71.5035 43.7817 69.7033C43.8013 70.8551 44.0551 71.988 44.5249 73.021C44.9948 74.0541 45.6692 74.9617 46.4998 75.6791C47.3304 76.3965 48.2969 76.9059 49.33 77.171C50.3632 77.4361 51.4375 77.4503 52.4762 77.2125C53.515 76.9747 54.4925 76.4909 55.3389 75.7956C56.1854 75.1003 56.8799 74.2106 57.3727 73.1903C57.8656 72.1699 58.1446 71.0441 58.19 69.8931C58.2353 68.7421 58.0458 67.5945 57.635 66.5322C58.2194 68.5288 56.1414 73.1092 52.2885 74.4011Z" fill="black"/>
<path d="M60.0593 45.4627C35.2533 33.5303 13.8457 29.2319 6.83255 34.7987C5.92868 35.477 5.22097 36.42 4.79177 37.5178C4.36258 38.6156 4.22957 39.8232 4.40824 40.9998C5.49053 52.0632 26.4869 70.9718 53.1327 85.6289C52.6678 85.0104 52.2752 84.3319 51.9638 83.6089C26.3786 69.1866 6.5079 51.2645 5.51219 40.7884C5.39196 40.0026 5.44072 39.1973 5.65475 38.4353C5.86877 37.6734 6.2423 36.9754 6.74601 36.396C6.9647 36.1234 7.21164 35.879 7.48196 35.6678C10.7937 33.0606 17.8069 32.8727 26.9631 34.7987C38.1987 37.4106 49.1371 41.3488 59.5831 46.5432C90.8827 61.5997 117.334 83.7263 118.524 95.8701C118.673 96.8383 118.568 97.8325 118.219 98.7383C117.871 99.6442 117.294 100.425 116.555 100.991C109.953 106.205 88.5234 101.742 64.4101 90.1623L64.0205 89.9744C63.3101 90.1455 62.5834 90.2244 61.8559 90.2093L64.0205 91.2898C88.8697 103.222 110.256 107.521 117.269 101.977C117.588 101.726 117.885 101.443 118.156 101.132C118.775 100.423 119.236 99.5693 119.503 98.6366C119.769 97.7039 119.834 96.7171 119.693 95.7527C119.26 91.2898 115.58 85.5115 109.585 79.3104C98.7617 68.1061 80.4278 55.2576 60.0593 45.4627Z" fill="#455A64"/>
<path d="M73.6747 1.30341C62.7004 5.41399 48.4359 38.7683 41.8989 75.6461C36.7689 104.584 37.7212 128.191 44.3015 134.369C45.1164 135.163 46.1201 135.695 47.1989 135.902C48.2778 136.11 49.3886 135.985 50.4056 135.543C52.6517 134.545 54.6527 132.993 56.25 131.01C66.0122 119.946 76.7484 91.783 82.2248 61.1768C87.3765 32.2384 86.4241 8.65546 79.8654 2.45437C79.0429 1.64043 78.0225 1.09942 76.9254 0.895433C75.8282 0.691443 74.7001 0.833031 73.6747 1.30341ZM81.0992 60.9184C80.6879 63.2673 80.2767 65.3814 79.8221 67.6128C80.0163 69.4475 79.6186 71.2986 78.6965 72.8509C71.5751 104.35 59.5184 130.822 50.0593 134.369C49.2234 134.749 48.3048 134.863 47.4114 134.696C46.518 134.53 45.687 134.09 45.0159 133.429C38.8685 127.627 38.0243 103.974 43.0028 75.8809C48.3926 45.3453 58.9557 17.5108 68.4798 6.72936C70.0167 4.84492 71.9358 3.37346 74.086 2.43088C74.9201 2.05251 75.8368 1.94213 76.7271 2.11286C77.6174 2.28359 78.4437 2.72825 79.1078 3.39393L79.3459 3.62882C85.2552 9.82991 85.9911 33.2015 81.0992 60.9184Z" fill="#455A64"/>
<path d="M67.5922 46.1438C34.0414 55.3984 4.192 72.8273 1.03173 84.9241C0.684782 86.0581 0.636695 87.2748 0.892944 88.4369C1.14919 89.599 1.69961 90.6603 2.48202 91.501C8.54281 98.2424 30.2967 97.9135 56.5962 90.632L59.172 89.9273C58.5096 89.7634 57.8642 89.5273 57.2456 89.2226L56.3364 89.4575C30.7729 96.5042 8.95405 96.9975 3.26123 90.632C2.61494 89.949 2.16166 89.0801 1.95462 88.1272C1.74757 87.1744 1.79533 86.1773 2.09235 85.253C2.91034 82.7355 4.26808 80.4652 6.05354 78.6291C15.6426 67.7537 40.5134 54.8817 67.8519 47.3182C93.3722 40.2715 115.213 39.8018 120.884 46.1673C121.532 46.8486 121.987 47.7175 122.194 48.671C122.402 49.6244 122.352 50.6223 122.053 51.5463C119.455 61.5291 97.7446 75.3171 70.8823 84.8536C70.5485 85.4798 70.141 86.0562 69.6702 86.5683C91.8137 78.8874 110.797 68.1999 119.001 58.8278C120.879 56.8726 122.297 54.4558 123.135 51.7811C123.492 50.6502 123.548 49.4327 123.295 48.269C123.042 47.1054 122.492 46.0429 121.706 45.2042C115.602 38.5569 93.8484 38.8857 67.5922 46.1438Z" fill="#455A64"/>
<path d="M8.73766 74.3775C9.38399 75.0589 9.83008 75.9326 10.0198 76.8886C10.2096 77.8445 10.1345 78.84 9.80403 79.7498C9.47355 80.6595 8.90246 81.4429 8.16263 82.0012C7.4228 82.5595 6.54734 82.8678 5.64638 82.8874C4.74541 82.9069 3.85921 82.6368 3.0994 82.1111C2.33959 81.5853 1.74009 80.8274 1.37636 79.9327C1.01263 79.038 0.900941 78.0465 1.05532 77.0831C1.2097 76.1197 1.62326 75.2274 2.24396 74.5184C2.66155 74.046 3.1609 73.6676 3.7134 73.4047C4.26591 73.1419 4.86072 72.9999 5.46386 72.9868C6.067 72.9737 6.66663 73.0898 7.22838 73.3285C7.79013 73.5671 8.303 73.9236 8.73766 74.3775Z" fill="#BA68C8"/>
<path opacity="0.5" d="M8.73766 74.3775C9.38399 75.0589 9.83008 75.9326 10.0198 76.8886C10.2096 77.8445 10.1345 78.84 9.80403 79.7498C9.47355 80.6595 8.90246 81.4429 8.16263 82.0012C7.4228 82.5595 6.54734 82.8678 5.64638 82.8874C4.74541 82.9069 3.85921 82.6368 3.0994 82.1111C2.33959 81.5853 1.74009 80.8274 1.37636 79.9327C1.01263 79.038 0.900941 78.0465 1.05532 77.0831C1.2097 76.1197 1.62326 75.2274 2.24396 74.5184C2.66155 74.046 3.1609 73.6676 3.7134 73.4047C4.26591 73.1419 4.86072 72.9999 5.46386 72.9868C6.067 72.9737 6.66663 73.0898 7.22838 73.3285C7.79013 73.5671 8.303 73.9236 8.73766 74.3775Z" fill="white"/>
<path opacity="0.2" d="M6.39983 81.119C5.31475 81.4819 4.14172 81.3676 3.13356 80.8008C2.12539 80.234 1.36274 79.2601 1.01001 78.0889C1.02773 78.8156 1.19259 79.5292 1.49282 80.1791C1.79306 80.829 2.22138 81.3992 2.74738 81.8494C3.27339 82.2996 3.88421 82.6187 4.53655 82.7841C5.18889 82.9495 5.86673 82.9571 6.5221 82.8065C7.17747 82.6558 7.79432 82.3506 8.32884 81.9124C8.86335 81.4741 9.30248 80.9137 9.61511 80.2708C9.92773 79.6278 10.1062 78.9181 10.1378 78.192C10.1695 77.4658 10.0535 76.741 9.79815 76.0689C9.82166 77.1989 9.50161 78.3059 8.88735 79.2187C8.27309 80.1315 7.39888 80.7993 6.39983 81.119Z" fill="black"/>
<path d="M67.8522 6.94079C68.5006 7.6199 68.9493 8.49196 69.1419 9.44721C69.3346 10.4025 69.2625 11.3982 68.9348 12.3091C68.6071 13.22 68.0384 14.0054 67.3003 14.5663C66.5622 15.1273 65.6877 15.4387 64.7868 15.4615C63.8859 15.4844 62.999 15.2175 62.2376 14.6945C61.4762 14.1715 60.8744 13.4158 60.5079 12.5225C60.1414 11.6291 60.0266 10.6381 60.1779 9.67417C60.3293 8.71022 60.7401 7.8164 61.3585 7.10521C61.7747 6.6312 62.2728 6.25087 62.8246 5.98603C63.3763 5.72118 63.9708 5.57699 64.574 5.56172C65.1771 5.54645 65.7771 5.6604 66.3396 5.89703C66.9022 6.13367 67.4161 6.48835 67.8522 6.94079Z" fill="#BA68C8"/>
<path opacity="0.5" d="M67.8522 6.94079C68.5006 7.6199 68.9493 8.49196 69.1419 9.44721C69.3346 10.4025 69.2625 11.3982 68.9348 12.3091C68.6071 13.22 68.0384 14.0054 67.3003 14.5663C66.5622 15.1273 65.6877 15.4387 64.7868 15.4615C63.8859 15.4844 62.999 15.2175 62.2376 14.6945C61.4762 14.1715 60.8744 13.4158 60.5079 12.5225C60.1414 11.6291 60.0266 10.6381 60.1779 9.67417C60.3293 8.71022 60.7401 7.8164 61.3585 7.10521C61.7747 6.6312 62.2728 6.25087 62.8246 5.98603C63.3763 5.72118 63.9708 5.57699 64.574 5.56172C65.1771 5.54645 65.7771 5.6604 66.3396 5.89703C66.9022 6.13367 67.4161 6.48835 67.8522 6.94079Z" fill="white"/>
<path opacity="0.2" d="M65.4278 13.7056C64.3372 14.032 63.1731 13.8986 62.1694 13.3322C61.1656 12.7658 60.3965 11.8084 60.0164 10.6521C60.0586 11.9566 60.5625 13.1932 61.4233 14.1049C62.1773 14.9073 63.1643 15.4013 64.2162 15.5029C65.268 15.6045 66.3199 15.3074 67.1926 14.6622C68.0654 14.017 68.7051 13.0635 69.0029 11.964C69.3008 10.8646 69.2383 9.68712 68.8262 8.63202C68.8508 9.76509 68.5315 10.8755 67.9174 11.7923C67.3033 12.7091 66.4286 13.3814 65.4278 13.7056Z" fill="black"/>
<path d="M98.9567 99.8869C99.603 100.568 100.049 101.442 100.239 102.398C100.429 103.354 100.354 104.349 100.023 105.259C99.6926 106.169 99.1215 106.952 98.3817 107.511C97.6419 108.069 96.7663 108.377 95.8654 108.397C94.9644 108.416 94.0783 108.146 93.3185 107.62C92.5587 107.095 91.9591 106.337 91.5954 105.442C91.2316 104.547 91.1199 103.556 91.2743 102.593C91.4287 101.629 91.8423 100.737 92.463 100.028C92.8805 99.5554 93.3799 99.177 93.9324 98.9141C94.4849 98.6513 95.0798 98.5093 95.6829 98.4962C96.2861 98.4831 96.8856 98.5993 97.4474 98.8379C98.0091 99.0765 98.522 99.4329 98.9567 99.8869Z" fill="#BA68C8"/>
<path opacity="0.5" d="M98.9567 99.8869C99.603 100.568 100.049 101.442 100.239 102.398C100.429 103.354 100.354 104.349 100.023 105.259C99.6926 106.169 99.1215 106.952 98.3817 107.511C97.6419 108.069 96.7663 108.377 95.8654 108.397C94.9644 108.416 94.0783 108.146 93.3185 107.62C92.5587 107.095 91.9591 106.337 91.5954 105.442C91.2316 104.547 91.1199 103.556 91.2743 102.593C91.4287 101.629 91.8423 100.737 92.463 100.028C92.8805 99.5554 93.3799 99.177 93.9324 98.9141C94.4849 98.6513 95.0798 98.5093 95.6829 98.4962C96.2861 98.4831 96.8856 98.5993 97.4474 98.8379C98.0091 99.0765 98.522 99.4329 98.9567 99.8869Z" fill="white"/>
<path opacity="0.2" d="M96.6192 106.628C95.5342 106.991 94.3611 106.877 93.353 106.31C92.3448 105.743 91.5822 104.769 91.2295 103.598C91.2412 104.246 91.3716 104.885 91.6132 105.478C91.8547 106.071 92.2026 106.605 92.6364 107.051C93.3931 107.838 94.3764 108.319 95.4212 108.413C96.4661 108.507 97.5088 108.208 98.3744 107.566C99.24 106.924 99.8758 105.979 100.175 104.888C100.474 103.798 100.419 102.629 100.018 101.578C100.041 102.708 99.721 103.815 99.1068 104.728C98.4925 105.64 97.6183 106.308 96.6192 106.628Z" fill="black"/>
</g>
</svg>
