<svg width="40" height="40" viewBox="0 0 40 40" fill="none" xmlns="http://www.w3.org/2000/svg">
<circle cx="20" cy="20" r="16" fill="#8C2C8C"/>
<path d="M18.1429 15H16.7143C16.3198 15 16 15.3198 16 15.7143V24.2857C16 24.6802 16.3198 25 16.7143 25H18.1429C18.5373 25 18.8571 24.6802 18.8571 24.2857V15.7143C18.8571 15.3198 18.5373 15 18.1429 15Z" fill="white"/>
<path d="M23.8572 15H22.4286C22.0342 15 21.7144 15.3198 21.7144 15.7143V24.2857C21.7144 24.6802 22.0342 25 22.4286 25H23.8572C24.2517 25 24.5715 24.6802 24.5715 24.2857V15.7143C24.5715 15.3198 24.2517 15 23.8572 15Z" fill="white"/>
<path d="M26.6747 38.8534C31.0619 37.3001 34.7701 34.2655 37.1605 30.2722C39.5509 26.2789 40.4737 21.5769 39.7701 16.9763C39.0665 12.3758 36.7805 8.16459 33.3058 5.06828C29.8311 1.97198 25.3854 0.184399 20.7344 0.0134899L20.6757 1.61241C24.9546 1.76965 29.0446 3.41422 32.2413 6.26282C35.438 9.11143 37.5412 12.9857 38.1885 17.2182C38.8358 21.4508 37.9868 25.7766 35.7877 29.4504C33.5885 33.1242 30.177 35.9161 26.1407 37.3451L26.6747 38.8534Z" fill="#8C2C8C"/>
</svg>
