<svg width="20" height="20" viewBox="0 0 20 20" fill="none" xmlns="http://www.w3.org/2000/svg">
<g clip-path="url(#clip0_1_21052)">
<path d="M10.2735 0.859375C6.54301 1.16406 3.43754 3.62109 2.2852 7.1875C2.20707 7.43359 2.13676 7.64062 2.13285 7.64844C2.12504 7.65234 1.9766 7.4375 1.79691 7.16797C1.61723 6.89844 1.4141 6.625 1.34379 6.56641C0.95707 6.22656 0.33207 6.33984 0.0898827 6.79297C-0.015586 6.99609 -0.031211 7.36328 0.0547265 7.53516C0.210976 7.83203 2.0352 10.543 2.14066 10.6328C2.30863 10.7734 2.51176 10.832 2.76176 10.8125C2.96488 10.793 3.04301 10.75 4.42582 9.82031C5.2227 9.28516 5.92582 8.80469 5.98441 8.75391C6.26176 8.52344 6.33988 8.08594 6.1641 7.74609C5.99613 7.41406 5.5391 7.22266 5.18363 7.33984C5.10941 7.36719 4.75395 7.58594 4.39457 7.83203C4.03129 8.07812 3.73051 8.27344 3.7227 8.26953C3.70316 8.24609 3.86723 7.69922 3.98832 7.39453C4.51176 6.06641 5.35551 4.96484 6.48832 4.12109C9.42973 1.92969 13.5547 2.23047 16.1524 4.82422C17.5547 6.22656 18.3204 8.08203 18.3204 10.0781C18.3204 11.3281 18.0625 12.3711 17.4766 13.5156C17.1446 14.1562 16.793 14.6445 16.2735 15.1836C15.5704 15.9141 15.0157 16.3203 14.1602 16.7383C11.6172 17.9766 8.71098 17.6875 6.43363 15.9688C5.99613 15.6406 5.3477 14.9844 4.98832 14.5078C4.65238 14.0547 4.48441 13.9453 4.15629 13.9453C3.5391 13.9492 3.13676 14.5859 3.4102 15.1211C3.64457 15.5859 4.5391 16.582 5.21488 17.1289C6.2227 17.9492 7.46488 18.5742 8.70707 18.8867C10.1719 19.2539 11.6836 19.2539 13.1446 18.8867C15.3243 18.3359 17.2227 17 18.4727 15.1289C19.1914 14.0547 19.6993 12.7344 19.9102 11.4062C20.0079 10.7773 20.0079 9.30469 19.9102 8.67188C19.4649 5.81641 17.8008 3.39062 15.3243 1.99609C13.8204 1.14844 11.9375 0.726562 10.2735 0.859375Z" fill="#8C2C8C"/>
<path d="M11.9834 6.96797C12.6215 7.0582 13.1264 7.20645 13.6764 7.46641C14.5766 7.8918 15.6121 8.68457 16.4307 9.57617C16.9377 10.1283 16.9893 10.2164 16.9893 10.5107C16.9893 10.6504 16.9785 10.7041 16.9334 10.8008C16.8432 10.9941 16.2695 11.6279 15.8055 12.0512C14.6174 13.1297 13.4744 13.757 12.2756 13.9848C12.0607 14.0277 11.9533 14.0342 11.5 14.0342C11.0467 14.0342 10.9393 14.0277 10.7244 13.9848C9.19687 13.6947 7.69082 12.7172 6.29004 11.1123C6.0666 10.8545 6.01074 10.7363 6.01074 10.5107C6.01074 10.2164 6.08809 10.0875 6.58223 9.56328C7.95293 8.11094 9.31719 7.27305 10.7373 7.00664C10.9221 6.97227 11.818 6.94434 11.9834 6.96797ZM11.0961 7.64473C10.082 7.75645 9.00781 8.28711 7.91426 9.21953C7.48672 9.58262 6.6875 10.4141 6.6875 10.4957C6.6875 10.601 7.49746 11.4324 8.04316 11.89C9.25918 12.902 10.5289 13.424 11.6504 13.3725C12.8191 13.3166 14.0072 12.7408 15.2576 11.6258C15.698 11.2326 16.3125 10.5773 16.3125 10.4979C16.3125 10.4248 15.7066 9.77598 15.2812 9.39355C14.5787 8.75977 13.902 8.30645 13.2209 8.00781C12.8105 7.82949 12.3121 7.6877 11.9297 7.64473C11.6934 7.61895 11.3346 7.6168 11.0961 7.64473Z" fill="#8C2C8C"/>
<path d="M11.9941 8.18185C13.0834 8.41603 13.8633 9.38067 13.8633 10.4893C13.8611 10.992 13.7387 11.4045 13.4658 11.8213C13.3605 11.9846 12.9889 12.3584 12.8277 12.4615C12.0027 13.0008 10.9994 13.0008 10.1787 12.4658C10.0133 12.3584 9.6416 11.9867 9.53418 11.8213C9.11953 11.1854 9.0207 10.4162 9.26777 9.71368C9.52559 8.97247 10.1637 8.39239 10.9285 8.19689C11.1928 8.13028 11.7213 8.12169 11.9941 8.18185ZM11.0531 8.8672C10.1658 9.11642 9.6459 10.0059 9.85645 10.9082C9.87578 10.9856 9.93379 11.1338 9.98535 11.2412C10.1572 11.5936 10.4107 11.8449 10.7588 12.0147C11.0273 12.1436 11.1992 12.1844 11.5 12.1844C11.7986 12.1844 11.9727 12.1436 12.2412 12.0147C12.9115 11.6924 13.2939 10.9512 13.1672 10.2229C13.0383 9.4881 12.4754 8.9381 11.7256 8.81564C11.5881 8.79415 11.2078 8.82208 11.0531 8.8672Z" fill="#8C2C8C"/>
</g>
<defs>
<clipPath id="clip0_1_21052">
<rect width="20" height="20" fill="white"/>
</clipPath>
</defs>
</svg>
