<svg width="20" height="18" viewBox="0 0 20 18" fill="none" xmlns="http://www.w3.org/2000/svg">
<path d="M9.6054 0.300797C9.3554 0.371109 9.10149 0.531265 8.92571 0.722672C8.82024 0.839859 8.47259 1.50392 7.74993 2.96486C7.18743 4.10548 6.70306 5.05861 6.67571 5.08205C6.64446 5.10548 5.60931 5.26955 4.37493 5.44533C3.02337 5.64064 2.05071 5.79689 1.92962 5.84376C1.50384 6.00001 1.19524 6.32814 1.05462 6.76955C0.921805 7.19142 0.976493 7.6133 1.21477 7.9883C1.27727 8.08595 2.06243 8.88283 2.96477 9.75783C3.86712 10.6328 4.60931 11.3789 4.61712 11.4141C4.62884 11.4531 4.46477 12.4805 4.25384 13.707C4.0429 14.9297 3.86712 16.0156 3.86712 16.1133C3.86712 16.4961 4.1054 17 4.39837 17.2227C4.62493 17.3945 4.95306 17.5235 5.21868 17.5469C5.66399 17.582 5.50384 17.6524 8.87884 15.8789C9.45696 15.5742 9.96087 15.3281 10.0038 15.3281C10.0429 15.3281 10.996 15.8125 12.1171 16.4024C13.5156 17.1328 14.2265 17.4883 14.371 17.5195C15.2031 17.6953 16.0468 17.0703 16.1171 16.2188C16.1327 16.0195 16.0624 15.5469 15.746 13.711C15.5038 12.3008 15.3671 11.4219 15.3906 11.3867C15.4062 11.3516 16.1523 10.6133 17.0468 9.74611C17.9413 8.87501 18.7226 8.08595 18.7851 7.9883C19.0234 7.6133 19.0781 7.19142 18.9452 6.76955C18.8046 6.32814 18.496 6.00001 18.0702 5.84376C17.9491 5.79689 16.9843 5.64064 15.6249 5.44533C14.3906 5.26564 13.3554 5.10158 13.3241 5.07814C13.2929 5.0547 12.8085 4.10158 12.2421 2.96095C11.1171 0.675796 11.082 0.617203 10.6445 0.402359C10.3554 0.261734 9.90618 0.214859 9.6054 0.300797ZM10.1054 1.53127C10.1484 1.55861 11.1874 3.6133 11.9648 5.21095C12.4062 6.12111 12.6327 6.27736 13.7499 6.43751C14.1249 6.4922 15.1093 6.63283 15.9374 6.75392C16.7656 6.87111 17.5077 6.9883 17.5859 7.00783C17.7538 7.0547 17.8163 7.19142 17.7304 7.32033C17.6991 7.35939 16.9374 8.1133 16.0351 8.9922C14.2577 10.7227 14.2265 10.7578 14.1406 11.25C14.0976 11.5078 14.0781 11.3906 14.7109 15.0625C14.8906 16.1172 14.8945 16.1485 14.8241 16.2266C14.7851 16.2695 14.7226 16.3047 14.6874 16.3047C14.6523 16.3047 13.7187 15.832 12.6171 15.25C11.5116 14.6719 10.5312 14.1719 10.4335 14.1367C10.1718 14.0469 9.74993 14.0625 9.49212 14.168C9.37493 14.2188 8.40227 14.7188 7.33196 15.2813C6.25774 15.8438 5.35149 16.3047 5.31634 16.3047C5.27727 16.3047 5.21477 16.2695 5.17571 16.2266C5.1054 16.1485 5.11321 16.0899 5.48821 13.9102C5.71477 12.6016 5.87493 11.5781 5.87102 11.4414C5.86712 11.1641 5.77727 10.8789 5.62102 10.6563C5.56243 10.5664 4.7929 9.79689 3.9179 8.94533C3.0429 8.08986 2.30071 7.35939 2.26946 7.32033C2.18352 7.19142 2.24602 7.0547 2.41399 7.00783C2.49212 6.9883 3.5429 6.82814 4.74602 6.65626C6.68352 6.37501 6.96087 6.32814 7.1679 6.23048C7.41399 6.1133 7.64837 5.91017 7.78899 5.6797C7.83587 5.60548 8.31243 4.65626 8.84368 3.57033C9.37884 2.48439 9.83977 1.57423 9.87493 1.54689C9.94524 1.4922 10.0351 1.4883 10.1054 1.53127Z" fill="#8C2C8C"/>
</svg>
