<svg width="53" height="51" viewBox="0 0 53 51" fill="none" xmlns="http://www.w3.org/2000/svg">
<path d="M4.43813 0.141317C3.60148 0.350483 2.97398 0.709049 2.33653 1.3465C1.68912 1.99392 1.29071 2.70109 1.11142 3.56763C0.95206 4.31464 0.96202 22.7908 1.11142 23.5279C1.39031 24.8227 2.22697 25.9283 3.36243 26.5259C4.29869 27.004 4.82658 27.0936 6.82858 27.0936H8.57162V28.767C8.57162 30.6793 8.6513 30.9682 9.3286 31.3466C9.78676 31.6156 10.2549 31.6355 10.6832 31.4164C10.8525 31.3267 12.237 30.3207 13.7609 29.1753L16.5298 27.1036L23.5817 27.0737C30.6235 27.0438 30.6335 27.0438 31.1813 26.8247C32.2869 26.3665 33.2431 25.4104 33.7012 24.3048L33.9203 23.757L33.9502 13.8964C33.9701 7.41227 33.9403 3.86644 33.8705 3.55767C33.512 1.87439 32.0379 0.410244 30.3745 0.101477C29.5578 -0.0578861 5.06563 -0.0180454 4.43813 0.141317ZM18.6015 6.21704C19.4681 6.44613 20.0458 6.78478 20.6832 7.41227C22.0976 8.83658 22.4063 10.7888 21.5 12.5916C21.1215 13.3386 20.235 14.225 19.5577 14.5438C19.1394 14.733 19.0298 14.8426 19.0298 15.0219C19.0298 15.4402 18.6514 16.0278 18.233 16.237C17.725 16.496 17.3067 16.486 16.8187 16.2171C16.241 15.8884 16.0418 15.4302 16.0418 14.4442C16.0418 13.5876 16.1912 13.0697 16.5697 12.6713C16.8187 12.4023 17.4462 12.0537 17.6852 12.0537C17.7749 12.0537 18.0239 11.9641 18.233 11.8545C18.6812 11.6254 19.0298 11.0477 19.0298 10.5398C19.0199 9.80272 18.2928 9.06566 17.5557 9.06566C17.3665 9.06566 16.9083 9.20511 16.5199 9.37443C15.982 9.60352 15.723 9.67324 15.4541 9.62344C14.4282 9.46407 13.8605 8.30869 14.3685 7.42223C14.5477 7.11346 14.7669 6.94414 15.3446 6.64533C16.4601 6.08756 17.5557 5.93816 18.6015 6.21704ZM18.1334 18.2291C18.5816 18.4581 18.9302 19.0259 18.9302 19.5239C18.9302 20.2809 18.1932 21.0179 17.4262 21.0179C16.9681 21.0179 16.3505 20.6295 16.1314 20.2012C15.7629 19.484 15.992 18.6972 16.6991 18.2689C17.1772 17.98 17.6155 17.9701 18.1334 18.2291Z" fill="#222B45"/>
<path d="M36.9382 22.5816C36.8984 23.9461 36.8586 24.2649 36.6295 24.9521C36.241 26.1075 35.7231 26.9342 34.7669 27.8904C33.8008 28.8565 33.0836 29.3147 31.9283 29.7031L31.1314 29.982H37.9343C44.5478 29.982 44.747 29.992 45.1255 30.1812C45.5737 30.4103 45.9223 30.978 45.9223 31.476C45.9223 31.9741 45.5737 32.5418 45.1255 32.7709C44.747 32.9701 44.5578 32.9701 35.4542 32.9701H26.1812L25.7828 32.7509C24.8764 32.243 24.7469 31.0876 25.5139 30.3705L25.8226 30.0816H22.4262H19.0298V37.004C19.0298 41.7749 19.0696 44.0757 19.1393 44.4442C19.5079 46.1474 20.9023 47.5419 22.5955 47.9004C22.9441 47.9701 24.9163 48.01 28.4023 48.01H33.6812L36.6394 49.504C38.6713 50.5299 39.6972 50.998 39.9263 50.998C40.4343 50.998 41.012 50.6494 41.241 50.2012C41.4004 49.8925 41.4403 49.6136 41.4403 48.9064V48.01H44.6773C48.1236 48.01 48.6016 47.9602 49.4981 47.5219C50.6534 46.9642 51.6196 45.7191 51.8885 44.4442C52.0479 43.6972 52.0379 25.3206 51.8885 24.5836C51.52 22.8605 50.0758 21.4362 48.4024 21.1174C48.1036 21.0577 45.5638 21.0178 42.4363 21.0178H36.9781L36.9382 22.5816ZM45.1255 36.1573C45.5737 36.3864 45.9223 36.9542 45.9223 37.4621C45.9223 37.9203 45.5339 38.5378 45.1056 38.757C44.747 38.9362 44.3686 38.9462 35.4542 38.9462H26.1812L25.7828 38.7271C24.7768 38.1593 24.7669 36.7948 25.7629 36.1972L26.1513 35.9581H35.4442C44.5578 35.9581 44.747 35.9581 45.1255 36.1573Z" fill="#222B45"/>
</svg>
