<svg width="57" height="57" viewBox="0 0 57 57" fill="none" xmlns="http://www.w3.org/2000/svg">
<path d="M41.5365 2.82774C41.1914 3.01699 40.9799 3.41778 40.9688 3.86309C40.9688 4.3418 41.4252 4.80938 42.1377 5.06543C46.524 6.61289 49.7748 10.5762 50.6098 15.4078C50.877 16.9107 50.7768 19.3934 50.3871 20.874C50.0086 22.299 50.0197 22.5328 50.4205 22.9447C50.877 23.39 51.5449 23.4012 51.9791 22.9559C52.6025 22.3436 53.1926 18.9035 53.0479 16.7549C52.6693 11.0883 49.5744 6.22324 44.765 3.75176C43.585 3.13946 42.3604 2.67188 41.993 2.67188C41.8928 2.68301 41.6812 2.74981 41.5365 2.82774Z" fill="#222B45"/>
<path d="M39.7107 8.23828C39.477 8.39414 39.1875 8.92852 39.1875 9.24024C39.1875 9.71895 39.5437 10.1086 40.1783 10.3646C42.3937 11.233 44.0748 12.9809 44.8096 15.1518C45.2549 16.4877 45.3217 18.0797 44.9877 19.5158C44.7205 20.6848 44.7539 20.9631 45.266 21.3639C45.6891 21.6979 46.2346 21.6645 46.6465 21.2859C47.2811 20.707 47.6707 18.3357 47.4258 16.4543C46.9693 12.9586 44.9209 10.0863 41.8148 8.6168C40.9131 8.18262 40.0559 8.03789 39.7107 8.23828Z" fill="#222B45"/>
<path d="M17.8125 8.79491C12.4131 9.55194 7.96 12.7137 5.55531 17.5008C4.27504 20.0391 3.67387 23.4346 4.05238 25.8838C4.80941 30.849 9.06215 39.5549 16.3319 51.0217C17.2559 52.4689 18.0909 53.6601 18.2912 53.816C18.4916 53.9719 18.8924 54.1611 19.1819 54.2279C19.8387 54.406 20.5846 54.2391 21.1301 53.7937C21.5532 53.4598 23.4569 50.5207 25.984 46.3125C31.0829 37.8293 34.3448 30.9269 35.2465 26.7187C35.536 25.3605 35.5137 22.9336 35.1909 21.4084C33.8661 15.0961 29.0344 10.2533 22.8334 9.00644C21.5977 8.76152 18.9036 8.65019 17.8125 8.79491ZM22.544 13.7379C26.7299 14.8066 29.9807 18.2244 30.8602 22.4883C31.183 24.0023 31.094 26.3514 30.6821 27.7764C30.1032 29.7135 29.3127 31.1162 27.9545 32.5301L27.1418 33.3873L26.3069 32.5078C25.8504 32.018 25.1268 31.3834 24.6926 31.0939L23.9022 30.5818L23.3567 30.8824C21.7758 31.773 19.7385 32.0625 18.0575 31.6394C17.2225 31.4279 16.4766 31.1162 15.842 30.7266C15.6305 30.593 15.5414 30.6152 14.9625 30.9603C14.5952 31.1719 13.8493 31.7953 13.2815 32.3519L12.2461 33.3762L11.3889 32.4633C7.22523 28.0435 7.35883 21.0076 11.6672 16.7326C13.4373 14.9848 15.6416 13.8603 18.102 13.4707C19.2264 13.2926 21.2971 13.415 22.544 13.7379Z" fill="#222B45"/>
<path d="M18.369 19.7719C15.9977 20.4064 14.3834 22.9225 14.7842 25.3271C15.1405 27.4758 16.7659 29.1234 18.9256 29.5131C20.9629 29.8693 23.1895 28.7449 24.1358 26.8746C25.1489 24.8596 24.826 22.7555 23.2452 21.0855C22.0428 19.8164 20.128 19.3043 18.369 19.7719Z" fill="#222B45"/>
<path d="M38.0074 13.6822C37.5175 13.9828 37.3394 14.5395 37.5621 15.0738C37.6957 15.3856 37.8626 15.5414 38.3525 15.7641C38.7867 15.9756 39.0761 16.2094 39.2765 16.51C39.5548 16.9219 39.5771 17.0555 39.5771 18.102C39.5771 19.1484 39.5994 19.2598 39.8443 19.527C40.4121 20.1281 41.3584 19.9389 41.6812 19.1484C42.4605 17.1891 41.4474 14.7287 39.4658 13.7824C38.6753 13.415 38.475 13.4039 38.0074 13.6822Z" fill="#222B45"/>
</svg>
