<svg width="214" height="123" viewBox="0 0 214 123" fill="none" xmlns="http://www.w3.org/2000/svg">
<g opacity="0.658529">
<ellipse rx="102.143" ry="8.32929" transform="matrix(-1 0 0 1 102.275 114.57)" fill="#DCDBED"/>
</g>
<path fill-rule="evenodd" clip-rule="evenodd" d="M183.529 52.6388C183.831 54.1819 183.351 55.5847 182.672 56.9552C182.605 57.0896 182.537 57.2246 182.468 57.3602C181.836 58.6073 181.176 59.9078 181.288 61.3093C181.293 61.3849 181.385 61.3687 181.385 61.3093C181.335 59.8519 181.974 58.5899 182.611 57.3295C183.288 55.9908 183.964 54.6539 183.814 53.0866C183.646 51.747 183.102 50.4825 182.247 49.4392C181.68 48.7671 181.07 48.1327 180.421 47.54L180.162 47.2217C179.592 46.5682 179.084 45.8639 178.643 45.1174C178.182 44.2441 177.88 43.2961 177.749 42.3172C177.731 42.2035 177.714 42.0897 177.697 41.9758C177.433 40.2244 177.167 38.4601 175.847 37.1429C174.624 36.0185 173.09 35.2922 171.446 35.0603C167.81 34.4128 163.586 35.2977 161.404 38.5349C161.02 39.1033 160.726 39.7275 160.532 40.3856C159.3 41.4746 158.437 42.9211 158.064 44.5239C157.816 45.8674 158.305 47.0192 158.703 47.9579C158.953 48.546 159.167 49.0506 159.142 49.4662C159.103 50.165 158.822 50.7975 158.545 51.4211C158.434 51.6689 158.325 51.9153 158.231 52.164C157.87 52.9088 157.562 53.6787 157.31 54.4678C157.021 55.5747 157.066 56.7425 157.439 57.8238C157.721 58.8174 158.24 59.7269 158.953 60.473C159.669 61.139 160.558 61.5896 161.517 61.7733C161.744 61.8273 161.975 61.8758 162.207 61.919C162.52 62.0654 162.841 62.1953 163.162 62.3252C163.68 62.5351 164.199 62.7451 164.685 63.0251C165.54 63.5293 166.183 64.3268 166.495 65.2696C166.684 65.8065 166.811 66.3533 166.938 66.898C167.022 67.2564 167.106 67.614 167.206 67.9674C167.436 68.7938 167.822 69.5686 168.343 70.2496C169.413 71.5777 170.893 72.5131 172.55 72.9096C174.479 73.3491 176.487 73.2952 178.39 72.7532C180.092 72.3053 181.676 71.4474 182.543 69.8558C183.306 68.4648 183.439 66.8138 182.909 65.3182C182.512 64.458 182.034 63.6377 181.482 62.8686C180.969 62.0834 180.715 61.1569 180.755 60.2194C180.838 58.9432 181.362 57.754 181.883 56.572C182.633 54.8705 183.376 53.1839 182.791 51.2737C182.515 50.4494 182.101 49.6777 181.568 48.9914C182.548 50.0004 183.227 51.2637 183.529 52.6388ZM161.647 61.6398C161.665 61.6503 161.683 61.6607 161.701 61.671L161.668 61.644C161.661 61.6426 161.654 61.6412 161.647 61.6398ZM157.909 53.2349C157.627 53.876 157.431 54.5519 157.326 55.245C157.227 56.7417 157.616 58.2303 158.436 59.4858C159.181 60.5998 160.336 61.3737 161.647 61.6398C160.504 60.9647 159.555 60.0031 158.894 58.8492C158.136 57.5389 157.747 56.0471 157.768 54.5328C157.778 54.0968 157.825 53.6626 157.909 53.2349ZM157.909 53.2349C157.916 53.2197 157.923 53.2045 157.93 53.1893C157.933 53.1714 157.933 53.1532 157.93 53.1353C157.923 53.1685 157.916 53.2017 157.909 53.2349Z" fill="#222B45"/>
<path d="M137.028 39.0206L140.508 54.4247C140.659 54.8779 140.427 55.2394 139.969 55.2286L132.082 55.0344C131.591 54.9861 131.171 54.6583 131.005 54.1927L127.525 38.7886C127.369 38.3353 127.606 37.9738 128.064 37.9846L135.95 38.1789C136.442 38.2272 136.861 38.5549 137.028 39.0206Z" fill="#A6A6A6"/>
<path d="M136.069 38.9881L139.549 54.3922C139.7 54.8455 139.468 55.207 139.01 55.1962L131.124 55.0019C130.634 54.9533 130.215 54.6284 130.046 54.1656L126.566 38.7561C126.41 38.3029 126.647 37.9468 127.105 37.9576L134.991 38.1464C135.482 38.1972 135.9 38.5241 136.069 38.9881Z" fill="#C7C7C7"/>
<path d="M133.887 39.6356C133.865 39.8899 133.987 40.1354 134.204 40.2696C134.421 40.4038 134.695 40.4038 134.912 40.2696C135.129 40.1354 135.252 39.8899 135.229 39.6356C135.198 39.2879 134.907 39.0214 134.558 39.0214C134.209 39.0214 133.919 39.2879 133.887 39.6356Z" fill="#222B45"/>
<path d="M161.878 63.2138C157.267 72.6667 147.048 84.8821 142.9 84.8713C140.928 84.8713 137.4 85.2868 134.819 82.9775C129.244 77.9327 124.67 68.3827 123.787 62.9386C123.474 61.0071 132.912 56.9658 134.275 58.5629C137.459 62.2912 141.117 69.5697 141.693 69.5373C143.816 69.4078 152.225 62.6095 158.091 57.8237C165.24 52.0128 163.715 59.4424 161.878 63.2138Z" fill="#AD6359"/>
<path d="M123.727 52.9624C124.805 49.0615 125.65 48.2198 124.805 44.4538C124.266 41.9826 125.575 40.5636 127.288 42.5653C130.089 45.8404 129.788 51.1604 129.152 52.9732L123.727 52.9624Z" fill="#AD6359"/>
<path d="M124.239 64.6275C124.239 64.6275 122.58 59.1403 123.285 54.8725C123.781 51.9157 125.564 45.6138 133.887 42.3981C135.864 41.6373 139.215 41.9503 136.441 44.3728C134.474 46.0886 132.707 46.5796 131.743 47.7882C131.743 47.7882 135.956 48.7 136.645 50.7071C137.244 52.4698 137.718 54.2729 138.062 56.1026C137.741 56.2412 137.412 56.3601 137.076 56.4587C137.076 56.4587 137.539 58.4011 136.101 61.0611L124.239 64.6275Z" fill="#AD6359"/>
<path d="M124.207 52.1262C125.419 51.1335 128.015 49.0616 130.73 48.112C133.747 47.0329 139.84 45.8351 140.594 48.0688C141.133 49.6875 138.865 50.3835 138.865 50.3835C138.865 50.3835 141.488 50.3835 141.666 52.0021C141.827 53.4535 140.05 53.8636 140.05 53.8636C140.05 53.8636 141.666 54.1549 141.526 55.5793C141.391 57.3005 138.084 56.4102 136.446 58.0289C136.053 58.3904 124.207 52.1262 124.207 52.1262Z" fill="#AD6359"/>
<path d="M131.318 51.4896C133.642 50.3512 136.258 49.9485 138.816 50.3349C138.881 50.3349 138.902 50.4051 138.843 50.4051C136.293 50.4668 133.761 50.84 131.301 51.5166C131.301 51.5166 131.301 51.495 131.318 51.4896Z" fill="#222B45"/>
<path d="M132.47 54.511C134.875 53.6018 137.481 53.3595 140.012 53.8096C140.077 53.8096 140.098 53.8851 140.039 53.8797C137.497 53.8135 134.956 54.0362 132.465 54.5434L132.47 54.511Z" fill="#222B45"/>
<path d="M157.633 71.7766L149.79 63.6834C149.79 63.6834 155.57 58.2879 159.826 56.2052C164.081 54.1226 164.803 56.8689 163.058 61.1691C161.312 65.4693 157.633 71.7766 157.633 71.7766Z" fill="#AA6CFF"/>
<path d="M152.112 62.3938C154.521 64.5021 156.787 66.7697 158.894 69.1814C158.894 69.1814 158.851 69.2515 158.84 69.2353C156.879 67.498 153.243 63.7427 152.031 62.4748C152.009 62.4532 152.085 62.3723 152.112 62.3938Z" fill="#222B45"/>
<path d="M151.347 65.3021L157.633 71.7766C157.633 71.7766 161.324 65.4369 163.064 61.1421C164.006 58.8059 164.227 56.9175 163.554 56.0218L151.347 65.3021Z" fill="#222B45"/>
<path d="M43.2503 116.37C44.484 116.845 80.3347 117.498 81.7407 116.694C81.8915 116.602 81.8484 115.021 82.3764 110.921C82.4033 110.727 83.2221 109.966 84.4989 108.892C89.2933 104.867 100.558 96.38 100.558 96.38L82.6673 80.814L65.3318 97.8799L60.8175 102.32C60.8175 102.32 46.1701 110.241 44.721 111.288C43.2719 112.334 42.0167 115.895 43.2503 116.37Z" fill="#AD6359"/>
<path d="M43.2504 116.37C44.4841 116.845 80.3348 117.498 81.7408 116.694C81.8916 116.602 81.8485 115.021 82.3765 110.921C76.747 111.816 51.6111 112.291 49.0307 111.266C46.7251 110.338 51.1371 107.64 52.0636 107.101C48.6375 108.989 45.3621 110.818 44.7211 111.288C43.2935 112.334 42.0168 115.895 43.2504 116.37Z" fill="#5C38FF"/>
<path d="M69.1513 91.9072L88.1783 108.811C88.1783 108.811 108.013 88.6159 112.102 88.4541C114.155 88.3731 146.983 106.734 162.503 108.342C173.509 109.48 180.243 95.452 180.243 95.452L155.883 86.0261C138.892 77.6361 119.741 62.5665 108.164 63.9747C95.6124 65.5016 69.1513 91.9072 69.1513 91.9072Z" fill="#37474F"/>
<path d="M75.2333 89.4954C78.347 92.2633 77.4904 91.427 80.5718 94.2326C82.0802 95.6031 89.6813 102.482 90.8772 103.998C90.9042 104.031 90.8772 104.079 90.818 104.058C89.2019 102.979 81.7678 95.9376 80.2863 94.5402C77.2534 91.6805 78.1315 92.4683 75.1525 89.5817C75.1351 89.5678 75.1269 89.5452 75.1314 89.5234C75.1359 89.5015 75.1523 89.484 75.1738 89.4781C75.1953 89.4722 75.2183 89.4789 75.2333 89.4954Z" fill="#222B45"/>
<path d="M91.1142 103.114C95.4239 99.299 109.603 86.8678 110.179 86.3876C110.625 85.961 111.121 85.5897 111.655 85.2815C112.102 85.1059 112.604 85.1457 113.018 85.3894C113.675 85.697 114.316 86.0315 114.963 86.3498L118.798 88.222C123.754 90.6446 128.678 93.1319 133.672 95.4736C138.449 97.7742 143.346 99.8184 148.341 101.597C153.324 103.359 158.479 104.589 163.721 105.266C164.367 105.347 165.014 105.417 165.665 105.477C165.686 105.477 165.703 105.494 165.703 105.515C165.703 105.535 165.686 105.552 165.665 105.552C160.522 105.246 155.437 104.298 150.528 102.731C145.574 101.156 140.729 99.2541 136.026 97.0383C131.135 94.7884 126.329 92.3766 121.481 89.9756C118.933 88.7076 116.396 87.4289 113.842 86.1987C113.266 85.9182 112.442 85.3031 111.779 85.6052C111.503 85.7504 111.247 85.9319 111.019 86.1448L110.168 86.8516C109.091 87.7634 91.7122 102.747 91.1412 103.178C91.1304 103.211 91.0711 103.151 91.1142 103.114Z" fill="#222B45"/>
<path d="M112.172 88.4595C114.806 88.74 147.134 106.745 162.503 108.342C173.509 109.48 180.243 95.452 180.243 95.452L171.92 92.2147L112.172 88.4595Z" fill="#222B45"/>
<path d="M179.483 91.4486C179.483 91.4486 182.128 106.761 174.479 112.777C166.829 118.793 110.825 118.07 102.325 115.318C93.824 112.567 93.56 98.8296 102.863 95.6463C111.698 92.6194 149.294 91.1518 150.221 90.7903C150.452 90.6986 146.886 88.5566 146.902 88.4271L155.446 85.8049L179.483 91.4486Z" fill="#37474F"/>
<path d="M167.879 91.06C167.879 90.9953 167.987 91.0169 167.987 91.06C167.991 92.8359 168.616 94.5541 169.754 95.916C171.058 97.4213 172.986 98.263 174.716 99.1533C174.883 99.2342 174.759 99.4986 174.581 99.4446C173.514 99.1143 172.484 98.6711 171.51 98.1227C170.619 97.6447 169.834 96.9892 169.205 96.1965C168.065 94.7455 167.584 92.8825 167.879 91.06Z" fill="#222B45"/>
<path d="M150.824 89.1663C151.212 88.6699 151.637 88.1951 152.041 87.7149C153 86.571 153.959 85.4272 154.961 84.3265C155.058 84.2186 155.247 84.3697 155.155 84.483C154.482 85.3679 153.765 86.2257 153.065 87.089L151.988 88.4109C151.607 88.8063 151.266 89.2382 150.969 89.7004C150.711 90.1914 151.056 90.6069 151.562 90.6608C152.011 90.6713 152.448 90.5113 152.785 90.213C153.544 89.5387 154.239 88.7945 154.859 87.9901C155.263 87.5368 155.667 87.0836 156.076 86.6358C156.486 86.188 156.971 85.7024 157.407 85.2276C157.434 85.1952 157.488 85.2276 157.466 85.2761C157.084 85.8157 156.734 86.3552 156.356 86.8624C155.979 87.3696 155.592 87.8983 155.198 88.4109C154.805 88.9235 154.444 89.3713 154.045 89.8407C153.716 90.2512 153.321 90.6048 152.876 90.8874C152.149 91.3137 150.889 91.427 150.501 90.4666C150.366 90.0065 150.49 89.5094 150.824 89.1663Z" fill="#222B45"/>
<path d="M103.488 115.367C106.413 115.426 109.338 115.593 112.264 115.658C115.189 115.723 118.071 115.734 120.974 115.707C126.803 115.653 132.628 115.426 138.45 115.027C144.327 114.622 150.668 114.034 156.507 113.225C159.303 112.836 162.137 112.513 164.895 111.919C167.376 111.444 169.669 110.269 171.505 108.531C175.276 104.862 176.757 99.4555 177.366 94.2974C177.447 93.6067 177.511 92.9107 177.565 92.2147C177.565 92.1938 177.582 92.1769 177.603 92.1769C177.624 92.1769 177.641 92.1938 177.641 92.2147C177.296 97.5023 176.477 103.006 173.153 107.274C171.758 109.126 169.9 110.577 167.766 111.482C165.153 112.534 162.25 112.782 159.486 113.155C153.625 113.953 147.258 114.568 141.364 115.027C135.471 115.485 129.481 115.771 123.533 115.863C117.586 115.955 111.628 115.863 105.681 115.572C104.953 115.534 104.231 115.496 103.526 115.432C103.445 115.432 103.445 115.367 103.488 115.367Z" fill="#222B45"/>
<path d="M121.944 92.8568C123.787 92.5871 125.624 92.3173 127.477 92.1285C129.33 91.9396 131.215 91.767 133.09 91.5889C136.796 91.276 140.513 90.9954 144.225 90.8227C146.337 90.7202 148.449 90.7094 150.56 90.7364C150.63 90.7364 150.625 90.8335 150.56 90.8389C146.849 91.1788 143.132 91.4109 139.409 91.659C135.687 91.9072 131.991 92.2364 128.285 92.5871C126.184 92.7867 124.083 92.9432 121.977 93.1266C121.815 93.1428 121.783 92.8784 121.944 92.8568Z" fill="#222B45"/>
<path d="M146.455 88.2275C147.937 88.8686 149.363 89.6339 150.716 90.5152C152.096 91.3416 153.415 92.2647 154.665 93.2777C154.703 93.3101 154.665 93.3532 154.616 93.3371C153.173 92.668 151.783 91.8263 150.404 91.0224C149.006 90.2387 147.657 89.3721 146.363 88.4272C146.277 88.357 146.331 88.1736 146.455 88.2275Z" fill="#222B45"/>
<path d="M153.275 77.8681L151.352 83.6467C151.352 83.6467 179.903 102.736 181.229 102.018C181.229 102.018 178.379 65.8416 170.869 58.0666C167.098 54.1765 162.826 54.5758 160.154 57.4246C159.481 58.1476 152.235 65.9441 151.465 70.1472C150.797 73.8646 153.275 77.8681 153.275 77.8681Z" fill="#AA6CFF"/>
<path opacity="0.1" fill-rule="evenodd" clip-rule="evenodd" d="M165.293 55.2394L169.194 56.6692C168.057 55.8285 166.703 55.3322 165.293 55.2394ZM171.785 59.1727L162.384 55.779V55.8059C162.191 55.8977 162.002 55.9948 161.808 56.1297L172.227 59.831C172.081 59.599 171.936 59.3832 171.785 59.1727ZM160.154 57.3976C160.23 57.3167 160.305 57.2411 160.386 57.1656L173.315 61.8327C173.412 62.0323 173.503 62.232 173.595 62.437L160.025 57.5379L160.154 57.3976ZM174.376 64.3362L158.926 58.7572V58.795C158.879 58.8439 158.834 58.8947 158.787 58.9465C158.72 59.0204 158.652 59.0966 158.576 59.1727L174.586 64.9081L174.376 64.3362ZM157.531 60.3759L175.216 66.7588L175.394 67.3307L157.207 60.7644L157.531 60.3759ZM175.927 69.122L156.195 61.9946V62.0647C156.135 62.1282 156.076 62.1991 156.015 62.2731L156.015 62.2731L156.015 62.2732L156.015 62.2732L156.015 62.2732L156.015 62.2733L156.015 62.2733L156.015 62.2734L156.015 62.2734L156.015 62.2734C155.973 62.3251 155.929 62.3784 155.882 62.4316L176.078 69.6616C176.061 69.6008 176.044 69.5388 176.027 69.4758L176.027 69.4757L176.027 69.4753L176.027 69.4752L176.027 69.4747L176.027 69.4746L176.026 69.4742L176.026 69.4742L176.026 69.4741L176.026 69.4741L176.026 69.4741C175.995 69.3587 175.962 69.2404 175.927 69.122ZM154.929 63.6564L176.547 71.4636C176.566 71.5368 176.585 71.61 176.603 71.6825L176.603 71.6826L176.603 71.6826L176.603 71.6826L176.603 71.6827L176.603 71.6827L176.603 71.6827L176.603 71.6828C176.631 71.7919 176.658 71.8995 176.687 72.0032L154.638 64.0448L154.929 63.6564ZM177.102 73.7838L153.749 65.3506L153.727 65.3992C153.657 65.5341 153.571 65.669 153.485 65.7553L177.22 74.3233C177.2 74.2224 177.177 74.1232 177.155 74.0246L177.155 74.0246L177.155 74.0246L177.155 74.0245L177.155 74.0245L177.155 74.0245L177.155 74.0244L177.155 74.0244L177.155 74.0244L177.155 74.0244L177.155 74.0243L177.155 74.0243L177.155 74.0243C177.137 73.9438 177.119 73.8638 177.102 73.7838ZM152.672 67.0879L177.587 76.0822C177.605 76.1712 177.623 76.2616 177.641 76.3519L177.641 76.352L177.641 76.3521L177.641 76.3521L177.641 76.3521L177.641 76.3521L177.641 76.3522L177.641 76.3522L177.641 76.3522L177.641 76.3522L177.641 76.3523L177.641 76.3523C177.658 76.4425 177.676 76.5328 177.694 76.6217L152.445 67.5033C152.524 67.399 152.605 67.2767 152.688 67.1364L152.672 67.0879ZM178.055 78.4131L151.81 68.8901L151.826 68.9386C151.767 69.0789 151.713 69.2354 151.664 69.3811L178.158 78.9527C178.141 78.8636 178.124 78.7733 178.106 78.6829L178.106 78.6828C178.089 78.5925 178.071 78.5021 178.055 78.4131ZM151.357 70.8485L178.459 80.636C178.477 80.733 178.493 80.8301 178.509 80.928C178.523 81.0097 178.536 81.0921 178.551 81.1755L151.336 71.3503C151.351 71.2412 151.362 71.0769 151.372 70.9155L151.373 70.8971L151.357 70.8485ZM178.917 83.4307C178.89 83.2473 178.863 83.0692 178.831 82.8912L151.465 73.0552C151.497 73.2387 151.53 73.4167 151.573 73.5948L178.917 83.4307ZM179.192 85.1413L179.273 85.6809L152.338 75.969C152.262 75.7855 152.187 75.5913 152.111 75.3863L179.192 85.1413ZM179.548 87.4234L153.226 77.8842L153.103 78.386L179.628 87.963L179.548 87.4234ZM152.596 79.7781L179.838 89.6141L179.903 90.1536L152.429 80.2421L152.596 79.7781ZM180.124 91.8801L151.971 81.6664L151.82 82.1682L180.189 92.4197L180.124 91.8801ZM151.341 83.5602L180.393 94.0491C180.393 94.1574 180.409 94.2658 180.425 94.3753C180.436 94.4458 180.446 94.5168 180.453 94.5886L152.796 84.6016L151.325 83.625L151.341 83.5602ZM180.698 96.6697C180.68 96.5478 180.663 96.43 180.663 96.3098L158.215 88.222L159.928 89.3442L180.722 96.8494C180.715 96.788 180.706 96.7284 180.698 96.6698L180.698 96.6697ZM180.894 98.5112L180.943 99.0507L167.373 94.1516L165.579 92.9808L180.894 98.5112ZM181.129 101.047C181.117 100.939 181.104 100.827 181.104 100.707L173.471 97.9717C174.193 98.4141 174.888 98.8296 175.54 99.218L181.147 101.247C181.143 101.181 181.136 101.114 181.129 101.047Z" fill="#030402"/>
<path d="M158.306 76.298C159.524 76.7509 160.707 77.2919 161.846 77.9166C162.384 78.235 162.95 78.5749 163.489 78.931C163.758 79.109 164.027 79.2763 164.302 79.4436C164.588 79.6236 164.893 79.7702 165.213 79.8806C165.24 79.8806 165.213 79.9291 165.213 79.9238C164.904 79.8553 164.6 79.767 164.302 79.6594C164.015 79.5442 163.736 79.409 163.467 79.2547C162.896 78.9418 162.336 78.5965 161.77 78.2727C160.617 77.6253 159.47 76.9724 158.28 76.4059C158.204 76.3681 158.247 76.2764 158.306 76.298Z" fill="#222B45"/>
<path d="M154.924 76.5732C155.981 76.7419 157.028 76.9707 158.059 77.2584C158.598 77.4041 159.077 77.5767 159.578 77.7656L160.289 78.0515C160.553 78.1541 160.801 78.2997 161.06 78.4022C161.06 78.4022 161.06 78.4562 161.06 78.4454C160.806 78.3537 160.521 78.3051 160.289 78.2296L159.519 78.003L157.984 77.5498C156.965 77.2368 155.942 76.9347 154.908 76.6541C154.843 76.6325 154.87 76.5624 154.924 76.5732Z" fill="#222B45"/>
<path d="M169.964 58.4821C180.302 69.2731 195.38 96.5635 197.244 100.481C198.505 103.135 184.639 110.139 184.046 108.207C183.292 105.736 171.209 75.1811 168.003 63.651C166.231 57.2951 167.826 56.2538 169.964 58.4821Z" fill="#AD6359"/>
<path d="M183.394 106.383C183.879 107.705 185.549 113.327 186.68 114.029C187.811 114.73 193.872 114.568 196.916 114.568C199.959 114.568 200.563 113.716 200.514 112.664C200.466 111.611 194.05 111.417 194.05 111.417C194.05 111.417 202.615 113.861 204.759 114.277C206.903 114.692 211.854 115.928 212.57 114.142C212.893 113.338 211.541 112.523 211.541 112.523C211.541 112.523 213.615 113.128 213.944 112.092C214.321 110.915 212.673 110.268 212.673 110.268C212.673 110.268 213.971 110.532 213.998 109.572C214.068 107.414 205.917 106.378 205.917 106.378C205.917 106.378 212.134 109.41 212.333 107.662C212.613 105.239 199.868 102.585 198.542 101.527C197.675 100.793 196.953 99.9016 196.415 98.8997L183.394 106.383Z" fill="#AD6359"/>
<path d="M200.471 113.209C200.514 112.906 200.405 112.601 200.18 112.394C199.962 112.193 199.713 112.029 199.442 111.908C198.876 111.668 198.29 111.478 197.691 111.342C196.495 111.04 195.262 110.802 194.039 110.505C195.309 110.483 196.576 110.625 197.81 110.926C198.437 111.071 199.041 111.304 199.604 111.617C199.89 111.773 200.141 111.986 200.342 112.243C200.552 112.519 200.602 112.886 200.471 113.209Z" fill="#222B45"/>
<path d="M211.542 112.529C210.663 112.313 209.796 112.065 208.929 111.811C208.061 111.558 207.205 111.299 206.348 111.04L203.773 110.23C202.917 109.961 202.06 109.691 201.193 109.437C202.101 109.532 203.001 109.69 203.887 109.912C204.77 110.112 205.637 110.365 206.499 110.63C207.361 110.894 208.218 111.169 209.058 111.504C209.898 111.838 210.717 112.146 211.542 112.529Z" fill="#222B45"/>
<path d="M203.256 107.301C204.084 107.354 204.907 107.468 205.718 107.64C206.535 107.804 207.342 108.011 208.137 108.261C208.928 108.509 209.705 108.801 210.464 109.135C211.228 109.462 211.968 109.843 212.678 110.273C211.892 110.004 211.127 109.702 210.346 109.443C209.565 109.184 208.794 108.903 208.008 108.671C207.221 108.439 206.435 108.191 205.648 107.959C204.862 107.727 204.059 107.516 203.256 107.301Z" fill="#222B45"/>
<path d="M204.511 105.256C205.849 105.358 207.168 105.638 208.433 106.086C209.707 106.51 210.92 107.098 212.042 107.835C210.777 107.387 209.548 106.912 208.272 106.491C206.995 106.07 205.788 105.671 204.511 105.256Z" fill="#222B45"/>
<path d="M179.499 69.1976L168.773 72.6993C168.773 72.6993 166.489 65.1456 166.462 60.3867C166.435 55.6279 169.242 56.1944 172.334 59.6476C175.426 63.1007 179.499 69.1976 179.499 69.1976Z" fill="#AA6CFF"/>
<path d="M168.65 70.0554C171.596 68.8073 174.623 67.76 177.711 66.9207C177.711 66.9207 177.754 66.9854 177.711 66.9962C175.292 67.9944 170.325 69.6238 168.661 70.1579C168.655 70.1579 168.618 70.0662 168.65 70.0554Z" fill="#222B45"/>
<path d="M170.691 72.0734C170.034 72.219 169.377 72.3863 168.731 72.5751L168.903 72.6615C168.607 71.3935 168.283 70.131 167.966 68.8846C167.648 67.6383 167.314 66.3649 166.964 65.1078C167.081 66.4137 167.288 67.7099 167.583 68.9871C167.874 70.2647 168.234 71.5255 168.66 72.764L168.704 72.9043L168.811 72.8557C169.447 72.5967 170.072 72.3431 170.691 72.0734Z" fill="#222B45"/>
<path d="M166.608 66.1222C166.71 66.6971 166.922 67.2468 167.233 67.7409C167.335 67.9042 167.456 68.0545 167.594 68.1887C167.494 67.8184 167.362 67.4574 167.2 67.1096C167.042 66.7584 166.843 66.427 166.608 66.1222Z" fill="#222B45"/>
<path d="M167.583 57.2843C167.379 57.7969 164.615 59.8849 162.196 59.4155C161.41 59.2644 161.771 55.9246 161.771 55.9246L161.744 55.5901L161.394 50.9446L167.163 48.3224L167.993 47.9879C167.993 47.9879 167.993 49.2666 167.993 50.8529V51.0795C167.993 51.1712 167.993 51.2575 167.993 51.3385C167.993 51.5759 167.993 51.8187 167.993 52.0615C167.993 52.3043 167.993 52.423 167.993 52.601V53.1783C167.95 54.5548 167.813 55.9266 167.583 57.2843Z" fill="#AD6359"/>
<path d="M168.003 50.8529C166.714 53.2776 164.425 55.0105 161.744 55.5901L161.394 50.9446L167.163 48.3224L167.993 47.9879C167.993 47.9879 168.003 49.2666 168.003 50.8529Z" fill="#222B45"/>
<path d="M157.041 41.7129C153.679 49.1641 157.757 52.0237 159.363 52.7467C160.817 53.3995 165.865 55.4444 169.975 48.3925C174.085 41.3406 171.688 37.4073 168.434 35.7293C165.181 34.0513 160.397 34.2617 157.041 41.7129Z" fill="#AD6359"/>
<path d="M159.217 40.1429C159.395 40.1816 159.575 40.2104 159.756 40.2292C159.946 40.2941 160.153 40.2941 160.343 40.2292C160.455 40.1609 160.506 40.0252 160.467 39.9001C160.358 39.663 160.129 39.5038 159.869 39.4846C159.612 39.429 159.344 39.4693 159.115 39.5979C159.02 39.6679 158.973 39.7864 158.995 39.9026C159.017 40.0189 159.103 40.1123 159.217 40.1429Z" fill="#222B45"/>
<path d="M164.146 42.436C163.974 42.3442 163.829 42.2309 163.672 42.1284C163.49 42.0443 163.34 41.902 163.247 41.7238C163.212 41.5959 163.264 41.4603 163.376 41.3892C163.616 41.2876 163.893 41.3248 164.098 41.4864C164.326 41.6168 164.498 41.8259 164.583 42.0745C164.613 42.1921 164.573 42.3169 164.479 42.3944C164.386 42.4719 164.256 42.4881 164.146 42.436Z" fill="#222B45"/>
<path d="M162.153 43.8549C162.153 43.8549 162.186 43.898 162.153 43.9196C161.927 44.4268 161.749 45.0473 162.153 45.4088C162.153 45.4088 162.153 45.4465 162.153 45.4358C161.615 45.1228 161.857 44.3027 162.153 43.8549Z" fill="#222B45"/>
<path d="M162.837 43.5096C163.688 43.7848 163.069 45.4736 162.298 45.2146C161.528 44.9556 162.121 43.2776 162.837 43.5096Z" fill="#222B45"/>
<path d="M163.134 43.72C163.247 43.871 163.327 44.0923 163.5 44.1732C163.672 44.2541 163.915 44.1732 164.114 44.0275C164.114 44.0275 164.141 44.0275 164.114 44.0599C164.001 44.3836 163.753 44.6696 163.392 44.5994C163.031 44.5293 162.934 44.1624 162.977 43.8063C163.004 43.72 163.09 43.6606 163.134 43.72Z" fill="#222B45"/>
<path d="M159.465 42.5438C159.465 42.5438 159.411 42.5438 159.406 42.5708C159.233 43.1104 158.953 43.6823 158.414 43.6877V43.7147C159.018 43.8442 159.384 43.0726 159.465 42.5438Z" fill="#222B45"/>
<path d="M159.19 41.8261C158.371 41.4592 157.703 43.1265 158.463 43.4448C159.222 43.7631 159.879 42.1337 159.19 41.8261Z" fill="#222B45"/>
<path d="M158.802 41.7937C158.635 41.8315 158.441 41.9394 158.264 41.8855C158.086 41.8315 158.01 41.5887 157.967 41.3459C157.967 41.3459 157.94 41.3459 157.935 41.3459C157.795 41.6589 157.768 42.0365 158.048 42.22C158.328 42.4034 158.619 42.22 158.824 41.9124C158.878 41.8909 158.867 41.783 158.802 41.7937Z" fill="#222B45"/>
<path d="M160.882 47.8746C160.727 47.992 160.537 48.0529 160.343 48.0473C160.143 47.983 159.959 47.8762 159.804 47.7343C159.894 47.994 160.116 48.1855 160.386 48.2361C160.625 48.2452 160.847 48.1118 160.952 47.8962C160.952 47.8962 160.903 47.8638 160.882 47.8746Z" fill="#222B45"/>
<path d="M159.422 45.1715C159.224 45.5217 159.044 45.8819 158.883 46.2506C158.883 46.283 158.953 46.3369 159.072 46.3909C159.665 46.7545 160.412 46.7545 161.006 46.3909C161.025 46.3819 161.033 46.359 161.024 46.3396C161.016 46.3202 160.993 46.3118 160.973 46.3207C160.386 46.4627 159.768 46.4116 159.212 46.175C159.212 46.0617 159.939 44.9341 159.885 44.9071C159.591 44.8241 159.286 44.7823 158.98 44.783C159.777 43.2237 160.812 41.8047 161.577 40.24C161.585 40.2168 161.577 40.1906 161.557 40.1765C161.536 40.1625 161.509 40.1642 161.49 40.1807C160.333 41.6658 159.328 43.2637 158.49 44.9503C158.393 45.1661 159.255 45.1769 159.422 45.1715Z" fill="#222B45"/>
<path d="M159.174 46.1642C159.245 46.5477 159.414 46.9062 159.664 47.2055C159.806 47.3656 159.994 47.477 160.203 47.5239C160.655 47.621 160.855 47.2595 160.941 46.9088C160.984 46.7212 161.005 46.5293 161.005 46.3369C160.392 46.4773 159.75 46.4168 159.174 46.1642Z" fill="#222B45"/>
<path d="M159.653 47.2054C159.795 47.3655 159.984 47.4769 160.192 47.5237C160.645 47.6209 160.844 47.2594 160.93 46.9087C160.488 46.6948 159.957 46.8183 159.653 47.2054Z" fill="#FF9ABB"/>
<path d="M169.765 47.9663C167.95 47.2002 169.194 44.3514 169.194 44.3514C169.194 44.3514 167.222 43.2723 168.504 39.8947C167.111 40.8948 165.331 41.1843 163.694 40.677C163.069 40.5098 165.703 39.8353 165.703 39.8353C165.703 39.8353 162.412 40.9576 158.377 38.2491C158.091 38.0548 160.747 33.7061 164.874 33.6089C169 33.5118 171.715 35.7671 172.906 38.848C172.906 38.848 174.926 41.1033 174.182 43.6176C173.439 46.1319 170.476 48.2631 169.765 47.9663Z" fill="#222B45"/>
<path d="M168.531 48.4303C168.531 48.4303 171.058 46.612 171.936 47.594C172.814 48.576 170.32 51.6245 168.881 51.6514C168.507 51.6842 168.135 51.5621 167.852 51.3135C167.569 51.0649 167.4 50.7114 167.384 50.3349L168.531 48.4303Z" fill="#AD6359"/>
<path d="M171.203 48.452C171.203 48.452 171.203 48.4844 171.203 48.4898C170.18 48.5383 169.415 49.202 168.779 49.9519C168.948 49.8072 169.172 49.7442 169.392 49.7795C169.612 49.8148 169.805 49.9449 169.921 50.1354C169.921 50.1354 169.921 50.1893 169.883 50.1732C169.596 49.9559 169.204 49.9429 168.903 50.1408C168.661 50.3072 168.435 50.497 168.229 50.7073C168.159 50.7721 168.03 50.6803 168.095 50.5994C168.483 49.4232 169.932 48.1337 171.203 48.452Z" fill="#222B45"/>
<path fill-rule="evenodd" clip-rule="evenodd" d="M171.112 45.4953L170.826 44.7669L168.074 45.3712L168.688 46.9898L171.112 45.4953ZM170.573 45.3819L168.903 46.2829L168.677 45.711L170.508 45.2146L170.573 45.3819Z" fill="white"/>
<path fill-rule="evenodd" clip-rule="evenodd" d="M170.832 44.3081V43.5312L168.068 43.0402L168.02 44.7775L170.832 44.3081ZM170.363 44.0007L168.477 44.2057V43.5906L170.363 43.8226V44.0007Z" fill="white"/>
<rect width="28.9333" height="22.6263" rx="2" transform="matrix(-1 0 0 1 144.798 0.15152)" fill="#E86BB2"/>
<path d="M134.852 21.901H125.81L130.331 27.3313L134.852 21.901Z" fill="#E86BB2"/>
<circle cx="133.838" cy="6.72746" r="2.19192" fill="white"/>
<path d="M128.139 11.988C128.139 13.1985 127.158 14.1799 125.947 14.1799C124.737 14.1799 123.755 13.1985 123.755 11.988C123.755 10.7774 124.737 9.79607 125.947 9.79607C126.529 9.79607 127.086 10.027 127.497 10.4381C127.908 10.8491 128.139 11.4067 128.139 11.988Z" fill="white"/>
<path d="M136.03 16.3718C136.03 17.5824 135.049 18.5637 133.838 18.5637C132.628 18.5637 131.646 17.5824 131.646 16.3718C131.646 15.1613 132.628 14.1799 133.838 14.1799C134.42 14.1799 134.977 14.4108 135.388 14.8219C135.799 15.233 136.03 15.7905 136.03 16.3718Z" fill="white"/>
<path d="M133.091 16.8102L125.509 11.871L133.096 7.16574L133.397 7.65966L126.585 11.8825L133.4 16.3249L133.091 16.8102Z" fill="white"/>
</svg>
