<svg width="84" height="34" viewBox="0 0 84 34" fill="none" xmlns="http://www.w3.org/2000/svg">
<path d="M66.5371 24.4707C65.8762 24.3336 65.2996 23.8941 64.9903 23.2894C64.7969 22.9133 64.7477 22.6953 64.7477 22.2383C64.7477 21.8973 64.7653 21.7883 64.8461 21.5457C65.3735 19.9426 67.402 19.4609 68.5938 20.6562C69.6098 21.6687 69.4481 23.3387 68.2563 24.1332C67.7746 24.4566 67.1031 24.5902 66.5371 24.4707Z" fill="#8C2C8C"/>
<path d="M53.1777 22.9449C52.6504 22.7023 52.5871 21.9465 53.0617 21.6195L53.2058 21.5176L57.959 21.507L62.7086 21.5L62.8668 21.5809C62.9511 21.6266 63.0707 21.732 63.1269 21.8129C63.2218 21.95 63.2324 21.9887 63.2324 22.2523C63.2324 22.516 63.2218 22.5582 63.1304 22.6883C63.0672 22.7797 62.9652 22.8676 62.8527 22.9238L62.6734 23.0117H57.9976C53.5187 23.0117 53.3113 23.0082 53.1777 22.9449Z" fill="#8C2C8C"/>
<path d="M57.3965 19.1832C57.1012 19.0953 57.0168 19.0566 56.7953 18.916C56.4156 18.6734 56.0992 18.3113 55.9375 17.9351L55.8707 17.7769L54.577 17.7664L53.2832 17.7558L53.125 17.6679C53.0406 17.6187 52.9211 17.5097 52.8613 17.4289C52.7664 17.2883 52.7559 17.2496 52.7559 17C52.7559 16.7504 52.7664 16.7117 52.8613 16.5711C52.9211 16.4902 53.0406 16.3812 53.125 16.332L53.2832 16.2441L54.5734 16.2336L55.8637 16.223L55.934 16.0683C56.1766 15.5234 56.6934 15.0523 57.2734 14.8519C57.5863 14.7465 58.2191 14.7183 58.5391 14.7992C59.5691 15.0558 60.2617 15.9418 60.2617 17C60.2617 17.6222 60.0402 18.1672 59.6043 18.6031C59.3266 18.8844 58.9469 19.0988 58.5566 19.1972C58.2684 19.2711 57.6672 19.264 57.3965 19.1832Z" fill="#8C2C8C"/>
<path d="M62.2586 17.7242C62.0582 17.6539 61.9598 17.5766 61.8508 17.4148C61.7664 17.2883 61.7559 17.2355 61.7559 16.9965C61.7559 16.7504 61.7664 16.7117 61.8613 16.5711C61.9211 16.4902 62.0406 16.3812 62.125 16.332L62.2832 16.2441H65.5H68.7168L68.875 16.332C68.9594 16.3812 69.0789 16.4902 69.1387 16.5711C69.2336 16.7117 69.2441 16.7504 69.2441 17C69.2441 17.2496 69.2336 17.2883 69.1387 17.4289C69.0789 17.5098 68.9594 17.6187 68.875 17.668L68.7168 17.7559L65.5527 17.7629C62.9758 17.7699 62.3641 17.7629 62.2586 17.7242Z" fill="#8C2C8C"/>
<path d="M63.4328 13.9414C62.9898 13.8219 62.7367 13.6777 62.4027 13.3437C61.9387 12.8832 61.7383 12.4051 61.7383 11.7476C61.7348 10.0637 63.4856 8.98085 65.0078 9.72616C65.4156 9.92655 65.8164 10.3238 66.0098 10.7176L66.1434 10.9883H67.4125C68.8117 10.9883 68.8434 10.9953 69.0578 11.2203C69.3672 11.5508 69.3109 12.1238 68.9383 12.3805L68.7941 12.4824L67.4723 12.493L66.1504 12.5035L65.9957 12.8023C65.732 13.3156 65.2891 13.6988 64.7195 13.8957C64.3609 14.0223 63.7984 14.0433 63.4328 13.9414Z" fill="#8C2C8C"/>
<path d="M53.1778 12.4508C52.7031 12.2398 52.5906 11.5508 52.9703 11.1922C53.1988 10.9777 53.0371 10.9883 56.507 10.9883C59.5235 10.9883 59.6887 10.9918 59.8223 11.0551C60.3496 11.2976 60.4129 12.0535 59.9383 12.3805L59.7942 12.4824L56.5387 12.4894C53.8844 12.4965 53.2621 12.4894 53.1778 12.4508Z" fill="#8C2C8C"/>
<rect x="1" y="1" width="82" height="32" rx="16" stroke="#8C2C8C"/>
<path d="M17.8354 22H16.3247V12.7197H21.5679V14.002H17.8354V16.8965H21.3267V18.1724H17.8354V22ZM24.5957 14.9731V22H23.104V14.9731H24.5957ZM23.8594 12.2817C24.0879 12.2817 24.2847 12.3431 24.4497 12.4658C24.619 12.5885 24.7036 12.8001 24.7036 13.1006C24.7036 13.3968 24.619 13.6084 24.4497 13.7354C24.2847 13.8581 24.0879 13.9194 23.8594 13.9194C23.6224 13.9194 23.4214 13.8581 23.2563 13.7354C23.0955 13.6084 23.0151 13.3968 23.0151 13.1006C23.0151 12.8001 23.0955 12.5885 23.2563 12.4658C23.4214 12.3431 23.6224 12.2817 23.8594 12.2817ZM28.2329 22H26.7349V12.123H28.2329V22ZM32.981 20.9209C33.1756 20.9209 33.3682 20.904 33.5586 20.8701C33.749 20.832 33.9225 20.7876 34.0791 20.7368V21.8667C33.9141 21.9386 33.7004 22 33.438 22.0508C33.1756 22.1016 32.9027 22.127 32.6191 22.127C32.2214 22.127 31.8638 22.0614 31.5464 21.9302C31.229 21.7948 30.9772 21.5641 30.791 21.2383C30.6048 20.9124 30.5117 20.4618 30.5117 19.8862V16.1094H29.5532V15.4429L30.5815 14.916L31.0703 13.4116H32.0098V14.9731H34.022V16.1094H32.0098V19.8672C32.0098 20.2227 32.0986 20.4871 32.2764 20.6606C32.4541 20.8341 32.689 20.9209 32.981 20.9209ZM38.3066 14.8398C38.9329 14.8398 39.4704 14.9689 39.9189 15.2271C40.3675 15.4852 40.7124 15.8512 40.9536 16.3252C41.1948 16.7992 41.3154 17.3662 41.3154 18.0264V18.8262H36.6245C36.6414 19.5075 36.8234 20.0322 37.1704 20.4004C37.5216 20.7686 38.0125 20.9526 38.6431 20.9526C39.0916 20.9526 39.4937 20.9103 39.8491 20.8257C40.2088 20.7368 40.5791 20.6077 40.96 20.4385V21.6509C40.6087 21.8159 40.2511 21.9365 39.8872 22.0127C39.5233 22.0889 39.0874 22.127 38.5796 22.127C37.8898 22.127 37.2826 21.9937 36.7578 21.7271C36.2373 21.4562 35.8289 21.0542 35.5327 20.521C35.2407 19.9878 35.0947 19.3255 35.0947 18.5342C35.0947 17.7471 35.228 17.0785 35.4946 16.5283C35.7612 15.9782 36.1357 15.5592 36.6182 15.2715C37.1006 14.9837 37.6634 14.8398 38.3066 14.8398ZM38.3066 15.9634C37.8369 15.9634 37.4561 16.1157 37.1641 16.4204C36.8763 16.7251 36.707 17.1715 36.6562 17.7598H39.8555C39.8512 17.4085 39.792 17.0975 39.6777 16.8267C39.5677 16.5558 39.3984 16.3442 39.1699 16.1919C38.9456 16.0396 38.6579 15.9634 38.3066 15.9634ZM46.5586 14.8398C46.6771 14.8398 46.8062 14.8462 46.9458 14.8589C47.0854 14.8716 47.2061 14.8885 47.3076 14.9097L47.168 16.3062C47.0791 16.2808 46.9691 16.2617 46.8379 16.249C46.7109 16.2363 46.5967 16.23 46.4951 16.23C46.2285 16.23 45.9746 16.2744 45.7334 16.3633C45.4922 16.4479 45.2785 16.5791 45.0923 16.7568C44.9061 16.9303 44.7601 17.1483 44.6543 17.4106C44.5485 17.673 44.4956 17.9777 44.4956 18.3247V22H42.9976V14.9731H44.1655L44.3687 16.2109H44.4385C44.5781 15.9613 44.7516 15.7327 44.959 15.5254C45.1663 15.318 45.4033 15.153 45.6699 15.0303C45.9408 14.9033 46.237 14.8398 46.5586 14.8398Z" fill="#222B45"/>
</svg>
