<svg width="24" height="24" viewBox="0 0 24 24" fill="none" xmlns="http://www.w3.org/2000/svg">
<g clip-path="url(#clip0_1_24419)">
<path d="M10.5 23.9297C8.67655 23.7047 6.90936 23.0485 5.38593 22.036C3.02343 20.4657 1.30311 18.1688 0.496863 15.4969C0.304675 14.8782 0.117175 13.936 0.0468628 13.3032C-0.0140747 12.7172 -0.0140747 11.2829 0.0468628 10.6969C0.553113 5.9438 3.91405 1.88442 8.50311 0.496924C9.12186 0.304736 10.0641 0.117236 10.6969 0.0469238C11.2828 -0.0140137 12.7172 -0.0140137 13.3031 0.0469238C16.0781 0.342236 18.6516 1.60317 20.6297 3.63755C21.9844 5.03911 22.9453 6.66099 23.5031 8.50317C23.85 9.64224 24 10.6969 24 12C24 12.9797 23.9531 13.5188 23.7844 14.3672C22.9359 18.6797 19.7203 22.2235 15.4969 23.5032C14.8781 23.6954 13.9359 23.8829 13.3031 23.9532C12.6891 24.0188 11.1047 24.0047 10.5 23.9297ZM13.4437 14.461C15.7687 13.1204 17.6719 12.0141 17.6719 12C17.6719 11.9813 11.3203 8.3063 8.99061 6.97036L8.76561 6.8438V12V17.1563L8.99061 17.0297C9.11718 16.9547 11.1187 15.8016 13.4437 14.461Z" fill="#8C2C8C"/>
</g>
<defs>
<clipPath id="clip0_1_24419">
<rect width="24" height="24" fill="white" transform="matrix(1 0 0 -1 0 24)"/>
</clipPath>
</defs>
</svg>
