<svg width="24" height="24" viewBox="0 0 24 24" fill="none" xmlns="http://www.w3.org/2000/svg">
<g clip-path="url(#clip0_1_24411)">
<path d="M10.4344 0.0750618C6.06095 0.637562 2.26876 3.65162 0.731263 7.786C0.168763 9.30475 -0.0281124 10.5469 0.014075 12.3422C0.0375125 13.4907 0.107825 14.0391 0.351575 14.9907C1.47189 19.3969 5.10001 22.8657 9.52501 23.7704C11.0859 24.0844 13.0266 24.0844 14.5266 23.761C18.7875 22.8376 22.2469 19.6641 23.4984 15.5157C23.8641 14.3157 24 13.3501 24 12.0001C24 9.6985 23.4563 7.71569 22.2984 5.78912C20.4047 2.64381 17.1422 0.525061 13.5 0.0703735C12.7734 -0.0186882 11.1469 -0.0140018 10.4344 0.0750618ZM12.6094 6.06569C14.5313 6.38444 15.5578 7.77194 15.0516 9.37506C14.8453 10.0313 14.3578 10.6688 13.5328 11.3579C12.7406 12.0235 12.6 12.286 12.5391 13.1954C12.5203 13.4766 12.4828 13.7063 12.4406 13.7672C12.3281 13.9454 12.0984 14.0297 11.6953 14.0485C11.2313 14.0719 11.0344 13.9876 10.9031 13.7157C10.6969 13.2891 10.7813 12.2766 11.0766 11.6579C11.3063 11.1704 11.55 10.8891 12.1828 10.3829C13.0078 9.72662 13.2281 9.3985 13.2375 8.85475C13.2422 8.14694 12.7219 7.76256 11.7656 7.76725C11.0484 7.77194 10.7766 7.91725 10.3406 8.50319C10.0547 8.89225 9.9047 8.97662 9.56251 8.94381C9.24845 8.911 8.99064 8.73756 8.85939 8.461C8.50782 7.72975 9.28126 6.63756 10.4391 6.22975C11.0672 6.00475 11.8781 5.94381 12.6094 6.06569ZM12.1875 15.3657C12.6094 15.5719 12.886 16.0876 12.825 16.5329C12.7453 17.1094 12.2156 17.5782 11.6438 17.5782C11.3391 17.5782 11.1281 17.4938 10.8844 17.2688C10.1719 16.6313 10.4485 15.5063 11.3766 15.2532C11.6578 15.1782 11.8594 15.2063 12.1875 15.3657Z" fill="#8C2C8C"/>
</g>
<defs>
<clipPath id="clip0_1_24411">
<rect width="24" height="24" fill="white"/>
</clipPath>
</defs>
</svg>
