<svg width="24" height="24" viewBox="0 0 24 24" fill="none" xmlns="http://www.w3.org/2000/svg">
<path d="M4.95 0.0749989C4.22344 0.234375 3.68438 0.529686 3.15938 1.05C2.73281 1.47656 2.46563 1.90781 2.25938 2.50781L2.13281 2.88281V12V21.1172L2.25938 21.4922C2.66719 22.6828 3.54375 23.5312 4.71094 23.8687L5.08594 23.9766H12H18.9141L19.2891 23.8687C19.9031 23.6906 20.3578 23.4234 20.8172 22.9688C21.2672 22.5234 21.525 22.1109 21.7406 21.4922L21.8672 21.1172V12V2.88281L21.7406 2.50781C21.3328 1.33125 20.475 0.492188 19.3125 0.131248L18.9609 0.0234375L12.1172 0.014061C6.21094 0.00937462 5.23125 0.014061 4.95 0.0749989ZM15.2203 6.75469C15.4969 6.85781 15.7453 7.21875 15.75 7.51875C15.75 7.74375 15.5719 8.05781 15.3609 8.19375L15.1688 8.32031H12.0047H8.83594L8.6625 8.2125C8.22188 7.94062 8.1375 7.37812 8.475 6.975C8.70938 6.69844 8.60625 6.70781 11.9859 6.70312C14.0719 6.70312 15.1313 6.71719 15.2203 6.75469ZM17.3859 11.2734C17.7141 11.4422 17.9156 11.8641 17.8172 12.1875C17.7516 12.4031 17.5734 12.6328 17.3859 12.7266C17.1891 12.8297 6.81094 12.8297 6.61406 12.7266C6.42656 12.6328 6.24844 12.4031 6.18281 12.1875C6.08438 11.8687 6.25781 11.4891 6.58125 11.2922C6.72188 11.2078 6.91875 11.2031 11.9906 11.2031C16.5188 11.2031 17.2734 11.2125 17.3859 11.2734ZM17.4469 15.7875C17.6953 15.9422 17.8313 16.1859 17.8313 16.4766C17.8313 16.7625 17.7281 16.9687 17.4984 17.1422L17.3297 17.2734H12H6.67031L6.50156 17.1422C6.08438 16.8281 6.04219 16.275 6.39844 15.9141C6.49219 15.825 6.63281 15.7312 6.71719 15.7078C6.80625 15.6797 8.91563 15.6656 12.0703 15.6703L17.2734 15.6797L17.4469 15.7875Z" fill="#8C2C8C"/>
</svg>
