<svg width="300" height="292" viewBox="0 0 300 292" fill="none" xmlns="http://www.w3.org/2000/svg">
<path d="M43.7958 268.68C102.179 299.184 196.835 299.184 255.218 268.68C313.601 238.177 313.608 188.73 255.218 158.227C196.828 127.723 102.179 127.73 43.7888 158.227C-14.6009 188.723 -14.594 238.17 43.7958 268.68Z" fill="#F5F5F5"/>
<path d="M117.566 242.19C133.3 249.689 158.805 249.689 174.504 242.19C190.204 234.691 190.239 222.539 174.504 215.04C158.77 207.541 133.273 207.541 117.566 215.04C101.859 222.539 101.804 234.698 117.566 242.19Z" fill="#EBEBEB"/>
<path d="M253.774 223.63L197.53 256.091C196.585 256.57 195.468 256.57 194.523 256.091L124.218 215.485C123.846 215.358 123.596 215.009 123.596 214.617C123.596 214.224 123.846 213.875 124.218 213.749L180.462 181.287C181.407 180.808 182.524 180.808 183.469 181.287L253.795 221.894C254.165 222.024 254.411 222.376 254.406 222.769C254.402 223.162 254.147 223.508 253.774 223.63Z" fill="#EBEBEB"/>
<path d="M269.425 45.1829V60.0911C269.425 60.0911 263.301 62.9589 252.066 62.9589C240.831 62.9589 234.706 60.0842 234.706 60.0842V45.5023L246.427 12.3322C246.268 13.3738 246.879 14.4153 248.254 15.2347C250.296 16.4953 252.833 16.6542 255.017 15.6582C255.319 15.5395 255.611 15.3979 255.892 15.2347C257.35 14.3945 257.975 13.2418 257.69 12.1447L269.425 45.1829Z" fill="#F5F5F5"/>
<path opacity="0.5" d="M269.425 45.1829V60.0911C269.425 60.0911 263.301 62.9589 252.066 62.9589C240.831 62.9589 234.706 60.0842 234.706 60.0842V45.5023L246.427 12.3322C246.268 13.3738 246.879 14.4153 248.254 15.2347C250.296 16.4953 252.833 16.6542 255.017 15.6582C255.319 15.5395 255.611 15.3979 255.892 15.2347C257.35 14.3945 257.975 13.2418 257.69 12.1447L269.425 45.1829Z" fill="white"/>
<path d="M268.078 149.686C267.071 151.012 265.796 152.11 264.335 152.908C257.544 156.831 246.538 156.831 239.754 152.908C238.291 152.111 237.013 151.012 236.005 149.686C235.221 148.644 234.758 147.397 234.672 146.096V153.838C234.797 156.31 236.484 158.761 239.754 160.65C246.538 164.566 257.544 164.566 264.335 160.65C267.724 158.692 269.425 156.123 269.425 153.554V145.818C269.399 147.218 268.927 148.573 268.078 149.686Z" fill="#F5F5F5"/>
<path d="M268.078 141.944C267.071 143.269 265.796 144.367 264.335 145.166C263.932 145.395 263.523 145.61 263.099 145.811C256.69 148.867 247.393 148.867 240.99 145.811C240.567 145.61 240.15 145.395 239.754 145.166C238.291 144.368 237.013 143.27 236.005 141.944C235.222 140.904 234.758 139.659 234.672 138.361V146.096C234.758 147.397 235.221 148.644 236.005 149.686C237.013 151.012 238.291 152.111 239.754 152.908C246.538 156.831 257.544 156.831 264.335 152.908C265.796 152.11 267.071 151.012 268.078 149.686C268.927 148.573 269.399 147.218 269.425 145.818V138.076C269.4 139.476 268.928 140.831 268.078 141.944Z" fill="#EBEBEB"/>
<path d="M268.078 134.201C267.07 135.528 265.795 136.628 264.335 137.43C263.932 137.659 263.523 137.868 263.099 138.076C256.69 141.131 247.393 141.131 240.99 138.076C240.567 137.868 240.15 137.659 239.754 137.43C238.293 136.628 237.015 135.528 236.005 134.201C235.222 133.162 234.758 131.917 234.672 130.618V138.361C234.758 139.659 235.222 140.904 236.005 141.944C237.013 143.27 238.291 144.368 239.754 145.166C240.15 145.395 240.567 145.61 240.99 145.811C247.393 148.867 256.69 148.867 263.099 145.811C263.523 145.61 263.932 145.395 264.335 145.166C265.796 144.367 267.071 143.269 268.078 141.944C268.928 140.831 269.4 139.476 269.425 138.076V130.334C269.401 131.734 268.928 133.089 268.078 134.201Z" fill="#F5F5F5"/>
<path d="M234.672 45.4746V130.618C234.758 131.917 235.222 133.162 236.005 134.201C237.015 135.528 238.293 136.628 239.754 137.43C240.15 137.659 240.567 137.868 240.99 138.076C242.669 138.858 244.436 139.434 246.254 139.791L243.108 50.0574L234.672 45.4746Z" fill="#F5F5F5"/>
<path d="M260.981 50.0574L257.829 139.791C259.646 139.434 261.414 138.858 263.092 138.076C263.516 137.868 263.926 137.659 264.328 137.43C265.788 136.628 267.063 135.528 268.071 134.201C268.921 133.089 269.394 131.734 269.418 130.334V45.1829L260.981 50.0574Z" fill="#F5F5F5"/>
<path d="M234.672 45.4746V130.618C234.758 131.917 235.222 133.162 236.005 134.201C237.015 135.528 238.293 136.628 239.754 137.43C240.15 137.659 240.567 137.868 240.99 138.076C242.669 138.858 244.436 139.434 246.254 139.791L243.108 50.0574L234.672 45.4746Z" fill="#E0E0E0"/>
<path d="M260.981 50.0574L257.829 139.791C259.646 139.434 261.414 138.858 263.092 138.076C263.516 137.868 263.926 137.659 264.328 137.43C265.788 136.628 267.063 135.528 268.071 134.201C268.921 133.089 269.394 131.734 269.418 130.334V45.1829L260.981 50.0574Z" fill="#E0E0E0"/>
<path d="M243.108 50.0574V138.937C244.137 139.292 245.188 139.58 246.254 139.798C248.16 140.183 250.1 140.376 252.045 140.374C253.989 140.373 255.929 140.18 257.836 139.798C258.902 139.58 259.953 139.292 260.981 138.937V50.0574L243.108 50.0574Z" fill="#EBEBEB"/>
<path d="M255.864 15.2C255.583 15.3632 255.291 15.5048 254.989 15.6235C252.805 16.6195 250.268 16.4606 248.226 15.2C246.837 14.4084 246.24 13.3391 246.4 12.2975L250.399 1.09728C250.669 0.426896 251.322 -0.00894779 252.045 0.000169659C252.769 -0.00986249 253.425 0.425805 253.697 1.09728L257.655 12.0961C257.926 13.1932 257.322 14.3598 255.864 15.2Z" fill="#E0E0E0"/>
<path d="M264.335 160.65C258.502 164.018 249.559 164.483 242.851 162.039C242.476 161.909 242.108 161.763 241.747 161.601L241.247 161.393C240.727 161.157 240.227 160.9 239.754 160.629C236.484 158.741 234.797 156.289 234.672 153.817V174.912C234.547 177.579 236.234 180.266 239.754 182.294C240.171 182.537 240.609 182.766 241.06 182.988C241.226 183.071 241.407 183.134 241.574 183.21C241.865 183.335 242.15 183.467 242.449 183.578C242.747 183.689 242.914 183.745 243.143 183.821C243.372 183.898 243.636 184.002 243.893 184.078C244.15 184.155 244.462 184.238 244.747 184.314C245.032 184.391 245.184 184.439 245.407 184.488C245.629 184.536 246.066 184.634 246.4 184.696C246.587 184.696 246.775 184.779 246.962 184.807C247.337 184.877 247.719 184.925 248.101 184.981L248.552 185.043C248.976 185.092 249.399 185.127 249.823 185.154H250.156C250.621 185.189 251.087 185.203 251.545 185.21H251.767C252.267 185.21 252.767 185.21 253.267 185.21H253.378C253.906 185.21 254.433 185.147 254.961 185.099C258.054 184.836 261.066 183.973 263.828 182.557C263.981 182.474 264.141 182.405 264.294 182.314C267.682 180.356 269.383 177.787 269.383 175.218V153.554C269.425 156.123 267.724 158.692 264.335 160.65Z" fill="#E0E0E0"/>
<path d="M54.7113 172.954C52.7046 172.447 41.9904 166.351 40.9002 165.608C39.8101 164.865 37.6575 163.33 37.6575 160.685C37.6575 158.345 37.9006 136.278 39.817 125.619C41.0896 118.918 45.0717 113.039 50.8228 109.371C57.4888 105.239 64.1895 102.246 69.8347 104.593C75.48 106.94 80.6322 111.252 82.8542 116.46C85.0762 121.668 86.5969 132.097 86.7566 136.132C86.9163 140.166 86.7566 153.998 86.7566 155.227C86.7566 156.456 86.5344 158.053 79.917 162.171C73.2996 166.288 64.1617 171.198 61.3356 172.468C59.2335 173.323 56.9156 173.493 54.7113 172.954Z" fill="#37474F"/>
<path d="M53.0587 112.238C52.4476 112.586 50.6839 111.718 50.4201 111.28C50.1562 110.843 50.0868 107.058 51.4061 104.968C52.7254 102.878 60.9537 99.0245 62.9882 99.3092C64.5283 99.56 65.8971 100.434 66.7725 101.726C67.0225 102.26 67.3003 105.781 66.7725 106.503C66.2448 107.225 64.3631 106.114 64.1964 105.809C64.0298 105.503 64.8144 102.927 63.502 102.392C62.2938 101.906 56.5583 104.343 54.2252 106.302C53.2115 107.156 53.2601 109.273 53.3087 110.322C53.3573 111.37 53.3642 112.058 53.0587 112.238Z" fill="#455A64"/>
<path d="M51.4061 137.083C52.5866 125.619 54.7113 118.925 65.9254 113.933C77.1396 108.94 81.4933 113.19 83.0834 117.016C85.1665 122.376 86.6038 132.236 86.7566 136.132C86.9163 140.166 86.7566 153.998 86.7566 155.227C86.7566 156.456 86.5344 158.053 79.917 162.171C73.2997 166.288 64.1617 171.198 61.3356 172.468C59.2358 173.33 56.9178 173.507 54.7113 172.975C54.2682 172.84 53.8363 172.671 53.4198 172.468C49.9271 167.983 50.3229 147.554 51.4061 137.083Z" fill="#455A64"/>
<path d="M77.5492 109.454C74.6189 107.739 69.8139 106.607 62.7591 109.753C50.1493 115.37 46.9482 122.404 45.6775 134.75C45.4484 137.014 45.1081 139.708 44.9831 142.603L43.9416 141.971C44.0874 138.847 44.3929 136.173 44.636 133.757C46.0247 121.321 49.7535 114.447 61.8008 109.079C68.4737 106.107 72.8552 106.496 75.7577 107.961C76.381 108.426 76.979 108.925 77.5492 109.454Z" fill="#263238"/>
<path d="M77.9867 109.773C75.0634 108.058 70.2514 106.927 63.2035 110.072C50.5868 115.689 47.3857 122.723 46.115 135.069C45.8859 137.333 45.5456 140.027 45.4206 142.923L44.3791 142.291C44.5249 139.166 44.8304 136.493 45.0735 134.076C46.4622 121.64 50.191 114.759 62.2383 109.398C68.9112 106.427 73.4108 106.92 76.3133 108.378C76.8968 108.811 77.4555 109.277 77.9867 109.773Z" fill="#455A64"/>
<path d="M73.9038 120.675L70.0917 118.495C69.7002 118.275 69.2048 118.411 68.9807 118.8L65.0714 125.598C64.8446 125.988 64.9749 126.487 65.363 126.716L69.1265 128.91C69.516 129.137 70.0154 129.007 70.2445 128.619L74.2024 121.779C74.312 121.594 74.3421 121.372 74.2859 121.164C74.2297 120.956 74.0919 120.78 73.9038 120.675Z" fill="#263238"/>
<path d="M69.8139 128.133L73.5705 121.654C73.6252 121.56 73.6398 121.449 73.611 121.344C73.5823 121.24 73.5126 121.151 73.4177 121.099L69.9459 119.127C69.7501 119.017 69.5024 119.085 69.3904 119.279L65.6755 125.73C65.5656 125.926 65.6337 126.174 65.8282 126.286L69.2376 128.278C69.3326 128.339 69.4481 128.357 69.5571 128.329C69.6661 128.302 69.7589 128.231 69.8139 128.133Z" fill="#455A64"/>
<path d="M70.6194 125.036C70.8223 124.913 70.9559 124.702 70.9804 124.466V121.362C70.9804 121.161 70.8207 121.099 70.6194 121.21C70.4165 121.332 70.2828 121.543 70.2583 121.779V124.883C70.2583 125.084 70.418 125.147 70.6194 125.036Z" fill="#37474F"/>
<path d="M68.6057 126.202C68.8081 126.076 68.9412 125.863 68.9668 125.626V122.529C68.9668 122.328 68.8001 122.258 68.6057 122.376C68.4012 122.497 68.267 122.709 68.2446 122.946V126.05C68.2655 126.244 68.4043 126.313 68.6057 126.202Z" fill="#37474F"/>
<path d="M56.6 146.776C56.6 146.776 58.4887 148.332 59.8497 154.192C61.2107 160.053 62.03 167.434 60.5441 168.323C59.0581 169.212 56.9125 167.351 56.3778 166.712C55.2807 165.4 55.5515 151.47 56.6 146.776Z" fill="#263238"/>
<path d="M56.6 146.777C56.6 146.777 58.4887 148.332 59.8496 154.192C61.2106 160.053 62.03 167.434 60.544 168.323L83.4583 154.81C84.9581 153.922 85.3261 146.165 83.9721 140.305C83.0764 136.451 81.4307 134.618 80.4169 133.813C79.9411 133.445 79.2896 133.404 78.7713 133.708L56.6 146.777Z" fill="#37474F"/>
<path d="M79.9448 134.708C81.0419 135.25 82.9028 136.743 83.743 140.708C84.032 141.809 83.6682 142.978 82.8056 143.721C82.0418 144.263 65.6407 153.588 63.4673 154.887C61.5925 156.005 60.6204 154.519 60.2107 153.588C59.5164 151.936 58.9192 150.651 58.4054 149.665C58.013 148.59 57.4005 147.608 56.6069 146.783L78.4588 134.771C78.9129 134.504 79.4699 134.481 79.9448 134.708Z" fill="#263238"/>
<path d="M45.6914 143.569C46.0088 144.762 46.2157 145.982 46.3094 147.214C46.3094 147.464 45.9692 147.596 45.872 147.596C45.0779 147.436 44.3429 147.061 43.7472 146.513C43.8585 145.463 44.0488 144.423 44.3166 143.402L45.6914 143.569Z" fill="#263238"/>
<path d="M46.3997 142.589C46.3997 141.857 45.8059 141.263 45.0734 141.263C44.341 141.263 43.7472 141.857 43.7472 142.589C43.7472 143.322 44.341 143.916 45.0734 143.916C45.4252 143.916 45.7625 143.776 46.0112 143.527C46.26 143.279 46.3997 142.941 46.3997 142.589Z" fill="#263238"/>
<path d="M62.9882 102.33C64.4395 102.191 65.8074 102.33 66.1546 103.781C66.5017 105.232 66.3768 106.558 66.1546 106.739C65.4193 106.646 64.7331 106.32 64.1964 105.809C64.0298 105.496 64.8144 102.927 63.5021 102.392C63.3411 102.339 63.1712 102.318 63.0021 102.33H62.9882Z" fill="#263238"/>
<path d="M78.9101 133.632C79.366 133.363 79.9263 133.339 80.403 133.57C81.5002 134.111 83.3611 135.604 84.2013 139.569C84.4886 140.67 84.1251 141.839 83.2639 142.582C82.5 143.124 66.1059 152.45 63.9325 153.748C62.0577 154.866 61.0787 153.38 60.669 152.45C58.3984 147.7 56.6 146.776 56.6 146.776L78.9101 133.632Z" fill="#37474F"/>
<path d="M74.98 214.415L56.593 203.805C55.6194 203.168 55.0061 202.106 54.9404 200.944V201.153C55.0039 199.99 55.6177 198.928 56.593 198.292L93.5683 176.947C94.6044 176.419 95.8306 176.419 96.8666 176.947L115.254 187.564C116.23 188.195 116.845 189.256 116.906 190.418V190.209C116.844 191.371 116.233 192.433 115.261 193.07L78.2852 214.415C77.2468 214.943 76.0184 214.943 74.98 214.415Z" fill="#E4A1EF"/>
<path opacity="0.7" d="M74.98 214.415L56.593 203.805C55.6194 203.168 55.0061 202.106 54.9404 200.944V201.153C55.0039 199.99 55.6177 198.928 56.593 198.292L93.5683 176.947C94.6044 176.419 95.8306 176.419 96.8666 176.947L115.254 187.564C116.23 188.195 116.845 189.256 116.906 190.418V190.209C116.844 191.371 116.233 192.433 115.261 193.07L78.2852 214.415C77.2468 214.943 76.0184 214.943 74.98 214.415Z" fill="black"/>
<path d="M76.5979 186.724L56.5653 198.292C55.5899 198.928 54.9761 199.99 54.9127 201.153V200.944C54.9783 202.106 55.5916 203.168 56.5653 203.805L74.9522 214.415C75.4604 214.686 76.0293 214.822 76.6048 214.811L76.5979 186.724Z" fill="#E4A1EF"/>
<path opacity="0.7" d="M76.5979 186.724L56.5653 198.292C55.5899 198.928 54.9761 199.99 54.9127 201.153V200.944C54.9783 202.106 55.5916 203.168 56.5653 203.805L74.9522 214.415C75.4604 214.686 76.0293 214.822 76.6048 214.811L76.5979 186.724Z" fill="black"/>
<path d="M56.586 200.201L74.9661 210.818C76.0064 211.339 77.231 211.339 78.2713 210.818L115.247 189.466C116.163 188.939 116.163 188.078 115.247 187.564L96.8596 176.947C95.8236 176.419 94.5974 176.419 93.5613 176.947L56.586 198.292C55.6695 198.82 55.6695 199.674 56.586 200.201Z" fill="#E4A1EF"/>
<path opacity="0.5" d="M56.586 200.201L74.9661 210.818C76.0064 211.339 77.231 211.339 78.2713 210.818L115.247 189.466C116.163 188.939 116.163 188.078 115.247 187.564L96.8596 176.947C95.8236 176.419 94.5974 176.419 93.5613 176.947L56.586 198.292C55.6695 198.82 55.6695 199.674 56.586 200.201Z" fill="black"/>
<path d="M56.5861 196.709V198.472L75.6674 209.492C76.2586 209.832 76.9857 209.832 77.5769 209.492L115.247 187.737V185.918L76.6187 204.666L56.5861 196.709Z" fill="#E4A1EF"/>
<path d="M74.973 207.326L56.5861 196.709C55.6091 196.075 54.9947 195.011 54.9335 193.848V190.452C54.9947 189.289 55.6091 188.226 56.5861 187.592L93.5614 166.24C94.5974 165.712 95.8236 165.712 96.8596 166.24L115.247 176.857C116.224 177.491 116.838 178.554 116.899 179.718V183.12C116.829 184.258 116.213 185.292 115.247 185.897L78.2713 207.305C77.2386 207.84 76.0124 207.847 74.973 207.326Z" fill="#E4A1EF"/>
<path opacity="0.6" d="M74.973 207.326L56.5861 196.709C55.6091 196.075 54.9947 195.011 54.9335 193.848V190.452C54.9947 189.289 55.6091 188.226 56.5861 187.592L93.5614 166.24C94.5974 165.712 95.8236 165.712 96.8596 166.24L115.247 176.857C116.224 177.491 116.838 178.554 116.899 179.718V183.12C116.829 184.258 116.213 185.292 115.247 185.897L78.2713 207.305C77.2386 207.84 76.0124 207.847 74.973 207.326Z" fill="black"/>
<path d="M76.5979 176.023L56.5653 187.592C55.5882 188.226 54.9739 189.289 54.9127 190.452V193.848C54.9739 195.011 55.5882 196.075 56.5653 196.709L74.9522 207.326C75.4576 207.597 76.0244 207.733 76.5979 207.722V176.023Z" fill="#E4A1EF"/>
<path opacity="0.7" d="M76.5979 176.023L56.5653 187.592C55.5882 188.226 54.9739 189.289 54.9127 190.452V193.848C54.9739 195.011 55.5882 196.075 56.5653 196.709L74.9522 207.326C75.4576 207.597 76.0244 207.733 76.5979 207.722V176.023Z" fill="black"/>
<path d="M56.586 189.494L74.9661 200.111C76.0045 200.639 77.2328 200.639 78.2713 200.111L115.247 178.766C116.163 178.238 116.163 177.377 115.247 176.857L96.8596 166.24C95.8236 165.712 94.5974 165.712 93.5613 166.24L56.586 187.592C55.6695 188.119 55.6695 188.973 56.586 189.494Z" fill="#E4A1EF"/>
<path opacity="0.5" d="M56.586 189.494L74.9661 200.111C76.0045 200.639 77.2328 200.639 78.2713 200.111L115.247 178.766C116.163 178.238 116.163 177.377 115.247 176.857L96.8596 166.24C95.8236 165.712 94.5974 165.712 93.5613 166.24L56.586 187.592C55.6695 188.119 55.6695 188.973 56.586 189.494Z" fill="black"/>
<path d="M82.2293 181.058C80.1947 182.238 80.1947 184.134 82.2293 185.3C84.549 186.467 87.2838 186.467 89.6035 185.3C91.638 184.134 91.638 182.238 89.6035 181.058C87.2854 179.885 84.5474 179.885 82.2293 181.058Z" fill="#E4A1EF"/>
<path d="M112.254 182.301C111.871 182.551 111.631 182.969 111.608 183.425C111.608 183.842 111.9 184.016 112.254 183.814C112.637 183.564 112.877 183.146 112.9 182.689C112.9 182.273 112.608 182.099 112.254 182.301Z" fill="#E4A1EF"/>
<path d="M112.254 184.793C111.871 185.044 111.631 185.462 111.608 185.918C111.608 186.335 111.9 186.508 112.254 186.307C112.642 186.062 112.883 185.641 112.9 185.182C112.9 184.766 112.608 184.592 112.254 184.793Z" fill="#E4A1EF"/>
<path d="M67.2725 228.449C67.1875 228.448 67.1039 228.427 67.0294 228.386L49.2119 218.033C48.273 217.489 47.695 216.486 47.695 215.401C47.695 214.316 48.273 213.313 49.2119 212.77L62.273 205.229C62.5031 205.112 62.7844 205.195 62.9137 205.419C63.0429 205.642 62.975 205.928 62.759 206.069L49.7049 213.589C49.0724 213.964 48.6847 214.645 48.6847 215.38C48.6847 216.116 49.0724 216.797 49.7049 217.172L67.5224 227.511C67.6436 227.575 67.7318 227.687 67.765 227.819C67.7982 227.952 67.7731 228.093 67.696 228.205C67.6109 228.359 67.4478 228.452 67.2725 228.449Z" fill="#E4A1EF"/>
<path d="M89.5896 218.45L85.7289 202.951C85.6738 202.737 85.6018 202.529 85.5137 202.326L86.6385 202.167L84.1874 200.778C83.1394 200.208 81.8624 200.264 80.8683 200.924L64.7936 210.228C62.5552 211.694 61.1497 214.139 61.0093 216.811V235.448C61.0093 236.934 61.3704 237.954 62.1133 238.309L64.4186 239.642L63.8631 238.17L63.9881 238.121C66.6337 236.857 67.5919 234.552 68.3835 232.268L71.4457 223.414C72.2373 221.13 74.2232 218.512 75.848 217.561C77.4728 216.609 79.792 217.561 80.9864 219.644L82.5279 222.338C82.9984 223.193 83.7078 223.893 84.5693 224.352L86.9163 225.74L86.3191 224.81C86.8072 224.811 87.2867 224.682 87.7079 224.435C89.3119 223.477 90.1729 220.81 89.5896 218.45Z" fill="#E4A1EF"/>
<path opacity="0.7" d="M89.5896 218.45L85.7289 202.951C85.6738 202.737 85.6018 202.529 85.5137 202.326L86.6385 202.167L84.1874 200.778C83.1394 200.208 81.8624 200.264 80.8683 200.924L64.7936 210.228C62.5552 211.694 61.1497 214.139 61.0093 216.811V235.448C61.0093 236.934 61.3704 237.954 62.1133 238.309L64.4186 239.642L63.8631 238.17L63.9881 238.121C66.6337 236.857 67.5919 234.552 68.3835 232.268L71.4457 223.414C72.2373 221.13 74.2232 218.512 75.848 217.561C77.4728 216.609 79.792 217.561 80.9864 219.644L82.5279 222.338C82.9984 223.193 83.7078 223.893 84.5693 224.352L86.9163 225.74L86.3191 224.81C86.8072 224.811 87.2867 224.682 87.7079 224.435C89.3119 223.477 90.1729 220.81 89.5896 218.45Z" fill="black"/>
<path d="M85.5136 202.326L86.6385 202.167L84.1874 200.778C83.1393 200.208 81.8624 200.264 80.8683 200.924L64.7936 210.228C63.8957 210.788 63.1285 211.534 62.5438 212.415L66.3698 214.749L85.9372 203.694L85.7497 202.951C85.6879 202.737 85.6089 202.528 85.5136 202.326Z" fill="#E4A1EF"/>
<path opacity="0.5" d="M85.5136 202.326L86.6385 202.167L84.1874 200.778C83.1393 200.208 81.8624 200.264 80.8683 200.924L64.7936 210.228C63.8957 210.788 63.1285 211.534 62.5438 212.415L66.3698 214.749L85.9372 203.694L85.7497 202.951C85.6879 202.737 85.6089 202.528 85.5136 202.326Z" fill="black"/>
<path d="M90.159 225.879C88.5133 226.831 86.2011 225.879 84.9998 223.796L83.4653 221.102C82.264 219.019 79.9934 218.068 78.32 219.019C76.6465 219.97 74.7092 222.581 73.9176 224.873L70.8624 233.719C70.0708 236.003 69.1056 238.309 66.4601 239.572C64.4603 240.531 63.4951 239.322 63.4951 236.906V218.255C63.6403 215.585 65.0481 213.143 67.2864 211.679L83.3889 202.34C84.2707 201.722 85.4094 201.605 86.399 202.029C87.3887 202.453 88.0886 203.359 88.2495 204.423L92.1102 219.929C92.6796 222.248 91.8116 224.928 90.159 225.879Z" fill="#E4A1EF"/>
<path opacity="0.6" d="M90.159 225.879C88.5133 226.831 86.2011 225.879 84.9998 223.796L83.4653 221.102C82.264 219.019 79.9934 218.068 78.32 219.019C76.6465 219.97 74.7092 222.581 73.9176 224.873L70.8624 233.719C70.0708 236.003 69.1056 238.309 66.4601 239.572C64.4603 240.531 63.4951 239.322 63.4951 236.906V218.255C63.6403 215.585 65.0481 213.143 67.2864 211.679L83.3889 202.34C84.2707 201.722 85.4094 201.605 86.399 202.029C87.3887 202.453 88.0886 203.359 88.2495 204.423L92.1102 219.929C92.6796 222.248 91.8116 224.928 90.159 225.879Z" fill="black"/>
<path d="M83.9165 207.708L84.3193 209.992L86.1038 208.853L86.4996 211.138L84.722 212.284L85.1248 214.568L83.3472 215.707L82.9444 213.422L81.1668 214.568L80.7641 212.277L82.5417 211.138L82.139 208.853L83.9165 207.708Z" fill="#263238"/>
<path d="M84.4304 207.978L84.8331 210.263L86.6107 209.124L87.0135 211.409L85.2359 212.554L85.6386 214.839L83.861 215.978L83.4583 213.693L81.6807 214.832L81.278 212.547L83.0555 211.409L82.6528 209.124L84.4304 207.978Z" fill="#E4A1EF"/>
<path d="M70.4458 215.797C70.5425 216.452 70.2768 217.109 69.7514 217.512C69.2584 217.825 68.7723 217.568 68.6612 216.936C68.5599 216.28 68.8265 215.621 69.3556 215.221C69.8417 214.908 70.3486 215.165 70.4458 215.797Z" fill="#263238"/>
<path d="M71.2512 220.366C71.3526 221.022 71.0859 221.681 70.5568 222.081C70.0638 222.394 69.5778 222.137 69.4667 221.512C69.3637 220.856 69.6307 220.196 70.161 219.797C70.6471 219.477 71.1401 219.734 71.2512 220.366Z" fill="#263238"/>
<path d="M72.6261 216.936C72.729 217.592 72.4621 218.251 71.9317 218.651C71.4387 218.97 70.9526 218.713 70.8415 218.082C70.7386 217.425 71.0056 216.766 71.5359 216.366C72.0289 216.054 72.515 216.304 72.6261 216.936Z" fill="#263238"/>
<path d="M69.0709 219.22C69.1739 219.876 68.9069 220.536 68.3765 220.935C67.8835 221.255 67.3975 220.998 67.2864 220.366C67.185 219.71 67.4516 219.052 67.9807 218.651C68.4737 218.338 68.9598 218.588 69.0709 219.22Z" fill="#263238"/>
<path d="M70.4805 215.818C70.5818 216.474 70.3152 217.132 69.7861 217.533C69.2931 217.845 68.807 217.595 68.6959 216.964C68.593 216.308 68.8599 215.648 69.3903 215.249C69.8833 214.929 70.3485 215.186 70.4805 215.818Z" fill="#263238"/>
<path d="M71.2859 220.387C71.3889 221.043 71.1219 221.702 70.5916 222.102C70.0986 222.421 69.6125 222.164 69.5014 221.533C69.3984 220.877 69.6654 220.217 70.1958 219.817C70.6888 219.505 71.1748 219.755 71.2859 220.387Z" fill="#263238"/>
<path d="M72.6608 216.964C72.7611 217.617 72.4944 218.273 71.9664 218.672C71.4804 218.991 70.9874 218.734 70.8763 218.102C70.778 217.447 71.044 216.79 71.5707 216.387C72.0637 216.075 72.5497 216.332 72.6608 216.964Z" fill="#263238"/>
<path d="M69.1056 219.248C69.207 219.904 68.9403 220.563 68.4112 220.963C67.9252 221.276 67.4322 221.019 67.3211 220.387C67.2243 219.732 67.4901 219.075 68.0154 218.672C68.5084 218.359 68.9945 218.616 69.1056 219.248Z" fill="#263238"/>
<path d="M70.5152 215.839C70.6181 216.495 70.3512 217.154 69.8208 217.554C69.3348 217.873 68.8418 217.616 68.7307 216.984C68.6324 216.329 68.8984 215.672 69.425 215.269C69.918 214.957 70.4041 215.207 70.5152 215.839Z" fill="#263238"/>
<path d="M71.3207 220.415C71.4209 221.068 71.1542 221.724 70.6263 222.123C70.1402 222.442 69.6472 222.185 69.5361 221.553C69.4379 220.898 69.7039 220.241 70.2305 219.838C70.7235 219.526 71.2096 219.783 71.3207 220.415Z" fill="#263238"/>
<path d="M72.7024 216.984C72.8007 217.64 72.5347 218.297 72.0081 218.7C71.5151 219.012 71.029 218.755 70.9179 218.13C70.815 217.474 71.0819 216.815 71.6123 216.415C72.0983 216.096 72.5913 216.353 72.7024 216.984Z" fill="#263238"/>
<path d="M69.1473 219.269C69.2455 219.924 68.9795 220.581 68.4529 220.984C67.9599 221.296 67.4738 221.047 67.3627 220.415C67.2598 219.759 67.5267 219.099 68.0571 218.7C68.5432 218.38 69.0362 218.637 69.1473 219.269Z" fill="#263238"/>
<path d="M70.5569 215.866C70.6551 216.522 70.3891 217.179 69.8625 217.582C69.3695 217.894 68.8834 217.637 68.7723 217.005C68.6721 216.352 68.9388 215.695 69.4667 215.297C69.9528 214.978 70.4458 215.255 70.5569 215.866Z" fill="#263238"/>
<path d="M71.3624 220.435C71.4606 221.091 71.1946 221.748 70.668 222.151C70.175 222.463 69.6889 222.213 69.5778 221.581C69.4749 220.925 69.7418 220.266 70.2722 219.866C70.7582 219.547 71.2513 219.804 71.3624 220.435Z" fill="#263238"/>
<path d="M72.7372 217.005C72.8401 217.661 72.5731 218.321 72.0428 218.72C71.5498 219.04 71.0637 218.783 70.9526 218.151C70.8513 217.495 71.1179 216.837 71.647 216.436C72.14 216.123 72.6261 216.373 72.7372 217.005Z" fill="#263238"/>
<path d="M69.182 219.29C69.2849 219.946 69.018 220.605 68.4876 221.005C67.9946 221.324 67.5085 221.067 67.3974 220.435C67.2961 219.78 67.5627 219.121 68.0918 218.72C68.5848 218.408 69.0709 218.658 69.182 219.29Z" fill="#263238"/>
<path d="M70.5915 215.887C70.6929 216.543 70.4263 217.202 69.8972 217.602C69.4042 217.915 68.9181 217.665 68.807 217.033C68.7041 216.377 68.971 215.718 69.5014 215.318C69.9944 214.999 70.4804 215.255 70.5915 215.887Z" fill="#263238"/>
<path d="M71.3971 220.456C71.5 221.112 71.2331 221.772 70.7027 222.171C70.2097 222.491 69.7236 222.234 69.6125 221.602C69.5112 220.946 69.7778 220.288 70.3069 219.887C70.7999 219.574 71.286 219.824 71.3971 220.456Z" fill="#263238"/>
<path d="M72.7719 217.033C72.8717 217.689 72.6054 218.347 72.0775 218.748C71.5845 219.061 71.0985 218.804 70.9874 218.172C70.886 217.516 71.1526 216.857 71.6817 216.457C72.1747 216.144 72.6608 216.401 72.7719 217.033Z" fill="#263238"/>
<path d="M69.2167 219.318C69.3181 219.973 69.0514 220.632 68.5223 221.033C68.0363 221.345 67.5433 221.088 67.4322 220.456C67.335 219.803 67.6011 219.148 68.1265 218.748C68.6195 218.429 69.1056 218.686 69.2167 219.318Z" fill="#263238"/>
<path d="M70.6263 215.908C70.7292 216.564 70.4623 217.224 69.9319 217.623C69.4458 217.943 68.9528 217.686 68.8417 217.054C68.7435 216.398 69.0095 215.741 69.5361 215.339C70.0291 215.026 70.5152 215.255 70.6263 215.908Z" fill="#263238"/>
<path d="M71.4318 220.484C71.5316 221.14 71.2652 221.798 70.7374 222.199C70.2513 222.512 69.7583 222.255 69.6472 221.623C69.549 220.967 69.815 220.31 70.3416 219.908C70.8346 219.595 71.3207 219.852 71.4318 220.484Z" fill="#263238"/>
<path d="M72.8066 217.054C72.908 217.71 72.6413 218.368 72.1122 218.769C71.6262 219.081 71.1332 218.831 71.0221 218.2C70.9223 217.544 71.1886 216.886 71.7165 216.484C72.2095 216.165 72.6955 216.422 72.8066 217.054Z" fill="#263238"/>
<path d="M69.2583 219.338C69.3566 219.994 69.0906 220.651 68.564 221.053C68.071 221.366 67.5849 221.116 67.4738 220.484C67.3709 219.828 67.6378 219.169 68.1682 218.769C68.6542 218.45 69.1472 218.727 69.2583 219.338Z" fill="#263238"/>
<path d="M70.668 215.95C70.7662 216.605 70.5002 217.262 69.9736 217.665C69.4806 217.977 68.9945 217.72 68.8834 217.096C68.7805 216.439 69.0474 215.78 69.5778 215.38C70.0639 215.047 70.5569 215.304 70.668 215.95Z" fill="#263238"/>
<path d="M71.4734 220.505C71.5717 221.16 71.3057 221.817 70.7791 222.22C70.2861 222.532 69.8 222.283 69.6889 221.651C69.5859 220.995 69.8529 220.335 70.3833 219.936C70.8693 219.616 71.3623 219.873 71.4734 220.505Z" fill="#263238"/>
<path d="M72.8483 217.075C72.9481 217.73 72.6818 218.388 72.1539 218.79C71.6609 219.109 71.1749 218.852 71.0638 218.22C70.9624 217.565 71.229 216.906 71.7581 216.505C72.2442 216.193 72.7372 216.443 72.8483 217.075Z" fill="#263238"/>
<path d="M69.2931 219.359C69.396 220.015 69.1291 220.675 68.5987 221.074C68.1057 221.394 67.6196 221.137 67.5085 220.505C67.4072 219.849 67.6738 219.19 68.2029 218.79C68.6959 218.477 69.182 218.727 69.2931 219.359Z" fill="#263238"/>
<path d="M70.7027 215.95C70.8056 216.606 70.5387 217.265 70.0083 217.665C69.5153 217.984 69.0292 217.727 68.9181 217.096C68.8152 216.439 69.0822 215.78 69.6125 215.38C70.1055 215.068 70.5916 215.325 70.7027 215.95Z" fill="#263238"/>
<path d="M71.5082 220.526C71.6111 221.182 71.3441 221.841 70.8138 222.241C70.3208 222.56 69.8347 222.303 69.7236 221.671C69.6222 221.016 69.8889 220.357 70.418 219.956C70.911 219.644 71.3971 219.894 71.5082 220.526Z" fill="#263238"/>
<path d="M72.883 217.102C72.9844 217.758 72.7177 218.417 72.1886 218.818C71.6956 219.13 71.2096 218.873 71.0985 218.241C70.9982 217.588 71.2649 216.931 71.7928 216.533C72.2858 216.214 72.7719 216.471 72.883 217.102Z" fill="#263238"/>
<path d="M69.3278 219.422C69.4292 220.078 69.1625 220.736 68.6334 221.137C68.1474 221.449 67.6544 221.192 67.5433 220.567C67.4403 219.911 67.7073 219.252 68.2376 218.852C68.7306 218.498 69.2167 218.727 69.3278 219.422Z" fill="#263238"/>
<path d="M70.7374 215.985C70.8377 216.638 70.571 217.294 70.043 217.693C69.55 218.012 69.064 217.755 68.9529 217.123C68.8515 216.467 69.1181 215.809 69.6472 215.408C70.1402 215.096 70.6263 215.353 70.7374 215.985Z" fill="#263238"/>
<path d="M71.5428 220.554C71.6442 221.209 71.3776 221.868 70.8485 222.269C70.3624 222.581 69.8694 222.324 69.7583 221.692C69.6581 221.039 69.9247 220.383 70.4527 219.984C70.9457 219.665 71.4317 219.922 71.5428 220.554Z" fill="#263238"/>
<path d="M72.9177 217.123C73.0191 217.779 72.7524 218.438 72.2233 218.838C71.7373 219.151 71.2443 218.901 71.1332 218.269C71.0334 217.613 71.2997 216.956 71.8275 216.554C72.3205 216.235 72.8066 216.491 72.9177 217.123Z" fill="#263238"/>
<path d="M69.3625 219.422C69.4655 220.078 69.1985 220.737 68.6682 221.137C68.1821 221.456 67.696 221.199 67.578 220.567C67.4782 219.912 67.7445 219.254 68.2724 218.852C68.7654 218.519 69.2514 218.776 69.3625 219.422Z" fill="#263238"/>
<path d="M70.7721 216.005C70.8735 216.661 70.6069 217.32 70.0778 217.72C69.5917 218.033 69.0987 217.776 68.9876 217.151C68.8878 216.495 69.1541 215.838 69.682 215.436C70.175 215.117 70.661 215.374 70.7721 216.005Z" fill="#263238"/>
<path d="M71.5776 220.574C71.6789 221.23 71.4123 221.889 70.8832 222.289C70.3971 222.602 69.9111 222.352 69.8 221.72C69.697 221.064 69.964 220.405 70.4944 220.005C70.9804 219.686 71.4665 219.942 71.5776 220.574Z" fill="#263238"/>
<path d="M72.9594 217.144C73.0592 217.8 72.7929 218.458 72.265 218.859C71.772 219.179 71.286 218.922 71.1749 218.29C71.0735 217.634 71.3401 216.975 71.8692 216.575C72.3553 216.262 72.8483 216.519 72.9594 217.144Z" fill="#263238"/>
<path d="M69.4042 219.422C69.5014 220.075 69.2353 220.73 68.7098 221.13C68.2168 221.449 67.7308 221.192 67.6197 220.56C67.5183 219.905 67.7849 219.246 68.314 218.845C68.8001 218.547 69.2931 218.804 69.4042 219.422Z" fill="#263238"/>
<path d="M70.8138 216.026C70.9136 216.682 70.6472 217.34 70.1194 217.741C69.6264 218.061 69.1403 217.804 69.0292 217.172C68.9278 216.516 69.1945 215.857 69.7236 215.457C70.2097 215.144 70.7027 215.394 70.8138 216.026Z" fill="#263238"/>
<path d="M71.6192 220.595C71.7191 221.251 71.4527 221.909 70.9249 222.31C70.4319 222.63 69.9458 222.373 69.8347 221.741C69.7333 221.085 70 220.426 70.5291 220.026C71.0429 219.713 71.5081 219.97 71.6192 220.595Z" fill="#263238"/>
<path d="M72.9941 217.172C73.0954 217.828 72.8288 218.486 72.2997 218.887C71.8067 219.199 71.3206 218.943 71.2095 218.318C71.1066 217.662 71.3735 217.002 71.9039 216.603C72.4316 216.283 72.883 216.54 72.9941 217.172Z" fill="#263238"/>
<path d="M69.4389 219.456C69.5403 220.112 69.2736 220.771 68.7445 221.171C68.2515 221.484 67.7655 221.227 67.6544 220.602C67.5514 219.946 67.8184 219.287 68.3487 218.887C68.8417 218.568 69.3278 218.825 69.4389 219.456Z" fill="#263238"/>
<path d="M70.8485 216.054C70.9483 216.71 70.682 217.368 70.1541 217.769C69.6611 218.082 69.1751 217.825 69.064 217.193C68.9626 216.537 69.2292 215.878 69.7583 215.478C70.2513 215.165 70.7374 215.422 70.8485 216.054Z" fill="#263238"/>
<path d="M71.654 220.623C71.7554 221.279 71.4887 221.937 70.9596 222.338C70.4666 222.651 69.9805 222.394 69.8694 221.769C69.7665 221.113 70.0335 220.453 70.5638 220.054C71.0429 219.734 71.5429 219.991 71.654 220.623Z" fill="#263238"/>
<path d="M73.0288 217.193C73.1318 217.849 72.8648 218.508 72.3345 218.908C71.8484 219.227 71.3554 218.97 71.2443 218.338C71.1445 217.683 71.4108 217.025 71.9387 216.623C72.4317 216.304 72.9177 216.561 73.0288 217.193Z" fill="#263238"/>
<path d="M69.4736 219.477C69.5766 220.133 69.3096 220.793 68.7793 221.192C68.2932 221.512 67.8002 221.255 67.6891 220.623C67.5908 219.967 67.8568 219.31 68.3835 218.908C68.8765 218.595 69.3625 218.845 69.4736 219.477Z" fill="#263238"/>
<path d="M83.9166 207.708L84.4304 207.978L82.6528 209.124L82.139 208.853L83.9166 207.708Z" fill="#263238"/>
<path d="M82.5417 211.138L83.0555 211.409L81.2779 212.547L80.7641 212.277L82.5417 211.138Z" fill="#263238"/>
<path d="M84.8331 210.263L84.7359 209.728L86.1038 208.853L86.6107 209.124L84.8331 210.263Z" fill="#263238"/>
<path d="M80.7641 212.277L81.2779 212.547L81.6807 214.832L81.1668 214.568L80.7641 212.277Z" fill="#263238"/>
<path d="M83.3472 215.707L83.861 215.978L83.4583 213.693L83.0417 213.964L83.3472 215.707Z" fill="#263238"/>
<path d="M70.8485 216.054C70.9483 216.71 70.682 217.368 70.1541 217.769C69.6611 218.082 69.1751 217.825 69.064 217.193C68.9626 216.537 69.2292 215.878 69.7583 215.478C70.2513 215.165 70.7374 215.422 70.8485 216.054Z" fill="#E4A1EF"/>
<path d="M71.654 220.623C71.7554 221.279 71.4887 221.937 70.9596 222.338C70.4666 222.651 69.9805 222.394 69.8694 221.769C69.7665 221.113 70.0335 220.453 70.5638 220.054C71.0429 219.734 71.5429 219.991 71.654 220.623Z" fill="#E4A1EF"/>
<path d="M73.0288 217.193C73.1318 217.849 72.8648 218.508 72.3345 218.908C71.8484 219.227 71.3554 218.97 71.2443 218.338C71.1445 217.683 71.4108 217.025 71.9387 216.623C72.4317 216.304 72.9177 216.561 73.0288 217.193Z" fill="#E4A1EF"/>
<path d="M69.4736 219.477C69.5766 220.133 69.3096 220.793 68.7793 221.192C68.2932 221.512 67.8002 221.255 67.6891 220.623C67.5908 219.967 67.8568 219.31 68.3835 218.908C68.8765 218.595 69.3625 218.845 69.4736 219.477Z" fill="#E4A1EF"/>
<path d="M87.93 22.0048L80.4655 26.3099C80.5069 25.9829 80.5277 25.6536 80.528 25.3239V23.1644C80.528 19.3176 77.8269 17.7553 74.5009 19.6926C73.0629 20.5735 71.8353 21.7585 70.904 23.1644C70.3555 18.3038 66.5642 16.5262 61.9536 19.1857C56.968 22.0673 52.9267 29.0666 52.9267 34.816V38.0517C52.895 39.3433 53.1561 40.6252 53.6906 41.8014L47.4898 45.3774C45.5148 46.6671 44.272 48.8201 44.1429 51.1754C44.1429 53.3071 45.6428 54.1751 47.4898 53.1057L87.93 29.7609C89.905 28.4712 91.1478 26.3182 91.2769 23.9629C91.2769 21.8034 89.791 20.9355 87.93 22.0048Z" fill="#F0F0F0"/>
<path d="M243.018 216.026L241.629 215.242L242.615 214.797C242.615 214.797 243.386 215.006 243.407 215.04C243.401 215.22 243.382 215.398 243.351 215.575L243.018 216.026Z" fill="#E0E0E0"/>
<path d="M243.018 216.026L241.629 215.242L242.615 214.797C242.615 214.797 243.386 215.006 243.407 215.04C243.401 215.22 243.382 215.398 243.351 215.575L243.018 216.026Z" fill="#E4A1EF"/>
<path opacity="0.1" d="M243.018 216.026L241.629 215.242L242.615 214.797C242.615 214.797 243.386 215.006 243.407 215.04C243.401 215.22 243.382 215.398 243.351 215.575L243.018 216.026Z" fill="white"/>
<path d="M191.343 242.058C192.591 242.691 194.066 242.691 195.315 242.058L239.852 216.366L173.192 177.871L171.637 176.975L127.1 202.667C126.009 203.298 126.009 204.333 127.1 204.958L191.343 242.058Z" fill="#E4A1EF"/>
<path opacity="0.8" d="M191.343 242.058C192.591 242.691 194.066 242.691 195.315 242.058L239.852 216.366L173.192 177.871L171.637 176.975L127.1 202.667C126.009 203.298 126.009 204.333 127.1 204.958L191.343 242.058Z" fill="white"/>
<path d="M208.07 193.48L223.603 202.417L233.658 196.612L245.33 203.375V211.784C245.33 212.804 244.185 214.256 243.768 214.02C242.997 214.206 242.248 214.471 241.532 214.811C240.364 215.475 239.28 216.277 238.303 217.2L202.613 196.598L208.07 193.48Z" fill="#E0E0E0"/>
<path d="M208.07 193.48L223.603 202.417L233.658 196.612L245.33 203.375V211.784C245.33 212.804 244.185 214.256 243.768 214.02C242.997 214.206 242.248 214.471 241.532 214.811C240.364 215.475 239.28 216.277 238.303 217.2L202.613 196.598L208.07 193.48Z" fill="#E4A1EF"/>
<path opacity="0.1" d="M208.07 193.48L223.603 202.417L233.658 196.612L245.33 203.375V211.784C245.33 212.804 244.185 214.256 243.768 214.02C242.997 214.206 242.248 214.471 241.532 214.811C240.364 215.475 239.28 216.277 238.303 217.2L202.613 196.598L208.07 193.48Z" fill="white"/>
<path d="M195.336 242.051L198.023 240.496L238.345 217.221C238.375 216.694 238.567 216.19 238.893 215.776C239.37 215.143 239.97 214.614 240.657 214.221C241.232 213.869 241.886 213.666 242.56 213.631C243.01 213.625 243.45 213.769 243.81 214.04C244.335 213.01 244.59 211.863 244.553 210.707H246.08C246.08 212.79 245.386 214.929 244.532 215.415L243.761 215.867C243.324 216.116 242.976 216.13 242.976 215.867V215.457C242.976 214.999 242.282 215.019 241.421 215.519C240.56 216.019 239.873 216.783 239.873 217.241V217.658C239.873 217.894 239.275 218.422 238.553 218.838L199.557 241.357L195.336 243.787C194.724 244.103 194.045 244.263 193.357 244.252V242.489C194.043 242.517 194.725 242.366 195.336 242.051Z" fill="#E4A1EF"/>
<path opacity="0.6" d="M195.336 242.051L198.023 240.496L238.345 217.221C238.375 216.694 238.567 216.19 238.893 215.776C239.37 215.143 239.97 214.614 240.657 214.221C241.232 213.869 241.886 213.666 242.56 213.631C243.01 213.625 243.45 213.769 243.81 214.04C244.335 213.01 244.59 211.863 244.553 210.707H246.08C246.08 212.79 245.386 214.929 244.532 215.415L243.761 215.867C243.324 216.116 242.976 216.13 242.976 215.867V215.457C242.976 214.999 242.282 215.019 241.421 215.519C240.56 216.019 239.873 216.783 239.873 217.241V217.658C239.873 217.894 239.275 218.422 238.553 218.838L199.557 241.357L195.336 243.787C194.724 244.103 194.045 244.263 193.357 244.252V242.489C194.043 242.517 194.725 242.366 195.336 242.051Z" fill="white"/>
<path d="M126.266 203.778V205.576C126.313 206.064 126.614 206.492 127.058 206.701L187.1 241.364L191.315 243.794C191.926 244.11 192.606 244.27 193.294 244.259V242.496C192.602 242.512 191.917 242.347 191.308 242.017L188.628 240.468L127.058 204.909C126.612 204.699 126.311 204.269 126.266 203.778H126.266Z" fill="#E4A1EF"/>
<path opacity="0.1" d="M126.266 203.778V205.576C126.313 206.064 126.614 206.492 127.058 206.701L187.1 241.364L191.315 243.794C191.926 244.11 192.606 244.27 193.294 244.259V242.496C192.602 242.512 191.917 242.347 191.308 242.017L188.628 240.468L127.058 204.909C126.612 204.699 126.311 204.269 126.266 203.778H126.266Z" fill="white"/>
<path d="M193.329 230.643V240.947C193.788 240.961 194.244 240.853 194.648 240.635L199.509 237.816L236.72 216.332V205.583L193.329 230.643Z" fill="white"/>
<path d="M128.204 194.327V202.25C128.253 203.18 128.743 204.031 129.523 204.541L187.156 237.802L192.016 240.621C192.421 240.838 192.876 240.946 193.336 240.933V231.733L128.204 194.327Z" fill="#F0F0F0"/>
<path d="M236.748 216.318C236.785 215.791 236.981 215.287 237.31 214.874C237.789 214.245 238.388 213.718 239.074 213.325C239.645 212.968 240.297 212.762 240.97 212.728C241.422 212.724 241.863 212.868 242.226 213.138V202.41L236.762 205.569L236.748 216.318Z" fill="#455A64"/>
<path d="M238.935 213.415C238.302 213.789 237.75 214.285 237.31 214.874C236.981 215.287 236.785 215.791 236.748 216.318V206.069H238.928L238.935 213.415Z" fill="#F5F5F5"/>
<path d="M173.178 165.261L239.838 203.757V204.652C239.838 205.145 240.532 205.347 241.386 204.833C242.24 204.319 242.942 203.722 242.942 202.868L243.025 202.021L175.095 162.803L174.824 162.643C174.753 162.768 174.712 162.909 174.706 163.053V163.469C174.72 163.983 174.032 164.782 173.178 165.261Z" fill="#E4A1EF"/>
<path opacity="0.6" d="M173.178 165.261L239.838 203.757V204.652C239.838 205.145 240.532 205.347 241.386 204.833C242.24 204.319 242.942 203.722 242.942 202.868L243.025 202.021L175.095 162.803L174.824 162.643C174.753 162.768 174.712 162.909 174.706 163.053V163.469C174.72 163.983 174.032 164.782 173.178 165.261Z" fill="white"/>
<path d="M195.336 229.497L238.887 204.347C239.435 204.062 239.942 203.826 240.157 203.937L239.873 203.778L173.213 165.282L172.435 164.83C171.728 164.629 170.969 164.743 170.352 165.143L127.141 190.098C126.051 190.73 126.051 191.758 127.141 192.39L191.398 229.497C192.637 230.118 194.097 230.118 195.336 229.497Z" fill="#E4A1EF"/>
<path opacity="0.8" d="M195.336 229.497L238.887 204.347C239.435 204.062 239.942 203.826 240.157 203.937L239.873 203.778L173.213 165.282L172.435 164.83C171.728 164.629 170.969 164.743 170.352 165.143L127.141 190.098C126.051 190.73 126.051 191.758 127.141 192.39L191.398 229.497C192.637 230.118 194.097 230.118 195.336 229.497Z" fill="white"/>
<path d="M174.838 162.664L175.108 162.823L243.039 202.062C243.073 201.99 243.123 201.926 243.185 201.875L243.414 201.743L243.907 201.465L244.511 201.111C244.752 200.951 245.073 200.98 245.282 201.181C245.31 201.2 245.336 201.223 245.358 201.25C245.44 201.334 245.508 201.43 245.559 201.535C245.633 201.655 245.694 201.783 245.74 201.917C245.793 202.059 245.837 202.206 245.872 202.354C245.914 202.528 245.941 202.694 245.976 202.875C245.995 202.978 246.006 203.082 246.011 203.187C246.011 203.271 246.011 203.347 246.011 203.444C246.011 203.541 246.011 203.833 246.011 204.034V202.125C245.865 200.853 245.13 199.724 244.025 199.077L179.761 161.969C178.688 161.336 177.38 161.241 176.226 161.712L175.414 162.185L175.067 162.379C174.966 162.452 174.887 162.55 174.838 162.664H174.838Z" fill="#E4A1EF"/>
<path opacity="0.8" d="M174.838 162.664L175.108 162.823L243.039 202.062C243.073 201.99 243.123 201.926 243.185 201.875L243.414 201.743L243.907 201.465L244.511 201.111C244.752 200.951 245.073 200.98 245.282 201.181C245.31 201.2 245.336 201.223 245.358 201.25C245.44 201.334 245.508 201.43 245.559 201.535C245.633 201.655 245.694 201.783 245.74 201.917C245.793 202.059 245.837 202.206 245.872 202.354C245.914 202.528 245.941 202.694 245.976 202.875C245.995 202.978 246.006 203.082 246.011 203.187C246.011 203.271 246.011 203.347 246.011 203.444C246.011 203.541 246.011 203.833 246.011 204.034V202.125C245.865 200.853 245.13 199.724 244.025 199.077L179.761 161.969C178.688 161.336 177.38 161.241 176.226 161.712L175.414 162.185L175.067 162.379C174.966 162.452 174.887 162.55 174.838 162.664H174.838Z" fill="white"/>
<path d="M195.336 229.504L198.03 227.942L229.006 210.069L238.893 204.361C239.588 203.944 240.171 203.798 240.206 204.014V204.458C240.206 204.958 240.9 204.958 241.754 204.458C242.398 204.178 242.857 203.594 242.976 202.903V202.417C242.956 202.197 243.041 201.98 243.206 201.833L243.435 201.701L243.928 201.424L244.532 201.069C244.773 200.909 245.094 200.938 245.303 201.139C245.331 201.158 245.357 201.182 245.379 201.208C245.431 201.263 245.475 201.323 245.511 201.389C245.54 201.419 245.564 201.454 245.58 201.493C245.654 201.613 245.715 201.741 245.761 201.875C245.814 202.018 245.858 202.164 245.893 202.312C245.934 202.486 245.962 202.653 245.997 202.833C246.016 202.936 246.027 203.041 246.032 203.146C246.032 203.229 246.032 203.305 246.032 203.403C246.032 203.5 246.032 203.791 246.032 203.993V210.687H244.504V203.993C244.504 203.833 244.504 203.673 244.504 203.521L244.462 203.139C244.466 203.127 244.466 203.115 244.462 203.104C244.323 204.319 243.164 205.402 242.157 205.972C241.598 206.324 240.957 206.526 240.296 206.555C239.787 206.561 239.293 206.381 238.907 206.048L238.769 206.124L238.505 206.284L199.509 228.803L195.336 231.261C194.734 231.568 194.067 231.723 193.391 231.712V229.948C194.066 229.963 194.734 229.81 195.336 229.504Z" fill="#E4A1EF"/>
<path opacity="0.6" d="M195.336 229.504L198.03 227.942L229.006 210.069L238.893 204.361C239.588 203.944 240.171 203.798 240.206 204.014V204.458C240.206 204.958 240.9 204.958 241.754 204.458C242.398 204.178 242.857 203.594 242.976 202.903V202.417C242.956 202.197 243.041 201.98 243.206 201.833L243.435 201.701L243.928 201.424L244.532 201.069C244.773 200.909 245.094 200.938 245.303 201.139C245.331 201.158 245.357 201.182 245.379 201.208C245.431 201.263 245.475 201.323 245.511 201.389C245.54 201.419 245.564 201.454 245.58 201.493C245.654 201.613 245.715 201.741 245.761 201.875C245.814 202.018 245.858 202.164 245.893 202.312C245.934 202.486 245.962 202.653 245.997 202.833C246.016 202.936 246.027 203.041 246.032 203.146C246.032 203.229 246.032 203.305 246.032 203.403C246.032 203.5 246.032 203.791 246.032 203.993V210.687H244.504V203.993C244.504 203.833 244.504 203.673 244.504 203.521L244.462 203.139C244.466 203.127 244.466 203.115 244.462 203.104C244.323 204.319 243.164 205.402 242.157 205.972C241.598 206.324 240.957 206.526 240.296 206.555C239.787 206.561 239.293 206.381 238.907 206.048L238.769 206.124L238.505 206.284L199.509 228.803L195.336 231.261C194.734 231.568 194.067 231.723 193.391 231.712V229.948C194.066 229.963 194.734 229.81 195.336 229.504Z" fill="white"/>
<path d="M126.266 191.223V193.036C126.311 193.527 126.612 193.957 127.058 194.167L187.1 228.83L191.315 231.268C191.926 231.584 192.606 231.744 193.294 231.733V229.969C192.603 229.984 191.919 229.822 191.308 229.497L188.628 227.949L127.058 192.39C126.602 192.174 126.299 191.727 126.266 191.223Z" fill="#E4A1EF"/>
<path opacity="0.1" d="M126.266 191.223V193.036C126.311 193.527 126.612 193.957 127.058 194.167L187.1 228.83L191.315 231.268C191.926 231.584 192.606 231.744 193.294 231.733V229.969C192.603 229.984 191.919 229.822 191.308 229.497L188.628 227.949L127.058 192.39C126.602 192.174 126.299 191.727 126.266 191.223Z" fill="white"/>
<path d="M170.297 165.143C170.913 164.743 171.673 164.629 172.38 164.83L173.157 165.282C174.011 164.782 174.699 163.983 174.699 163.49V163.073C174.705 162.929 174.746 162.789 174.817 162.664C174.871 162.551 174.955 162.455 175.06 162.386L175.407 162.192L176.219 161.719C177.373 161.248 178.681 161.343 179.754 161.976L244.018 199.084L244.087 199.125L198.738 225.31C197.907 225.734 196.923 225.734 196.092 225.31L131.412 187.599L170.297 165.143Z" fill="#263238"/>
<path d="M202.37 221.505L200.654 220.519C201.116 220.358 201.612 220.322 202.092 220.415C202.55 220.651 202.37 221.505 202.37 221.505Z" fill="#E4A1EF"/>
<path opacity="0.7" d="M202.37 221.505L200.654 220.519C201.116 220.358 201.612 220.322 202.092 220.415C202.55 220.651 202.37 221.505 202.37 221.505Z" fill="black"/>
<path d="M203.55 220.442C203.156 220.015 202.6 219.772 202.019 219.772C201.437 219.772 200.882 220.015 200.488 220.442C198.814 221.977 198.731 223.498 198.037 223.477C197.342 223.456 197.342 211.221 197.342 211.221L203.946 217.339L203.55 220.442Z" fill="#E4A1EF"/>
<path opacity="0.7" d="M203.55 220.442C203.156 220.015 202.6 219.772 202.019 219.772C201.437 219.772 200.882 220.015 200.488 220.442C198.814 221.977 198.731 223.498 198.037 223.477C197.342 223.456 197.342 211.221 197.342 211.221L203.946 217.339L203.55 220.442Z" fill="black"/>
<path d="M134.516 175.968L134.404 175.905L135.46 175.294L180.927 149.047L247.177 191.918C248.268 192.55 248.462 193.466 247.608 193.952L246.059 194.848L203.564 219.422L203.258 219.2L134.516 175.968Z" fill="#E4A1EF"/>
<path opacity="0.5" d="M134.516 175.968L134.404 175.905L135.46 175.294L180.927 149.047L247.177 191.918C248.268 192.55 248.462 193.466 247.608 193.952L246.059 194.848L203.564 219.422L203.258 219.2L134.516 175.968Z" fill="black"/>
<path d="M197.891 205.43L201.182 204.736V217.929C199.196 218.776 197.932 219.568 197.71 221.227L197.891 205.43Z" fill="#455A64"/>
<path d="M202.633 218.102L244.733 193.799C245.516 193.291 246.008 192.44 246.059 191.508V178.516L203.55 203.271C203.55 203.271 203.043 205.111 201.536 205.687C200.029 206.263 201.182 206.854 201.182 206.854V217.964C202.481 217.776 202.633 218.102 202.633 218.102Z" fill="#F0F0F0"/>
<path d="M198.752 204.979C199.189 204.729 199.536 204.715 199.536 204.979V205.388C199.536 205.847 200.231 205.826 201.092 205.326C201.953 204.826 202.647 204.062 202.647 203.604V203.187C202.647 202.951 203.237 202.423 203.96 202.007L135.467 162.761L134.404 163.372C134.257 163.528 134.165 163.728 134.141 163.941V164.358C134.141 164.816 133.446 165.587 132.592 166.08C131.738 166.573 131.037 166.601 131.037 166.143V165.726C131.037 165.49 130.689 165.511 130.259 165.761L198.752 204.979Z" fill="#E4A1EF"/>
<path opacity="0.6" d="M198.752 204.979C199.189 204.729 199.536 204.715 199.536 204.979V205.388C199.536 205.847 200.231 205.826 201.092 205.326C201.953 204.826 202.647 204.062 202.647 203.604V203.187C202.647 202.951 203.237 202.423 203.96 202.007L135.467 162.761L134.404 163.372C134.257 163.528 134.165 163.728 134.141 163.941V164.358C134.141 164.816 133.446 165.587 132.592 166.08C131.738 166.573 131.037 166.601 131.037 166.143V165.726C131.037 165.49 130.689 165.511 130.259 165.761L198.752 204.979Z" fill="black"/>
<path d="M134.516 163.407L134.404 163.344L135.46 162.733L180.927 136.486L247.177 174.746C248.268 175.378 248.462 176.287 247.608 176.78L246.059 177.669L203.55 203.271L134.516 163.407Z" fill="#E4A1EF"/>
<path opacity="0.5" d="M134.516 163.407L134.404 163.344L135.46 162.733L180.927 136.486L247.177 174.746C248.268 175.378 248.462 176.287 247.608 176.78L246.059 177.669L203.55 203.271L134.516 163.407Z" fill="black"/>
<path d="M131.023 165.302L199.502 204.84L197.106 206.715L128.884 167.33C129.051 166.823 129.368 166.38 129.794 166.059L131.023 165.302Z" fill="#E4A1EF"/>
<path opacity="0.5" d="M131.023 165.302L199.502 204.84L197.106 206.715L128.884 167.33C129.051 166.823 129.368 166.38 129.794 166.059L131.023 165.302Z" fill="black"/>
<path d="M129.113 185.002C129.071 184.976 129.032 184.945 128.995 184.911C128.964 184.896 128.937 184.872 128.919 184.842C128.863 184.787 128.816 184.724 128.78 184.655C128.749 184.628 128.725 184.595 128.711 184.557C128.636 184.438 128.578 184.31 128.537 184.175C128.479 184.031 128.433 183.882 128.398 183.731C128.356 183.564 128.329 183.398 128.301 183.217C128.277 183.115 128.263 183.01 128.259 182.905V182.648C128.259 182.46 128.259 182.259 128.259 182.058V170.746C128.247 169.559 128.464 168.38 128.898 167.274L197.12 206.659L197.405 224.38L129.19 184.981L129.113 185.002Z" fill="#E4A1EF"/>
<path opacity="0.7" d="M129.113 185.002C129.071 184.976 129.032 184.945 128.995 184.911C128.964 184.896 128.937 184.872 128.919 184.842C128.863 184.787 128.816 184.724 128.78 184.655C128.749 184.628 128.725 184.595 128.711 184.557C128.636 184.438 128.578 184.31 128.537 184.175C128.479 184.031 128.433 183.882 128.398 183.731C128.356 183.564 128.329 183.398 128.301 183.217C128.277 183.115 128.263 183.01 128.259 182.905V182.648C128.259 182.46 128.259 182.259 128.259 182.058V170.746C128.247 169.559 128.464 168.38 128.898 167.274L197.12 206.659L197.405 224.38L129.19 184.981L129.113 185.002Z" fill="black"/>
<path opacity="0.79" d="M197.071 206.687C197.071 206.687 143.341 181.544 138.453 179.238C135.224 177.718 133.641 180.912 134.404 184.217C135.099 187.106 137.925 190.085 137.925 190.085L129.141 185.009C129.099 184.982 129.059 184.952 129.023 184.918C128.992 184.903 128.965 184.879 128.947 184.849C128.891 184.794 128.844 184.731 128.808 184.661C128.777 184.635 128.753 184.602 128.738 184.564C128.664 184.445 128.606 184.317 128.565 184.182C128.507 184.038 128.461 183.889 128.426 183.738C128.384 183.571 128.356 183.405 128.329 183.224C128.305 183.122 128.291 183.017 128.287 182.912V182.655C128.287 182.467 128.287 182.266 128.287 182.065V170.746C128.275 169.559 128.491 168.38 128.926 167.274L197.071 206.687Z" fill="#263238"/>
<path d="M196.44 210.138H197.967C197.931 208.983 198.184 207.837 198.703 206.805C199.067 207.074 199.508 207.218 199.96 207.215C200.632 207.18 201.285 206.975 201.856 206.618C202.543 206.227 203.143 205.7 203.619 205.069C203.656 205.026 203.688 204.979 203.717 204.93C203.986 204.546 204.143 204.094 204.168 203.625L244.49 180.349L245.879 179.551L247.629 178.544C247.939 178.402 248.145 178.1 248.163 177.759V175.975C248.148 176.322 247.942 176.632 247.629 176.78L242.997 179.447L204.008 201.965C203.279 202.382 202.689 202.91 202.689 203.146V203.562C202.646 203.826 202.519 204.07 202.328 204.257C201.993 204.659 201.589 204.998 201.134 205.257C200.273 205.756 199.578 205.777 199.578 205.319V204.909C199.578 204.666 199.238 204.687 198.8 204.909L198.03 205.361C197.134 205.916 196.44 208.034 196.44 210.138Z" fill="#E4A1EF"/>
<path d="M197.967 210.138V221.449C197.967 221.609 197.967 221.769 197.967 221.921L198.002 222.303C197.999 222.315 197.999 222.327 198.002 222.338C198.141 221.123 199.3 220.04 200.307 219.47C200.868 219.117 201.512 218.916 202.175 218.887C202.684 218.881 203.178 219.061 203.564 219.394L203.696 219.318L203.967 219.158L242.956 196.639L245.198 195.348L245.837 194.973L247.726 193.883C247.978 193.725 248.134 193.451 248.143 193.154V194.938C248.132 195.219 247.987 195.477 247.754 195.633C247.531 195.764 247.295 195.889 247.059 196.035L246.622 196.292L245.872 196.723C245.705 196.827 245.553 196.917 245.407 196.994C245.261 197.07 245.178 197.132 245.08 197.181L244.504 197.521L213.528 215.394L203.64 221.102C202.946 221.519 202.37 221.665 202.328 221.449C202.325 221.424 202.325 221.398 202.328 221.373V220.977C202.328 220.477 201.633 220.477 200.779 220.977C200.136 221.257 199.677 221.841 199.557 222.533V223.019C199.578 223.238 199.493 223.455 199.328 223.602L199.099 223.734L198.613 224.012L198.009 224.366C197.767 224.526 197.447 224.497 197.238 224.296C197.207 224.281 197.18 224.257 197.162 224.227C197.106 224.175 197.059 224.114 197.023 224.046C196.996 224.017 196.973 223.984 196.953 223.949C196.879 223.83 196.821 223.701 196.78 223.567C196.721 223.426 196.675 223.279 196.641 223.13C196.599 222.956 196.572 222.789 196.544 222.609C196.519 222.506 196.505 222.402 196.502 222.296C196.502 222.213 196.502 222.137 196.502 222.039C196.502 221.942 196.502 221.651 196.502 221.449V210.138H197.967Z" fill="#E4A1EF"/>
<g opacity="0.6">
<path d="M196.44 210.138H197.967C197.931 208.983 198.184 207.837 198.703 206.805C199.067 207.074 199.508 207.218 199.96 207.215C200.632 207.18 201.285 206.975 201.856 206.618C202.543 206.227 203.143 205.7 203.619 205.069C203.656 205.026 203.688 204.979 203.717 204.93C203.986 204.546 204.143 204.094 204.168 203.625L244.49 180.349L245.879 179.551L247.629 178.544C247.939 178.402 248.145 178.1 248.163 177.759V175.975C248.148 176.322 247.942 176.632 247.629 176.78L242.997 179.447L204.008 201.965C203.279 202.382 202.689 202.91 202.689 203.146V203.562C202.646 203.826 202.519 204.07 202.328 204.257C201.993 204.659 201.589 204.998 201.134 205.257C200.273 205.756 199.578 205.777 199.578 205.319V204.909C199.578 204.666 199.238 204.687 198.8 204.909L198.03 205.361C197.134 205.916 196.44 208.034 196.44 210.138Z" fill="black"/>
<path d="M197.967 210.138V221.449C197.967 221.609 197.967 221.769 197.967 221.921L198.002 222.303C197.999 222.315 197.999 222.327 198.002 222.338C198.141 221.123 199.3 220.04 200.307 219.47C200.868 219.117 201.512 218.916 202.175 218.887C202.684 218.881 203.178 219.061 203.564 219.394L203.696 219.318L203.967 219.158L242.956 196.639L245.198 195.348L245.837 194.973L247.726 193.883C247.978 193.725 248.134 193.451 248.143 193.154V194.938C248.132 195.219 247.987 195.477 247.754 195.633C247.531 195.764 247.295 195.889 247.059 196.035L246.622 196.292L245.872 196.723C245.705 196.827 245.553 196.917 245.407 196.994C245.261 197.07 245.178 197.132 245.08 197.181L244.504 197.521L213.528 215.394L203.64 221.102C202.946 221.519 202.37 221.665 202.328 221.449C202.325 221.424 202.325 221.398 202.328 221.373V220.977C202.328 220.477 201.633 220.477 200.779 220.977C200.136 221.257 199.677 221.841 199.557 222.533V223.019C199.578 223.238 199.493 223.455 199.328 223.602L199.099 223.734L198.613 224.012L198.009 224.366C197.767 224.526 197.447 224.497 197.238 224.296C197.207 224.281 197.18 224.257 197.162 224.227C197.106 224.175 197.059 224.114 197.023 224.046C196.996 224.017 196.973 223.984 196.953 223.949C196.879 223.83 196.821 223.701 196.78 223.567C196.721 223.426 196.675 223.279 196.641 223.13C196.599 222.956 196.572 222.789 196.544 222.609C196.519 222.506 196.505 222.402 196.502 222.296C196.502 222.213 196.502 222.137 196.502 222.039C196.502 221.942 196.502 221.651 196.502 221.449V210.138H197.967Z" fill="black"/>
</g>
<path d="M128.849 167.295L193.69 204.736L242.699 176.44C243.027 176.33 243.248 176.023 243.248 175.676C243.248 175.33 243.027 175.022 242.699 174.912L178.539 137.861L135.488 162.733L134.425 163.351C134.282 163.506 134.191 163.703 134.168 163.914V164.33C134.168 164.789 133.474 165.559 132.62 166.052C132.577 166.081 132.53 166.104 132.481 166.122L131.051 165.295L130.356 165.684L130.259 165.733L129.759 166.025C129.334 166.346 129.017 166.789 128.849 167.295Z" fill="#263238"/>
<path d="M239.081 176.718L237.13 175.676L238.907 175.253C239.257 175.661 239.325 176.239 239.081 176.718Z" fill="#E0E0E0"/>
<g style="mix-blend-mode:multiply" opacity="0.5">
<path d="M239.081 176.718L237.13 175.676L238.907 175.253C239.257 175.661 239.325 176.239 239.081 176.718Z" fill="#E0E0E0"/>
</g>
<path d="M187.371 202.757C188.617 203.389 190.09 203.389 191.336 202.757L235.873 177.065L169.213 134.924L167.651 134.021L123.121 163.351C122.031 163.983 122.031 165.011 123.121 165.643L187.371 202.757Z" fill="#E4A1EF"/>
<path d="M204.092 150.519L237.741 173.322L219.625 159.435L229.679 153.63L241.372 160.4V172.475C241.372 173.503 240.227 174.954 239.81 174.718C239.04 174.904 238.29 175.17 237.574 175.51C236.406 176.174 235.322 176.976 234.345 177.898L198.662 153.644L204.092 150.519Z" fill="#E4A1EF"/>
<path opacity="0.2" d="M204.092 150.519L237.741 173.322L219.625 159.435L229.679 153.63L241.372 160.4V172.475C241.372 173.503 240.227 174.954 239.81 174.718C239.04 174.904 238.29 175.17 237.574 175.51C236.406 176.174 235.322 176.976 234.345 177.898L198.662 153.644L204.092 150.519Z" fill="black"/>
<path d="M189.35 187.682V201.625C189.811 201.635 190.268 201.528 190.676 201.313L195.537 198.493L232.755 177.009V162.608L189.35 187.682Z" fill="white"/>
<path d="M124.225 151.373V162.948C124.277 163.878 124.766 164.728 125.544 165.24L183.177 198.5L188.038 201.319C188.444 201.534 188.898 201.641 189.357 201.632V188.772L124.225 151.373Z" fill="#F0F0F0"/>
<path d="M232.776 177.009C232.81 176.483 233.004 175.979 233.332 175.565C233.806 174.933 234.407 174.405 235.095 174.017C235.668 173.659 236.323 173.454 236.998 173.42C237.435 173.375 237.875 173.478 238.248 173.711V159.449L232.783 162.608L232.776 177.009Z" fill="#455A64"/>
<path d="M234.956 174.1C234.327 174.481 233.775 174.978 233.332 175.565C233.004 175.979 232.81 176.483 232.776 177.009V163.122H234.949L234.956 174.1Z" fill="#F5F5F5"/>
<path d="M169.206 122.321L235.866 160.824V161.712C235.866 162.212 236.56 162.407 237.414 161.9C238.269 161.393 238.977 160.782 238.977 159.928L239.06 159.081L171.13 119.863L170.852 119.703C170.782 119.831 170.744 119.974 170.741 120.12V120.529C170.748 121.022 170.06 121.821 169.206 122.321Z" fill="#E4A1EF"/>
<path opacity="0.2" d="M169.206 122.321L235.866 160.824V161.712C235.866 162.212 236.56 162.407 237.414 161.9C238.269 161.393 238.977 160.782 238.977 159.928L239.06 159.081L171.13 119.863L170.852 119.703C170.782 119.831 170.744 119.974 170.741 120.12V120.529C170.748 121.022 170.06 121.821 169.206 122.321Z" fill="black"/>
<path d="M191.336 186.536L234.915 161.393C235.47 161.101 235.977 160.865 236.185 160.976L235.901 160.824L169.241 122.321L168.456 121.876C167.75 121.667 166.987 121.781 166.373 122.189L123.121 147.138C122.031 147.769 122.031 148.804 123.121 149.429L187.385 186.536C188.627 187.164 190.094 187.164 191.336 186.536Z" fill="#E4A1EF"/>
<path d="M170.859 119.703L171.137 119.863L239.081 159.081C239.115 159.008 239.165 158.944 239.227 158.893L239.456 158.768L239.942 158.484L240.546 158.13C240.788 157.972 241.107 158 241.317 158.199C241.346 158.218 241.371 158.242 241.393 158.268C241.474 158.355 241.544 158.45 241.602 158.553C241.673 158.674 241.731 158.802 241.775 158.935C241.83 159.08 241.876 159.229 241.914 159.379C241.949 159.546 241.983 159.713 242.011 159.893C242.032 159.999 242.046 160.105 242.053 160.213V160.463C242.053 160.65 242.053 160.851 242.053 161.06V159.15C241.912 157.875 241.175 156.742 240.067 156.095L175.803 118.988C174.729 118.356 173.421 118.263 172.269 118.738L171.456 119.21L171.116 119.411C171.004 119.482 170.915 119.583 170.859 119.703Z" fill="#E4A1EF"/>
<path d="M191.336 202.757L194.023 201.201L234.345 177.919C234.381 177.393 234.574 176.889 234.901 176.475C235.377 175.844 235.978 175.317 236.665 174.926C237.237 174.574 237.889 174.371 238.56 174.336C239.013 174.327 239.456 174.471 239.817 174.746C240.335 173.711 240.588 172.563 240.553 171.406H242.081C242.081 173.489 241.386 175.628 240.532 176.121L239.761 176.572C239.324 176.822 238.984 176.836 238.984 176.572V176.162C238.984 175.704 238.289 175.725 237.421 176.218C236.553 176.711 235.873 177.489 235.873 177.947V178.357C235.873 178.593 235.283 179.12 234.554 179.544L195.558 202.062L191.336 204.5C190.725 204.816 190.045 204.976 189.357 204.965V203.201C190.044 203.225 190.725 203.072 191.336 202.757Z" fill="#E4A1EF"/>
<path opacity="0.4" d="M191.336 202.757L194.023 201.201L234.345 177.919C234.381 177.393 234.574 176.889 234.901 176.475C235.377 175.844 235.978 175.317 236.665 174.926C237.237 174.574 237.889 174.371 238.56 174.336C239.013 174.327 239.456 174.471 239.817 174.746C240.335 173.711 240.588 172.563 240.553 171.406H242.081C242.081 173.489 241.386 175.628 240.532 176.121L239.761 176.572C239.324 176.822 238.984 176.836 238.984 176.572V176.162C238.984 175.704 238.289 175.725 237.421 176.218C236.553 176.711 235.873 177.489 235.873 177.947V178.357C235.873 178.593 235.283 179.12 234.554 179.544L195.558 202.062L191.336 204.5C190.725 204.816 190.045 204.976 189.357 204.965V203.201C190.044 203.225 190.725 203.072 191.336 202.757Z" fill="black"/>
<path d="M191.322 186.543L194.009 184.988L224.985 167.115L234.915 161.393C235.609 160.983 236.192 160.838 236.234 161.053V161.504C236.234 161.997 236.928 161.997 237.783 161.504C238.428 161.223 238.887 160.636 239.005 159.942V159.456C238.984 159.236 239.069 159.019 239.234 158.872L239.463 158.747L239.949 158.463L240.553 158.109C240.795 157.951 241.114 157.98 241.324 158.178C241.352 158.197 241.378 158.221 241.4 158.248C241.454 158.304 241.501 158.367 241.539 158.435C241.565 158.465 241.589 158.498 241.608 158.532C241.68 158.653 241.738 158.781 241.782 158.914C241.837 159.06 241.883 159.208 241.921 159.359C241.956 159.525 241.99 159.692 242.018 159.872C242.039 159.978 242.053 160.084 242.06 160.192V160.442C242.06 160.629 242.06 160.831 242.06 161.039V171.371H240.532V161.094C240.532 160.935 240.532 160.768 240.532 160.615L240.497 160.233C240.359 161.449 239.199 162.532 238.185 163.101C237.627 163.456 236.985 163.657 236.324 163.684C235.815 163.691 235.321 163.511 234.936 163.178L234.804 163.254L234.533 163.414L195.537 185.932L191.315 188.369C190.712 188.678 190.042 188.833 189.364 188.821V187.057C190.049 187.052 190.723 186.876 191.322 186.543Z" fill="#E4A1EF"/>
<path opacity="0.4" d="M191.322 186.543L194.009 184.988L224.985 167.115L234.915 161.393C235.609 160.983 236.192 160.838 236.234 161.053V161.504C236.234 161.997 236.928 161.997 237.783 161.504C238.428 161.223 238.887 160.636 239.005 159.942V159.456C238.984 159.236 239.069 159.019 239.234 158.872L239.463 158.747L239.949 158.463L240.553 158.109C240.795 157.951 241.114 157.98 241.324 158.178C241.352 158.197 241.378 158.221 241.4 158.248C241.454 158.304 241.501 158.367 241.539 158.435C241.565 158.465 241.589 158.498 241.608 158.532C241.68 158.653 241.738 158.781 241.782 158.914C241.837 159.06 241.883 159.208 241.921 159.359C241.956 159.525 241.99 159.692 242.018 159.872C242.039 159.978 242.053 160.084 242.06 160.192V160.442C242.06 160.629 242.06 160.831 242.06 161.039V171.371H240.532V161.094C240.532 160.935 240.532 160.768 240.532 160.615L240.497 160.233C240.359 161.449 239.199 162.532 238.185 163.101C237.627 163.456 236.985 163.657 236.324 163.684C235.815 163.691 235.321 163.511 234.936 163.178L234.804 163.254L234.533 163.414L195.537 185.932L191.315 188.369C190.712 188.678 190.042 188.833 189.364 188.821V187.057C190.049 187.052 190.723 186.876 191.322 186.543Z" fill="black"/>
<path d="M122.295 148.262V150.054C122.337 150.543 122.636 150.974 123.079 151.186L183.128 185.849L187.343 188.286C187.952 188.601 188.63 188.761 189.315 188.751V186.988C188.626 187.003 187.945 186.84 187.336 186.515L184.656 184.967L123.121 149.429C122.645 149.23 122.324 148.777 122.295 148.262L122.295 148.262Z" fill="#E4A1EF"/>
<path opacity="0.2" d="M122.295 148.262V150.054C122.337 150.543 122.636 150.974 123.079 151.186L183.128 185.849L187.343 188.286C187.952 188.601 188.63 188.761 189.315 188.751V186.988C188.626 187.003 187.945 186.84 187.336 186.515L184.656 184.967L123.121 149.429C122.645 149.23 122.324 148.777 122.295 148.262L122.295 148.262Z" fill="black"/>
<path d="M122.295 164.469V166.261C122.337 166.75 122.636 167.181 123.079 167.392L183.156 202.062L187.371 204.5C187.98 204.815 188.657 204.974 189.343 204.965V203.201C188.654 203.216 187.972 203.054 187.364 202.729L184.684 201.181L123.121 165.636C122.645 165.437 122.324 164.984 122.295 164.469L122.295 164.469Z" fill="#E4A1EF"/>
<path opacity="0.2" d="M122.295 164.469V166.261C122.337 166.75 122.636 167.181 123.079 167.392L183.156 202.062L187.371 204.5C187.98 204.815 188.657 204.974 189.343 204.965V203.201C188.654 203.216 187.972 203.054 187.364 202.729L184.684 201.181L123.121 165.636C122.645 165.437 122.324 164.984 122.295 164.469L122.295 164.469Z" fill="black"/>
<path d="M150.028 101.469L143.653 112.829L152.944 117.773L159.707 107.704L150.028 101.469Z" fill="#FFC0C0"/>
<path d="M172.643 75.8812C169.102 75.2771 163.742 75.1173 160.256 81.0959C156.77 87.0744 149.257 101.83 149.257 101.83C149.257 101.83 153.645 107.51 159.999 108.544L170.38 92.0739L172.643 75.8812Z" fill="#E4A1EF"/>
<rect x="156.347" y="215.005" width="7.92973" height="13.575" fill="#FFC0C0"/>
<path d="M141.32 211.7L133.391 211.971L132.995 197.605L140.918 197.334L141.32 211.7Z" fill="#FFC0C0"/>
<path d="M156.347 224.664V223.532C155.59 223.859 153.826 230.587 150.681 233.455C148.181 235.739 144.771 238.371 143.903 240.913C143.001 243.558 148.653 245.023 150.986 244.607C153.701 244.127 158.409 242.218 159.589 240.44C160.77 238.663 161.325 236.059 162.283 234.76C163.242 233.462 165.457 231.983 165.978 230.504C166.262 229.678 165.922 227.872 165.526 226.338C165.158 224.949 164.755 223.394 164.276 223.525V224.386C163.7 225.025 162.11 225.657 160.311 225.727C159.152 225.782 156.34 225.553 156.347 224.664Z" fill="#263238"/>
<path d="M133.307 209.527C132.898 209.527 132.564 210.124 131.655 211.103C130.298 212.474 128.72 213.608 126.988 214.457C124.017 215.95 118.26 218.234 115.635 219.422C114.004 220.158 114.08 222.13 115.767 223.255C117.455 224.38 121.524 225.185 126.419 224.088C129.079 223.491 132.55 221.033 134.752 221.165C136.953 221.297 141.056 221.269 142.674 220.151C144.292 219.033 143.646 216.679 143.188 214.596C142.688 212.36 141.973 208.937 141.23 209.089V209.784C140.279 211.228 135.425 211.818 133.328 210.756L133.307 209.527Z" fill="#263238"/>
<path d="M196.217 132.452C197.953 144.707 195.613 147.033 183.969 158.796C177.719 165.108 167.616 174.364 167.616 174.364C167.616 174.364 167.762 178.28 167.838 187.057C167.915 194.785 164.686 219.936 164.686 219.936C164.686 219.936 159.423 222.151 155.812 219.852C155.812 219.852 154.18 201.139 153.298 191.383C152.104 178.19 151.479 171.538 152.153 168.698C152.75 166.191 164.603 151.221 167.338 147.026L142.147 161.664C142.635 165.373 142.881 169.109 142.883 172.85C142.605 183.342 141.313 204.298 141.313 204.298C141.313 204.298 135.55 206.874 132.689 204.652C132.689 204.652 125.433 158.824 125.433 155.06C125.433 149.346 150.25 132.285 154.951 128.313C157.631 126.05 160.617 123.598 160.617 123.598L196.217 132.452Z" fill="#455A64"/>
<path d="M167.338 147.033C164.689 144.888 162.694 142.042 161.582 138.819C161.721 140.922 162.02 143.011 162.478 145.068C163.172 147.79 142.147 161.664 142.147 161.664L167.338 147.033Z" fill="#37474F"/>
<circle cx="170.381" cy="51.3948" r="11.2558" transform="rotate(-76.81 170.381 51.3948)" fill="#263238"/>
<path d="M194.03 82.6999C194.03 82.6999 196.808 84.9774 196.808 92.1711V107.704L196.412 133.826C190.857 139.874 165.859 137.583 159.673 124.39C159.673 124.39 159.721 96.8165 159.721 90.6366C159.721 84.4566 163.193 76.4366 172.637 75.8811L184.871 78.7281L194.03 82.6999Z" fill="#263238"/>
<path d="M189.836 59.3968C189.836 59.3968 188.01 67.9653 187.281 69.3749C186.794 70.2438 185.991 70.8908 185.038 71.1802L185.163 65.1531L189.836 59.3968Z" fill="#263238"/>
<path d="M187.545 47.1203C188.829 46.9759 190.109 47.4289 191.017 48.3493C192.516 49.8839 191.676 54.6889 189.808 59.3968L186.371 59.7926L187.545 47.1203Z" fill="#263238"/>
<path d="M185.371 59.7925C186.066 60.2022 187.045 58.8829 187.892 57.9941C188.739 57.1053 191.517 55.911 192.898 58.8065C194.28 61.7021 191.676 65.7017 189.496 66.3891C185.732 67.5695 185.163 65.1531 185.163 65.1531L184.878 78.7281C181.636 82.3527 170.546 81.5056 172.637 78.367V74.2008C172.637 74.2008 169.227 74.7215 167.568 74.4646C164.79 74.0341 163.054 71.8538 162.214 68.8541C160.867 64.0421 160.353 60.1606 161.52 50.6963C162.776 40.3224 174.838 40.2182 181.351 44.315C187.864 48.4118 185.371 59.7925 185.371 59.7925Z" fill="#FFC0C0"/>
<path fill-rule="evenodd" clip-rule="evenodd" d="M175.199 62.1673H175.782H175.789C177.91 62.1673 179.629 60.4481 179.629 58.3274C179.629 56.2067 177.91 54.4876 175.789 54.4876H175.199C173.078 54.4876 171.359 56.2067 171.359 58.3274C171.359 60.4481 173.078 62.1673 175.199 62.1673ZM172.005 58.3274C172.005 56.5634 173.435 55.1333 175.199 55.1333H175.789C177.553 55.1333 178.983 56.5634 178.983 58.3274C178.983 60.0915 177.553 61.5216 175.789 61.5216H175.199C173.435 61.5216 172.005 60.0915 172.005 58.3274Z" fill="#263238"/>
<path fill-rule="evenodd" clip-rule="evenodd" d="M163.499 62.1673H164.089C166.209 62.1673 167.929 60.4481 167.929 58.3274C167.929 56.2067 166.209 54.4876 164.089 54.4876H163.499C161.378 54.4876 159.659 56.2067 159.659 58.3274C159.659 60.4481 161.378 62.1673 163.499 62.1673ZM160.304 58.3274C160.304 56.5634 161.734 55.1333 163.499 55.1333H164.089C165.853 55.1333 167.283 56.5634 167.283 58.3274C167.283 60.0915 165.853 61.5216 164.089 61.5216H163.499C161.734 61.5216 160.304 60.0915 160.304 58.3274Z" fill="#263238"/>
<path d="M171.401 57.5706C170.926 56.9254 170.174 56.542 169.373 56.536C168.705 56.4687 168.046 56.7272 167.602 57.2303L167.089 56.8415C167.659 56.1664 168.529 55.8201 169.408 55.918C170.423 55.928 171.372 56.4269 171.956 57.2581L171.401 57.5706Z" fill="#263238"/>
<rect x="179.268" y="57.5428" width="8.16581" height="0.645766" fill="#263238"/>
<path d="M185.371 60.9522C185.718 60.9522 187.031 58.7718 187.892 57.9941C189.079 56.9109 187.545 47.1203 187.545 47.1203C187.545 47.1203 188.69 44.683 186.399 42.1694C184.774 40.3779 182.052 40.1766 177.407 39.4475C174.97 39.0656 171.276 38.3781 168.838 37.9268C165.936 37.3852 163.526 36.8158 161.478 38.6212C159.83 40.0495 159.26 42.3606 160.054 44.3914C160.643 45.6274 161.688 46.5861 162.971 47.0647C162.971 47.0647 164.235 48.1896 168.644 48.7243C173.053 49.2589 179.92 48.6271 180.858 48.4951C182.135 48.3215 182.406 49.5575 183.101 52.9461C183.705 55.8971 184.226 60.9313 185.371 60.9522Z" fill="#263238"/>
<path d="M187.538 47.9118L191.704 45.669C191.434 45.1031 190.945 44.6719 190.35 44.4753C189.755 44.2786 189.105 44.3336 188.552 44.6275C187.395 45.2794 186.95 46.7215 187.538 47.9118Z" fill="#263238"/>
<path d="M172.643 74.2355C172.643 74.2355 178.823 72.9926 180.976 71.8469C182.246 71.1836 183.287 70.1527 183.962 68.8888C183.635 70.1478 183.059 71.3284 182.267 72.3607C180.684 74.3813 172.636 75.8673 172.636 75.8673L172.643 74.2355Z" fill="#F9A9A9"/>
<path d="M174.129 58.2511C174.156 58.9314 174.725 59.4637 175.406 59.4449C176.086 59.426 176.625 58.8631 176.614 58.1822C176.603 57.5014 176.046 56.9563 175.365 56.9595C175.03 56.9668 174.712 57.107 174.48 57.3492C174.248 57.5915 174.122 57.9159 174.129 58.2511Z" fill="#263238"/>
<path d="M176.115 53.1266L178.768 54.5848C179.139 53.8357 178.869 52.9273 178.15 52.5017C177.799 52.3075 177.384 52.2643 177 52.3822C176.616 52.5 176.297 52.7687 176.115 53.1266H176.115Z" fill="#263238"/>
<path d="M173.206 66.7988L170.38 67.8612C170.503 68.2445 170.777 68.5612 171.138 68.7382C171.5 68.9151 171.918 68.9369 172.296 68.7986C173.088 68.485 173.49 67.6015 173.206 66.7988Z" fill="#F28F8F"/>
<path d="M162.77 54.2098L165.186 52.3558C164.959 52.0288 164.608 51.8089 164.214 51.7473C163.821 51.6857 163.419 51.7876 163.103 52.0295C162.427 52.5505 162.28 53.5107 162.77 54.2098Z" fill="#263238"/>
<path d="M163.832 57.8969C163.858 58.5773 164.428 59.1096 165.108 59.0908C165.789 59.0719 166.328 58.5089 166.317 57.8281C166.306 57.1473 165.749 56.6021 165.068 56.6054C164.733 56.6127 164.414 56.7529 164.182 56.9951C163.95 57.2373 163.824 57.5617 163.832 57.8969Z" fill="#263238"/>
<path d="M169.949 56.904L169.81 64.4101L165.373 63.4311L169.949 56.904Z" fill="#F9A9A9"/>
<path d="M162.367 119.307V120.002C162.366 120.724 161.979 121.391 161.353 121.751L142.07 132.861C141.445 133.222 140.675 133.222 140.05 132.861L104.671 112.44C104.045 112.08 103.658 111.413 103.658 110.69V110.197L141.056 131.785L162.367 119.307Z" fill="#E4A1EF"/>
<path opacity="0.6" d="M162.367 119.307V120.002C162.366 120.724 161.979 121.391 161.353 121.751L142.07 132.861C141.445 133.222 140.675 133.222 140.05 132.861L104.671 112.44C104.045 112.08 103.658 111.413 103.658 110.69V110.197L141.056 131.785L162.367 119.307Z" fill="black"/>
<path d="M103.678 110.204L124.655 98.0941C125.029 97.8783 125.49 97.8783 125.864 98.0941L162.249 119.106C162.331 119.155 162.381 119.243 162.381 119.338C162.381 119.434 162.331 119.522 162.249 119.571L141.077 131.792L103.678 110.204Z" fill="#E4A1EF"/>
<path opacity="0.5" d="M103.678 110.204L124.655 98.0941C125.029 97.8783 125.49 97.8783 125.864 98.0941L162.249 119.106C162.331 119.155 162.381 119.243 162.381 119.338C162.381 119.434 162.331 119.522 162.249 119.571L141.077 131.792L103.678 110.204Z" fill="black"/>
<path d="M141.251 130.014L152.562 123.487L119.482 104.392L108.109 110.884L141.251 130.014Z" fill="#263238"/>
<path d="M146.813 111.863L146.605 111.982L141.057 115.183L131.196 109.489L130.995 109.371L136.744 106.052L146.813 111.863Z" fill="#263238"/>
<path d="M146.605 111.982L141.056 115.183L131.196 109.489L136.744 106.288L146.605 111.982Z" fill="#263238"/>
<path opacity="0.7" d="M141.056 131.792V133.139C140.703 133.139 140.356 133.045 140.05 132.868L104.671 112.447C104.045 112.087 103.658 111.42 103.658 110.697V110.204L141.056 131.792Z" fill="black"/>
<path d="M140.48 132.091C139.798 132.362 139.029 132.303 138.397 131.931L103.178 111.6C102.559 111.244 102.131 110.63 102.012 109.926L98.1582 86.9286C98.1363 86.8001 98.1247 86.6701 98.1235 86.5398C98.1193 85.9008 98.3691 85.2864 98.8178 84.8316L135.418 105.968C135.888 106.227 136.217 106.683 136.314 107.211L140.48 132.091Z" fill="#E4A1EF"/>
<path opacity="0.5" d="M140.48 132.091C139.798 132.362 139.029 132.303 138.397 131.931L103.178 111.6C102.559 111.244 102.131 110.63 102.012 109.926L98.1582 86.9286C98.1363 86.8001 98.1247 86.6701 98.1235 86.5398C98.1193 85.9008 98.3691 85.2864 98.8178 84.8316L135.418 105.968C135.888 106.227 136.217 106.683 136.314 107.211L140.48 132.091Z" fill="black"/>
<path d="M141.056 131.792L140.82 131.931C140.714 131.992 140.602 132.046 140.487 132.091L136.321 107.211C136.232 106.69 135.917 106.235 135.46 105.968L98.8595 84.8316C99.0049 84.6884 99.1683 84.5647 99.3456 84.4636L136.022 105.635C136.479 105.901 136.795 106.356 136.883 106.878L141.056 131.792Z" fill="#E0E0E0"/>
<path d="M120.649 110.864C120.392 109.329 118.802 107.281 117.101 106.302C115.399 105.323 114.226 105.767 114.49 107.308C114.754 108.85 116.337 110.891 118.038 111.877C119.739 112.863 120.913 112.405 120.649 110.864Z" fill="#E4A1EF"/>
<path d="M127.863 125.834C127.79 124.838 127.596 123.854 127.287 122.904C126.745 121.203 125.135 114.648 121.454 113.662C121.017 113.53 120.552 113.516 120.107 113.62C119.087 113.898 118.621 114.96 118.42 115.912C118.232 117.317 118.232 118.742 118.42 120.147C117.854 119.5 117.191 118.945 116.455 118.502C115.802 118.01 115.015 117.729 114.198 117.696C113.967 117.685 113.746 117.789 113.608 117.974C113.476 118.217 113.608 118.523 113.816 118.738C114.184 119.182 114.636 119.557 115.004 120.002C115.292 120.389 115.559 120.792 115.802 121.21C116.267 121.96 116.788 122.668 117.309 123.383C118.309 124.869 119.565 126.167 121.017 127.216C122.687 128.347 124.582 129.102 126.572 129.431C129.259 129.764 131.87 129.723 133.564 129.133L127.863 125.834Z" fill="#FFC0C0"/>
<path d="M193.294 82.9013C190.815 81.6236 187.191 86.6856 188.343 91.9767C189.496 97.2678 195.176 115.87 195.176 115.87C195.176 115.87 169.519 118.161 167.338 118.432C165.818 118.613 164.117 117.842 162.707 117.377C160.791 116.738 158.853 116.294 156.965 115.599C156.636 115.448 156.278 115.372 155.916 115.377C155.543 115.393 155.227 115.658 155.145 116.023C155.136 116.24 155.192 116.455 155.305 116.641C155.911 117.876 156.821 118.937 157.951 119.724C158.498 120.047 159.018 120.414 159.506 120.821C159.805 121.119 160.464 121.946 160.2 122.397L150.007 128.265C150.007 128.265 152.354 130.306 160.853 127.924C163.917 127.123 166.906 126.061 169.79 124.751C169.79 124.751 200.023 126.008 205.487 124.355C207.418 123.765 208.112 122.397 206.807 116.176C205.314 108.968 201.029 95.8235 200.057 92.3517C197.926 84.8316 197.419 85.0052 193.294 82.9013Z" fill="#FFC0C0"/>
<path d="M192.016 81.825C192.016 81.825 196.113 82.9776 197.877 85.2968C199.641 87.616 206.445 110.051 206.445 110.051C202.845 113.054 198.108 114.324 193.489 113.523C193.489 113.523 188.017 98.0038 187.434 93.8584C186.399 87.4355 189.538 82.3805 192.016 81.825Z" fill="#E4A1EF"/>
<path d="M169.908 96.879C169.574 95.143 170.658 94.2056 172.331 94.7958C174.127 95.5337 175.467 97.0795 175.942 98.9621C176.275 100.719 170.234 98.601 169.908 96.879Z" fill="#E4A1EF"/>
<path d="M181.358 102.288L176.435 99.1565C176.685 100.49 174.886 100.302 173.268 99.7398C171.651 99.1773 169.672 98.0386 169.415 96.7054L165.123 96.6498C164.728 96.6498 164.721 97.1637 165.123 97.5872C166.186 98.7746 168.658 100.879 173.852 102.691C179.046 104.503 181.038 103.941 181.788 103.385C182.031 103.177 181.809 102.573 181.358 102.288Z" fill="#E4A1EF"/>
</svg>
