<svg width="232" height="252" viewBox="0 0 232 252" fill="none" xmlns="http://www.w3.org/2000/svg">
<path d="M57.6915 249.003C9.33491 241.527 -0.879942 234.985 0.0572004 232.649C163.12 216.762 222.629 233.038 232 243.162C194.046 248.224 106.048 256.479 57.6915 249.003Z" fill="#EFEFEF"/>
<path d="M120.995 63.4497L110.379 102.269L114.163 97.9064C112.64 98.6918 111.018 99.2703 109.342 99.6266C107.433 100.037 105.494 100.285 103.543 100.37C101.496 100.476 99.3617 100.455 97.1811 100.37C95.0004 100.285 92.7688 100.114 90.5056 99.9219H90.4937C88.929 99.7895 87.3739 100.269 86.1552 101.259C84.9366 102.249 84.1493 103.674 83.9589 105.232C83.7684 106.791 84.1897 108.363 85.134 109.617C86.0784 110.872 87.4723 111.711 89.0229 111.96C91.3576 112.332 93.7314 112.684 96.1665 112.966C98.6016 113.247 101.098 113.458 103.684 113.517C106.368 113.593 109.054 113.445 111.714 113.075C114.615 112.672 117.449 111.888 120.145 110.745C120.997 110.378 121.763 109.836 122.391 109.154C123.02 108.472 123.498 107.665 123.794 106.786L123.929 106.382L136.665 68.2068C137.335 66.1507 137.165 63.9131 136.192 61.9821C135.218 60.0511 133.521 58.5833 131.47 57.8988C129.418 57.2144 127.18 57.3688 125.242 58.3285C123.304 59.2882 121.824 60.9752 121.125 63.0216C121.081 63.1535 121.033 63.3144 120.995 63.4497Z" fill="#FFC0C0"/>
<path d="M116.909 204.18C117.071 204.179 117.232 204.15 117.385 204.095L173.002 184.043C173.339 183.907 173.61 183.646 173.759 183.314C173.907 182.982 173.921 182.606 173.798 182.264C173.674 181.923 173.423 181.642 173.097 181.482C172.771 181.321 172.396 181.293 172.05 181.404L116.432 201.457C116.121 201.568 115.858 201.786 115.692 202.072C115.525 202.358 115.465 202.693 115.522 203.019C115.579 203.345 115.749 203.641 116.003 203.853C116.257 204.066 116.577 204.182 116.908 204.181L116.909 204.18Z" fill="#C77E2E"/>
<path d="M174.836 204.18C175.167 204.18 175.487 204.064 175.74 203.851C175.993 203.639 176.163 203.344 176.22 203.019C176.277 202.693 176.217 202.358 176.052 202.072C175.886 201.786 175.625 201.568 175.314 201.456L119.037 181.074C118.689 180.957 118.31 180.981 117.979 181.14C117.649 181.299 117.394 181.581 117.269 181.926C117.144 182.271 117.159 182.651 117.311 182.985C117.463 183.318 117.739 183.58 118.081 183.712L174.359 204.095C174.512 204.15 174.674 204.179 174.836 204.18Z" fill="#C77E2E"/>
<path d="M111.963 240.014C112.544 240.013 113.105 239.802 113.542 239.419C113.979 239.036 114.262 238.508 114.339 237.932L124.383 162.925H166.42L176.309 237.927C176.4 238.552 176.733 239.116 177.237 239.496C177.74 239.877 178.373 240.044 178.999 239.961C179.625 239.879 180.193 239.553 180.58 239.055C180.968 238.557 181.143 237.926 181.069 237.299L170.905 160.211C170.829 159.633 170.545 159.102 170.106 158.718C169.668 158.334 169.105 158.123 168.522 158.124H122.279C121.697 158.123 121.135 158.333 120.696 158.716C120.258 159.099 119.973 159.629 119.896 160.206L109.572 237.295C109.526 237.635 109.554 237.98 109.653 238.308C109.752 238.636 109.92 238.94 110.146 239.198C110.371 239.455 110.649 239.662 110.962 239.804C111.274 239.945 111.612 240.019 111.955 240.019L111.963 240.014Z" fill="#FAAF3A"/>
<path d="M135.677 160.525H165.711C175.225 160.525 185.414 155.317 186.876 145.916C188.715 134.037 189.349 122.004 188.767 109.998C188.466 103.753 186.831 97.645 183.97 92.0858C181.109 86.5267 177.09 81.6454 172.183 77.771C172.183 77.771 166.184 103.915 173.727 140C170.845 153.704 135.677 160.525 135.677 160.525Z" fill="#FAAF3A"/>
<path d="M141.936 7.18682C141.936 7.18682 145.51 -1.41735 154.958 0.203217C161.564 1.33608 164.378 9.56576 163.989 22.275C163.423 40.7719 169.679 51.9176 169.679 51.9176L161.375 53.8054C161.375 53.8054 140.237 22.0962 141.936 7.18682Z" fill="#39393B"/>
<path d="M66.1954 207.874H79.6093C79.6093 207.874 82.7134 192.985 83.7552 184.638C84.797 176.29 85.3375 156.494 85.3375 156.494C85.3375 156.494 96.0287 159.966 118.406 158.657C167.989 155.763 149.188 119.334 149.188 119.334C147.513 121.647 137.252 120.043 130.238 121.149C108.71 123.214 90.0409 131.664 78.8365 136.497C76.3514 137.552 73.9461 138.785 71.6393 140.187C68.9378 141.853 67.2474 146.903 66.2294 153.55C63.1687 173.517 66.1954 207.874 66.1954 207.874Z" fill="#39393B"/>
<path d="M77.9445 200.699C78.0553 200.699 78.1625 200.661 78.2481 200.59C78.3337 200.52 78.3924 200.422 78.4144 200.314C80.349 190.735 80.9984 178.813 81.521 169.235C81.9542 161.292 82.3628 153.789 83.3833 152.887C84.2098 152.156 87.639 152.727 91.9858 153.448C100.627 154.882 113.69 157.05 128.089 153.703C135.934 151.878 141.701 148.067 145.231 142.377C151.316 132.564 148.541 120.399 148.513 120.276C148.499 120.215 148.472 120.157 148.436 120.105C148.399 120.054 148.352 120.011 148.298 119.977C148.245 119.944 148.185 119.922 148.123 119.912C148.06 119.901 147.996 119.904 147.935 119.918C147.874 119.933 147.816 119.959 147.764 119.996C147.713 120.033 147.67 120.08 147.636 120.133C147.603 120.187 147.581 120.247 147.571 120.309C147.56 120.371 147.563 120.435 147.577 120.497C147.604 120.615 150.286 132.408 144.408 141.877C141.018 147.338 135.453 151.002 127.87 152.767C113.656 156.074 100.708 153.926 92.1415 152.504C87.0109 151.653 83.9144 151.138 82.7458 152.171C81.4836 153.286 81.1286 158.772 80.5601 169.185C80.04 178.733 79.3923 190.617 77.4713 200.127C77.457 200.196 77.4584 200.268 77.4755 200.338C77.4925 200.407 77.5248 200.471 77.5698 200.526C77.6149 200.581 77.6717 200.626 77.7361 200.656C77.8004 200.686 77.8708 200.702 77.942 200.702L77.9445 200.699Z" fill="#585859"/>
<path d="M65.9383 200.952H65.9494L80.8664 200.632C80.9295 200.631 80.9916 200.617 81.0494 200.592C81.1071 200.566 81.1593 200.53 81.2029 200.484C81.2466 200.439 81.2808 200.385 81.3037 200.326C81.3266 200.268 81.3376 200.205 81.3363 200.142C81.3356 200.079 81.3224 200.016 81.2972 199.958C81.2721 199.9 81.2356 199.848 81.19 199.804C81.1443 199.76 81.0904 199.726 81.0313 199.703C80.9722 199.681 80.9092 199.67 80.846 199.672L65.9289 199.992C65.8016 199.994 65.6801 200.045 65.591 200.136C65.5019 200.227 65.4527 200.35 65.454 200.477C65.4554 200.605 65.5072 200.726 65.5982 200.815C65.6892 200.904 65.8118 200.954 65.9392 200.952H65.9383Z" fill="#585859"/>
<path d="M66.5638 225.061H76.0319L77.8551 213.952L78.8534 207.874H67.0907L66.9043 213.952L66.5638 225.061Z" fill="#FFC0C0"/>
<path d="M66.5638 225.06H76.0319L77.3937 216.79L77.8593 213.952H66.9043L66.8132 216.894L66.5638 225.06Z" fill="#FAAF3A"/>
<path d="M66.8132 216.894L77.3903 216.79L77.8559 213.952H66.9035L66.8132 216.894Z" fill="#C77E2E"/>
<path d="M43.1975 240.016H79.0109C79.3027 239.393 79.463 238.715 79.4816 238.027C79.7055 234.998 78.7403 230.163 78.267 227.116C78.2092 226.759 78.1598 226.427 78.1215 226.127C78.0617 225.714 78.0262 225.298 78.0151 224.88C78.0603 224.587 78.0331 224.287 77.936 224.006C77.8389 223.725 77.6748 223.472 77.4579 223.269C77.2409 223.066 76.9778 222.919 76.6912 222.841C76.4046 222.763 76.1032 222.755 75.8132 222.82C72.1882 226.374 68.0857 221.045 65.6898 222.793C65.6898 222.793 65.5927 222.864 65.3723 223.035C65.1714 223.194 64.8616 223.44 64.442 223.796C63.8309 224.307 62.9746 225.047 61.8145 226.09C58.9726 228.648 54.1372 230.336 50.0194 232.057C49.4946 232.277 49.0066 232.496 48.5555 232.714C48.215 232.88 47.891 233.046 47.5835 233.211C44.2189 235.029 43.1473 236.765 42.9022 238.027C42.7505 238.704 42.8557 239.413 43.1975 240.016Z" fill="#BA68C8"/>
<path d="M47.5825 233.211C48.5052 233.945 50.5573 235.413 52.2017 235.413C52.274 235.413 52.3472 235.413 52.4178 235.406C53.5796 235.309 57.8481 233.211 61.3199 231.303C63.3107 230.209 65.1271 229.133 66.4344 228.27C68.5776 226.857 68.9495 226.317 69.0338 225.943C69.347 224.53 67.0106 223.544 65.3739 223.034C65.173 223.193 64.8632 223.439 64.4436 223.795C66.4787 224.349 68.1503 225.22 68.0729 225.715C67.8737 226.134 65.7535 227.75 60.6858 230.524C56.8191 232.639 53.1524 234.354 52.3378 234.419C51.2314 234.504 49.6142 233.505 48.5571 232.717C48.2127 232.88 47.8878 233.045 47.5825 233.211Z" fill="#8C2C8C"/>
<path d="M43.1983 240.015H79.01C79.3024 239.392 79.4629 238.715 79.4816 238.026H42.9047C42.7524 238.703 42.857 239.412 43.1983 240.015Z" fill="#8C2C8C"/>
<path d="M75.3561 240.015H76.4201C75.7364 239.234 75.2143 238.325 74.884 237.341C74.5537 236.357 74.4217 235.317 74.4956 234.281C74.5953 232.891 74.9818 231.537 75.6307 230.303C76.2796 229.07 77.177 227.984 78.2662 227.115C78.2092 226.758 78.1598 226.426 78.1206 226.125C76.8275 227.069 75.7566 228.284 74.9831 229.686C74.2095 231.088 73.7521 232.641 73.6428 234.239C73.5067 236.307 74.1144 238.356 75.3561 240.015Z" fill="#8C2C8C"/>
<path d="M62.4214 228.201C62.5652 228.2 62.7038 228.147 62.8113 228.051C62.9187 227.956 62.9875 227.824 63.0049 227.681C63.0222 227.539 62.9868 227.394 62.9054 227.276C62.824 227.157 62.7021 227.072 62.5627 227.037L60.3259 226.482C60.175 226.447 60.0163 226.473 59.8842 226.554C59.752 226.635 59.657 226.764 59.6197 226.915C59.5823 227.065 59.6057 227.224 59.6846 227.357C59.7636 227.491 59.8918 227.588 60.0416 227.627L62.2784 228.183C62.3252 228.194 62.3732 228.2 62.4214 228.201Z" fill="white"/>
<path d="M64.6437 226.338C64.788 226.339 64.9274 226.286 65.0356 226.191C65.1437 226.095 65.2131 225.963 65.2307 225.82C65.2482 225.677 65.2126 225.532 65.1306 225.413C65.0486 225.295 64.926 225.21 64.7859 225.176L62.5491 224.62C62.4726 224.598 62.3925 224.591 62.3134 224.6C62.2344 224.61 62.158 224.635 62.089 224.675C62.02 224.714 61.9597 224.768 61.9117 224.831C61.8638 224.895 61.8292 224.967 61.81 225.045C61.7908 225.122 61.7875 225.202 61.8001 225.281C61.8128 225.359 61.8412 225.435 61.8837 225.502C61.9262 225.569 61.9818 225.627 62.0473 225.673C62.1128 225.718 62.1868 225.75 62.2648 225.766L64.5016 226.321C64.548 226.333 64.5958 226.339 64.6437 226.338Z" fill="white"/>
<path d="M60.1846 229.501C60.3284 229.501 60.467 229.447 60.5744 229.352C60.6819 229.256 60.7507 229.125 60.768 228.982C60.7854 228.839 60.75 228.695 60.6686 228.576C60.5872 228.458 60.4653 228.373 60.3258 228.338L58.089 227.783C57.9381 227.748 57.7795 227.773 57.6473 227.854C57.5152 227.935 57.4202 228.065 57.3829 228.215C57.3455 228.365 57.3688 228.524 57.4478 228.658C57.5267 228.791 57.655 228.888 57.8048 228.928L60.0416 229.483C60.0883 229.495 60.1363 229.501 60.1846 229.501Z" fill="white"/>
<path d="M57.9468 230.752C58.0907 230.751 58.2293 230.698 58.3367 230.602C58.4442 230.506 58.513 230.375 58.5303 230.232C58.5477 230.089 58.5123 229.945 58.4309 229.827C58.3495 229.708 58.2276 229.623 58.0881 229.588L55.8513 229.033C55.7755 229.012 55.6962 229.007 55.6183 229.017C55.5403 229.028 55.4653 229.054 55.3974 229.094C55.3296 229.133 55.2705 229.186 55.2234 229.249C55.1764 229.312 55.1424 229.384 55.1235 229.46C55.1046 229.537 55.1011 229.616 55.1134 229.694C55.1256 229.771 55.1532 229.846 55.1946 229.913C55.236 229.98 55.2904 230.038 55.3545 230.083C55.4186 230.129 55.4912 230.161 55.5679 230.178L57.8047 230.733C57.8511 230.745 57.8989 230.751 57.9468 230.752Z" fill="white"/>
<path d="M55.5075 231.907C55.6514 231.907 55.79 231.854 55.8974 231.758C56.0049 231.662 56.0737 231.531 56.091 231.388C56.1084 231.245 56.073 231.101 55.9916 230.982C55.9102 230.864 55.7883 230.779 55.6488 230.744L53.412 230.189C53.2611 230.154 53.1025 230.18 52.9703 230.26C52.8382 230.341 52.7432 230.471 52.7059 230.621C52.6685 230.772 52.6918 230.931 52.7708 231.064C52.8497 231.197 52.978 231.294 53.1278 231.334L55.3646 231.89C55.4113 231.901 55.4593 231.907 55.5075 231.907Z" fill="white"/>
<path d="M52.8621 232.894C53.007 232.895 53.1471 232.843 53.2559 232.747C53.3646 232.651 53.4344 232.519 53.4519 232.375C53.4693 232.231 53.4333 232.086 53.3506 231.967C53.2679 231.848 53.1443 231.764 53.0034 231.73L50.7666 231.176C50.691 231.156 50.6122 231.151 50.5348 231.162C50.4573 231.172 50.3828 231.198 50.3155 231.238C50.2483 231.278 50.1896 231.331 50.1429 231.394C50.0962 231.456 50.0625 231.528 50.0436 231.604C50.0248 231.68 50.0212 231.758 50.0331 231.836C50.045 231.913 50.0722 231.987 50.113 232.054C50.1539 232.12 50.2075 232.178 50.2709 232.224C50.3343 232.27 50.4062 232.303 50.4824 232.32L52.7192 232.875C52.7658 232.888 52.8139 232.894 52.8621 232.894Z" fill="white"/>
<path d="M174.019 107.783C174.019 107.783 174.445 110.677 170.567 111.489L130.166 112.835C129.347 112.371 128.693 111.664 128.292 110.813C127.891 109.961 127.764 109.006 127.928 108.079C127.928 108.079 144.986 98.4995 174.019 107.783Z" fill="#8C2C8C"/>
<path d="M129.612 121.146C150.584 132.681 173.482 123.393 173.482 123.393C172.38 120.252 171.527 117.029 170.929 113.755C170.23 110.107 169.838 106.886 169.659 105.192C160.738 104.703 138.872 103.772 130.303 105.805L130.238 109.239L129.612 121.146Z" fill="#FFC0C0"/>
<path d="M145.104 115.613C145.259 116.694 145.746 117.518 146.194 117.454C146.642 117.391 146.875 116.461 146.723 115.38C146.572 114.299 146.08 113.474 145.633 113.538C145.186 113.603 144.949 114.532 145.104 115.613Z" fill="#D96C63"/>
<path d="M130.238 109.239C139.168 108.696 156.74 108.508 170.931 113.756C170.232 110.108 169.84 106.888 169.661 105.194C160.74 104.704 138.873 103.774 130.305 105.807L130.238 109.239Z" fill="#D96C63"/>
<path d="M120.273 92.6454C120.355 92.8957 120.456 93.1392 120.575 93.374C120.617 93.4591 120.66 93.5442 120.709 93.6293C121.842 95.5877 123.303 97.3375 125.027 98.8026C125.33 99.0681 125.623 99.3132 125.889 99.5311C126.428 99.9678 126.884 100.307 127.197 100.531C127.486 100.738 127.655 100.844 127.655 100.844C127.655 100.864 127.655 100.884 127.66 100.907C127.677 101.062 127.689 101.226 127.703 101.399C127.753 102.058 127.797 102.845 127.829 103.742C127.858 104.464 127.878 105.255 127.897 106.105C127.908 106.736 127.92 107.395 127.928 108.081C139.779 102.787 164.186 106.123 174.018 107.783C173.838 106.932 173.673 106.101 173.522 105.29C172.887 101.938 172.473 98.5481 172.282 95.1418C172.131 89.0369 172.504 82.9303 173.397 76.8891C173.459 76.4346 173.522 75.9844 173.588 75.5273C173.631 75.2311 173.673 74.9375 173.723 74.6413C174.059 72.4479 174.448 70.2502 174.894 68.119C176.832 58.8194 175.472 49.0535 166.042 47.9027C165.361 47.8176 164.68 47.7427 164.028 47.6729C159.583 47.1988 155.927 47.0363 154.911 46.9971L154.63 46.986L136.402 52.2801L134.668 52.7832C133.671 53.104 132.751 53.4138 131.899 53.7194C131.536 53.8513 131.183 53.9799 130.844 54.1058C129.96 54.4378 129.158 54.7621 128.431 55.0829C127.193 55.6054 126.01 56.2501 124.9 57.0074C120.9 59.8459 121.521 63.0504 121.623 69.388C121.623 69.417 121.623 69.4451 121.623 69.4731C121.623 69.554 121.623 69.6332 121.623 69.7174C121.623 69.7532 121.623 69.7898 121.623 69.8255C121.623 70.0809 121.623 70.343 121.623 70.6009C121.618 71.4186 121.59 72.234 121.538 73.0471C121.47 74.2429 121.364 75.4303 121.233 76.5972C121.182 77.0645 121.128 77.5292 121.071 77.9888C121.018 78.422 120.962 78.8527 120.906 79.2791C120.187 84.8251 119.284 89.6852 120.273 92.6454Z" fill="#BA68C8"/>
<path d="M121.628 69.4732C121.628 69.5541 121.628 69.6332 121.628 69.7175C121.628 69.7532 121.628 69.7898 121.628 69.8256C121.628 70.0809 121.628 70.3431 121.628 70.601L125.459 73.0046C125.518 73.0444 125.585 73.0719 125.655 73.0854C125.725 73.0989 125.797 73.0982 125.867 73.0833C125.937 73.0684 126.004 73.0397 126.062 72.9987C126.121 72.9578 126.171 72.9055 126.209 72.8449C126.247 72.7844 126.272 72.7168 126.284 72.6462C126.295 72.5756 126.292 72.5035 126.275 72.434C126.258 72.3645 126.228 72.2992 126.185 72.2418C126.142 72.1844 126.089 72.1361 126.027 72.0998L121.965 69.5515C121.865 69.4888 121.746 69.4613 121.628 69.4732Z" fill="#8C2C8C"/>
<path d="M146.883 89.9899C146.991 89.9905 147.098 89.9578 147.188 89.8963C147.278 89.8347 147.347 89.7473 147.385 89.6455C147.424 89.5438 147.431 89.4327 147.405 89.3269C147.379 89.2212 147.322 89.1258 147.24 89.0537L143.676 85.8466C143.623 85.7996 143.562 85.7634 143.496 85.74C143.43 85.7166 143.36 85.7065 143.29 85.7102C143.22 85.7139 143.151 85.7314 143.088 85.7617C143.024 85.7919 142.967 85.8344 142.921 85.8866C142.874 85.9388 142.837 85.9997 142.814 86.0659C142.791 86.1321 142.78 86.2022 142.784 86.2724C142.788 86.3425 142.805 86.4111 142.836 86.4745C142.866 86.5378 142.908 86.5946 142.961 86.6415L146.524 89.8486C146.622 89.9388 146.75 89.9892 146.883 89.9899Z" fill="#8C2C8C"/>
<path d="M120.918 79.2757L123.359 81.4734C123.464 81.5683 123.603 81.6175 123.745 81.61C123.886 81.6026 124.019 81.5392 124.114 81.4338C124.209 81.3284 124.258 81.1896 124.251 81.0479C124.243 80.9062 124.18 80.7733 124.075 80.6784L121.083 77.9854C121.03 78.4246 120.975 78.8502 120.918 79.2757Z" fill="#8C2C8C"/>
<path d="M154.11 77.0926C154.172 77.0038 154.205 76.8984 154.206 76.7903C154.206 76.6822 154.174 76.5766 154.113 76.4872C154.052 76.3979 153.966 76.3291 153.865 76.29C153.764 76.2508 153.654 76.2431 153.549 76.2678L148.881 77.3675C148.813 77.3836 148.748 77.413 148.691 77.454C148.634 77.4951 148.586 77.5469 148.549 77.6066C148.512 77.6663 148.487 77.7327 148.476 77.802C148.465 77.8713 148.467 77.9422 148.483 78.0105C148.499 78.0789 148.529 78.1434 148.57 78.2004C148.611 78.2574 148.663 78.3057 148.722 78.3427C148.782 78.3796 148.848 78.4045 148.918 78.4157C148.987 78.427 149.058 78.4245 149.126 78.4085L153.794 77.3088C153.922 77.2783 154.035 77.2013 154.11 77.0926Z" fill="#8C2C8C"/>
<path d="M170.76 86.2474C170.869 86.2474 170.974 86.2146 171.063 86.1534C171.152 86.0921 171.221 86.0053 171.26 85.9043C171.298 85.8033 171.306 85.693 171.28 85.5878C171.255 85.4827 171.198 85.3877 171.118 85.3154L167.553 82.1075C167.448 82.0126 167.309 81.9636 167.168 81.9711C167.026 81.9786 166.893 82.042 166.798 82.1475C166.704 82.2529 166.655 82.3917 166.662 82.5332C166.67 82.6748 166.733 82.8076 166.838 82.9024L170.402 86.1095C170.5 86.1984 170.628 86.2476 170.76 86.2474Z" fill="#8C2C8C"/>
<path d="M129.279 85.4848C129.245 85.3823 129.18 85.2927 129.094 85.2277C129.008 85.1626 128.904 85.1253 128.796 85.1205C128.688 85.1157 128.581 85.1437 128.49 85.2008C128.398 85.258 128.326 85.3415 128.283 85.4405L126.368 89.8366C126.314 89.9662 126.313 90.1116 126.366 90.2417C126.418 90.3717 126.52 90.4758 126.648 90.5316C126.777 90.5875 126.923 90.5905 127.053 90.5401C127.184 90.4897 127.29 90.3899 127.348 90.2622L129.262 85.8661C129.315 85.7454 129.321 85.6096 129.279 85.4848Z" fill="#8C2C8C"/>
<path d="M120.27 92.6455C120.352 92.8957 120.452 93.1393 120.571 93.374C120.614 93.4592 120.656 93.5443 120.706 93.6294L123.309 92.808C123.444 92.7652 123.556 92.6707 123.622 92.5452C123.687 92.4197 123.7 92.2734 123.658 92.1382C123.616 92.0029 123.521 91.8901 123.395 91.8245C123.27 91.759 123.123 91.7459 122.988 91.7884L120.27 92.6455Z" fill="#8C2C8C"/>
<path d="M134.99 93.0284C134.882 93.0173 134.774 93.0392 134.679 93.0911C134.584 93.143 134.507 93.2225 134.458 93.3191C134.409 93.4157 134.391 93.5248 134.405 93.632C134.42 93.7392 134.467 93.8395 134.539 93.9195L137.761 97.4705C137.808 97.5225 137.865 97.5648 137.929 97.5948C137.992 97.6248 138.061 97.642 138.131 97.6455C138.201 97.6489 138.271 97.6385 138.337 97.6148C138.404 97.5911 138.464 97.5547 138.516 97.5075C138.568 97.4604 138.611 97.4034 138.641 97.3399C138.671 97.2764 138.688 97.2076 138.691 97.1375C138.695 97.0674 138.684 96.9972 138.661 96.9311C138.637 96.865 138.601 96.8042 138.553 96.7521L135.331 93.2012C135.242 93.1034 135.121 93.0418 134.99 93.0284Z" fill="#8C2C8C"/>
<path d="M136.887 84.8439C136.993 84.8255 137.092 84.7752 137.169 84.6996C137.247 84.624 137.3 84.5267 137.321 84.4205C137.341 84.3143 137.33 84.2043 137.287 84.105C137.244 84.0056 137.172 83.9217 137.08 83.8642L133.018 81.3108C132.959 81.2734 132.893 81.2482 132.823 81.2364C132.754 81.2247 132.683 81.2267 132.615 81.2424C132.547 81.258 132.482 81.287 132.425 81.3277C132.367 81.3683 132.319 81.4198 132.281 81.4793C132.244 81.5388 132.219 81.605 132.207 81.6742C132.195 81.7434 132.197 81.8143 132.213 81.8827C132.229 81.9512 132.258 82.0159 132.298 82.0731C132.339 82.1304 132.39 82.179 132.45 82.2164L136.511 84.7698C136.623 84.8403 136.757 84.8667 136.887 84.8439Z" fill="#8C2C8C"/>
<path d="M134.3 69.3999C134.228 69.4805 134.182 69.5811 134.168 69.6883C134.155 69.7955 134.174 69.9044 134.223 70.0006C134.273 70.0968 134.35 70.1757 134.445 70.2269C134.54 70.2782 134.649 70.2994 134.756 70.2877L139.523 69.7685C139.664 69.7531 139.793 69.6824 139.882 69.5719C139.971 69.4613 140.012 69.32 139.996 69.1791C139.981 69.0381 139.91 68.909 139.8 68.8202C139.689 68.7313 139.548 68.69 139.407 68.7054L134.641 69.2246C134.509 69.2386 134.388 69.3011 134.3 69.3999Z" fill="#8C2C8C"/>
<path d="M141.23 59.062C141.205 58.9568 141.148 58.8617 141.067 58.7895C140.987 58.7172 140.886 58.6712 140.779 58.6575C140.671 58.6439 140.562 58.6632 140.466 58.7129C140.37 58.7627 140.291 58.8405 140.24 58.9361L137.971 63.1603C137.938 63.2221 137.917 63.2899 137.91 63.3598C137.903 63.4297 137.91 63.5002 137.93 63.5674C137.951 63.6347 137.984 63.6972 138.028 63.7516C138.073 63.8059 138.128 63.851 138.189 63.8842C138.251 63.9174 138.319 63.9381 138.389 63.945C138.459 63.952 138.529 63.9452 138.597 63.9249C138.664 63.9047 138.726 63.8714 138.781 63.8269C138.835 63.7824 138.88 63.7277 138.913 63.6659L141.182 59.4417C141.245 59.3254 141.262 59.1901 141.23 59.062Z" fill="#8C2C8C"/>
<path d="M125.027 98.8017C125.33 99.0673 125.623 99.3124 125.889 99.5303L126.517 97.9336C126.542 97.8683 126.555 97.7986 126.554 97.7284C126.553 97.6583 126.538 97.589 126.51 97.5246C126.482 97.4603 126.441 97.4021 126.391 97.3534C126.34 97.3047 126.281 97.2664 126.215 97.2407C126.15 97.2149 126.08 97.2023 126.01 97.2034C125.94 97.2046 125.87 97.2196 125.806 97.2476C125.742 97.2756 125.683 97.316 125.635 97.3665C125.586 97.4171 125.547 97.4767 125.522 97.5421L125.027 98.8017Z" fill="#8C2C8C"/>
<path d="M168.855 90.6785C168.906 90.5832 168.927 90.4747 168.915 90.3672C168.903 90.2597 168.859 90.1583 168.789 90.0765C168.718 89.9946 168.624 89.9361 168.52 89.9086C168.415 89.8811 168.305 89.8861 168.203 89.9227L163.692 91.5458C163.626 91.5696 163.565 91.6061 163.513 91.6533C163.461 91.7005 163.419 91.7575 163.389 91.821C163.329 91.9493 163.322 92.0963 163.37 92.2297C163.418 92.3631 163.517 92.472 163.645 92.5324C163.773 92.5928 163.92 92.5998 164.054 92.5518L168.565 90.9287C168.689 90.8843 168.793 90.7951 168.855 90.6785Z" fill="#8C2C8C"/>
<path d="M166.646 96.7761C166.538 96.7766 166.432 96.8101 166.343 96.8722C166.254 96.9342 166.186 97.0219 166.148 97.1235C166.11 97.2251 166.104 97.3358 166.13 97.441C166.157 97.5461 166.215 97.6408 166.296 97.7123L169.887 100.89C169.993 100.983 170.133 101.031 170.274 101.023C170.416 101.014 170.548 100.949 170.642 100.843C170.736 100.737 170.783 100.598 170.775 100.456C170.766 100.315 170.702 100.183 170.595 100.089L167.004 96.9114C166.906 96.8236 166.778 96.7754 166.646 96.7761Z" fill="#8C2C8C"/>
<path d="M160.138 101.822C160.071 101.907 160.031 102.011 160.024 102.119C160.016 102.227 160.042 102.335 160.098 102.428C160.153 102.521 160.235 102.595 160.334 102.64C160.432 102.686 160.542 102.7 160.649 102.681L165.376 101.876C165.516 101.852 165.641 101.774 165.723 101.658C165.805 101.542 165.837 101.399 165.814 101.259C165.79 101.119 165.711 100.995 165.596 100.912C165.48 100.83 165.336 100.798 165.197 100.822L160.465 101.63C160.336 101.652 160.22 101.721 160.138 101.822Z" fill="#8C2C8C"/>
<path d="M156.185 56.9333C156.213 56.8289 156.209 56.7184 156.173 56.6163C156.137 56.5143 156.072 56.4255 155.984 56.3616C155.897 56.2978 155.792 56.262 155.684 56.2589C155.576 56.2558 155.469 56.2856 155.379 56.3443L151.35 58.9437C151.29 58.981 151.237 59.03 151.196 59.0879C151.154 59.1458 151.125 59.2113 151.109 59.2807C151.093 59.3502 151.091 59.422 151.104 59.4921C151.116 59.5622 151.143 59.6291 151.181 59.6889C151.22 59.7487 151.27 59.8002 151.329 59.8403C151.387 59.8805 151.454 59.9085 151.523 59.9227C151.593 59.937 151.665 59.9371 151.735 59.9232C151.805 59.9093 151.871 59.8816 151.93 59.8417L155.958 57.2423C156.069 57.1707 156.15 57.0607 156.185 56.9333Z" fill="#8C2C8C"/>
<path d="M128.695 59.9958C128.6 59.9445 128.491 59.9232 128.384 59.9347C128.276 59.9461 128.175 59.9898 128.093 60.0599C128.011 60.1301 127.952 60.2235 127.924 60.3278C127.895 60.4321 127.9 60.5424 127.935 60.6443L129.539 65.1639C129.59 65.2931 129.688 65.3975 129.815 65.4552C129.941 65.5128 130.085 65.519 130.215 65.4726C130.346 65.4262 130.454 65.3307 130.515 65.2064C130.577 65.0821 130.588 64.9386 130.546 64.8064L128.943 60.2877C128.899 60.163 128.811 60.0589 128.695 59.9958Z" fill="#8C2C8C"/>
<path d="M130.846 54.1093L133.323 57.2849C133.366 57.3402 133.42 57.3866 133.481 57.4213C133.542 57.4559 133.609 57.4782 133.679 57.4868C133.749 57.4955 133.819 57.4903 133.887 57.4717C133.955 57.453 134.018 57.4212 134.073 57.3781C134.129 57.3349 134.175 57.2813 134.21 57.2202C134.244 57.1592 134.267 57.0919 134.275 57.0222C134.284 56.9526 134.279 56.8819 134.26 56.8142C134.242 56.7465 134.21 56.6832 134.167 56.6278L131.902 53.7228C131.538 53.8539 131.185 53.9799 130.846 54.1093Z" fill="#8C2C8C"/>
<path d="M155.062 97.9625C155.025 98.0717 154.946 98.1619 154.843 98.2137C154.74 98.2654 154.62 98.2745 154.51 98.2391C149.229 96.7721 143.614 97.0682 138.516 99.0826C135.108 100.584 131.43 101.372 127.706 101.399C127.694 101.228 127.68 101.058 127.665 100.907L127.66 100.845C127.66 100.845 127.489 100.737 127.202 100.531C130.982 100.586 134.729 99.8165 138.181 98.2766C143.466 96.1497 149.309 95.8454 154.786 97.4118C154.896 97.4483 154.986 97.5269 155.038 97.6301C155.09 97.7334 155.098 97.8529 155.062 97.9625Z" fill="#8C2C8C"/>
<path d="M136.406 52.2835C137.427 53.8666 139.535 55.6609 143.801 55.3476C149.687 54.9221 153.561 49.3045 154.913 46.9962C154.729 46.9886 154.633 46.9869 154.633 46.9869L136.406 52.2835Z" fill="#8C2C8C"/>
<path d="M142.666 62.7024C142.494 62.7377 142.321 62.7624 142.146 62.7764C141.429 62.8715 140.699 62.7937 140.018 62.5498C139.337 62.3058 138.724 61.9026 138.231 61.3737C135.401 58.2807 136.563 51.2324 136.614 50.9328C136.633 50.8188 136.697 50.7172 136.791 50.6503C136.886 50.5834 137.003 50.5568 137.117 50.5762C137.231 50.5956 137.332 50.6595 137.399 50.7538C137.466 50.8482 137.493 50.9652 137.473 51.0792C137.461 51.1481 136.331 58.0075 138.874 60.7822C139.278 61.2136 139.781 61.5409 140.338 61.7362C140.896 61.9316 141.493 61.9891 142.078 61.904C147.781 61.4444 154.173 46.958 154.236 46.8116C154.285 46.709 154.372 46.6293 154.478 46.5894C154.584 46.5496 154.702 46.5527 154.806 46.598C154.91 46.6434 154.992 46.7275 155.035 46.8325C155.078 46.9375 155.079 47.0552 155.037 47.1606C154.774 47.764 148.712 61.4759 142.666 62.7024Z" fill="white"/>
<path d="M124.904 57.0074C125.208 62.5558 124.052 68.0868 121.553 73.0497C121.616 71.9789 121.645 70.9048 121.638 69.8273C121.638 69.7915 121.638 69.7541 121.638 69.7183C121.638 69.6077 121.634 69.4987 121.632 69.3906C121.525 63.0547 120.904 59.8451 124.904 57.0074Z" fill="#FFC0C0"/>
<path d="M158.432 64.3655C160.523 72.4343 168.169 78.9089 173.397 76.8891C173.459 76.4355 173.523 75.9844 173.59 75.5273C173.632 75.232 173.675 74.9383 173.724 74.6413C174.059 72.4479 174.45 70.2511 174.896 68.119C176.833 58.8194 175.472 49.0586 166.044 47.9027C165.363 47.8176 164.682 47.7427 164.03 47.6729C159.309 49.6867 156.028 55.0744 158.432 64.3655Z" fill="#FFC0C0"/>
<path d="M157.354 58.2118L145.098 103.012L149.466 97.9779C147.708 98.8838 145.837 99.5516 143.903 99.9636C141.7 100.436 139.461 100.723 137.21 100.822C134.847 100.944 132.384 100.923 129.867 100.822C127.351 100.72 124.776 100.528 122.164 100.305H122.15C120.345 100.153 118.551 100.707 117.146 101.849C115.74 102.992 114.832 104.635 114.612 106.433C114.393 108.232 114.878 110.045 115.968 111.492C117.057 112.94 118.664 113.909 120.453 114.196C123.147 114.622 125.887 115.032 128.697 115.357C131.508 115.682 134.39 115.926 137.372 115.994C140.47 116.081 143.57 115.91 146.64 115.483C149.987 115.018 153.258 114.114 156.369 112.795C157.353 112.371 158.237 111.746 158.962 110.958C159.688 110.171 160.24 109.24 160.582 108.225L160.737 107.76L175.436 63.7008C176.229 61.3226 176.045 58.7266 174.925 56.4839C173.804 54.2412 171.838 52.5356 169.46 51.7423C167.082 50.9489 164.486 51.1328 162.243 52.2535C160 53.3742 158.295 55.3399 157.501 57.7181C157.454 57.8696 157.398 58.0552 157.354 58.2118Z" fill="#FFC0C0"/>
<path d="M151.871 101.578C151.952 101.579 152.031 101.553 152.095 101.504C152.159 101.455 152.205 101.386 152.226 101.308C152.247 101.23 152.241 101.147 152.209 101.073C152.178 100.998 152.122 100.936 152.051 100.897C150.319 99.9432 148.419 99.3339 146.455 99.103C146.408 99.0993 146.36 99.105 146.315 99.1198C146.269 99.1345 146.227 99.1581 146.191 99.1891C146.155 99.2201 146.125 99.2578 146.104 99.3003C146.082 99.3428 146.069 99.3891 146.065 99.4366C146.062 99.4841 146.067 99.5319 146.082 99.5772C146.097 99.6225 146.121 99.6644 146.152 99.7006C146.182 99.7368 146.22 99.7666 146.263 99.7882C146.305 99.8097 146.352 99.8228 146.399 99.8264C148.255 100.055 150.05 100.633 151.691 101.529C151.746 101.56 151.808 101.577 151.871 101.578Z" fill="#D96C63"/>
<path d="M147.42 99.9618C147.486 99.9618 147.551 99.9435 147.608 99.909C148.764 99.2587 150.043 98.8561 151.363 98.7268C151.41 98.7234 151.457 98.7108 151.499 98.6895C151.542 98.6682 151.58 98.6388 151.611 98.6028C151.642 98.5668 151.666 98.5251 151.681 98.4799C151.696 98.4347 151.702 98.387 151.699 98.3395C151.696 98.292 151.683 98.2457 151.662 98.203C151.64 98.1604 151.611 98.1224 151.575 98.0912C151.539 98.06 151.497 98.0362 151.452 98.0211C151.407 98.006 151.359 98 151.312 98.0033C149.876 98.1373 148.484 98.5754 147.231 99.2886C147.163 99.3299 147.111 99.3921 147.082 99.4658C147.053 99.5394 147.049 99.6204 147.071 99.6966C147.092 99.7727 147.138 99.8398 147.201 99.8877C147.264 99.9356 147.34 99.9616 147.42 99.9618Z" fill="#D96C63"/>
<path d="M136.494 76.3478C131.072 77.4466 128.7 71.8368 128.676 71.7831C128.632 71.6761 128.632 71.556 128.677 71.4493C128.721 71.3425 128.806 71.2577 128.913 71.2137C129.02 71.1697 129.14 71.17 129.247 71.2145C129.354 71.2591 129.439 71.3442 129.483 71.4512C129.568 71.6631 131.611 76.4465 136.321 75.4924C141.257 74.4915 150.474 64.768 150.567 64.6736C150.648 64.5993 150.755 64.5585 150.865 64.5592C150.975 64.5599 151.08 64.6021 151.161 64.6774C151.241 64.7527 151.29 64.8555 151.297 64.9652C151.305 65.075 151.271 65.1836 151.202 65.2694C150.817 65.6805 141.702 75.2932 136.494 76.3478Z" fill="#8C2C8C"/>
<path d="M145.018 41.062C145.018 41.062 153.719 39.4244 156.173 30.6432C158.508 22.2825 156.712 17.9459 154.282 13.4289C152.452 10.0244 146.649 5.42821 138.51 7.07942C130.293 8.7451 124.151 12.9616 123.244 19.7171C121.545 32.3591 131.745 47.7835 145.018 41.062Z" fill="#39393B"/>
<path d="M155.759 31.9966C155.839 31.9967 155.918 31.9755 155.987 31.9353C156.056 31.8951 156.114 31.8372 156.153 31.7676C157.33 29.3681 158.005 26.7544 158.14 24.0855C158.274 21.4165 157.864 18.7482 156.934 16.2428C156.282 14.2206 155.186 12.3702 153.724 10.8279C152.263 9.28564 150.475 8.09081 148.49 7.33139C146.678 6.6211 144.746 6.2643 142.799 6.28024C142.739 6.28309 142.681 6.29763 142.627 6.32304C142.573 6.34845 142.525 6.38423 142.485 6.42833C142.404 6.5174 142.362 6.63497 142.367 6.75517C142.373 6.87537 142.426 6.98837 142.515 7.0693C142.605 7.15022 142.722 7.19246 142.842 7.1867C144.675 7.18294 146.491 7.52363 148.198 8.19104C150.056 8.89946 151.73 10.0188 153.095 11.4655C154.459 12.9121 155.479 14.6486 156.078 16.545C156.946 18.9317 157.329 21.4672 157.207 24.0036C157.084 26.5401 156.459 29.0268 155.366 31.3191C155.307 31.4236 155.291 31.5474 155.323 31.6632C155.355 31.7791 155.432 31.8775 155.536 31.937C155.604 31.9761 155.681 31.9967 155.759 31.9966Z" fill="#FAAF3A"/>
<path d="M128.142 32.1396C128.142 32.1396 125.31 29.9028 124.567 32.8639C123.824 35.825 125.923 41.0876 129.219 39.4892L128.142 32.1396Z" fill="#D96C63"/>
<path d="M130.907 37.5801C131.639 37.8234 132.297 38.2512 132.816 38.8223C133.336 39.3933 133.7 40.0885 133.873 40.8408C134.026 41.5961 133.972 42.3788 133.715 43.1057C133.459 43.8325 133.011 44.4763 132.418 44.9686C131.825 45.461 131.109 45.7834 130.348 45.9016C129.586 46.0198 128.807 45.9294 128.092 45.64C127.378 45.3506 126.756 44.873 126.291 44.2581C125.827 43.6431 125.537 42.9138 125.454 42.1475C125.371 41.3813 125.497 40.6069 125.819 39.9067C126.141 39.2064 126.647 38.6065 127.283 38.1707C127.754 37.8462 128.286 37.6209 128.847 37.5086L128.889 37.5009C128.934 37.6183 128.947 37.7458 128.926 37.8699C128.906 37.9941 128.852 38.1104 128.77 38.2065C128.316 38.3261 127.891 38.534 127.517 38.8185C127.004 39.2071 126.604 39.7261 126.36 40.3217C126.115 40.9172 126.035 41.5674 126.127 42.2045C126.219 42.8417 126.48 43.4425 126.883 43.9445C127.286 44.4464 127.817 44.8312 128.419 45.0586C129.021 45.286 129.673 45.3478 130.308 45.2376C130.942 45.1274 131.535 44.8491 132.025 44.4318C132.516 44.0146 132.885 43.4735 133.095 42.865C133.305 42.2564 133.348 41.6027 133.22 40.9719C133.09 40.308 132.77 39.6962 132.3 39.2105C131.829 38.7248 131.227 38.3861 130.568 38.2354L130.907 37.5801Z" fill="#FAAF3A"/>
<path d="M136.721 44.8301L137.906 52.2426C137.906 52.2426 143.456 57.907 153.593 47.7452C150.869 45.7178 149.833 41.0212 150.151 37.9843C149.429 38.4554 148.749 38.9891 148.121 39.5794C147.85 39.7959 147.566 39.9949 147.27 40.1752C144.59 41.9915 140.485 44.3619 136.721 44.8301Z" fill="#FFC0C0"/>
<path d="M136.721 44.8258L137.283 48.3401C140.324 46.9851 145.699 44.0844 148.121 39.5734C147.857 39.7623 147.573 39.9609 147.27 40.1692C144.59 41.9915 140.485 44.3619 136.721 44.8258Z" fill="#39393B"/>
<path d="M125.401 30.3521C125.558 31.1363 125.71 31.883 125.856 32.5923C126.013 33.3629 126.168 34.0895 126.319 34.7721C127.441 39.9028 128.367 42.6502 129.863 43.6793C137.431 48.8831 149.747 38.346 150.143 38.0064L150.154 37.9962C150.164 37.3928 150.164 36.7935 150.154 36.2088C150.075 31.5803 149.303 26.9898 147.862 22.5906C147.545 20.3803 146.528 18.3297 144.961 16.7391C143.394 15.1485 141.359 14.1015 139.153 13.7515C134.465 13.0459 130.939 15.7593 128.734 16.9594C125.401 18.7681 124.097 23.8103 125.401 30.3521Z" fill="#FFC0C0"/>
<path d="M147.6 17.9298C147.6 17.9298 142.304 7.74419 131.738 10.5861C121.172 13.4281 120.611 18.3358 120.425 20.7896C120.239 23.2435 125.896 18.8967 125.896 18.8967C125.896 18.8967 126.091 23.8044 127.975 22.2919C130.288 20.4381 132.876 16.436 132.876 16.436C132.876 16.436 139.169 22.6204 145.149 20.9522C148.545 20.0057 147.6 17.9298 147.6 17.9298Z" fill="#39393B"/>
<path d="M134.62 40.3436C135.504 40.3163 136.346 39.9607 136.981 39.3461C137.016 39.3106 137.043 39.2687 137.062 39.2226C137.08 39.1766 137.089 39.1274 137.088 39.0779C137.088 39.0283 137.077 38.9794 137.058 38.9338C137.038 38.8883 137.01 38.847 136.974 38.8124C136.939 38.7778 136.897 38.7506 136.851 38.7322C136.805 38.7138 136.756 38.7047 136.706 38.7053C136.657 38.706 136.608 38.7163 136.562 38.7359C136.517 38.7554 136.475 38.7838 136.441 38.8192C136.108 39.1467 135.693 39.3788 135.24 39.4915C134.786 39.6043 134.311 39.5934 133.864 39.4602C133.817 39.4442 133.767 39.4376 133.718 39.4408C133.668 39.4439 133.62 39.4568 133.575 39.4787C133.486 39.5228 133.417 39.6008 133.385 39.6955C133.353 39.7902 133.359 39.8938 133.403 39.9836C133.447 40.0734 133.525 40.142 133.62 40.1743C133.942 40.2856 134.28 40.3429 134.62 40.3436Z" fill="#D96C63"/>
<path d="M137.783 34.1755C137.783 34.1755 132.687 35.6854 130.045 35.6854C130.045 35.6854 131.366 39.4602 135.141 38.1393C135.959 37.866 136.663 37.328 137.142 36.6102C137.62 35.8925 137.846 35.0358 137.783 34.1755Z" fill="white"/>
<path d="M128.325 23.5703C128.325 23.5703 129.65 23.435 129.432 24.7176C129.214 26.0003 126.347 25.2164 124.927 27.7817C124.931 27.786 123.56 25.0921 128.325 23.5703Z" fill="#39393B"/>
<path d="M134.208 22.3778C134.208 22.3778 132.935 22.7693 133.633 23.8664C134.331 24.9636 136.668 23.1251 138.976 24.9389C138.976 24.9389 139.19 21.925 134.208 22.3778Z" fill="#39393B"/>
<path d="M136.505 31.5727C136.627 32.1788 137.974 32.4171 139.513 32.1056C141.051 31.794 142.199 31.0501 142.076 30.4441C141.954 29.8381 140.607 29.5998 139.068 29.9122C137.529 30.2245 136.382 30.9676 136.505 31.5727Z" fill="#D96C63"/>
<path d="M121.471 31.971L125.586 31.2697C125.612 31.4435 125.646 31.6159 125.689 31.7863C125.695 31.8157 125.705 31.8443 125.718 31.8714L121.574 32.5779C121.494 32.5914 121.411 32.5726 121.345 32.5255C121.279 32.4785 121.234 32.407 121.22 32.3268C121.212 32.2868 121.212 32.2456 121.22 32.2057C121.228 32.1657 121.245 32.1279 121.268 32.0946C121.292 32.0613 121.322 32.0331 121.357 32.0118C121.392 31.9906 121.431 31.9767 121.471 31.971Z" fill="white"/>
<path d="M132.556 29.4831V29.4968C132.848 30.8301 133.653 31.9948 134.798 32.7381C135.942 33.4813 137.334 33.7432 138.67 33.4669C140.007 33.1906 141.181 32.3984 141.937 31.2622C142.693 30.126 142.971 28.7375 142.709 27.3979C142.673 27.2174 142.625 27.0392 142.568 26.8642C142.507 26.6675 142.433 26.4753 142.346 26.2888C141.856 25.2233 141.02 24.355 139.974 23.8254C138.927 23.2958 137.733 23.1359 136.584 23.372C136.566 23.375 136.549 23.3789 136.532 23.3839C135.514 23.6028 134.587 24.1258 133.874 24.8836C133.108 25.6915 132.621 26.7242 132.486 27.8294C132.46 28.0371 132.448 28.2464 132.45 28.4558C132.451 28.801 132.486 29.1452 132.556 29.4831ZM133.16 29.3734C133.003 28.6135 133.043 27.8264 133.274 27.0861C133.506 26.3457 133.922 25.6765 134.484 25.1415C134.938 24.7068 135.476 24.3706 136.066 24.154C136.656 23.9374 137.284 23.845 137.911 23.8826C138.785 23.9364 139.626 24.24 140.333 24.7573C141.04 25.2746 141.584 25.984 141.9 26.8012C141.905 26.8148 141.909 26.8284 141.916 26.8429C142.145 27.4545 142.24 28.1079 142.194 28.7591C142.149 29.4104 141.965 30.0445 141.654 30.6186C141.344 31.1928 140.914 31.6937 140.393 32.0878C139.873 32.4818 139.274 32.7598 138.637 32.903C138.611 32.9107 138.587 32.9149 138.561 32.92C137.375 33.1649 136.14 32.929 135.127 32.2643C134.114 31.5995 133.407 30.5601 133.16 29.3742V29.3734Z" fill="white"/>
<path d="M120.569 31.9762C120.766 32.924 121.224 33.7978 121.891 34.4989C122.559 35.2001 123.409 35.7007 124.346 35.9442C124.554 35.9985 124.764 36.0397 124.977 36.0676C125.053 36.0778 125.132 36.0863 125.21 36.0906C125.706 36.1345 126.206 36.1059 126.694 36.0054C126.744 35.9952 126.794 35.985 126.841 35.9706C126.937 35.9501 127.034 35.9237 127.128 35.8957C127.739 35.7146 128.311 35.4214 128.815 35.0309C129.582 34.4365 130.168 33.6388 130.505 32.7282C130.842 31.8177 130.918 30.8309 130.722 29.8798C130.663 29.5851 130.577 29.2963 130.467 29.0167C130.464 29.0054 130.46 28.9942 130.455 28.9835C130.371 28.775 130.272 28.5727 130.159 28.3784C129.753 27.6602 129.181 27.0493 128.491 26.5964C127.801 26.1434 127.013 25.8615 126.192 25.7739C125.904 25.7426 125.614 25.7363 125.325 25.7552C125.081 25.7703 124.838 25.8027 124.599 25.8522C124.467 25.8803 124.338 25.9118 124.211 25.9501C124.027 26.0013 123.847 26.0633 123.67 26.1356C123.521 26.1986 123.378 26.265 123.238 26.3399C122.243 26.8635 121.444 27.6962 120.963 28.7126C120.481 29.7291 120.343 30.8743 120.569 31.9762ZM123.339 26.9808C123.472 26.9021 123.61 26.8311 123.751 26.768C123.93 26.6857 124.114 26.6155 124.302 26.5578C124.437 26.5161 124.578 26.4812 124.721 26.4514C124.915 26.41 125.112 26.3816 125.31 26.3663C125.423 26.3586 125.533 26.3535 125.642 26.3527C126.539 26.3516 127.417 26.615 128.166 27.1098C128.915 27.6047 129.502 28.3091 129.853 29.1352C130.204 29.9613 130.304 30.8725 130.14 31.7551C129.977 32.6377 129.557 33.4526 128.933 34.098C128.861 34.1746 128.783 34.2478 128.705 34.3176C128.16 34.8131 127.503 35.1686 126.79 35.3535C126.763 35.3586 126.734 35.3654 126.705 35.3731L126.568 35.4028C126.082 35.5037 125.582 35.5238 125.088 35.4624C125.022 35.4556 124.958 35.4463 124.892 35.4352C124.666 35.3977 124.443 35.3431 124.225 35.2718C123.88 35.1572 123.549 35.0026 123.24 34.8113C122.382 34.2837 121.723 33.4866 121.367 32.5447C121.315 32.4129 121.271 32.2782 121.235 32.1413C121.207 32.0468 121.184 31.9498 121.164 31.851C120.972 30.9137 121.079 29.9399 121.469 29.0663C121.859 28.1927 122.513 27.4634 123.339 26.9808Z" fill="white"/>
<path d="M148.904 27.2217C148.941 27.2146 148.976 27.2004 149.007 27.18C149.041 27.1583 149.071 27.1301 149.094 27.097C149.118 27.0638 149.134 27.0263 149.143 26.9867C149.151 26.9472 149.152 26.9062 149.145 26.8664C149.138 26.8265 149.123 26.7884 149.101 26.7544C147.04 23.5337 142.086 26.425 142.036 26.4548C141.966 26.4963 141.916 26.564 141.896 26.6428C141.875 26.7217 141.887 26.8053 141.929 26.8753C141.97 26.9453 142.038 26.9959 142.117 27.016C142.196 27.0361 142.279 27.0241 142.349 26.9825C142.395 26.9553 146.841 24.3636 148.582 27.0855C148.616 27.1381 148.665 27.1793 148.722 27.2036C148.779 27.2279 148.843 27.2342 148.904 27.2217Z" fill="white"/>
<path d="M130.224 29.1589C130.264 29.1505 130.301 29.1345 130.335 29.1115C130.368 29.0886 130.397 29.0593 130.419 29.0253C131.078 28.0039 132.488 28.4635 132.502 28.4686C132.579 28.4945 132.663 28.4886 132.736 28.4523C132.809 28.416 132.864 28.3522 132.89 28.275C132.916 28.1978 132.91 28.1135 132.874 28.0406C132.838 27.9678 132.774 27.9123 132.697 27.8864C132.207 27.702 131.67 27.6806 131.167 27.8256C130.664 27.9705 130.221 28.2739 129.904 28.6908C129.871 28.7415 129.854 28.801 129.854 28.8617C129.855 28.9223 129.874 28.9814 129.908 29.0314C129.942 29.0815 129.99 29.1202 130.047 29.1427C130.103 29.1653 130.165 29.1706 130.224 29.1581V29.1589Z" fill="white"/>
<path opacity="0.8" d="M125.859 32.5923C126.017 33.3629 126.171 34.0895 126.322 34.7721C127.722 34.4316 128.73 33.7405 128.615 33.1702C128.499 32.6 127.285 32.3557 125.859 32.5923Z" fill="#D96C63"/>
<path d="M135.423 28.5308C135.593 29.3623 136.104 29.9607 136.571 29.8662C137.038 29.7717 137.277 29.021 137.109 28.1895C136.94 27.3579 136.428 26.7595 135.961 26.854C135.493 26.9485 135.254 27.6992 135.423 28.5308Z" fill="#39393B"/>
<path d="M127.195 30.1973C127.365 31.0297 127.876 31.6272 128.343 31.5336C128.81 31.4399 129.049 30.6884 128.88 29.8568C128.712 29.0253 128.199 28.4269 127.732 28.5214C127.265 28.6159 127.026 29.3657 127.195 30.1973Z" fill="#39393B"/>
<path d="M131.442 32.4307C131.21 32.4803 130.973 32.5029 130.736 32.4979C130.687 32.4953 130.64 32.4827 130.597 32.4609C130.554 32.4392 130.516 32.4087 130.485 32.3714C130.454 32.3341 130.431 32.2909 130.418 32.2444C130.405 32.1979 130.401 32.1492 130.408 32.1013L130.939 28.2175C130.952 28.1258 131 28.0428 131.074 27.9868C131.148 27.9309 131.241 27.9066 131.333 27.9192C131.424 27.9318 131.507 27.9804 131.563 28.0542C131.619 28.1281 131.644 28.2211 131.631 28.3129L131.158 31.7702C131.649 31.6996 132.113 31.4973 132.498 31.1846C132.569 31.1254 132.661 31.097 132.753 31.1056C132.846 31.1141 132.931 31.1589 132.99 31.2301C133.049 31.3013 133.077 31.3931 133.069 31.4853C133.06 31.5775 133.015 31.6625 132.944 31.7217C132.51 32.0784 131.994 32.322 131.442 32.4307Z" fill="#39393B"/>
<path d="M146.752 35.1849C146.81 35.27 148.418 37.5843 150.142 38.0107L150.148 38.0005C150.16 37.3953 150.158 36.797 150.148 36.208C148.943 36.1887 147.767 35.8345 146.752 35.1849Z" fill="#39393B"/>
<path d="M147.105 29.0959C147.105 29.0959 149.525 23.955 152.673 26.968C155.267 29.4542 152.999 37.7613 148.502 35.9833L147.105 29.0959Z" fill="#FFC0C0"/>
<path d="M153.062 33.527C153.795 33.7703 154.452 34.1981 154.972 34.7692C155.491 35.3402 155.855 36.0353 156.028 36.7877C156.195 37.614 156.114 38.4714 155.794 39.2515C155.474 40.0315 154.93 40.6991 154.23 41.1698C153.531 41.6406 152.707 41.8933 151.864 41.896C151.021 41.8988 150.196 41.6514 149.494 41.1853C148.791 40.7191 148.243 40.0551 147.918 39.2771C147.592 38.4992 147.505 37.6423 147.667 36.8149C147.829 35.9875 148.233 35.2266 148.827 34.6287C149.422 34.0307 150.18 33.6224 151.006 33.4555L151.048 33.4486C151.094 33.5659 151.107 33.6932 151.086 33.8173C151.065 33.9414 151.011 34.0575 150.93 34.1534C150.476 34.2731 150.05 34.4814 149.677 34.7662C149.164 35.1548 148.764 35.6739 148.519 36.2694C148.275 36.8649 148.194 37.5151 148.286 38.1523C148.379 38.7894 148.64 39.3903 149.043 39.8922C149.446 40.3942 149.976 40.7789 150.578 41.0063C151.181 41.2337 151.833 41.2956 152.467 41.1853C153.102 41.0751 153.695 40.7969 154.185 40.3796C154.675 39.9623 155.044 39.4212 155.255 38.8127C155.465 38.2042 155.508 37.5504 155.38 36.9196C155.25 36.2558 154.93 35.644 154.459 35.1581C153.989 34.6723 153.388 34.3333 152.728 34.1823L153.062 33.527Z" fill="#FAAF3A"/>
<path d="M148.685 34.55C148.636 34.5591 148.587 34.5581 148.539 34.5471C148.492 34.5362 148.447 34.5154 148.407 34.4862C148.368 34.4571 148.335 34.42 148.311 34.3775C148.287 34.335 148.272 34.288 148.267 34.2393C148.159 33.1012 148.351 31.9547 148.825 30.9144C149.3 29.8741 150.038 28.9764 150.968 28.3111C151.046 28.2624 151.139 28.246 151.228 28.2654C151.318 28.2849 151.396 28.3387 151.446 28.4153C151.496 28.4919 151.514 28.585 151.496 28.6748C151.478 28.7645 151.426 28.8436 151.35 28.895C150.527 29.4903 149.873 30.2904 149.455 31.216C149.036 32.1417 148.866 33.1606 148.962 34.1721C148.971 34.2582 148.947 34.3446 148.896 34.4144C148.845 34.4842 148.769 34.5325 148.685 34.55Z" fill="#39393B"/>
<path d="M151.456 31.828C151.377 31.8444 151.295 31.8329 151.224 31.7957C150.643 31.4552 149.957 31.3412 149.296 31.4756C149.213 31.5136 149.119 31.5176 149.033 31.4867C148.947 31.4558 148.877 31.3924 148.837 31.3103C148.797 31.2281 148.791 31.1337 148.82 31.0472C148.849 30.9607 148.911 30.889 148.993 30.8475C149.968 30.376 151.39 31.0943 151.546 31.1777C151.61 31.2112 151.662 31.2636 151.695 31.3278C151.727 31.3919 151.74 31.4647 151.729 31.5361C151.719 31.6074 151.687 31.6739 151.638 31.7263C151.588 31.7787 151.524 31.8146 151.453 31.8289L151.456 31.828Z" fill="#39393B"/>
<path d="M143.983 20.3794C143.983 20.3794 147.239 29.2253 147.417 31.0067C147.661 33.4359 150.872 25.1109 147.639 17.9962L143.983 20.3794Z" fill="#39393B"/>
<path d="M89.5489 207.92H102.963C102.963 207.92 106.067 193.031 107.109 184.684C108.151 176.338 108.691 156.541 108.691 156.541C108.691 156.541 119.382 160.012 141.76 158.704C191.343 155.81 172.543 119.381 172.543 119.381C170.867 121.696 158.301 124.884 151.288 125.99C129.76 128.055 113.395 131.711 102.191 136.544C99.7055 137.599 97.2999 138.832 94.9928 140.234C92.2913 141.899 90.6009 146.951 89.5829 153.597C86.5222 173.562 89.5489 207.92 89.5489 207.92Z" fill="#39393B"/>
<path d="M101.298 200.745C101.409 200.745 101.516 200.707 101.602 200.636C101.687 200.566 101.746 200.468 101.768 200.36C103.702 190.781 104.353 178.859 104.874 169.28C105.308 161.338 105.716 153.835 106.737 152.933C107.563 152.202 110.992 152.773 115.339 153.493C123.981 154.928 137.043 157.096 151.443 153.749C159.288 151.923 165.054 148.113 168.584 142.423C174.67 132.61 171.896 120.444 171.867 120.322C171.852 120.26 171.826 120.202 171.789 120.151C171.752 120.1 171.706 120.056 171.652 120.023C171.598 119.99 171.539 119.967 171.476 119.957C171.414 119.947 171.35 119.949 171.289 119.964C171.227 119.978 171.169 120.004 171.118 120.041C171.067 120.078 171.023 120.125 170.99 120.178C170.957 120.232 170.934 120.292 170.924 120.354C170.914 120.416 170.916 120.48 170.931 120.542C170.958 120.66 173.64 132.453 167.762 141.922C164.372 147.384 158.808 151.048 151.224 152.817C137.01 156.124 124.063 153.975 115.495 152.553C110.364 151.702 107.268 151.191 106.099 152.22C104.837 153.336 104.482 158.822 103.914 169.235C103.394 178.783 102.746 190.667 100.826 200.177C100.812 200.246 100.814 200.318 100.831 200.387C100.849 200.456 100.881 200.52 100.926 200.575C100.971 200.63 101.027 200.674 101.091 200.705C101.155 200.735 101.225 200.752 101.296 200.752L101.298 200.745Z" fill="#585859"/>
<path d="M89.2919 200.999H89.3021L104.219 200.679C104.282 200.678 104.344 200.664 104.402 200.639C104.46 200.614 104.512 200.577 104.556 200.532C104.599 200.486 104.633 200.433 104.656 200.374C104.679 200.315 104.69 200.252 104.689 200.189C104.688 200.126 104.675 200.064 104.65 200.006C104.625 199.948 104.589 199.895 104.543 199.852C104.498 199.808 104.444 199.774 104.385 199.751C104.326 199.728 104.263 199.718 104.2 199.72L89.2825 200.04C89.1551 200.041 89.0334 200.093 88.9443 200.184C88.8551 200.275 88.8058 200.398 88.8072 200.525C88.8085 200.653 88.8604 200.774 88.9515 200.864C89.0425 200.953 89.1653 201.002 89.2927 201.001L89.2919 200.999Z" fill="#585859"/>
<path d="M89.9175 225.108H99.389L101.213 213.999L102.211 207.921H90.4435L90.2571 213.999L89.9175 225.108Z" fill="#FFC0C0"/>
<path d="M89.9175 225.108H99.389L100.751 216.838L101.216 213.999H90.2571L90.166 216.942L89.9175 225.108Z" fill="#FAAF3A"/>
<path d="M90.1669 216.942L100.744 216.838L101.21 213.999H90.258L90.1669 216.942Z" fill="#C77E2E"/>
<path d="M66.552 240.062H102.365C102.657 239.438 102.817 238.761 102.835 238.073C103.059 235.043 102.095 230.209 101.621 227.161C101.563 226.804 101.513 226.473 101.475 226.172C101.415 225.759 101.379 225.343 101.368 224.926C101.413 224.633 101.386 224.332 101.289 224.051C101.192 223.77 101.028 223.517 100.811 223.314C100.594 223.111 100.331 222.964 100.044 222.886C99.7575 222.807 99.456 222.8 99.1659 222.865C95.5418 226.42 91.4393 221.09 89.0425 222.838C89.0425 222.838 88.9454 222.909 88.7258 223.081C88.5241 223.239 88.2152 223.485 87.7947 223.842C87.1836 224.353 86.3273 225.092 85.1672 226.136C82.3253 228.693 77.49 230.382 73.3721 232.103C72.847 232.322 72.3601 232.542 71.9082 232.76C71.5677 232.925 71.2409 233.092 70.9362 233.257C67.5708 235.074 66.4992 236.81 66.2549 238.073C66.1036 238.75 66.2095 239.459 66.552 240.062Z" fill="#BA68C8"/>
<path d="M70.937 233.257C71.8596 233.992 73.9109 235.46 75.5561 235.46C75.6285 235.46 75.7017 235.46 75.7715 235.451C76.9341 235.354 81.2018 233.257 84.6736 231.349C86.6644 230.254 88.4807 229.179 89.7881 228.315C91.9321 226.903 92.3032 226.364 92.3874 225.988C92.7015 224.576 90.3643 223.591 88.7275 223.081C88.5258 223.239 88.2168 223.485 87.7964 223.842C89.8315 224.396 91.5031 225.266 91.4257 225.761C91.2265 226.18 89.1071 227.796 84.0386 230.57C80.1727 232.686 76.5052 234.4 75.6915 234.465C74.585 234.55 72.9678 233.551 71.9099 232.763C71.5652 232.924 71.2417 233.095 70.937 233.257Z" fill="#8C2C8C"/>
<path d="M66.552 240.062H102.365C102.657 239.438 102.817 238.761 102.835 238.073H66.2583C66.1066 238.749 66.2112 239.458 66.552 240.062Z" fill="#8C2C8C"/>
<path d="M98.7105 240.062H99.7744C99.0907 239.281 98.5686 238.371 98.2381 237.387C97.9077 236.403 97.7755 235.363 97.8492 234.327C97.9493 232.937 98.336 231.583 98.9851 230.349C99.6342 229.116 100.531 228.03 101.621 227.16C101.563 226.805 101.514 226.472 101.475 226.171C100.182 227.115 99.1107 228.331 98.337 229.732C97.5633 231.134 97.1057 232.688 96.9963 234.285C96.8606 236.354 97.4686 238.402 98.7105 240.062Z" fill="#8C2C8C"/>
<path d="M85.775 228.246C85.9188 228.245 86.0575 228.192 86.1649 228.096C86.2723 228.001 86.3411 227.869 86.3585 227.726C86.3758 227.583 86.3405 227.439 86.2591 227.321C86.1776 227.202 86.0558 227.117 85.9163 227.082L83.6795 226.527C83.6039 226.507 83.5251 226.503 83.4476 226.513C83.3702 226.524 83.2957 226.55 83.2284 226.59C83.1611 226.63 83.1024 226.683 83.0557 226.745C83.0091 226.808 82.9753 226.88 82.9565 226.955C82.9376 227.031 82.9341 227.11 82.946 227.187C82.9579 227.265 82.9851 227.339 83.0259 227.406C83.0667 227.472 83.1204 227.53 83.1838 227.576C83.2472 227.622 83.3191 227.654 83.3952 227.672L85.632 228.227C85.6787 228.239 85.7267 228.246 85.775 228.246Z" fill="white"/>
<path d="M87.9981 226.385C88.142 226.384 88.2806 226.331 88.388 226.236C88.4955 226.14 88.5643 226.008 88.5816 225.866C88.599 225.723 88.5636 225.579 88.4822 225.46C88.4008 225.342 88.2789 225.257 88.1394 225.222L85.9027 224.667C85.7518 224.632 85.5931 224.657 85.461 224.738C85.3288 224.819 85.2338 224.949 85.1965 225.099C85.1591 225.249 85.1825 225.408 85.2614 225.542C85.3403 225.675 85.4686 225.772 85.6184 225.811L87.8552 226.367C87.9019 226.379 87.9499 226.385 87.9981 226.385Z" fill="white"/>
<path d="M83.5373 229.552C83.6812 229.552 83.82 229.499 83.9276 229.403C84.0352 229.308 84.1042 229.176 84.1216 229.033C84.1391 228.89 84.1038 228.746 84.0224 228.627C83.9409 228.509 83.819 228.424 83.6795 228.389L81.4427 227.834C81.3671 227.814 81.2883 227.809 81.2108 227.82C81.1334 227.831 81.0588 227.857 80.9916 227.896C80.9243 227.936 80.8656 227.989 80.8189 228.052C80.7722 228.115 80.7385 228.186 80.7197 228.262C80.7008 228.338 80.6972 228.417 80.7092 228.494C80.7211 228.571 80.7482 228.645 80.7891 228.712C80.8299 228.779 80.8836 228.837 80.947 228.882C81.0104 228.928 81.0822 228.961 81.1584 228.979L83.3952 229.533C83.4416 229.546 83.4893 229.552 83.5373 229.552Z" fill="white"/>
<path d="M81.3014 230.797C81.4457 230.798 81.5851 230.745 81.6933 230.65C81.8015 230.554 81.8709 230.422 81.8884 230.279C81.9059 230.136 81.8703 229.991 81.7883 229.873C81.7063 229.754 81.5837 229.669 81.4436 229.635L79.2068 229.079C79.0574 229.048 78.902 229.077 78.7731 229.158C78.6442 229.239 78.5517 229.367 78.5149 229.515C78.4782 229.663 78.5001 229.82 78.5761 229.952C78.652 230.084 78.7762 230.182 78.9225 230.225L81.1593 230.78C81.2058 230.791 81.2535 230.797 81.3014 230.797Z" fill="white"/>
<path d="M78.862 231.953C79.0062 231.953 79.1455 231.901 79.2535 231.805C79.3615 231.71 79.4307 231.578 79.4481 231.435C79.4655 231.291 79.4299 231.147 79.3479 231.028C79.266 230.91 79.1434 230.825 79.0033 230.791L76.7665 230.236C76.6906 230.215 76.6114 230.21 76.5335 230.22C76.4555 230.23 76.3804 230.256 76.3126 230.296C76.2448 230.336 76.1856 230.389 76.1386 230.452C76.0915 230.515 76.0575 230.587 76.0386 230.663C76.0198 230.739 76.0163 230.819 76.0285 230.896C76.0407 230.974 76.0683 231.048 76.1098 231.115C76.1512 231.182 76.2055 231.24 76.2696 231.286C76.3337 231.331 76.4063 231.363 76.4831 231.38L78.7199 231.935C78.7663 231.947 78.8141 231.953 78.862 231.953Z" fill="white"/>
<path d="M76.2166 232.94C76.3605 232.939 76.4991 232.886 76.6065 232.79C76.7139 232.695 76.7828 232.563 76.8001 232.42C76.8175 232.277 76.7821 232.133 76.7007 232.015C76.6193 231.896 76.4974 231.811 76.3579 231.776L74.1211 231.221C74.0455 231.201 73.9667 231.197 73.8893 231.207C73.8118 231.218 73.7373 231.244 73.67 231.284C73.6028 231.324 73.5441 231.377 73.4974 231.439C73.4507 231.502 73.417 231.574 73.3981 231.649C73.3793 231.725 73.3757 231.804 73.3876 231.881C73.3995 231.959 73.4267 232.033 73.4675 232.1C73.5083 232.166 73.562 232.224 73.6254 232.27C73.6888 232.316 73.7607 232.348 73.8368 232.366L76.0736 232.922C76.1204 232.933 76.1684 232.939 76.2166 232.94Z" fill="white"/>
<path d="M40.1317 118.843V121.817C40.1317 123.527 41.1658 124.915 42.4426 124.915H203.146C204.423 124.915 205.455 123.528 205.455 121.817V118.843C205.455 117.132 204.422 115.746 203.146 115.746H42.4426C41.1658 115.746 40.1317 117.132 40.1317 118.843Z" fill="#262626"/>
<path d="M205.456 119.785H40.1317V121.146H205.456V119.785Z" fill="black"/>
<path d="M44.9603 132.557H196.022C196.347 132.557 196.658 132.428 196.888 132.199C197.117 131.969 197.246 131.658 197.246 131.333V124.878H43.7363V131.333C43.7366 131.658 43.8656 131.969 44.0951 132.198C44.3245 132.428 44.6357 132.557 44.9603 132.557Z" fill="black"/>
<path d="M186.838 170.469H51.7463V175.734H186.838V170.469Z" fill="black"/>
<path d="M196.579 241L170.424 132.558H179.61L205.764 240.999L196.579 241Z" fill="#262626"/>
<path d="M42.1855 241L68.3402 132.559H59.1547L33 241H42.1855Z" fill="#262626"/>
<path d="M187.502 112.195L190.338 112.629L193.614 91.2487L190.778 90.8141L187.502 112.195Z" fill="#FAAF3A"/>
<path d="M190.777 90.8138L193.613 91.2479L192.99 89.0817L192.666 87.9608L192.022 88.9336L190.777 90.8138Z" fill="#FFC0C0"/>
<path d="M187.502 112.195L190.338 112.629L190.576 111.076L187.74 110.642L187.502 112.195Z" fill="#39393B"/>
<path d="M187.501 113.463L189.959 113.839C190.009 113.846 190.06 113.834 190.101 113.804C190.142 113.774 190.169 113.73 190.177 113.68L190.337 112.629L187.501 112.195L187.341 113.245C187.338 113.27 187.339 113.295 187.345 113.319C187.351 113.344 187.361 113.367 187.376 113.387C187.391 113.407 187.41 113.424 187.431 113.437C187.453 113.45 187.477 113.459 187.501 113.463Z" fill="#DF615C"/>
<path d="M192.022 88.9336L192.99 89.0817L192.666 87.9608L192.022 88.9336Z" fill="#39393B"/>
<path d="M187.911 109.527L187.74 110.641L190.577 111.075L190.747 109.961L187.911 109.527Z" fill="#C77E2E"/>
<path d="M192.749 92.1943L190.323 108.025C190.319 108.054 190.309 108.081 190.294 108.106C190.279 108.13 190.26 108.152 190.236 108.169C190.213 108.186 190.187 108.198 190.159 108.205C190.131 108.212 190.102 108.213 190.074 108.208C190.045 108.204 190.018 108.194 189.993 108.18C189.968 108.165 189.947 108.145 189.93 108.122C189.913 108.099 189.9 108.072 189.894 108.045C189.887 108.017 189.885 107.988 189.89 107.959L192.315 92.1279C192.324 92.0706 192.356 92.0191 192.402 91.9848C192.449 91.9504 192.508 91.9361 192.565 91.9449C192.593 91.9491 192.621 91.959 192.645 91.9738C192.67 91.9887 192.691 92.0083 192.709 92.0314C192.726 92.0546 192.738 92.0809 192.745 92.1089C192.752 92.1368 192.753 92.1658 192.749 92.1943Z" fill="#C77E2E"/>
<path d="M191.638 92.0224L189.213 107.854C189.204 107.911 189.173 107.963 189.126 107.997C189.079 108.031 189.021 108.046 188.964 108.037C188.935 108.033 188.908 108.023 188.883 108.008C188.858 107.994 188.837 107.974 188.82 107.951C188.803 107.928 188.79 107.901 188.784 107.874C188.777 107.846 188.775 107.817 188.78 107.788L191.205 91.9569C191.214 91.8994 191.245 91.8478 191.292 91.8134C191.339 91.779 191.397 91.7645 191.455 91.773C191.512 91.782 191.563 91.8133 191.598 91.86C191.632 91.9067 191.646 91.9651 191.638 92.0224Z" fill="#C77E2E"/>
<path d="M185.65 90.9125L185.579 112.542L188.449 112.552L188.52 90.922L185.65 90.9125Z" fill="#262626"/>
<path d="M185.652 90.9125L188.521 90.9218L187.585 88.8723L187.099 87.8118L186.606 88.8689L185.652 90.9125Z" fill="#FFC0C0"/>
<path d="M185.58 112.542L188.449 112.552L188.454 110.981L185.585 110.971L185.58 112.542Z" fill="#39393B"/>
<path d="M185.766 113.795L188.254 113.803C188.279 113.803 188.304 113.798 188.327 113.789C188.35 113.779 188.371 113.765 188.389 113.748C188.407 113.73 188.421 113.709 188.431 113.686C188.44 113.663 188.445 113.638 188.445 113.613V112.552L185.576 112.542V113.604C185.576 113.629 185.581 113.654 185.59 113.677C185.6 113.7 185.614 113.721 185.631 113.739C185.649 113.757 185.67 113.771 185.693 113.781C185.716 113.79 185.741 113.795 185.766 113.795Z" fill="#DF615C"/>
<path d="M186.602 88.8698H187.581L187.095 87.8093L186.602 88.8698Z" fill="#39393B"/>
<path d="M185.588 109.844L185.585 110.97L188.454 110.98L188.458 109.853L185.588 109.844Z" fill="black"/>
<path d="M187.802 91.9858L187.75 108.003C187.75 108.061 187.727 108.117 187.685 108.158C187.644 108.199 187.588 108.222 187.53 108.222C187.472 108.222 187.417 108.199 187.376 108.157C187.335 108.116 187.312 108.061 187.312 108.002L187.364 91.9849C187.364 91.9269 187.387 91.8714 187.428 91.8304C187.47 91.7895 187.525 91.7664 187.583 91.7661C187.641 91.7664 187.697 91.7896 187.738 91.8308C187.779 91.8719 187.802 91.9277 187.802 91.9858Z" fill="black"/>
<path d="M186.68 91.9798L186.628 107.997C186.628 108.056 186.605 108.111 186.563 108.152C186.522 108.193 186.467 108.216 186.408 108.216C186.38 108.216 186.351 108.21 186.325 108.199C186.298 108.188 186.274 108.172 186.253 108.152C186.233 108.131 186.217 108.107 186.206 108.081C186.195 108.054 186.19 108.025 186.19 107.997L186.242 91.979C186.242 91.9502 186.247 91.9217 186.258 91.8951C186.269 91.8685 186.286 91.8443 186.306 91.824C186.326 91.8037 186.351 91.7876 186.377 91.7766C186.404 91.7657 186.432 91.7601 186.461 91.7602C186.519 91.7605 186.575 91.7837 186.616 91.8249C186.657 91.866 186.68 91.9217 186.68 91.9798Z" fill="black"/>
<path d="M183.541 90.8137L180.7 91.2173L183.742 112.632L186.583 112.229L183.541 90.8137Z" fill="#BA68C8"/>
<path d="M180.7 91.2183L183.541 90.8148L182.318 88.9219L181.684 87.9422L181.348 89.0598L180.7 91.2183Z" fill="#FFC0C0"/>
<path d="M183.742 112.633L186.583 112.229L186.362 110.674L183.521 111.077L183.742 112.633Z" fill="#39393B"/>
<path d="M184.109 113.846L186.572 113.497C186.597 113.493 186.621 113.485 186.642 113.472C186.664 113.459 186.683 113.442 186.698 113.422C186.713 113.402 186.724 113.379 186.73 113.355C186.736 113.331 186.737 113.305 186.734 113.28L186.585 112.23L183.744 112.634L183.893 113.685C183.901 113.735 183.928 113.78 183.968 113.81C184.008 113.84 184.059 113.853 184.109 113.846Z" fill="#DF615C"/>
<path d="M181.348 89.0587L182.317 88.9209L181.683 87.9412L181.348 89.0587Z" fill="#39393B"/>
<path d="M186.203 109.557L183.362 109.961L183.521 111.077L186.362 110.673L186.203 109.557Z" fill="#8C2C8C"/>
<path d="M182.984 91.9696L185.237 107.829C185.245 107.886 185.23 107.945 185.195 107.991C185.16 108.038 185.108 108.069 185.051 108.077C184.993 108.085 184.935 108.07 184.888 108.035C184.842 108 184.811 107.949 184.802 107.891L182.549 92.0317C182.541 91.9742 182.557 91.9158 182.592 91.8694C182.626 91.823 182.678 91.7923 182.736 91.7841C182.793 91.7758 182.852 91.7907 182.898 91.8255C182.945 91.8602 182.976 91.9121 182.984 91.9696Z" fill="#8C2C8C"/>
<path d="M181.869 92.1262L184.122 107.986C184.13 108.043 184.115 108.102 184.08 108.148C184.046 108.195 183.994 108.226 183.936 108.234C183.878 108.242 183.82 108.227 183.774 108.192C183.727 108.157 183.697 108.105 183.688 108.048L181.44 92.185C181.432 92.1274 181.447 92.0691 181.482 92.0226C181.517 91.9762 181.568 91.9455 181.626 91.9373C181.654 91.9337 181.683 91.9358 181.711 91.9433C181.738 91.9509 181.764 91.9638 181.787 91.9814C181.809 91.9989 181.828 92.0207 181.843 92.0456C181.857 92.0705 181.866 92.0979 181.869 92.1262Z" fill="#8C2C8C"/>
<path d="M179.769 99.4682L179.918 100.628L180.054 101.681L180.261 103.282L180.394 104.323L180.603 105.94L180.737 106.968L180.946 108.595L181.077 109.609L181.289 111.249L181.417 112.251L181.631 113.904L181.76 114.893L181.869 115.744H193.144L193.254 114.893L193.383 113.904L193.596 112.251L193.725 111.249L193.937 109.609L194.068 108.595L194.277 106.968L194.411 105.94L194.619 104.323L194.753 103.282L194.96 101.681L195.096 100.628L195.245 99.4682H179.769Z" fill="#DF615C"/>
<path d="M179.919 100.628L180.055 101.681H194.962L195.098 100.628H179.919Z" fill="#B11722"/>
<path d="M180.261 103.282L180.394 104.323H194.619L194.753 103.282H180.261Z" fill="#B11722"/>
<path d="M180.603 105.934L180.737 106.963H194.278L194.412 105.934H180.603Z" fill="#B11722"/>
<path d="M180.946 108.592L181.077 109.606H193.938L194.069 108.592H180.946Z" fill="#B11722"/>
<path d="M181.289 111.246L181.417 112.248H193.596L193.725 111.246H181.289Z" fill="#B11722"/>
<path d="M181.631 113.901L181.76 114.89H193.255L193.384 113.901H181.631Z" fill="#B11722"/>
<path d="M41.0679 58.2375L50.6858 98.8998L50.9411 99.9689L51.588 102.708C51.7234 103.283 52.0493 103.796 52.5128 104.163C52.9763 104.53 53.5502 104.73 54.1414 104.73H118.914C119.31 104.73 119.702 104.64 120.058 104.466C120.415 104.293 120.728 104.042 120.973 103.731C121.219 103.42 121.391 103.057 121.477 102.67C121.562 102.283 121.559 101.881 121.467 101.496L110.952 57.0255C110.816 56.4503 110.49 55.9378 110.026 55.571C109.563 55.2043 108.989 55.0048 108.398 55.0049H43.6264C43.2297 55.0043 42.838 55.0936 42.4807 55.2662C42.1234 55.4387 41.8099 55.69 41.5637 56.0011C41.3174 56.3122 41.1449 56.675 41.0591 57.0624C40.9732 57.4497 40.9762 57.8515 41.0679 58.2375Z" fill="#39393B"/>
<path d="M50.6791 98.8962L50.9344 99.9652H118.191V98.8962H50.6791Z" fill="#585859"/>
<path d="M92.8079 65.0703C93.1105 66.5061 93.8844 67.7996 95.0064 68.7453C96.1285 69.6909 97.5344 70.2345 99.0008 70.2894C99.6526 70.3136 100.301 70.1861 100.895 69.9169C101.489 69.6477 102.013 69.2442 102.424 68.7381C102.836 68.2321 103.124 67.6374 103.267 67.0009C103.409 66.3644 103.402 65.7035 103.245 65.0703C102.943 63.6346 102.169 62.3412 101.047 61.3957C99.9246 60.4503 98.5188 59.9069 97.0525 59.8519C96.4008 59.8278 95.7524 59.9553 95.1584 60.2244C94.5643 60.4936 94.0409 60.897 93.6294 61.403C93.2179 61.9089 92.9295 62.5035 92.7869 63.1399C92.6443 63.7763 92.6515 64.4371 92.8079 65.0703Z" fill="#FAAF3A"/>
<path d="M98.7021 64.0752C98.8102 64.6522 99.1004 65.1195 99.3506 65.1195C99.6009 65.1195 99.7175 64.6522 99.606 64.0752C99.4945 63.4981 99.2085 63.0317 98.9574 63.0317C98.7063 63.0317 98.5948 63.4955 98.7021 64.0752Z" fill="#39393B"/>
<path d="M95.9793 64.0752C96.0865 64.6523 96.3776 65.1196 96.6278 65.1196C96.8781 65.1196 96.9947 64.6523 96.8832 64.0752C96.7717 63.4981 96.4857 63.0317 96.2346 63.0317C95.9835 63.0317 95.872 63.4956 95.9793 64.0752Z" fill="#39393B"/>
<path d="M98.456 67.6118C99.0662 67.6188 99.6545 67.3847 100.093 66.9602C100.531 66.5357 100.784 65.9552 100.797 65.3452C100.795 65.2816 100.772 65.2204 100.731 65.1715C100.691 65.1226 100.635 65.0887 100.573 65.0754C100.546 65.0673 100.517 65.0655 100.489 65.0702C100.462 65.0748 100.435 65.0858 100.412 65.1022C100.389 65.1186 100.371 65.1401 100.357 65.165C100.344 65.1898 100.336 65.2174 100.335 65.2456C100.333 65.5003 100.281 65.7521 100.181 65.9863C100.08 66.2206 99.9349 66.4326 99.7522 66.6102C99.5696 66.7878 99.3535 66.9273 99.1166 67.0208C98.8796 67.1143 98.6265 67.1598 98.3718 67.1547C97.7913 67.1207 97.2323 66.9235 96.759 66.5857C96.2858 66.248 95.9175 65.7834 95.6966 65.2456C95.673 65.1872 95.6302 65.1386 95.5753 65.1077C95.5204 65.0767 95.4567 65.0653 95.3945 65.0754C95.3668 65.082 95.3409 65.0949 95.3189 65.113C95.2969 65.1311 95.2793 65.1539 95.2674 65.1798C95.2555 65.2057 95.2497 65.234 95.2503 65.2625C95.2509 65.291 95.258 65.319 95.2711 65.3443C95.5392 65.9806 95.9792 66.5297 96.5417 66.9301C97.1042 67.3306 97.767 67.5666 98.456 67.6118Z" fill="#39393B"/>
<path d="M62.8656 89.4341C62.8086 92.1339 58.2363 95.5138 58.2363 95.5138C58.2363 95.5138 52.9243 92.1339 52.2783 89.4341C51.5778 86.5079 54.9168 85.6108 57.3945 87.8169C59.3887 85.6099 62.932 86.507 62.8656 89.4341Z" fill="#DF615C"/>
<path d="M72.5413 81.607C72.7174 82.9854 73.3821 84.2549 74.4146 85.1848C75.4471 86.1147 76.779 86.6434 78.1682 86.6747C78.8134 86.6895 79.454 86.5638 80.0458 86.3063C80.6376 86.0489 81.1663 85.6659 81.5954 85.1839C82.0245 84.7019 82.3437 84.1323 82.5308 83.5147C82.718 82.8971 82.7686 82.2462 82.6792 81.607C82.5031 80.2287 81.8385 78.9593 80.8059 78.0293C79.7734 77.0994 78.4415 76.5707 77.0524 76.5394C76.4072 76.5246 75.7665 76.6503 75.1747 76.9078C74.583 77.1652 74.0542 77.5482 73.6251 78.0302C73.196 78.5122 72.8769 79.0818 72.6897 79.6994C72.5026 80.317 72.4519 80.9679 72.5413 81.607Z" fill="#585859"/>
<path d="M105.829 55.0072L117.025 104.73H118.911C119.307 104.73 119.698 104.64 120.055 104.467C120.412 104.294 120.725 104.042 120.97 103.731C121.216 103.42 121.388 103.057 121.473 102.67C121.559 102.283 121.556 101.881 121.464 101.496L110.95 57.0253C110.814 56.4502 110.488 55.9379 110.024 55.5711C109.561 55.2042 108.987 55.0044 108.396 55.0038L105.829 55.0072Z" fill="#585859"/>
<path d="M87.0687 104.73L89.0339 115.779H82.544L80.5762 104.73H87.0687Z" fill="white"/>
<path d="M98.7479 113.879L97.4193 112.011C97.1854 111.683 96.8764 111.415 96.518 111.23C96.1595 111.045 95.762 110.948 95.3587 110.948H77.5647C77.1029 110.948 76.65 111.075 76.2549 111.314C75.8599 111.553 75.5378 111.896 75.3237 112.305L74.4274 114.019C74.3316 114.203 74.2846 114.408 74.2911 114.615C74.2976 114.822 74.3574 115.023 74.4646 115.2C74.5718 115.377 74.7229 115.524 74.9032 115.625C75.0835 115.727 75.287 115.78 75.4939 115.78H97.7665C97.9876 115.78 98.2044 115.72 98.3932 115.605C98.582 115.49 98.7355 115.325 98.8369 115.129C98.9383 114.932 98.9836 114.712 98.9679 114.491C98.9522 114.271 98.8761 114.059 98.7479 113.879Z" fill="white"/>
<path d="M135.82 115.775H82.3686L81.7882 113.758C81.7032 113.463 81.6881 113.151 81.744 112.849C81.7999 112.547 81.9253 112.262 82.1102 112.016C82.2952 111.771 82.5347 111.571 82.8098 111.434C83.0849 111.297 83.3882 111.226 83.6956 111.226H133.017C133.448 111.226 133.867 111.366 134.211 111.625C134.555 111.884 134.806 112.247 134.925 112.661L135.82 115.775Z" fill="white"/>
<path d="M66.0216 41.7325L89.0884 41.7164C90.1639 41.7156 91.0352 40.8431 91.0344 39.7676L91.0247 25.8166C91.0239 24.7411 90.1514 23.8698 89.0759 23.8705L66.0092 23.8867C64.9336 23.8874 64.0624 24.7599 64.0631 25.8354L64.0729 39.7864C64.0736 40.862 64.9461 41.7332 66.0216 41.7325Z" fill="#DF615C"/>
<path d="M67.1426 39.0518L69.3002 47.1929L73.0682 39.5412L67.1426 39.0518Z" fill="#DF615C"/>
<path d="M71.5779 31.4826C72.0597 34.5331 77.7529 38.3504 77.7529 38.3504C77.7529 38.3504 83.2334 34.5263 83.5407 31.4749C83.8811 28.1674 79.9659 27.1554 77.5061 29.6509C74.9152 27.1588 71.0553 28.1759 71.5779 31.4826Z" fill="white"/>
</svg>
