<svg width="20" height="20" viewBox="0 0 20 20" fill="none" xmlns="http://www.w3.org/2000/svg">
<path d="M17 20H3C2.20435 20 1.44129 19.6839 0.87868 19.1213C0.31607 18.5587 0 17.7956 0 17L0 5C0 4.20435 0.31607 3.44129 0.87868 2.87868C1.44129 2.31607 2.20435 2 3 2H4V1C4 0.734784 4.10536 0.48043 4.29289 0.292893C4.48043 0.105357 4.73478 0 5 0C5.26522 0 5.51957 0.105357 5.70711 0.292893C5.89464 0.48043 6 0.734784 6 1V2H14V1C14 0.734784 14.1054 0.48043 14.2929 0.292893C14.4804 0.105357 14.7348 0 15 0C15.2652 0 15.5196 0.105357 15.7071 0.292893C15.8946 0.48043 16 0.734784 16 1V2H17C17.7956 2 18.5587 2.31607 19.1213 2.87868C19.6839 3.44129 20 4.20435 20 5V17C20 17.7956 19.6839 18.5587 19.1213 19.1213C18.5587 19.6839 17.7956 20 17 20ZM2 8V17C2 17.2652 2.10536 17.5196 2.29289 17.7071C2.48043 17.8946 2.73478 18 3 18H17C17.2652 18 17.5196 17.8946 17.7071 17.7071C17.8946 17.5196 18 17.2652 18 17V8H2ZM3 4C2.73478 4 2.48043 4.10536 2.29289 4.29289C2.10536 4.48043 2 4.73478 2 5V6H18V5C18 4.73478 17.8946 4.48043 17.7071 4.29289C17.5196 4.10536 17.2652 4 17 4H3ZM15 16C14.8022 16 14.6089 15.9414 14.4444 15.8315C14.28 15.7216 14.1518 15.5654 14.0761 15.3827C14.0004 15.2 13.9806 14.9989 14.0192 14.8049C14.0578 14.6109 14.153 14.4327 14.2929 14.2929C14.4327 14.153 14.6109 14.0578 14.8049 14.0192C14.9989 13.9806 15.2 14.0004 15.3827 14.0761C15.5654 14.1518 15.7216 14.28 15.8315 14.4444C15.9414 14.6089 16 14.8022 16 15C16 15.2652 15.8946 15.5196 15.7071 15.7071C15.5196 15.8946 15.2652 16 15 16ZM10 16C9.80222 16 9.60888 15.9414 9.44443 15.8315C9.27998 15.7216 9.15181 15.5654 9.07612 15.3827C9.00043 15.2 8.98063 14.9989 9.01921 14.8049C9.0578 14.6109 9.15304 14.4327 9.29289 14.2929C9.43275 14.153 9.61093 14.0578 9.80491 14.0192C9.99889 13.9806 10.2 14.0004 10.3827 14.0761C10.5654 14.1518 10.7216 14.28 10.8315 14.4444C10.9414 14.6089 11 14.8022 11 15C11 15.2652 10.8946 15.5196 10.7071 15.7071C10.5196 15.8946 10.2652 16 10 16ZM5 16C4.80222 16 4.60888 15.9414 4.44443 15.8315C4.27998 15.7216 4.15181 15.5654 4.07612 15.3827C4.00043 15.2 3.98063 14.9989 4.01921 14.8049C4.0578 14.6109 4.15304 14.4327 4.29289 14.2929C4.43275 14.153 4.61093 14.0578 4.80491 14.0192C4.99889 13.9806 5.19996 14.0004 5.38268 14.0761C5.56541 14.1518 5.72159 14.28 5.83147 14.4444C5.94135 14.6089 6 14.8022 6 15C6 15.2652 5.89464 15.5196 5.70711 15.7071C5.51957 15.8946 5.26522 16 5 16ZM15 12C14.8022 12 14.6089 11.9414 14.4444 11.8315C14.28 11.7216 14.1518 11.5654 14.0761 11.3827C14.0004 11.2 13.9806 10.9989 14.0192 10.8049C14.0578 10.6109 14.153 10.4327 14.2929 10.2929C14.4327 10.153 14.6109 10.0578 14.8049 10.0192C14.9989 9.98063 15.2 10.0004 15.3827 10.0761C15.5654 10.1518 15.7216 10.28 15.8315 10.4444C15.9414 10.6089 16 10.8022 16 11C16 11.2652 15.8946 11.5196 15.7071 11.7071C15.5196 11.8946 15.2652 12 15 12ZM10 12C9.80222 12 9.60888 11.9414 9.44443 11.8315C9.27998 11.7216 9.15181 11.5654 9.07612 11.3827C9.00043 11.2 8.98063 10.9989 9.01921 10.8049C9.0578 10.6109 9.15304 10.4327 9.29289 10.2929C9.43275 10.153 9.61093 10.0578 9.80491 10.0192C9.99889 9.98063 10.2 10.0004 10.3827 10.0761C10.5654 10.1518 10.7216 10.28 10.8315 10.4444C10.9414 10.6089 11 10.8022 11 11C11 11.2652 10.8946 11.5196 10.7071 11.7071C10.5196 11.8946 10.2652 12 10 12ZM5 12C4.80222 12 4.60888 11.9414 4.44443 11.8315C4.27998 11.7216 4.15181 11.5654 4.07612 11.3827C4.00043 11.2 3.98063 10.9989 4.01921 10.8049C4.0578 10.6109 4.15304 10.4327 4.29289 10.2929C4.43275 10.153 4.61093 10.0578 4.80491 10.0192C4.99889 9.98063 5.19996 10.0004 5.38268 10.0761C5.56541 10.1518 5.72159 10.28 5.83147 10.4444C5.94135 10.6089 6 10.8022 6 11C6 11.2652 5.89464 11.5196 5.70711 11.7071C5.51957 11.8946 5.26522 12 5 12Z" fill="#8C2C8C"/>
</svg>
