<svg width="66" height="66" viewBox="0 0 66 66" fill="none" xmlns="http://www.w3.org/2000/svg">
<g clip-path="url(#clip0_1_20528)">
<path d="M17.6964 5.3075C13.2951 5.3075 9.68018 8.92242 9.68018 13.3237V45.3887C9.68018 49.7901 13.2951 53.405 17.6964 53.405H41.0164C45.4177 53.405 49.0327 49.7901 49.0327 45.3887V13.3237C49.0327 8.92242 45.4177 5.3075 41.0164 5.3075H17.6964ZM17.6964 9.68H41.0164C43.0543 9.68 44.6602 11.2858 44.6602 13.3237V45.3887C44.6602 47.4267 43.0543 49.0325 41.0164 49.0325H17.6964C15.6585 49.0325 14.0527 47.4267 14.0527 45.3887V13.3237C14.0527 11.2858 15.6585 9.68 17.6964 9.68ZM51.9477 12.595V46.8462C51.9477 52.0787 47.7063 56.32 42.4739 56.32H16.9677L18.1519 58.0963C19.2319 59.7185 21.0525 60.6925 23.0026 60.6925H42.4739C50.1214 60.6925 56.3202 54.4937 56.3202 46.8462V18.63C56.3202 16.6813 55.3462 14.8607 53.724 13.7792L51.9477 12.595ZM29.3564 14.0525C24.9551 14.0525 21.3402 17.6674 21.3402 22.0687V22.7149C21.329 23.5034 21.7433 24.2367 22.4243 24.6342C23.1053 25.0317 23.9476 25.0317 24.6286 24.6342C25.3096 24.2367 25.7238 23.5034 25.7127 22.7149V22.0687C25.7127 20.0308 27.3185 18.425 29.3564 18.425C31.3943 18.425 33.0002 20.0308 33.0002 22.0687C33.0002 23.5521 32.7324 24.2229 32.4308 24.6962C32.1293 25.1695 31.6787 25.5391 30.9449 26.0996C30.211 26.6602 29.1976 27.4157 28.4113 28.6787C27.6251 29.9418 27.1702 31.6154 27.1702 33.7287C27.159 34.5172 27.5733 35.2506 28.2543 35.648C28.9353 36.0455 29.7776 36.0455 30.4586 35.648C31.1396 35.2506 31.5538 34.5172 31.5427 33.7287C31.5427 32.1984 31.8165 31.4832 32.1234 30.9902C32.4303 30.4972 32.8743 30.1282 33.598 29.5754C34.3217 29.0226 35.3286 28.2899 36.1201 27.0476C36.9117 25.8053 37.3727 24.1483 37.3727 22.0687C37.3727 17.6674 33.7577 14.0525 29.3564 14.0525ZM29.3564 38.83C27.7465 38.83 26.4414 40.1351 26.4414 41.745C26.4414 43.3549 27.7465 44.66 29.3564 44.66C30.9663 44.66 32.2714 43.3549 32.2714 41.745C32.2714 40.1351 30.9663 38.83 29.3564 38.83Z" fill="#8C2C8C"/>
</g>
<defs>
<clipPath id="clip0_1_20528">
<rect width="66" height="66" fill="white"/>
</clipPath>
</defs>
</svg>
